<svg id="Capa_1" enable-background="new 0 0 501 501" height="512" viewBox="0 0 501 501" width="512" xmlns="http://www.w3.org/2000/svg"><g><path d="m494.855 238.093h-488.71c9.17-126.949 115.068-227.093 244.355-227.093s235.185 100.144 244.355 227.093z" fill="#002c5d"/><path d="m5.5 256c0-7.87.371-15.653 1.097-23.333h487.806c.726 7.68 1.097 15.463 1.097 23.333 0 55.775-18.637 107.196-50.024 148.377-2.489 3.266-16.013 6.468-18.66 9.602-13.577 16.078-29.188 30.385-46.435 42.522h-259.762c-18.313-12.887-34.781-28.22-48.929-45.523-1.773-2.169-14.465-4.369-16.165-6.599-31.387-41.182-50.025-92.604-50.025-148.379z" fill="#463b83"/><path d="m125.619 25c0 13.807-11.193 25-25 25s-25-11.193-25-25 11.193-25 25-25 25 11.193 25 25zm274.762-25c-13.807 0-25 11.193-25 25s11.193 25 25 25 25-11.193 25-25-11.193-25-25-25z" fill="#c98001"/><path d="m125.619 25c0 3.126-.574 6.119-1.622 8.878-2.759 1.048-5.751 1.622-8.878 1.622-13.807 0-25-11.193-25-25 0-3.126.574-6.119 1.622-8.878 2.759-1.048 5.751-1.622 8.878-1.622 13.807 0 25 11.193 25 25zm274.762-25c-3.127 0-6.119.574-8.878 1.622-1.048 2.759-1.622 5.751-1.622 8.878 0 13.807 11.193 25 25 25 3.127 0 6.119-.574 8.878-1.622 1.048-2.759 1.622-5.751 1.622-8.878 0-13.807-11.193-25-25-25z" fill="#f19b0b"/><path d="m125.619 56v353.333c0 5.523-4.477 10-10 10h-30c-5.523 0-10-4.477-10-10v-353.333c0-5.523 4.477-10 10-10h30c5.523 0 10 4.477 10 10zm289.762-10h-30c-5.523 0-10 4.477-10 10v353.333c0 5.523 4.477 10 10 10h30c5.523 0 10-4.477 10-10v-353.333c0-5.523-4.477-10-10-10z" fill="#d98800"/><path d="m125.619 56v284c0 5.523-4.477 10-10 10h-11c-5.523 0-10-4.477-10-10v-284c0-5.523 4.477-10 10-10h11c5.523 0 10 4.477 10 10zm289.762-10h-11c-5.523 0-10 4.477-10 10v270c0 5.523 4.477 10 10 10h11c5.523 0 10-4.477 10-10v-270c0-5.523-4.477-10-10-10z" fill="#fda800"/><path d="m131.66 450h198.798c20.313 0 25.424 28.178 6.415 35.341-26.862 10.121-55.971 15.659-86.373 15.659-45.11 0-87.373-12.192-123.673-33.46-8.269-4.844-4.751-17.54 4.833-17.54z" fill="#9d5528"/><path d="m277.667 498.718c-.444-.061-.888-.123-1.331-.186-29.896-4.265-26.582-48.532 3.617-48.532h89.005c9.701 0 13.243 12.855 4.865 17.745-27.046 15.786-57.39 26.538-89.747 30.973-2.125.291-4.285.291-6.409 0z" fill="#ab5e2e"/><path d="m415.5 50-41.026 57.437c-5.632 7.884-14.724 12.563-24.413 12.563h-199.122c-9.689 0-18.781-4.679-24.412-12.563l-41.027-57.437z" fill="#e43950"/><path d="m290.141 197.682-75.036-27.742c-15.54-5.745-23.481-23.001-17.735-38.542 5.745-15.54 23.001-23.481 38.542-17.735l75.036 27.742c15.54 5.745 23.481 23.001 17.735 38.542-5.746 15.54-23.002 23.48-38.542 17.735z" fill="#968dca"/><path d="m330.366 172.866-45.432-16.797c-13.204-4.882-20.921-18.073-19.419-31.461l45.432 16.797c13.204 4.882 20.921 18.073 19.419 31.461z" fill="#c1bbdf"/><path d="m215.105 169.94c-15.54-5.745-23.481-23.001-17.735-38.542 5.745-15.54 23.001-23.481 38.542-17.735 15.54 5.745 23.481 23.001 17.735 38.542-5.746 15.54-23.002 23.481-38.542 17.735z" fill="#c1bbdf"/><path d="m244.267 148.737c-3.83 10.36-15.334 15.654-25.694 11.824s-15.654-15.334-11.824-25.694 15.334-15.654 25.694-11.824c10.361 3.83 15.654 15.334 11.824 25.694z" fill="#463b83"/><path d="m312.048 164.338c.393-3.196 3.684-5.172 6.705-4.055 2.188.809 3.536 3.019 3.242 5.333-.45 3.544-1.338 7.2-2.692 10.862-1.354 3.663-3.058 7.016-5.021 10.001-1.282 1.949-3.743 2.751-5.932 1.942-3.02-1.117-4.235-4.758-2.454-7.441 1.574-2.373 2.951-5.057 4.028-7.969s1.776-5.846 2.124-8.673zm-52.657-10.009c-1.077 2.912-2.454 5.596-4.028 7.969-1.78 2.683-.566 6.325 2.454 7.441 2.188.809 4.649.008 5.932-1.942 1.964-2.985 3.667-6.339 5.022-10.001 1.354-3.663 2.242-7.318 2.692-10.862.294-2.315-1.054-4.524-3.242-5.333-3.02-1.117-6.311.859-6.705 4.055-.348 2.827-1.048 5.76-2.125 8.673zm15.271 21.638c2.188.809 4.649.008 5.932-1.942 1.964-2.985 3.667-6.339 5.022-10.001 1.354-3.663 2.242-7.318 2.692-10.862.294-2.315-1.054-4.524-3.242-5.333-3.02-1.117-6.311.859-6.705 4.055-.348 2.827-1.048 5.76-2.125 8.673-1.077 2.912-2.454 5.596-4.028 7.969-1.781 2.683-.567 6.324 2.454 7.441zm16.844 6.227c2.188.809 4.649.008 5.932-1.942 1.964-2.985 3.667-6.339 5.022-10.001 1.354-3.663 2.242-7.318 2.692-10.862.294-2.315-1.054-4.524-3.242-5.333-3.02-1.117-6.311.859-6.705 4.055-.348 2.827-1.048 5.76-2.125 8.673-1.077 2.912-2.454 5.596-4.028 7.969-1.781 2.683-.567 6.325 2.454 7.441zm18.591-41.103c-.538 2.053-.932 4.088-1.186 6.089-.294 2.314 1.054 4.524 3.242 5.333 3.02 1.117 6.311-.859 6.705-4.055.097-.79.222-1.588.375-2.392-2.433-1.936-5.21-3.524-8.285-4.661zm-51.718-12.594c-.294 2.314 1.054 4.524 3.242 5.333 3.02 1.117 6.311-.859 6.705-4.055.157-1.273.385-2.569.687-3.874l-9.448-3.493c-.539 2.053-.932 4.089-1.186 6.089zm16.844 6.227c-.294 2.314 1.054 4.524 3.242 5.333 3.02 1.117 6.311-.859 6.705-4.055.157-1.273.385-2.569.687-3.874l-9.448-3.493c-.539 2.053-.932 4.089-1.186 6.089zm16.844 6.228c-.294 2.314 1.054 4.524 3.242 5.333 3.02 1.117 6.311-.859 6.705-4.055.157-1.273.385-2.569.687-3.874l-9.448-3.493c-.538 2.053-.932 4.088-1.186 6.089z" fill="#6354b0"/><path d="m415.5 175-41.026 57.437c-5.632 7.884-14.724 12.563-24.413 12.563h-199.122c-9.689 0-18.781-4.679-24.412-12.563l-41.027-57.437z" fill="#e43950"/><path d="m310.487 227v34.686h-31.974v-34.686c0-5.523 4.477-10 10-10h11.974c5.523 0 10 4.477 10 10z" fill="#015aad"/><path d="m319.497 222.231c-.123 4.105-3.704 7.269-7.811 7.269h-1.199v32.186h-20v-27.186c0-2.761-2.239-5-5-5h-33.173c-4.107 0-7.688-3.164-7.811-7.269-.128-4.247 3.278-7.731 7.497-7.731h60c4.219 0 7.624 3.483 7.497 7.731z" fill="#528ed7"/><path d="m252 229.5c-4.142 0-7.5-3.358-7.5-7.5 0-4.142 3.358-7.5 7.5-7.5 4.142 0 7.5 3.358 7.5 7.5 0 4.142-3.358 7.5-7.5 7.5z" fill="#015aad"/><path d="m263.379 334.503c-8.553-8.191-13.879-19.725-13.879-32.503 0-25.435 21.102-45.941 46.753-44.967 23.312.885 42.312 19.872 43.212 43.184.522 13.53-4.931 25.795-13.933 34.37-3.682 3.507-8.605 5.413-13.69 5.413h-34.682c-5.127 0-10.077-1.95-13.781-5.497z" fill="#91cefb"/><path d="m325.533 334.587c-3.682 3.507-8.605 5.413-13.69 5.413h-1.609c-5.697 0-11.198-2.167-15.312-6.107-9.504-9.102-15.422-21.917-15.422-36.115 0-16.618 8.107-31.342 20.581-40.433 21.532 2.688 38.534 20.851 39.385 42.873.522 13.529-4.932 25.795-13.933 34.369z" fill="#bbe0fb"/><path d="m415.5 300-41.026 57.437c-5.632 7.884-14.724 12.563-24.413 12.563h-199.122c-9.689 0-18.781-4.679-24.412-12.563l-41.027-57.437z" fill="#e43950"/><path d="m202.004 370h-51.065c-9.689 0-18.781-4.679-24.412-12.563l-41.027-57.437h51.065l41.026 57.437c5.632 7.884 14.724 12.563 24.413 12.563zm0-125h-51.065c-9.689 0-18.781-4.679-24.412-12.563l-41.027-57.437h51.065l41.026 57.437c5.632 7.884 14.724 12.563 24.413 12.563zm0-125h-51.065c-9.689 0-18.781-4.679-24.412-12.563l-41.027-57.437h51.065l41.026 57.437c5.632 7.884 14.724 12.563 24.413 12.563z" fill="#c92e43"/><path d="m445.5 60h-390c-5.523 0-10-4.477-10-10 0-5.523 4.477-10 10-10h390c5.523 0 10 4.477 10 10 0 5.523-4.477 10-10 10zm10 115c0-5.523-4.477-10-10-10h-390c-5.523 0-10 4.477-10 10 0 5.523 4.477 10 10 10h390c5.523 0 10-4.477 10-10zm0 125c0-5.523-4.477-10-10-10h-390c-5.523 0-10 4.477-10 10 0 5.523 4.477 10 10 10h390c5.523 0 10-4.477 10-10z" fill="#fcb30b"/><path d="m445.5 60h-231c-5.523 0-10-4.477-10-10 0-5.523 4.477-10 10-10h231c5.523 0 10 4.477 10 10 0 5.523-4.477 10-10 10zm10 115c0-5.523-4.477-10-10-10h-231c-5.523 0-10 4.477-10 10 0 5.523 4.477 10 10 10h231c5.523 0 10-4.477 10-10zm0 125c0-5.523-4.477-10-10-10h-231c-5.523 0-10 4.477-10 10 0 5.523 4.477 10 10 10h231c5.523 0 10-4.477 10-10z" fill="#f1ca50"/><path d="m150.619 426c0 17.638-9.133 33.143-22.929 42.044-28.062-16.288-52.593-37.986-72.167-63.667 8.065-16.788 25.227-28.377 45.096-28.377 27.614 0 50 22.386 50 50zm294.857-21.623c-8.064-16.788-25.226-28.377-45.095-28.377-27.614 0-50 22.386-50 50 0 17.638 9.133 33.143 22.929 42.044 25.708-14.922 48.454-34.385 67.138-57.291 1.71-2.097 3.387-4.222 5.028-6.376z" fill="#f9eecf"/><path d="m100.619 376c5.969 0 11.693 1.047 17 2.965-19.245 6.957-33 25.389-33 47.035 0 3.966.462 7.823 1.335 11.522-11.122-10.088-21.314-21.185-30.43-33.145 8.064-16.788 25.226-28.377 45.095-28.377zm249.762 50c0 17.638 9.133 33.143 22.929 42.044 6.982-4.053 13.745-8.44 20.268-13.141-5.792-8.161-9.197-18.134-9.197-28.903 0-21.646 13.755-40.078 33-47.035-5.307-1.918-11.031-2.965-17-2.965-27.614 0-50 22.386-50 50z" fill="#f5dc90"/><path d="m120.619 426c0 11.046-8.954 20-20 20-2.046 0-4.021-.308-5.88-.878-4.242-3.498-8.365-7.136-12.361-10.907-1.13-2.506-1.759-5.287-1.759-8.214 0-11.046 8.954-20 20-20 11.046-.001 20 8.953 20 19.999zm279.762-20c-11.046 0-20 8.954-20 20s8.954 20 20 20c2.046 0 4.021-.308 5.88-.878 4.242-3.498 8.365-7.136 12.361-10.907 1.13-2.506 1.759-5.287 1.759-8.214 0-11.047-8.954-20.001-20-20.001z" fill="#d98800"/><path d="m409.381 442.505c-1.033.881-2.073 1.753-3.12 2.617-1.859.571-3.833.878-5.88.878-2.09 0-4.106-.321-6-.916v-38.168c1.894-.595 3.91-.916 6-.916 3.237 0 6.295.77 9 2.135zm-301.548-35.164c-2.238-.866-4.671-1.341-7.214-1.341-2.762 0-5.393.56-7.786 1.572v35.961c.633.532 1.268 1.062 1.906 1.588 1.859.571 3.833.878 5.88.878 2.544 0 4.976-.475 7.214-1.341z" fill="#9d5528"/><path d="m145.094 134.77-6.97 73.208c-.352 3.697-3.458 6.521-7.172 6.521-3.714 0-6.82-2.824-7.172-6.521l-6.97-73.208c-.403-4.229 2.923-7.887 7.172-7.887h13.94c4.249 0 7.575 3.658 7.172 7.887zm27.467-7.887h-13.94c-4.249 0-7.575 3.658-7.172 7.887l6.97 73.208c.352 3.697 3.458 6.521 7.172 6.521s6.82-2.824 7.172-6.521l6.97-73.208c.403-4.229-2.923-7.887-7.172-7.887z" fill="#0191f8"/><path d="m145.094 134.77-2.674 28.092c-.563 5.912-5.528 10.427-11.467 10.427-5.939 0-10.904-4.515-11.467-10.427l-2.674-28.092c-.403-4.229 2.923-7.887 7.172-7.887h13.94c4.247 0 7.573 3.658 7.17 7.887zm27.467-7.887h-13.94c-4.249 0-7.575 3.658-7.172 7.887l2.674 28.092c.563 5.912 5.528 10.427 11.467 10.427s10.904-4.515 11.467-10.427l2.674-28.092c.405-4.229-2.921-7.887-7.17-7.887z" fill="#49b4fa"/></g></svg>