<svg id="Capa_1" enable-background="new 0 0 501 501" height="512" viewBox="0 0 501 501" width="512" xmlns="http://www.w3.org/2000/svg"><g><path d="m495.5 256c0 135.31-109.69 245-245 245s-245-109.69-245-245 109.69-245 245-245 245 109.69 245 245z" fill="#528ed7"/><path d="m495.5 256c0 3.408-.07 6.799-.208 10.173-27.315 77.937-101.527 133.827-188.792 133.827-110.457 0-200-89.543-200-200 0-87.265 55.89-161.476 133.827-188.792 3.374-.138 6.765-.208 10.173-.208 135.31 0 245 109.69 245 245z" fill="#63bcfa"/><path d="m365.994 390-29.883 95.627c-26.651 9.939-55.496 15.373-85.611 15.373-25.536 0-50.159-3.907-73.305-11.155l-31.201-99.845c-4.007-3.434-1.578-10 3.699-10h212.602c5.277 0 7.705 6.566 3.699 10z" fill="#003c79"/><path d="m177.998 380h184.297c5.277 0 7.706 6.565 3.699 10l-7.696 24.627c-11.003 35.208-43.469 59.507-80.356 59.607-.225.001-.451.001-.676.001-3.698 0-7.378-.082-11.036-.244-35.789-1.587-66.779-25.343-77.464-59.537z" fill="#004b92"/><path d="m89.51 330h33.615c4.642 0 71.375 60 71.375 60h-48.506l-59.738-51.204c-3.524-3.021-1.388-8.796 3.254-8.796z" fill="#54469b"/><path d="m425.731 338.796-59.737 51.204h-184.247l-70-60h72.753l14 3.5c10.505 2.626 21.495 2.626 32 0l14-3.5h177.977c4.643 0 6.779 5.775 3.254 8.796z" fill="#6e61b5"/><path d="m363.283 187.271c-5.077 5.077-13.308 5.077-18.385 0 5.077 5.077 5.077 13.308 0 18.385s-13.308 5.077-18.385 0c5.077 5.077 5.077 13.308 0 18.385s-13.308 5.077-18.385 0c5.077 5.077 5.077 13.308 0 18.385s-13.308 5.077-18.385 0c5.077 5.077 5.077 13.308 0 18.385s-13.308 5.077-18.385 0c5.077 5.077 5.077 13.308 0 18.385-5.077 5.077-13.308 5.077-18.385 0l-67.411-67.411c-5.077-5.077-5.077-13.308 0-18.385s13.308-5.077 18.385 0c-5.077-5.077-5.077-13.308 0-18.385s13.308-5.077 18.385 0c-5.077-5.077-5.077-13.308 0-18.385 5.077-5.077 13.308-5.077 18.385 0-5.077-5.077-5.077-13.308 0-18.385 5.077-5.077 13.308-5.077 18.385 0-5.077-5.077-5.077-13.308 0-18.385s13.308-5.077 18.385 0c-5.077-5.077-5.077-13.308 0-18.385s13.308-5.077 18.385 0l67.411 67.411c5.077 5.077 5.077 13.308 0 18.385z" fill="#002c5d"/><path d="m289.744 242.425c5.077 5.077 5.077 13.308 0 18.385s-13.308 5.077-18.385 0l-67.411-67.411c-5.077-5.077-5.077-13.308 0-18.385 5.077-5.077 13.308-5.077 18.385 0zm73.539-73.539-67.411-67.411c-5.077-5.077-13.308-5.077-18.385 0s-5.077 13.308 0 18.385l67.411 67.411c5.077 5.077 13.308 5.077 18.385 0 5.077-5.077 5.077-13.308 0-18.385zm-104.181-30.641c-5.077-5.077-13.308-5.077-18.385 0s-5.077 13.308 0 18.385l67.411 67.411c5.077 5.077 13.308 5.077 18.385 0s5.077-13.308 0-18.385z" fill="#463b83"/><path d="m314.333 175.09c-5.077 5.077-13.308 5.077-18.385 0l-16.222-16.222c-5.077-5.073-13.305-5.072-18.381.003-5.077 5.077-5.077 13.308 0 18.385l21.219 21.219c5.077 5.077 5.077 13.308 0 18.385s-13.308 5.077-18.385 0l-26.219-26.219c-5.077-5.077-13.308-5.077-18.385 0-5.075 5.076-5.077 13.304-.003 18.381l6.222 6.222c5.077 5.077 5.077 13.308 0 18.385s-13.308 5.077-18.385 0l-29.513-29.513c-5.077-5.077-5.077-13.308 0-18.385s13.308-5.077 18.385 0c-5.077-5.077-5.077-13.308 0-18.385s13.308-5.077 18.385 0c-5.077-5.077-5.077-13.308 0-18.385s13.308-5.077 18.385 0c-5.077-5.077-5.077-13.308 0-18.385s13.308-5.077 18.385 0c-5.077-5.077-5.077-13.308 0-18.385s13.308-5.077 18.385 0c-5.077-5.077-5.077-13.308 0-18.385s13.308-5.077 18.385 0l21.191 21.194c-5.077-5.077-13.308-5.077-18.385 0s-5.077 13.308 0 18.385l23.321 23.321c5.077 5.076 5.077 13.307 0 18.384z" fill="#e43950"/><path d="m214.89 167.106 23.093 23.535c-5.077-5.077-13.308-5.077-18.385 0-5.076 5.077-5.077 13.307-.001 18.383l-23.293-23.293c-5.077-5.077-5.077-13.308 0-18.385 5.077-5.076 13.51-5.316 18.586-.24zm73.338-73.298c-5.077-5.077-13.308-5.077-18.385 0s-5.077 13.308 0 18.385l21.192 21.192c-5.077-5.077-5.077-13.308 0-18.385s13.308-5.077 18.385 0zm-55.154 36.769c-5.077 5.077-5.077 13.308 0 18.385l28.294 28.294c-5.077-5.077-5.077-13.308 0-18.385 5.076-5.076 13.307-5.077 18.384-.001l-27.858-28.293c-5.078-5.077-13.744-5.077-18.82 0z" fill="#ea5569"/><path d="m452.023 395.37-41.407-38.56c-21.972-20.201-55.964-19.488-77.07 1.617-3.905 3.905-10.237 3.905-14.142 0l-70.711-70.711c-3.905-3.905-3.905-10.237 0-14.142l108.969-108.969c3.905-3.905 10.237-3.905 14.142 0l70.711 70.711c3.905 3.905 3.905 10.237 0 14.142-21.105 21.105-21.819 55.097-1.617 77.07l31.387 33.704c-5.794 12.308-12.582 24.055-20.262 35.138z" fill="#f1ca50"/><path d="m452.023 395.37-41.407-38.56c-21.972-20.201-55.964-19.488-77.07 1.617-3.905 3.905-10.237 3.905-14.142 0l-70.711-70.711c-3.905-3.905-3.905-10.237 0-14.142l11.74-11.74 66.921 66.921c3.905 3.905 10.237 3.905 14.142 0 21.105-21.105 55.097-21.819 77.069-1.618l47.915 44.62c-4.38 8.161-9.21 16.042-14.457 23.613z" fill="#ecb700"/><path d="m134.605 220h-50v-60h50z" fill="#962437"/><path d="m193.733 10.656-6.184 10.601c-.855 3.935-4.338 6.742-8.366 6.742h-139.157c-4.027 0-7.51-2.807-8.366-6.742l-6.184-10.601c-2.756-4.724.652-10.656 6.121-10.656h156.016c5.469 0 8.876 5.932 6.12 10.656z" fill="#e43950"/><path d="m179.184 28h-108.658c-4.027 0-7.51-2.807-8.366-6.742l-6.184-10.601c-2.756-4.725.652-10.657 6.12-10.657h125.516c5.469 0 8.876 5.932 6.121 10.656l-6.184 10.601c-.855 3.936-4.338 6.743-8.365 6.743z" fill="#ea5569"/><path d="m187.549 21.258-32.005 147.224c-1.999 9.194-10.135 15.751-19.544 15.751h-52.791c-9.409 0-17.545-6.558-19.544-15.751l-32.005-147.224z" fill="#ab2538"/><path d="m136.001 184.233h-22.292c-9.408 0-17.545-6.558-19.543-15.751l-32.006-147.224h125.389l-32.005 147.224c-1.998 9.193-10.135 15.751-19.543 15.751z" fill="#c92e43"/><path d="m129.5 230h-39.791c-8.284 0-15-6.716-15-15 0-8.284 6.716-15 15-15h39.791c8.284 0 15 6.716 15 15 0 8.284-6.716 15-15 15z" fill="#e43950"/><path d="m129.5 230h-14.667c-8.284 0-15-6.716-15-15 0-8.284 6.716-15 15-15h14.667c8.284 0 15 6.716 15 15 0 8.284-6.716 15-15 15z" fill="#ea5569"/><path d="m109.897 299.998c-.195.002-.39.002-.584 0-14.086-.15-23.979-14.102-19.894-27.584 4.126-13.621 11.083-26.012 20.187-36.487 9.104 10.476 16.06 22.866 20.187 36.487 4.083 13.483-5.81 27.434-19.896 27.584z" fill="#ea5569"/><path d="m171.858 268.899c-.118.001-.236.001-.355 0-8.552-.091-14.558-8.562-12.078-16.747 2.505-8.27 6.729-15.792 12.256-22.152 5.527 6.36 9.751 13.883 12.256 22.152 2.479 8.186-3.527 16.656-12.079 16.747zm-49.942 15.381c-.294.003-.588.003-.882 0-13.33-.142-24.171-8.473-28.885-19.683-1.014 2.556-1.926 5.163-2.73 7.817-4.084 13.482 5.808 27.434 19.894 27.584.195.002.39.002.584 0 10.315-.11 18.381-7.621 20.357-16.929-2.636.757-5.428 1.18-8.338 1.211z" fill="#e43950"/><path d="m244.5 330v54.576c0 8.077-6.207 15.027-14.275 15.407-8.614.406-15.725-6.458-15.725-14.983v-10c0-8.284-6.716-15-15-15-8.284 0-15-6.716-15-15v-15z" fill="#ea5569"/><path d="m144.605 85c0 19.33-15.67 35-35 35s-35-15.67-35-35 15.67-35 35-35 35 15.67 35 35z" fill="#f7a4ae"/><path d="m129.605 85c0 11.046-8.954 20-20 20s-20-8.954-20-20 8.954-20 20-20 20 8.954 20 20z" fill="#ea5569"/><path d="m378.646 131.88-5.123-15.164c-.295-.872-.98-1.557-1.852-1.852l-15.164-5.123c-2.677-.904-2.677-4.69 0-5.594l15.164-5.123c.872-.295 1.557-.98 1.852-1.852l5.123-15.164c.904-2.677 4.69-2.677 5.594 0l5.123 15.164c.295.872.98 1.557 1.852 1.852l15.164 5.123c2.677.904 2.677 4.69 0 5.594l-15.164 5.123c-.872.295-1.557.98-1.852 1.852l-5.123 15.164c-.904 2.676-4.689 2.676-5.594 0z" fill="#fff5f5"/><path d="m237.214 70.287-6.941-20.544c-.399-1.182-1.327-2.11-2.509-2.509l-20.544-6.941c-3.626-1.225-3.626-6.354 0-7.579l20.544-6.941c1.182-.399 2.11-1.327 2.509-2.509l6.941-20.544c1.225-3.626 6.354-3.626 7.579 0l6.941 20.544c.399 1.182 1.327 2.11 2.509 2.509l20.544 6.941c3.626 1.225 3.626 6.354 0 7.579l-20.544 6.941c-1.182.399-2.11 1.327-2.509 2.509l-6.941 20.544c-1.225 3.626-6.354 3.626-7.579 0z" fill="#f1ca50"/></g></svg>