<svg id="Capa_1" enable-background="new 0 0 501 501" height="512" viewBox="0 0 501 501" width="512" xmlns="http://www.w3.org/2000/svg"><g><path d="m495.5 245c0 135.31-109.69 245-245 245s-245-109.69-245-245 109.69-245 245-245 245 109.69 245 245z" fill="#fda800"/><path d="m377.344 180.421c.001 105.843-85.58 191.423-191.423 191.423-83.232 0-154.056-53.122-180.42-127.312.23-123.159 91.334-224.995 209.834-242.027 23.618-3.395 47.792 1.082 68.3 13.279 56.11 33.373 93.708 94.614 93.709 164.637z" fill="#f5c02c"/><path d="m330.019 43.425c10.236-9.019 25.238 3.199 18.477 15.049-34.655 60.74-95.36 155.302-113.201 177.207-15.257 18.733-31.611 35.802-48.752 51.129-26.188 23.417-65.078-8.005-47.459-38.398 11.564-19.949 25.004-39.477 40.305-58.265 17.842-21.905 98.161-100.491 150.63-146.722z" fill="#6e61b5"/><path d="m273.993 462.827c-.498.004-.995.006-1.493.006-28.2 0-55.287-6.658-80.5-18.91 333.673-224.996-127.969-277.714 20.049-440.923 12.527-1.974 25.369-3 38.451-3 135.31 0 245 109.69 245 245s-109.69 245-245 245c-1.413 0-2.823-.012-4.231-.036 9.771-8.12 19.03-17.198 27.724-27.137z" fill="#954d3b"/><path d="m256.967 104.452c-17.527-30.93-27.209-66.5-26.865-103.615 6.725-.554 13.529-.837 20.398-.837 3.159 0 6.304.06 9.435.178-4.903 34.924-2.422 69.075 6.204 100.482 1.56 5.685-6.266 8.921-9.172 3.792zm77.715-27.033c-5.724-20.84-8.742-42.888-8.692-65.568-8.398-2.717-16.995-4.993-25.762-6.801 3.396 27.128 12.131 52.95 25.283 76.161 2.906 5.128 10.732 1.892 9.171-3.792zm121.171 262.907c-4.762 2.981-10.495-1.992-8.295-7.162 10.585-24.874 16.442-52.246 16.442-80.986 0-49.8-17.586-95.492-46.887-131.206-3.739-4.557-10.898-.033-8.39 5.301 14.946 31.784 23.397 67.932 23.397 106.272 0 43.791-11.025 84.721-30.159 119.555-1.069 1.947-3.191 3.091-5.406 2.934-.037-.002-.074-.005-.111-.008-3.708-.268-6.176-3.903-5.086-7.457 5.897-19.223 9.071-39.637 9.071-60.792 0-49.8-17.586-95.492-46.887-131.206-3.739-4.557-10.898-.033-8.39 5.301 14.946 31.784 23.397 67.932 23.397 106.271 0 24.141-3.351 47.412-9.564 69.272-1.043 3.671-5.364 5.335-8.574 3.271-14.896-9.58-27.044-23.063-34.997-39.006-4.936 39.667-38.301 85.85-123.415 143.242 25.213 12.252 52.3 18.911 80.5 18.911.498 0 .996-.002 1.493-.007-8.694 9.938-17.953 19.017-27.724 27.137 1.407.024 2.818.036 4.231.036 113.032 0 208.187-76.545 236.455-180.626-7.911 12.502-18.559 23.101-31.101 30.953z" fill="#7d402d"/><path d="m188.5 145 88.333-25.903-3.733-78.795 54.4 52.698 30.201-27.499-7.512 38.499-89.689 76.667" fill="#fff5f5"/><path d="m385.183 68.278c4.771-3.259 10.348 2.827 6.688 7.297-43.741 53.425-125.074 141.756-147.272 160.943-18.331 15.845-37.458 29.85-57.059 41.992-11.116 6.886-22.607 6.005-31.499.798-3.787-10.18-1.853-23.296 9.08-35.558 18.663-20.931 39.244-41.247 61.63-60.597 20.483-17.705 93.511-70.531 158.432-114.875z" fill="#968dca"/><path d="m176.021 455.501c.187-.266.372-.533.556-.803 17.425-25.678 10.712-60.744-14.966-78.17l-24.054-16.324 23.829-35.114 47.031-60.448-49.137-47.72-66.317 54.316 43.45 42.197-29.008 42.745s-.001.001-.001.001l-23.964 35.313c-17.425 25.678-10.712 60.745 14.966 78.17 14.871 10.092 32.891 12.087 48.809 6.991 2.604 8.668 8.086 16.529 16.141 21.996 6.217 4.219 14.677 2.599 18.896-3.618s2.599-14.677-3.618-18.896c-6.207-4.212-7.83-12.689-3.618-18.896.383-.563.717-1.144 1.005-1.74zm-62.336-8.351c-13.264-9.001-16.731-27.115-7.731-40.378l13.596-20.035.173-.255 2.554-3.764 24.054 16.324c13.264 9.001 16.731 27.114 7.73 40.377s-27.113 16.732-40.376 7.731z" fill="#c92e43"/><path d="m175.357 232.537s-53.966 51.123-62.954 57.583c-27.083 19.467-81.657 58.648-83.464 59.588-3.898-8.233-7.351-16.72-10.327-25.427.478-.304.949-.624 1.414-.959l19.629-14.177 3.937-2.844-17.021-23.566c-4.857-6.725-12.076-10.755-19.713-11.779-.897-8.529-1.358-17.188-1.358-25.956 0-.481.001-.963.004-1.444 16.578.754 32.675 8.781 43.124 23.249l17.021 23.566 33.458-24.165 60.173-49.284z" fill="#962437"/><path d="m156.836 458.56c5.48 3.956 13.029 3.305 17.75-1.531 4.335-4.44 1.734-1.953 1.99-2.331 17.425-25.678 10.712-60.744-14.966-78.17l-1.145-.777c-6.09-4.133-14.362-2.673-18.67 3.294-4.488 6.217-2.954 14.914 3.391 19.22l.702.476c10.167 6.9 15.054 19.261 12.46 30.827-.259 1.155-1.708 5.252-2.105 6.054-2.839 5.724-11.41 15.461.593 22.938z" fill="#e43950"/><path d="m168.616 282.458c-6.979 7.187-18.463 7.355-25.65.375s-7.355-18.463-.375-25.65c6.979-7.187 18.463-7.355 25.65-.375 7.186 6.98 7.354 18.464.375 25.65z" fill="#c1bbdf"/><path d="m162.442 253.016c2.099.853 4.073 2.117 5.798 3.793 1.726 1.676 3.046 3.612 3.961 5.685l-23.437 24.133c-2.099-.853-4.073-2.117-5.798-3.793-1.726-1.676-3.046-3.612-3.961-5.685z" fill="#968dca"/></g></svg>