<svg id="Capa_1" enable-background="new 0 0 501 501" height="512" viewBox="0 0 501 501" width="512" xmlns="http://www.w3.org/2000/svg"><g><path d="m490 250.5c0 135.31-109.69 245-245 245s-245-109.69-245-245 109.69-245 245-245 245 109.69 245 245z" fill="#fda800"/><path d="m490 250.5c0 1.273-.01 2.543-.029 3.811-26.716 75.836-98.996 130.189-183.971 130.189-107.696 0-195-87.304-195-195 0-84.975 54.353-157.255 130.189-183.971 1.268-.019 2.538-.029 3.811-.029 135.31 0 245 109.69 245 245z" fill="#f5c02c"/><path d="m302.2 411.021c0 34.452-16.795 65.055-42.628 84.052-4.821.283-9.68.427-14.573.427-10.288 0-20.427-.634-30.382-1.865 38.501-7.766 67.582-41.857 67.582-82.613 0-71.451-58.129-129.58-129.58-129.58h-.14c-50.701 0-92.214-40.097-94.494-90.244-5.413-3.58-8.985-9.722-8.985-16.698v-5.352c-11.956-6.916-20-19.843-20-34.648v-30h80v30c0 14.806-8.044 27.732-20 34.648v5.352c0 7.774-4.435 14.512-10.913 17.821 2.811 38.585 35.103 69.12 74.394 69.12h.14c39.984 0 77.556 15.551 105.793 43.787 28.235 28.238 43.786 65.809 43.786 105.793z" fill="#002c5d"/><path d="m109 113.646v20.854c0 15.308-8.6 28.608-21.231 35.332-5.468 2.911-12.07 2.911-17.538 0-6.62-3.524-12.132-8.854-15.88-15.332h34.649c2.761 0 5-2.239 5-5s-2.239-5-5-5h-38.74c-.823-3.196-1.26-6.547-1.26-10h45c2.761 0 5-2.239 5-5s-2.239-5-5-5h-45v-10h-15c-8.284 0-15-6.716-15-15s6.716-15 15-15v-20c0-5.523 4.477-10 10-10s10 4.477 10 10v20h30v-20c0-5.523 4.477-10 10-10s10 4.477 10 10v20c8.284 0 15 6.716 15 15 0 6.531-4.174 12.087-10 14.146z" fill="#463b83"/><path d="m104 114.5h-50c-8.284 0-15-6.716-15-15 0-8.284 6.716-15 15-15h50c8.284 0 15 6.716 15 15 0 8.284-6.716 15-15 15z" fill="#6354b0"/><path d="m206.82 384.41-63.64-63.64 284.536-284.535 63.64 63.64z" fill="#6354b0"/><path d="m206.82 384.41-63.64-63.64 284.536-284.535 63.64 63.64z" fill="#6e61b5"/><path d="m456 64.519-284.536 284.535-28.284-28.284 120.594-120.594-58.219-13.862c-12.511-2.979-23.949-9.371-33.043-18.464-5.01-5.011-5.01-13.134 0-18.145 3.151-3.15 7.71-4.441 12.044-3.409l7.324 1.744c15.167 3.611 30.696 5.481 46.286 5.573l71.747.424 117.803-117.802z" fill="#463b83"/><path d="m399.558 64.393v127.279l-40 40v-127.279zm-89.623 216.902 29.573-29.573v-127.279l-29.573 29.573z" fill="#8279c0"/><path d="m309.935 154.016 29.573-29.573v56.569l-29.573 29.573zm49.623-49.623v56.569l40-40v-56.569z" fill="#6354b0"/><path d="m294.926 299.132c7.81 7.811 7.81 20.474 0 28.284l-147.767 147.767c-41.487-18.091-76.993-47.336-102.729-83.947l157.158-157.158c7.81-7.811 20.474-7.811 28.284 0z" fill="#e43950"/><path d="m44.43 391.236 157.158-157.158c7.81-7.811 20.474-7.811 28.284 0l21.836 21.836-173.782 173.783c-12.446-11.609-23.681-24.499-33.496-38.461z" fill="#c92e43"/><path d="m95.522 368.429c-7.811-7.811-7.811-20.474 0-28.284l106.066-106.066c7.81-7.81 20.474-7.81 28.284 0l35.355 35.355-98.995 98.995c-19.526 19.526-51.184 19.526-70.71 0z" fill="#962437"/><path d="m501 71.59c0 24.853-20.147 45-45 45s-45-20.147-45-45 20.147-45 45-45 45 20.147 45 45z" fill="#463b83"/><path d="m450 116.193c-22.016-2.933-39-21.784-39-44.603s16.984-41.669 39-44.603z" fill="#002c5d"/><path d="m474.385 89.975c-9.763 9.763-25.592 9.763-35.355 0s-9.763-25.592 0-35.355 25.592-9.763 35.355 0 9.763 25.592 0 35.355z" fill="#6354b0"/><path d="m137.948 311.86-7.071-7.071c-3.905-3.905-3.905-10.237 0-14.142l42.426-42.426c3.905-3.905 10.237-3.905 14.142 0l7.071 7.071c3.905 3.905 3.905 10.237 0 14.142l-42.426 42.426c-3.905 3.906-10.237 3.906-14.142 0z" fill="#f7e6b0"/><path d="m156.456 293.352-7.071-7.071c-3.905-3.905-3.905-10.237 0-14.142l23.918-23.918c3.905-3.905 10.237-3.905 14.142 0l7.071 7.071c3.905 3.905 3.905 10.237 0 14.142l-23.918 23.918c-3.905 3.905-10.236 3.905-14.142 0z" fill="#fff5f5"/><path d="m395.768 379.855-6.941-20.544c-.399-1.182-1.327-2.11-2.509-2.509l-20.544-6.941c-3.626-1.225-3.626-6.354 0-7.579l20.544-6.941c1.182-.399 2.11-1.327 2.509-2.509l6.941-20.544c1.225-3.626 6.354-3.626 7.579 0l6.941 20.544c.399 1.182 1.327 2.11 2.509 2.509l20.544 6.941c3.626 1.225 3.626 6.354 0 7.579l-20.544 6.941c-1.182.399-2.11 1.327-2.509 2.509l-6.941 20.544c-1.225 3.627-6.354 3.627-7.579 0zm-328.974-44.234 5.123-15.164c.295-.872.98-1.557 1.852-1.852l15.164-5.123c2.677-.904 2.677-4.69 0-5.594l-15.164-5.123c-.872-.295-1.557-.98-1.852-1.852l-5.123-15.164c-.904-2.677-4.69-2.677-5.594 0l-5.123 15.164c-.295.872-.98 1.557-1.852 1.852l-15.164 5.123c-2.677.904-2.677 4.69 0 5.594l15.164 5.123c.872.295 1.557.98 1.852 1.852l5.123 15.164c.904 2.676 4.69 2.676 5.594 0zm281.852-208.311 3.305-9.783c.19-.563.632-1.005 1.195-1.195l9.783-3.305c1.727-.583 1.727-3.026 0-3.609l-9.783-3.305c-.563-.19-1.005-.632-1.195-1.195l-3.305-9.783c-.583-1.727-3.026-1.727-3.609 0l-3.305 9.783c-.19.563-.632 1.005-1.195 1.195l-9.783 3.305c-1.727.583-1.727 3.026 0 3.609l9.783 3.305c.563.19 1.005.632 1.195 1.195l3.305 9.783c.583 1.727 3.025 1.727 3.609 0z" fill="#fff5f5"/><path d="m292.018 57.407c2.406-2.407 2.406-6.307 0-8.714-2.407-2.405-6.307-2.405-8.714 0-11.073 11.073-11.073 29.09 0 40.164 6.269 6.268 6.269 16.468 0 22.736-2.406 2.407-2.406 6.307 0 8.714 1.203 1.202 2.781 1.804 4.357 1.804s3.154-.602 4.357-1.804c11.072-11.073 11.072-29.091 0-40.163-6.269-6.27-6.269-16.469 0-22.737zm-34.677 0c2.406-2.407 2.406-6.307 0-8.714-2.407-2.405-6.307-2.405-8.714 0-11.072 11.073-11.072 29.09 0 40.164 6.269 6.268 6.269 16.468 0 22.736-2.406 2.407-2.406 6.307 0 8.714 1.203 1.202 2.781 1.804 4.357 1.804s3.154-.602 4.357-1.804c11.073-11.073 11.073-29.091 0-40.163-6.269-6.27-6.269-16.469 0-22.737zm-34.457 0c2.406-2.407 2.406-6.307 0-8.714-2.407-2.405-6.307-2.405-8.714 0-11.072 11.073-11.072 29.09 0 40.164 6.269 6.268 6.269 16.468 0 22.736-2.406 2.407-2.406 6.307 0 8.714 1.203 1.202 2.781 1.804 4.357 1.804s3.154-.602 4.357-1.804c11.073-11.073 11.073-29.091 0-40.163-6.269-6.27-6.269-16.469 0-22.737z" fill="#f5dc90"/></g></svg>