<svg id="Capa_1" enable-background="new 0 0 501 501" height="512" viewBox="0 0 501 501" width="512" xmlns="http://www.w3.org/2000/svg"><g><path d="m495.5 256c0 98.127-57.688 182.78-141 221.895-16.87-45.033-59.911-74.872-108-74.872h-192c-31.329-41.699-49.662-93.721-48.982-150.05 1.646-136.324 113.205-244.406 249.517-241.932 133.217 2.418 240.465 111.164 240.465 244.959z" fill="#e43950"/><path d="m495.494 257.622c-.632 97.437-58.142 181.374-140.994 220.273-16.87-45.033-59.911-74.872-108-74.872h-192c-30.466-40.55-48.64-90.861-48.994-145.402h489.988z" fill="#c92e43"/><path d="m349.5 140c-8.284 0-15-6.716-15-15v-50c0-8.284 6.716-15 15-15 8.284 0 15 6.716 15 15v50c0 8.284-6.716 15-15 15z" fill="#463b83"/><path d="m354.5 15v462.895c-31.569 14.822-66.817 23.105-104 23.105-80.145 0-151.301-38.482-196-97.977v-388.023c0-8.284 6.716-15 15-15h270c8.284 0 15 6.716 15 15z" fill="#6354b0"/><path d="m109.5 0c-8.284 0-15 6.716-15 15v429.923c-14.922-12.336-28.358-26.405-40-41.9v-143.877c-5.826-2.059-10-7.615-10-14.146v-60c0-6.531 4.174-12.087 10-14.146v-31.707c-5.826-2.059-10-7.615-10-14.146v-20c0-6.531 4.174-12.087 10-14.146v-75.855c0-8.284 6.716-15 15-15z" fill="#463b83"/><path d="m309.5 420h-210c-2.761 0-5-2.239-5-5v-370c0-2.761 2.239-5 5-5h210c2.761 0 5 2.239 5 5v370c0 2.761-2.239 5-5 5z" fill="#fda800"/><path d="m309.5 420h-167c-2.761 0-5-2.239-5-5v-370c0-2.761 2.239-5 5-5h167c2.761 0 5 2.239 5 5v370c0 2.761-2.239 5-5 5z" fill="#f5c02c"/><path d="m184.5 20c0-4.142 3.358-7.5 7.5-7.5h25c4.142 0 7.5 3.358 7.5 7.5s-3.358 7.5-7.5 7.5h-25c-4.142 0-7.5-3.358-7.5-7.5zm36.25 422.5h-32.5c-7.594 0-13.75 6.156-13.75 13.75s6.156 13.75 13.75 13.75h32.5c7.594 0 13.75-6.156 13.75-13.75s-6.156-13.75-13.75-13.75z" fill="#003c79"/><path d="m169.5 387.5v5c0 4.142-3.358 7.5-7.5 7.5h-5c-4.142 0-7.5-3.358-7.5-7.5v-5c0-4.142 3.358-7.5 7.5-7.5h5c4.142 0 7.5 3.358 7.5 7.5zm27.5-62.5h-75c-4.142 0-7.5 3.358-7.5 7.5v5c0 4.142 3.358 7.5 7.5 7.5h75c4.142 0 7.5-3.358 7.5-7.5v-5c0-4.142-3.358-7.5-7.5-7.5zm-70 55h-5c-4.142 0-7.5 3.358-7.5 7.5v5c0 4.142 3.358 7.5 7.5 7.5h5c4.142 0 7.5-3.358 7.5-7.5v-5c0-4.142-3.358-7.5-7.5-7.5zm70 0h-5c-4.142 0-7.5 3.358-7.5 7.5v5c0 4.142 3.358 7.5 7.5 7.5h5c4.142 0 7.5-3.358 7.5-7.5v-5c0-4.142-3.358-7.5-7.5-7.5zm90-310h-165c-4.142 0-7.5 3.358-7.5 7.5v115c0 4.142 3.358 7.5 7.5 7.5h165c4.142 0 7.5-3.358 7.5-7.5v-115c0-4.142-3.358-7.5-7.5-7.5zm0 150h-165c-4.142 0-7.5 3.358-7.5 7.5v5c0 4.142 3.358 7.5 7.5 7.5h165c4.142 0 7.5-3.358 7.5-7.5v-5c0-4.142-3.358-7.5-7.5-7.5zm0 35h-165c-4.142 0-7.5 3.358-7.5 7.5v5c0 4.142 3.358 7.5 7.5 7.5h165c4.142 0 7.5-3.358 7.5-7.5v-5c0-4.142-3.358-7.5-7.5-7.5zm0 35h-165c-4.142 0-7.5 3.358-7.5 7.5v5c0 4.142 3.358 7.5 7.5 7.5h165c4.142 0 7.5-3.358 7.5-7.5v-5c0-4.142-3.358-7.5-7.5-7.5z" fill="#c98001"/><path d="m444.5 105v210c0 8.284-6.716 15-15 15h-135l-56.686 56.686c-2.122 2.122-4.999 3.314-8 3.314-6.248 0-11.314-5.065-11.314-11.314v-48.686h-47c-8.284 0-15-6.716-15-15v-210c0-8.284 6.716-15 15-15h258c8.284 0 15 6.716 15 15z" fill="#fff5f5"/><path d="m209.5 330h-38c-8.284 0-15-6.716-15-15v-210c0-8.284 6.716-15 15-15h38c-8.284 0-15 6.716-15 15v210c0 8.284 6.716 15 15 15z" fill="#f7e6b0"/><path d="m351.352 119.387-9.06-4.225c-1.556-.726-3.406-.052-4.132 1.504l-54.48 116.832c-2.775-2.282-5.88-4.256-9.287-5.845-21.798-10.165-47.709-.734-57.873 21.064-10.165 21.798-.734 47.709 21.064 57.874s47.709.734 57.873-21.064l65.354-140.152c4.564-9.788.33-21.424-9.459-25.988zm-72.28 156.935c-5.081 10.896-18.033 15.611-28.93 10.53-10.896-5.081-15.611-18.034-10.53-28.93s18.033-15.611 28.93-10.53 15.611 18.034 10.53 28.93z" fill="#004b92"/><path d="m391.05 249.387c-10.165-21.798-36.075-31.229-57.873-21.064-3.407 1.589-6.512 3.562-9.287 5.845l-54.48-116.832c-.726-1.556-2.575-2.229-4.132-1.504l-9.06 4.225c-9.788 4.564-14.023 16.2-9.459 25.988l65.354 140.152c10.165 21.798 36.075 31.229 57.873 21.064 21.797-10.165 31.228-36.076 21.064-57.874zm-23.093 26.935c-5.081 10.896-18.033 15.611-28.93 10.53-10.896-5.081-15.611-18.034-10.53-28.93s18.033-15.611 28.93-10.53c10.896 5.082 15.611 18.034 10.53 28.93zm-36.505-145.27 18.019 38.642-18.019 38.642-18.019-38.642z" fill="#0573cd"/><path d="m313.069 230c0 5.128-4.157 9.285-9.285 9.285s-9.284-4.157-9.284-9.285 4.157-9.285 9.285-9.285 9.284 4.157 9.284 9.285z" fill="#81ade2"/></g></svg>