<svg id="Capa_1" enable-background="new 0 0 501 501" height="512" viewBox="0 0 501 501" width="512" xmlns="http://www.w3.org/2000/svg"><g><path d="m495.5 245c0 135.31-109.69 245-245 245-35.735 0-69.683-7.651-100.296-21.404-4.19-1.882 1.167-12.007-2.894-14.114-23.075-11.972-44.005-27.507-62.06-45.876-2.212-2.25-13.865 3.585-15.989 1.252-39.613-43.523-63.761-101.37-63.761-164.858 0-135.31 109.69-245 245-245s245 109.69 245 245z" fill="#463b83"/><path d="m138.212 173.144c0-79.479 50.353-147.198 120.899-172.996 128.464 4.438 231.804 107.777 236.241 236.241-25.798 70.546-93.516 120.899-172.995 120.899-101.701 0-184.145-82.444-184.145-184.144z" fill="#6354b0"/><path d="m291.206 267.992-141.001 200.605c-30.915-13.888-58.428-34-80.944-58.739l140.031-199.223c8.87-12.667 5.791-30.127-6.876-38.996l81.915 57.358c12.667 8.869 15.745 26.328 6.875 38.995zm7.379-96.354-81.915 57.358c-12.667 8.87-15.746 26.329-6.876 38.996l162.284 230.883c2.155 3.066 6.793 2.759 8.525-.564l22.246-42.688 47.689-6.3c3.723-.492 5.595-4.76 3.436-7.832l-162.265-230.856c-8.87-12.668-5.791-30.127 6.876-38.997z" fill="#d98800"/><path d="m260.068 312.636-83.313 118.53c-5.669 8.066-15.439 12.197-25.175 10.646-18.846-3.003-28.027-24.714-17.053-40.327l67.305-95.755c18.594 4.514 38.018 6.906 58.001 6.906.079.001.157 0 .235 0zm95.75-10.793c-15.297 7.294-31.469 13.048-48.315 17.062l72.254 102.796c6.444 9.168 18.257 12.841 28.764 8.943 15.166-5.626 20.904-24.081 11.602-37.315z" fill="#fcb30b"/><path d="m405.252 354.433c-10.794 5.992-19.82 14.72-26.172 25.306-12.928 21.546-36.368 34.559-61.491 34.136-12.344-.208-24.525 2.838-35.319 8.83-21.969 12.196-48.775 11.745-70.321-1.183-10.586-6.352-22.658-9.805-35.002-10.013-25.123-.423-48.113-14.216-60.308-36.185-5.992-10.794-14.72-19.82-25.306-26.172-21.546-12.928-34.559-36.368-34.136-61.491.208-12.344-2.838-24.525-8.83-35.319-12.196-21.969-11.745-48.775 1.183-70.321 6.352-10.586 9.805-22.658 10.013-35.002.423-25.123 14.216-48.113 36.185-60.308 10.794-5.992 19.82-14.72 26.172-25.306 12.928-21.546 36.368-34.559 61.491-34.136 12.344.208 24.525-2.838 35.319-8.83 21.969-12.196 48.775-11.745 70.321 1.183 10.586 6.352 22.658 9.805 35.002 10.013 25.123.423 48.113 14.216 60.308 36.185 5.992 10.794 14.72 19.82 25.306 26.172 21.546 12.928 34.559 36.368 34.136 61.491-.208 12.344 2.838 24.525 8.83 35.319 12.196 21.969 11.745 48.775-1.183 70.321-6.352 10.586-9.805 22.658-10.013 35.002-.422 25.123-14.216 48.112-36.185 60.308z" fill="#b1c9eb"/><path d="m451.45 259.123c-6.352 10.586-9.805 22.658-10.013 35.002-.262 15.57-5.66 30.32-14.956 42.19-6.275 8.011-18.139 8.745-25.334 1.549-5.944-5.944-6.522-15.271-1.607-22.091 6.926-9.612 10.92-21.255 11.126-33.502.172-10.218 2.995-20.214 8.189-29.009 10.778-18.248 11.488-40.811 1.201-59.341-5.026-9.054-7.58-19.271-7.406-29.625.354-21.045-10.589-40.754-28.637-51.583-8.879-5.328-16.2-12.899-21.226-21.952-10.287-18.53-29.813-29.859-51.001-30.363-10.211-.243-20.187-3.133-28.949-8.391-18.074-10.844-40.56-11.223-58.988-.992-9.054 5.026-19.272 7.581-29.627 7.407-14.082-.237-27.533 4.558-38.144 13.158-6.662 5.399-16.323 4.893-22.387-1.171-6.656-6.656-6.565-17.53.284-23.988 13.17-12.418 30.842-19.465 49.435-19.152 12.344.208 24.525-2.838 35.319-8.83 22.003-12.215 48.858-11.743 70.422 1.244 10.517 6.334 22.443 9.952 34.72 9.952h.812c24.954 0 47.505 13.999 59.508 35.877 5.82 10.609 14.275 19.529 24.538 25.908 21.579 13.41 35.074 36.657 35.074 62.063v.855c0 12.305 3.339 24.309 9.196 35.131 11.819 21.843 11.248 48.325-1.549 69.654z" fill="#e3f0fb"/><path d="m380.313 332.86c-9.054 5.026-16.626 12.348-21.954 21.228-10.844 18.074-30.507 28.989-51.581 28.635-10.355-.174-20.573 2.38-29.627 7.407-18.428 10.23-40.914 9.852-58.988-.992-8.88-5.328-19.007-8.225-29.361-8.399-21.074-.355-40.359-11.925-50.589-30.353-5.026-9.054-12.348-16.626-21.228-21.954-18.074-10.844-28.989-30.507-28.635-51.581.174-10.355-2.38-20.573-7.407-29.627-10.23-18.428-9.852-40.914.992-58.988 5.328-8.88 8.225-19.007 8.399-29.361.355-21.074 11.925-40.359 30.353-50.589 9.054-5.026 16.626-12.348 21.954-21.228 10.844-18.074 30.507-28.989 51.581-28.635 10.355.174 20.573-2.38 29.627-7.407 18.428-10.23 40.914-9.852 58.988.992 8.88 5.328 19.007 8.225 29.361 8.399 21.074.355 40.359 11.925 50.589 30.353 5.026 9.054 12.348 16.626 21.228 21.954 18.074 10.844 28.989 30.507 28.635 51.581-.174 10.355 2.38 20.573 7.407 29.627 10.23 18.428 9.852 40.914-.992 58.988-5.328 8.88-8.225 19.007-8.399 29.361-.354 21.074-11.925 40.359-30.353 50.589z" fill="#d98800"/><path d="m390.5 220.572c0 77.32-62.68 140-140 140s-140-62.68-140-140 62.68-140 140-140 140 62.68 140 140z" fill="#962437"/><path d="m370.5 220.572c0 66.274-53.726 120-120 120s-120-53.726-120-120 53.726-120 120-120 120 53.726 120 120z" fill="#c92e43"/><path d="m344.5 194c0 41.421-33.579 75-75 75s-75-33.579-75-75 33.579-75 75-75 75 33.579 75 75z" fill="#e43950"/><path d="m298.068 120.455-9.06-4.225c-1.556-.726-3.406-.052-4.132 1.504l-54.48 116.832c-2.775-2.282-5.88-4.256-9.287-5.845-21.798-10.165-47.709-.734-57.873 21.064-10.165 21.798-.734 47.709 21.064 57.874s47.709.734 57.873-21.064l65.354-140.152c4.564-9.789.329-21.424-9.459-25.988zm-72.28 156.935c-5.081 10.896-18.033 15.611-28.93 10.53s-15.611-18.033-10.53-28.93c5.081-10.896 18.033-15.611 28.93-10.53 10.896 5.081 15.611 18.034 10.53 28.93z" fill="#fc9302"/><path d="m337.765 250.454c-10.165-21.798-36.075-31.229-57.873-21.064-3.407 1.589-6.512 3.562-9.287 5.844l-54.48-116.832c-.726-1.556-2.576-2.229-4.132-1.504l-9.06 4.225c-9.788 4.564-14.023 16.2-9.459 25.988l65.354 140.152c10.165 21.798 36.075 31.229 57.873 21.064 21.798-10.164 31.229-36.074 21.064-57.873zm-23.093 26.936c-5.081 10.896-18.033 15.611-28.93 10.53-10.896-5.081-15.611-18.033-10.53-28.93 5.081-10.896 18.033-15.611 28.93-10.53s15.611 18.034 10.53 28.93zm-35.75-146.89 18.019 38.642-18.019 38.642-18.019-38.642z" fill="#f1ca50"/><path d="m259.785 231.068c0 5.128-4.157 9.285-9.285 9.285s-9.285-4.157-9.285-9.285 4.157-9.285 9.285-9.285 9.285 4.157 9.285 9.285z" fill="#d98800"/><path d="m419.064 252.913c-5.318 8.865-8.214 18.971-8.396 29.307-.37 20.944-11.711 40.418-30.08 50.488-3.235 1.773-6.282 3.838-9.108 6.162-5.836 4.799-14.348 4.416-19.691-.927-5.672-5.672-5.673-14.797-.127-20.593 24.222-25.312 39.038-59.697 38.836-97.544-.408-76.382-62.851-138.824-139.233-139.233-37.908-.203-72.344 14.662-97.667 38.953-5.721 5.488-14.745 5.482-20.351-.124-5.697-5.697-5.64-14.938.112-20.579 3.499-3.432 6.572-7.3 9.135-11.525 10.941-18.038 30.29-29.364 51.382-28.885 10.473.238 20.818-2.317 29.973-7.4 18.428-10.23 40.914-9.852 58.988.992 8.762 5.258 18.738 8.148 28.95 8.391 21.188.504 40.714 11.832 51.001 30.362 5.026 9.054 12.347 16.625 21.226 21.953 18.048 10.829 28.99 30.538 28.636 51.583-.174 10.354 2.38 20.572 7.407 29.626 10.216 18.404 9.835 40.943-.993 58.993z" fill="#fcb30b"/><path d="m361.214 193.383-6.941-20.544c-.399-1.182-1.327-2.11-2.509-2.509l-20.544-6.941c-3.626-1.225-3.626-6.354 0-7.579l20.544-6.941c1.182-.399 2.11-1.327 2.509-2.509l6.941-20.544c1.225-3.626 6.354-3.626 7.579 0l6.941 20.544c.399 1.182 1.327 2.11 2.509 2.509l20.544 6.941c3.626 1.225 3.626 6.354 0 7.579l-20.544 6.941c-1.182.399-2.11 1.327-2.509 2.509l-6.941 20.544c-1.225 3.626-6.354 3.626-7.579 0zm-230.973 37.819 5.123-15.164c.295-.872.98-1.557 1.852-1.852l15.164-5.123c2.677-.904 2.677-4.69 0-5.594l-15.164-5.123c-.872-.295-1.557-.98-1.852-1.852l-5.123-15.164c-.904-2.677-4.69-2.677-5.594 0l-5.123 15.164c-.295.872-.98 1.557-1.852 1.852l-15.164 5.123c-2.677.904-2.677 4.69 0 5.594l15.164 5.123c.872.295 1.557.98 1.852 1.852l5.123 15.164c.904 2.676 4.689 2.676 5.594 0z" fill="#fff5f5"/></g></svg>