<svg id="Capa_1" enable-background="new 0 0 512 512" height="512" viewBox="0 0 512 512" width="512" xmlns="http://www.w3.org/2000/svg"><g><path d="m500.999 261.5c0 135.31-109.699 245-245.02 245s-245.02-109.69-245.02-245 109.699-245 245.02-245 245.02 109.691 245.02 245z" fill="#fda800"/><path d="m255.979 16.501c32.601 0 63.715 6.367 92.166 17.924 44.206 41.23 71.847 99.99 71.847 165.205 0 124.745-101.134 225.87-225.889 225.87-65.221 0-123.985-27.639-165.219-71.842-11.558-28.449-17.926-59.56-17.926-92.158.001-135.309 109.7-244.999 245.021-244.999z" fill="#f5c02c"/><path d="m400.25 373.493-5.124-15.164c-.295-.872-.98-1.557-1.852-1.852l-15.165-5.123c-2.677-.904-2.677-4.69 0-5.594l15.165-5.123c.872-.295 1.557-.98 1.852-1.852l5.124-15.164c.904-2.677 4.69-2.677 5.595 0l5.124 15.164c.295.872.98 1.557 1.852 1.852l15.165 5.123c2.677.904 2.677 4.69 0 5.594l-15.165 5.123c-.872.295-1.557.98-1.852 1.852l-5.124 15.164c-.904 2.676-4.69 2.676-5.595 0z" fill="#f9d19a"/><path d="m357.613 462.237-118.347-238.141c-.42-.998-.906-1.98-1.462-2.941l-117.01-202.65c-7.18-12.436-23.083-16.696-35.52-9.517l-78.495 45.317c-6.063 3.5-8.589 11.17-5.378 17.39 3.428 6.641 11.662 9.004 18.061 5.31-6.218 3.59-8.349 11.541-4.758 17.759 3.589 6.216 11.536 8.347 17.753 4.761-6.213 3.591-8.341 11.539-4.752 17.755 3.59 6.217 11.54 8.348 17.758 4.758l.002-.001c-6.218 3.59-8.349 11.541-4.759 17.759 3.589 6.216 11.536 8.347 17.753 4.761-6.213 3.591-8.341 11.539-4.752 17.755 3.59 6.217 11.54 8.348 17.758 4.758l.002-.001c-6.218 3.59-8.349 11.541-4.759 17.759 3.587 6.213 11.529 8.345 17.745 4.766-6.207 3.594-8.331 11.538-4.744 17.75 3.59 6.217 11.54 8.348 17.757 4.759-6.216 3.59-8.346 11.541-4.756 17.757v.001c3.589 6.216 11.536 8.346 17.753 4.761-6.213 3.591-8.341 11.539-4.752 17.755v.001c3.59 6.217 11.54 8.347 17.757 4.758-6.216 3.59-8.346 11.541-4.756 17.758 3.59 6.217 11.54 8.348 17.758 4.758l.297-.171c-6.046 3.506-8.563 11.165-5.355 17.377 3.428 6.641 11.662 9.004 18.061 5.31l57.704-33.313 134.489 202.586c2.694 4.059 8.08 5.323 12.3 2.887s5.815-7.728 3.647-12.091zm-174.84-209.313 2.489-1.437h-.001z" fill="#6e61b5"/><path d="m353.964 474.332c-4.219 2.436-9.605 1.171-12.3-2.887l-134.488-202.586-57.704 33.313c-6.399 3.694-14.633 1.331-18.061-5.31-3.211-6.22-.684-13.891 5.378-17.391l48.472-27.983c12.437-7.18 16.698-23.081 9.517-35.517l-71.31 41.167c-6.218 3.589-14.168 1.459-17.758-4.758v-.001c-3.59-6.218-1.46-14.169 4.759-17.759l71.308-41.167-13.001-22.517-71.31 41.167c-6.218 3.589-14.168 1.459-17.758-4.758-3.59-6.218-1.46-14.169 4.759-17.759l71.309-41.167-13.001-22.517-71.31 41.167c-6.218 3.589-14.168 1.459-17.758-4.758-3.59-6.218-1.459-14.169 4.759-17.759l71.308-41.167-13.001-22.517-71.31 41.167c-6.218 3.589-14.168 1.459-17.758-4.758-3.59-6.218-1.46-14.169 4.759-17.759l71.308-41.167c-7.18-12.436-23.083-16.696-35.52-9.517l-48.79 28.167c-6.399 3.694-14.633 1.331-18.061-5.31-3.211-6.22-.684-13.89 5.378-17.39l78.497-45.313c12.437-7.18 28.339-2.919 35.52 9.517l117.01 202.65c.555.961 1.042 1.944 1.462 2.941l118.347 238.141c2.167 4.363.569 9.659-3.651 12.095z" fill="#463b83"/><path d="m182.687 135.788-6.942-20.544c-.399-1.182-1.327-2.11-2.509-2.509l-20.546-6.941c-3.627-1.225-3.627-6.354 0-7.579l20.546-6.941c1.182-.399 2.11-1.327 2.509-2.509l6.942-20.544c1.225-3.626 6.354-3.626 7.58 0l6.942 20.544c.399 1.182 1.327 2.11 2.509 2.509l20.546 6.941c3.626 1.225 3.626 6.354 0 7.579l-20.546 6.941c-1.182.399-2.11 1.327-2.509 2.509l-6.942 20.544c-1.226 3.626-6.355 3.626-7.58 0z" fill="#fff5f5"/><path d="m474.457 72.67c-3.59 6.218-11.54 8.348-17.757 4.759 6.216 3.591 8.346 11.541 4.756 17.758-3.588 6.215-11.534 8.346-17.751 4.762 6.212 3.592 8.339 11.539 4.75 17.754-3.59 6.217-11.54 8.348-17.757 4.759 6.216 3.59 8.346 11.54 4.756 17.757-3.59 6.217-11.54 8.348-17.758 4.758l-.002-.001c6.218 3.59 8.349 11.541 4.759 17.759-3.589 6.216-11.538 8.347-17.755 4.76 6.215 3.591 8.344 11.54 4.754 17.756-3.59 6.217-11.54 8.348-17.758 4.758l-.002-.001c6.218 3.59 8.349 11.541 4.759 17.759-3.589 6.217-11.538 8.347-17.755 4.76 6.215 3.591 8.344 11.54 4.754 17.756v.001c-3.588 6.215-11.534 8.346-17.751 4.762 6.212 3.592 8.339 11.539 4.75 17.754v.001c-3.59 6.217-11.54 8.347-17.758 4.758l-82.569-47.667c-6.218-3.59-8.349-11.541-4.759-17.759 3.588-6.215 11.534-8.346 17.751-4.762-6.212-3.592-8.339-11.539-4.75-17.754 3.589-6.216 11.538-8.347 17.755-4.76-6.215-3.591-8.344-11.54-4.754-17.756 3.59-6.217 11.54-8.348 17.758-4.758l.002.001c-6.218-3.59-8.349-11.541-4.759-17.759 3.589-6.216 11.538-8.347 17.755-4.76-6.215-3.591-8.344-11.54-4.754-17.756 3.59-6.217 11.54-8.348 17.758-4.758l.002.001c-6.218-3.59-8.349-11.541-4.759-17.759 3.589-6.217 11.538-8.347 17.755-4.76-6.215-3.591-8.344-11.54-4.754-17.756 3.59-6.218 11.54-8.348 17.758-4.758l.002.001c-6.218-3.59-8.349-11.541-4.759-17.759 3.589-6.217 11.538-8.347 17.755-4.76-6.215-3.591-8.344-11.54-4.754-17.757 3.59-6.218 11.54-8.348 17.758-4.758l82.569 47.667c6.219 3.588 8.349 11.539 4.759 17.757z" fill="#962437"/><path d="m474.457 72.67c-3.59 6.218-11.54 8.348-17.758 4.759l-82.569-47.668c-6.218-3.59-8.349-11.541-4.758-17.759 3.59-6.218 11.54-8.348 17.758-4.758l82.569 47.667c6.218 3.59 8.348 11.541 4.758 17.759zm-30.76 27.274-82.569-47.667c-6.218-3.589-14.168-1.459-17.758 4.758-3.59 6.218-1.46 14.169 4.759 17.759l82.569 47.667c6.218 3.589 14.168 1.459 17.758-4.758 3.589-6.218 1.459-14.169-4.759-17.759zm-26.003 45.034-82.569-47.668c-6.218-3.589-14.168-1.459-17.758 4.758-3.59 6.218-1.46 14.169 4.759 17.759l82.569 47.667c6.218 3.589 14.168 1.459 17.758-4.758 3.59-6.217 1.46-14.169-4.759-17.758zm-52.004 90.066-82.569-47.667c-6.218-3.589-14.168-1.459-17.758 4.758-3.59 6.218-1.459 14.169 4.759 17.759l82.569 47.667c6.218 3.589 14.168 1.459 17.758-4.758v-.001c3.59-6.217 1.459-14.168-4.759-17.758zm26.002-45.033-82.569-47.667c-6.218-3.589-14.168-1.459-17.758 4.758-3.59 6.218-1.46 14.169 4.759 17.759l82.569 47.667c6.218 3.589 14.168 1.459 17.758-4.758 3.59-6.218 1.46-14.169-4.759-17.759z" fill="#ab2538"/><path d="m505.498 75.578-82.57-47.668c-6.218-3.589-14.168-1.459-17.758 4.758-3.59 6.218-1.46 14.169 4.759 17.759l-.002-.001c-6.218-3.589-14.168-1.459-17.758 4.758-3.59 6.218-1.459 14.169 4.759 17.759l5.881 3.395-5.883-3.396c-6.218-3.589-14.168-1.459-17.758 4.758-3.59 6.218-1.46 14.169 4.759 17.759l-.002-.001c-6.218-3.589-14.168-1.459-17.758 4.758-3.589 6.215-1.462 14.162 4.75 17.754-6.216-3.584-14.162-1.453-17.751 4.762-3.589 6.215-1.462 14.162 4.75 17.754-6.217-3.584-14.163-1.453-17.751 4.762-3.59 6.218-1.46 14.169 4.759 17.759l-.002-.001c-6.218-3.589-14.168-1.459-17.758 4.758-3.59 6.218-1.46 14.169 4.759 17.759h-.002c-6.218-3.59-14.168-1.459-17.758 4.758-3.59 6.218-1.46 14.169 4.759 17.759h-.002c-6.218-3.589-14.168-1.459-17.758 4.758-3.59 6.218-1.46 14.169 4.759 17.759l82.569 47.667c6.218 3.589 14.168 1.459 17.758-4.758 3.59-6.218 1.46-14.169-4.759-17.759h.002c6.218 3.59 14.168 1.459 17.758-4.758 3.59-6.218 1.46-14.169-4.759-17.759h.001c6.218 3.589 14.168 1.459 17.758-4.758 3.59-6.218 1.46-14.169-4.759-17.759l.002.001c6.218 3.589 14.168 1.459 17.758-4.758 3.589-6.215 1.462-14.162-4.75-17.754 6.217 3.583 14.162 1.453 17.751-4.762 3.588-6.215 1.462-14.162-4.75-17.754 6.217 3.583 14.163 1.453 17.751-4.762 3.59-6.218 1.46-14.169-4.759-17.759l.002.001c6.218 3.589 14.168 1.459 17.758-4.758 3.588-6.215 1.461-14.162-4.75-17.754 6.217 3.584 14.162 1.453 17.751-4.762 3.59-6.218 1.46-14.169-4.759-17.759l.002.001c6.218 3.589 14.168 1.459 17.758-4.758 3.591-6.217 1.461-14.169-4.757-17.758z" fill="#c92e43"/><path d="m510.256 93.336c-3.59 6.218-11.54 8.348-17.758 4.759l-82.569-47.667c-6.218-3.59-8.349-11.541-4.759-17.759 3.59-6.217 11.54-8.348 17.758-4.758l82.569 47.667c6.219 3.589 8.349 11.541 4.759 17.758zm-30.761 27.275-82.569-47.667c-6.218-3.589-14.168-1.459-17.758 4.758-3.59 6.218-1.46 14.169 4.759 17.759l82.569 47.667c6.218 3.589 14.168 1.459 17.758-4.758 3.59-6.218 1.459-14.169-4.759-17.759zm-26.002 45.033-82.569-47.667c-6.218-3.589-14.168-1.459-17.758 4.758-3.59 6.218-1.46 14.169 4.758 17.759l82.569 47.667c6.218 3.589 14.168 1.459 17.758-4.758 3.591-6.218 1.46-14.169-4.758-17.759zm-52.004 90.067-82.569-47.667c-6.218-3.589-14.168-1.459-17.758 4.758-3.59 6.218-1.46 14.169 4.759 17.759l82.569 47.667c6.218 3.589 14.168 1.459 17.758-4.758 3.59-6.219 1.459-14.169-4.759-17.759zm26.002-45.034-82.569-47.667c-6.218-3.589-14.168-1.459-17.758 4.758-3.59 6.218-1.46 14.169 4.759 17.759l82.569 47.667c6.218 3.589 14.168 1.459 17.758-4.758 3.59-6.218 1.459-14.169-4.759-17.759z" fill="#ea5569"/><path d="m199.737 474.406c-.085-.028-.17-.056-.255-.083-7.973-2.618-11.726-11.727-7.839-19.163l151.955-290.696 47.5 27.422-175.764 276.885c-3.308 5.211-9.731 7.554-15.597 5.635z" fill="#962437"/><path d="m479.523 67.897-110.676 191.681c-5.244 9.083-16.538 12.496-25.854 8.088l-68.079 107.248c-5.429 8.553-16.764 11.085-25.317 5.656-8.05-5.11-10.843-15.534-6.426-23.984l58.846-112.575c-8.475-5.864-11.165-17.352-5.921-26.435l110.676-191.681c5.523-9.565 17.754-12.843 27.32-7.32l38.111 22.001c9.566 5.522 12.843 17.755 7.32 27.321z" fill="#c92e43"/><path d="m462.765 65.92c-3.59 6.218-11.54 8.348-17.758 4.759l-23.386-13.501c-6.218-3.59-8.349-11.541-4.759-17.759 3.59-6.217 11.54-8.348 17.758-4.758l23.386 13.501c6.219 3.589 8.349 11.54 4.759 17.758zm-30.761 27.274-23.386-13.501c-6.218-3.589-14.168-1.459-17.758 4.758-3.59 6.218-1.46 14.169 4.759 17.759l23.386 13.501c6.218 3.589 14.168 1.459 17.758-4.758 3.59-6.218 1.46-14.169-4.759-17.759zm-26.002 45.034-23.386-13.501c-6.218-3.589-14.168-1.459-17.758 4.758-3.59 6.218-1.46 14.169 4.759 17.759l23.386 13.501c6.218 3.589 14.168 1.459 17.758-4.758 3.59-6.218 1.459-14.17-4.759-17.759zm-52.004 90.066-23.386-13.5c-6.218-3.589-14.168-1.459-17.758 4.758-3.59 6.218-1.46 14.169 4.758 17.759l23.386 13.5c6.218 3.589 14.168 1.459 17.758-4.758v-.001c3.591-6.217 1.46-14.168-4.758-17.758zm26.002-45.033-23.386-13.501c-6.218-3.589-14.168-1.459-17.758 4.758-3.59 6.218-1.46 14.169 4.759 17.759l23.386 13.501c6.218 3.589 14.168 1.459 17.758-4.758 3.59-6.218 1.459-14.169-4.759-17.759z" fill="#ea5569"/><path d="m449.764 88.437c-3.59 6.218-11.54 8.348-17.758 4.759l-23.386-13.502c-6.218-3.59-8.349-11.541-4.759-17.759 3.59-6.217 11.54-8.348 17.758-4.758l23.386 13.501c6.219 3.59 8.349 11.541 4.759 17.759zm-56.763 72.307-23.386-13.501c-6.218-3.589-14.168-1.459-17.758 4.758-3.59 6.218-1.46 14.169 4.759 17.759l23.386 13.501c6.218 3.589 14.168 1.459 17.758-4.758 3.59-6.218 1.459-14.169-4.759-17.759zm-26.002 45.033-23.386-13.5c-6.218-3.59-14.168-1.459-17.758 4.758-3.59 6.218-1.46 14.169 4.759 17.759l23.386 13.501c6.218 3.589 14.168 1.459 17.758-4.758v-.001c3.59-6.218 1.459-14.169-4.759-17.759zm52.004-90.066-23.386-13.501c-6.218-3.589-14.168-1.459-17.758 4.758-3.59 6.218-1.46 14.169 4.758 17.759l23.386 13.501c6.218 3.589 14.168 1.459 17.758-4.758 3.591-6.218 1.46-14.169-4.758-17.759z" fill="#f7a4ae"/></g></svg>