<svg id="Capa_1" enable-background="new 0 0 501 501" height="512" viewBox="0 0 501 501" width="512" xmlns="http://www.w3.org/2000/svg"><g><path d="m5.5 256c0-135.133 109.404-244.714 244.47-244.999 134.706-.285 243.785 107.093 245.509 241.789.967 75.486-32.21 143.25-85.061 188.826-.164.141-.406.141-.57 0-42.84-36.715-98.504-58.894-159.348-58.894-60.807 0-116.44 22.152-159.269 58.826-.21.18-.519.18-.729-.001-52.054-44.927-85.002-111.389-85.002-185.547z" fill="#003c79"/><path d="m455 204.5c0 112.942-91.558 204.5-204.5 204.5s-204.5-91.558-204.5-204.5c0-59.855 25.715-113.705 66.701-151.103 39.262-26.755 86.704-42.397 137.799-42.397s98.537 15.642 137.799 42.397c40.986 37.398 66.701 91.248 66.701 151.103z" fill="#004b92"/><path d="m142.5 452.447c0 10.9-11.98 17.492-21.235 11.734-10.85-6.75-21.135-14.324-30.765-22.636v-31.545c0-38.66 31.34-70 70-70h52c-38.66 0-70 31.34-70 70z" fill="#c92e43"/><path d="m410.5 410v31.545c-42.926 37.05-98.847 59.455-160 59.455-47.757 0-92.322-13.665-130-37.296v-53.704c0-38.66 31.34-70 70-70h150c38.66 0 70 31.34 70 70z" fill="#e43950"/><path d="m355.5 450v27.423c-6.514 3.094-13.186 5.91-20 8.431v-35.854c0-5.523 4.477-10 10-10s10 4.477 10 10zm-200-10c-5.523 0-10 4.477-10 10v27.423c6.514 3.094 13.185 5.91 20 8.431v-35.854c0-5.523-4.477-10-10-10zm85 60.799c3.317.133 6.651.201 10 .201s6.683-.067 10-.201v-120.799h-20z" fill="#c92e43"/><path d="m257.917 440.5c0 4.096-3.321 7.417-7.417 7.417s-7.417-3.321-7.417-7.417 3.321-7.417 7.417-7.417 7.417 3.321 7.417 7.417zm-7.417 25.81c-4.096 0-7.417 3.321-7.417 7.417s3.321 7.417 7.417 7.417 7.417-3.321 7.417-7.417-3.321-7.417-7.417-7.417z" fill="#f7a4ae"/><path d="m377.423 150c0 60.752-49.249 110-110 110h-33.846c-60.751 0-110-49.249-110-110 0-60.751 49.249-110 110-110h33.846c60.752 0 110 49.249 110 110z" fill="#f4aa39"/><path d="m279.25 259.372c-3.885.415-7.831.629-11.827.629h-33.846c-60.751 0-110-49.249-110-110 0-60.751 49.249-110 110-110h33.846c3.996 0 7.941.213 11.827.629-55.19 5.9-98.173 52.615-98.173 109.371 0 56.755 42.983 103.471 98.173 109.371z" fill="#d98800"/><path d="m320.709 336.226c1.129 3.307.318 6.836-1.927 9.285l-57.224 62.426c-5.945 6.486-16.17 6.486-22.115 0l-57.224-62.426c-2.245-2.449-3.056-5.978-1.927-9.285 1.295-3.795 5.02-6.226 9.031-6.226h122.356c4.009 0 7.734 2.431 9.03 6.226z" fill="#fff5f5"/><path d="m140.5 250c-13.807 0-25-11.193-25-25v-10c0-13.807 11.193-25 25-25 13.807 0 25 11.193 25 25v10c0 13.807-11.193 25-25 25z" fill="#f4e0d8"/><path d="m130.5 210v20c0 8.178 3.927 15.439 9.998 20-13.806-.001-24.998-11.194-24.998-25v-10c0-13.806 11.192-24.999 24.998-25-6.071 4.561-9.998 11.822-9.998 20zm230-20-4-9.833 4-10.167c0-60.751-49.249-110-110-110-60.751 0-110 49.249-110 110l4.125 11.375-4.125 28.625c0 50.351 33.83 92.801 80 105.859v34.141c0 16.569 13.431 30 30 30 16.569 0 30-13.431 30-30v-34.141c33.586-9.499 60.641-34.551 72.895-66.883 2.252.666 4.637 1.024 7.105 1.024 13.807 0 25-11.193 25-25v-10c0-13.807-11.193-25-25-25z" fill="#eac0b5"/><path d="m360.5 170-6 19.52 6 20.48c0 50.792-34.425 93.543-81.216 106.195-9.023 2.44-18.545 2.44-27.568 0-46.791-12.652-81.216-55.403-81.216-106.195v-40c0-55.663 41.345-101.669 95-108.985 53.655 7.316 95 53.322 95 108.985z" fill="#f4e0d8"/><path d="m218 177.5c0 8.284-6.716 15-15 15s-15-6.716-15-15 6.716-15 15-15 15 6.716 15 15zm80-15c-8.284 0-15 6.716-15 15s6.716 15 15 15 15-6.716 15-15-6.716-15-15-15z" fill="#002c5d"/><path d="m220.5 170c0 4.142-3.358 7.5-7.5 7.5s-7.5-3.358-7.5-7.5 3.358-7.5 7.5-7.5 7.5 3.358 7.5 7.5zm87.5-7.5c-4.142 0-7.5 3.358-7.5 7.5s3.358 7.5 7.5 7.5 7.5-3.358 7.5-7.5-3.358-7.5-7.5-7.5z" fill="#fff5f5"/><path d="m290.772 42.483-17.752 7.996c-23.678 10.665-41.743 28.671-52.72 50.121-5.508 10.764-18.343 15.484-29.481 10.781-16.463-6.952-30.88-17.796-42.099-31.38 17.674-21.4 43.287-36.001 72.328-39.294-3.47-4.292-5.549-9.757-5.549-15.706 0-13.807 11.193-25 25-25h20c13.807 0 25 11.193 25 25 0 5.949-2.078 11.413-5.549 15.706 3.666.414 7.276 1.009 10.822 1.776z" fill="#d98800"/><g fill="#f4aa39"><path d="m352.28 80c-20.176 24.43-50.698 40-84.857 40h-33.846c-16.176 0-31.536-3.492-45.369-9.763 12.059-24.169 33.349-44.371 60.228-57.586 2.36-1.16 2.368-4.451.062-5.716-7.746-4.247-12.998-12.477-12.998-21.935 0-13.807 11.193-25 25-25s25 11.193 25 25c.156 10.344-5.549 15.706-5.549 15.706s1.538.186 1.756.214c28.318 3.672 53.256 18.112 70.573 39.08z"/><path d="m183.5 280.022v-19.842c0-21.028 15.894-38.074 35.5-38.074h63c19.606 0 35.5 17.047 35.5 38.074v19.842c0 43.939-28.646 80.701-67 89.978-38.354-9.276-67-46.039-67-89.978z"/><path d="m360.5 170 .196.402c3.024 6.199 2.951 13.46-.196 19.598v41.27c0 60.751-49.249 110-110 110-60.751 0-110-49.249-110-110v-1.27-60c7.645 5.097 12.796 13.173 14.193 22.254l4.149 26.967c15.658 22.748 39.373 51.282 63.242 57.647 10.188 8.238 20.79 13.458 31.35 13.079 9.964-.358 19.896-5.897 29.413-14.206 12.948-3.978 25.838-14.779 37.287-27.447 13.873-15.35 22.857-34.488 26.003-54.937l.17-1.103c1.397-9.081 6.548-17.157 14.193-22.254z"/></g><path d="m272 361.411c-6.688 3.836-13.903 6.752-21.5 8.589-23.623-5.714-43.564-21.855-55.396-43.677-32.66-19.075-54.604-54.501-54.604-95.053v-41.269c-3.737-6.041-3.793-13.661-.146-19.756l.146-.245c7.645 5.097 12.796 13.173 14.193 22.254 3.117 20.258 11.909 39.28 25.627 54.509 1.367 1.518 2.756 3.014 4.164 4.479 3.75-16.715 17.78-29.136 34.516-29.136h43c-19.606 0-35.5 17.047-35.5 38.074v19.842c0 35.236 18.422 65.857 45.5 81.389z" fill="#d98800"/><path d="m250.5 280c-16.569 0-30-13.431-30-30 0-4.142 3.358-7.5 7.5-7.5h45c4.142 0 7.5 3.358 7.5 7.5 0 16.569-13.431 30-30 30z" fill="#fff5f5"/><path d="m258 279.055c-2.397.617-4.91.945-7.5.945-16.568 0-30-13.431-30-30 0-4.142 3.358-7.5 7.5-7.5h15c-4.142 0-7.5 3.358-7.5 7.5 0 13.979 9.561 25.724 22.5 29.055z" fill="#e3f0fb"/><path d="m236 218.731c-2.929-2.93-2.929-7.678 0-10.607 2.929-2.928 7.678-2.928 10.606 0 1.042 1.042 2.424 1.616 3.893 1.616s2.851-.574 3.893-1.616c2.929-2.928 7.678-2.928 10.606 0 2.929 2.93 2.929 7.678 0 10.607-3.875 3.875-9.024 6.009-14.5 6.009s-10.623-2.134-14.498-6.009z" fill="#e1a595"/><path d="m423.68 319.058-6.941-20.544c-.399-1.182-1.327-2.11-2.509-2.509l-20.544-6.941c-3.626-1.225-3.626-6.354 0-7.579l20.544-6.941c1.182-.399 2.11-1.327 2.509-2.509l6.941-20.544c1.225-3.626 6.354-3.626 7.579 0l6.941 20.544c.399 1.182 1.327 2.11 2.509 2.509l20.544 6.941c3.626 1.225 3.626 6.354 0 7.579l-20.544 6.941c-1.182.399-2.11 1.327-2.509 2.509l-6.941 20.544c-1.225 3.626-6.354 3.626-7.579 0zm-350.811-8.848 5.123-15.164c.295-.872.98-1.557 1.852-1.852l15.164-5.123c2.677-.904 2.677-4.69 0-5.594l-15.164-5.123c-.872-.295-1.557-.98-1.852-1.852l-5.123-15.164c-.904-2.677-4.69-2.677-5.594 0l-5.123 15.164c-.295.872-.98 1.557-1.852 1.852l-15.164 5.123c-2.677.904-2.677 4.69 0 5.594l15.164 5.123c.872.295 1.557.98 1.852 1.852l5.123 15.164c.904 2.677 4.69 2.677 5.594 0zm281.852-208.311 3.305-9.783c.19-.563.632-1.005 1.195-1.195l9.783-3.305c1.727-.583 1.727-3.026 0-3.609l-9.783-3.305c-.563-.19-1.005-.632-1.195-1.195l-3.305-9.783c-.583-1.727-3.026-1.727-3.609 0l-3.305 9.783c-.19.563-.632 1.005-1.195 1.195l-9.783 3.305c-1.727.583-1.727 3.026 0 3.609l9.783 3.305c.563.19 1.005.632 1.195 1.195l3.305 9.783c.583 1.727 3.025 1.727 3.609 0z" fill="#fff5f5"/></g></svg>