<svg id="Capa_1" enable-background="new 0 0 501 501" height="512" viewBox="0 0 501 501" width="512" xmlns="http://www.w3.org/2000/svg"><g><path d="m495.5 256c0 135.31-109.69 245-245 245s-245-109.69-245-245 109.69-245 245-245 245 109.69 245 245z" fill="#f5c02c"/><path d="m5.513 253.444h489.974c.009.851.013 1.703.013 2.556 0 135.31-109.69 245-245 245s-245-109.69-245-245c0-.853.005-1.705.013-2.556z" fill="#fda800"/><path d="m444.5 206.111-194 80-198-80v-60l186.884-143.023c5.38-4.117 12.852-4.117 18.233 0l186.883 143.023z" fill="#528ed7"/><path d="m401.5 286.111h-302c-8.284 0-15-6.716-15-15v-160c0-8.284 6.716-15 15-15h302c8.284 0 15 6.716 15 15v160c0 8.285-6.716 15-15 15z" fill="#f7e6b0"/><path d="m401.5 286.111h-265.887c-8.284 0-15-6.716-15-15v-160c0-8.284 6.716-15 15-15h265.887c8.284 0 15 6.716 15 15v160c0 8.285-6.716 15-15 15z" fill="#fff5f5"/><path d="m315.389 270h-129.778c-39.274 0-71.111-31.838-71.111-71.111 0-39.274 31.838-71.111 71.111-71.111h129.777c39.274 0 71.111 31.838 71.111 71.111.001 39.273-31.837 71.111-71.11 71.111z" fill="#e7ac8b"/><path d="m424.5 380h-352c-11.046 0-20-8.954-20-20v-153.889l196 60 196-60v153.889c0 11.046-8.954 20-20 20z" fill="#91cefb"/><path d="m104.5 380h-32c-11.046 0-20-8.954-20-20v-153.889l32 9.796v144.093c0 11.046 8.954 20 20 20z" fill="#63bcfa"/><path d="m474.5 325.356v14.39h5.431c8.046 0 14.569 6.523 14.569 14.569v5.069c0 8.046-6.523 14.569-14.569 14.569h-5.431v14.39h5.431c8.046 0 14.569 6.523 14.569 14.569v5.069c0 8.046-6.523 14.569-14.569 14.569h-5.431v14.39h5.431c8.046 0 14.569 6.523 14.569 14.569v5.069c0 8.046-6.523 14.569-14.569 14.569h-247.431c-5.523 0-10-4.477-10-10v-160c0-5.523 4.477-10 10-10h247.431c8.046 0 14.569 6.523 14.569 14.569v5.069c0 8.046-6.523 14.569-14.569 14.569h-5.431z" fill="#c92e43"/><path d="m304.5 471.148h-85.431c-8.046 0-14.569-6.523-14.569-14.569v-5.069c0-8.046 6.523-14.569 14.569-14.569h3.431v-14.39h-3.431c-8.046 0-14.569-6.523-14.569-14.569v-5.069c0-8.046 6.523-14.569 14.569-14.569h3.431v-14.39h-3.431c-8.046 0-14.569-6.523-14.569-14.569v-5.069c0-8.046 6.523-14.569 14.569-14.569h3.431v-14.39h-3.431c-8.046 0-14.569-6.523-14.569-14.569v-5.069c0-8.046 6.523-14.569 14.569-14.569h85.431c-5.523 0-10 4.477-10 10v160c0 5.521 4.477 9.998 10 9.998z" fill="#962437"/><path d="m426.787 296.514-55.024 131.111c-1.205 2.871-3.988 4.6-6.918 4.6-.968 0-1.951-.188-2.899-.586-3.819-1.604-5.616-5.999-4.013-9.818l55.024-131.111c1.603-3.818 5.999-5.614 9.818-4.014 3.818 1.603 5.615 5.998 4.012 9.818zm-72.474 54.992c-17.542 0-31.813-16.039-31.813-35.753s14.271-35.753 31.813-35.753 31.813 16.039 31.813 35.753-14.272 35.753-31.813 35.753zm16.812-35.753c0-11.443-7.542-20.753-16.813-20.753s-16.813 9.31-16.813 20.753 7.542 20.753 16.813 20.753 16.813-9.31 16.813-20.753zm89.313 89.643c0 19.714-14.271 35.753-31.813 35.753s-31.813-16.039-31.813-35.753 14.271-35.752 31.813-35.752 31.813 16.038 31.813 35.752zm-15 0c0-11.442-7.542-20.752-16.813-20.752s-16.813 9.31-16.813 20.752c0 11.443 7.542 20.753 16.813 20.753s16.813-9.31 16.813-20.753z" fill="#f1ca50"/><path d="m332.5 407.5c0 4.142-3.358 7.5-7.5 7.5h-75c-4.142 0-7.5-3.358-7.5-7.5s3.358-7.5 7.5-7.5h75c4.142 0 7.5 3.358 7.5 7.5zm-82.5-22.5h55c4.142 0 7.5-3.358 7.5-7.5s-3.358-7.5-7.5-7.5h-55c-4.142 0-7.5 3.358-7.5 7.5s3.358 7.5 7.5 7.5zm55 45h-55c-4.142 0-7.5 3.358-7.5 7.5s3.358 7.5 7.5 7.5h55c4.142 0 7.5-3.358 7.5-7.5s-3.358-7.5-7.5-7.5z" fill="#f5dc90"/><path d="m289.051 164.179c6.401 9.612 19.987 25.908 32.598 33.816 14.296 8.964 31.727-4.903 33.618 0 .977 2.534 3.954 14.931-25.213 25.213-38.94 13.727-63.829-6.245-76.659-23.373-.412-.412-.816-.83-1.211-1.253-21.814-23.348 12.267-57.429 35.615-35.615.603.565 1.093.974 1.252 1.212z" fill="#c76d36"/><path d="m213.202 162.968c23.348-21.814 57.429 12.267 35.615 35.615-.395.423-.799.841-1.211 1.253-12.83 17.127-37.719 37.1-76.659 23.373-29.167-10.282-26.19-22.679-25.213-25.213 1.891-4.903 19.322 8.964 33.618 0 12.611-7.908 26.197-24.204 32.598-33.816.158-.239.648-.648 1.252-1.212z" fill="#9d5528"/><path d="m248.935 198.456c-.039.042-.078.085-.117.127-.395.423-.799.841-1.211 1.253-12.83 17.127-37.719 37.1-76.659 23.373-29.167-10.282-26.19-22.679-25.213-25.213 1.736-4.501 16.569 6.817 30.049 1.767 3.377 1.93 7.604 3.861 12.886 5.723 26.287 9.266 46.171 3.175 60.265-7.03z" fill="#8f4d24"/><path d="m271.368 217.288c-7.523-5.123-13.486-11.462-17.974-17.452-.412-.412-.816-.83-1.211-1.253-21.814-23.348 12.267-57.429 35.615-35.615.604.565 1.094.973 1.253 1.211 2.718 4.081 6.731 9.367 11.414 14.704-20.969-7.777-43.821 18.177-29.097 38.405z" fill="#ab5e2e"/><path d="m144.759 407.993-5.123-15.164c-.295-.872-.98-1.557-1.852-1.852l-15.164-5.123c-2.677-.904-2.677-4.69 0-5.594l15.164-5.123c.872-.295 1.557-.98 1.852-1.852l5.123-15.164c.904-2.677 4.69-2.677 5.594 0l5.123 15.164c.295.872.98 1.557 1.852 1.852l15.164 5.123c2.677.904 2.677 4.69 0 5.594l-15.164 5.123c-.872.295-1.557.98-1.852 1.852l-5.123 15.164c-.904 2.676-4.689 2.676-5.594 0zm-82.973-70.713 6.941-20.544c.399-1.182 1.327-2.11 2.509-2.509l20.544-6.941c3.626-1.225 3.626-6.354 0-7.579l-20.544-6.941c-1.182-.399-2.11-1.327-2.509-2.509l-6.941-20.544c-1.225-3.626-6.354-3.626-7.579 0l-6.941 20.544c-.399 1.182-1.327 2.11-2.509 2.509l-20.544 6.941c-3.626 1.225-3.626 6.354 0 7.579l20.544 6.941c1.182.399 2.11 1.327 2.509 2.509l6.941 20.544c1.225 3.627 6.354 3.627 7.579 0z" fill="#fff5f5"/></g></svg>