<svg id="Capa_1" enable-background="new 0 0 501 501" height="512" viewBox="0 0 501 501" width="512" xmlns="http://www.w3.org/2000/svg"><g><path d="m495.5 245c0 135.31-109.69 245-245 245s-245-109.69-245-245 109.69-245 245-245 245 109.69 245 245z" fill="#003c79"/><path d="m5.5 245c0-8.782.462-17.457 1.364-26h27.636v-15c0-2.761 2.239-5 5-5h25v-75c0-2.761 2.239-5 5-5h5v-44.438c6.318-6.523 12.995-12.696 20-18.486v62.924h5c2.761 0 5 2.239 5 5v125h100v-195c0-2.761 2.239-5 5-5h10c2.761 0 5 2.239 5 5v35h35c2.761 0 5 2.239 5 5v155h20v-185c0-2.761 2.239-5 5-5h20c2.761 0 5 2.239 5 5v185h80v-115c0-2.761 2.239-5 5-5h20c2.761 0 5 2.239 5 5v15h25c2.761 0 5 2.239 5 5v65h39.636c.986 9.349 1.447 18.855 1.351 28.488-1.342 135.093-110.701 242.95-245.8 242.511-134.936-.438-244.187-109.96-244.187-244.999z" fill="#54469b"/><path d="m360.5 26.023v122.977h-20v-131.941c6.822 2.696 13.494 5.689 20 8.964zm-220 122.977h20v-131.941c-6.822 2.696-13.494 5.689-20 8.964z" fill="#9d5528"/><path d="m150.5 229c-11.046 0-20-8.954-20-20v-100c0-11.046 8.954-20 20-20 11.046 0 20 8.954 20 20v100c0 11.046-8.954 20-20 20zm220-20v-100c0-11.046-8.954-20-20-20-11.046 0-20 8.954-20 20v100c0 11.046 8.954 20 20 20 11.046 0 20-8.954 20-20z" fill="#c98001"/><path d="m449 302.5c0 109.629-88.871 198.5-198.5 198.5s-198.5-88.871-198.5-198.5 88.871-198.5 198.5-198.5 198.5 88.871 198.5 198.5z" fill="#fc9302"/><path d="m133.612 190.628c-14.925-14.925-12.835-39.85 4.558-51.809 33.168-22.806 73.614-35.792 117.142-34.762 105.223 2.49 191.141 88.408 193.631 193.631 1.03 43.528-11.956 83.974-34.762 117.142-11.959 17.393-36.883 19.484-51.809 4.558-11.672-11.672-13.007-29.885-3.729-43.537 15.106-22.227 23.54-49.355 22.419-78.505-2.601-67.645-57.763-122.806-125.408-125.408-29.15-1.121-56.278 7.312-78.505 22.419-13.652 9.278-31.866 7.942-43.537-3.729z" fill="#fcb30b"/><path d="m388.851 302.5c0 76.409-61.942 138.351-138.351 138.351s-138.351-61.942-138.351-138.351 61.942-138.351 138.351-138.351 138.351 61.942 138.351 138.351z" fill="#962437"/><path d="m370.5 302.5c0 66.274-53.726 120-120 120s-120-53.726-120-120 53.726-120 120-120 120 53.726 120 120z" fill="#c92e43"/><path d="m344.5 269c0 38.66-31.34 70-70 70s-70-31.34-70-70 31.34-70 70-70 70 31.34 70 70z" fill="#e43950"/><path d="m288.961 200.614c-2.17-1.012-4.749-.073-5.761 2.097l-52.153 111.842c-2.685-2.208-5.69-4.118-8.986-5.655-21.091-9.835-46.162-.71-55.997 20.381s-.71 46.162 20.381 55.997 46.162.71 55.997-20.381l59.708-128.044c6.365-13.649.46-29.872-13.189-36.237zm-62.372 155.375c-4.916 10.543-17.449 15.104-27.992 10.188s-15.105-17.449-10.188-27.992c4.916-10.543 17.449-15.104 27.992-10.188s15.104 17.449 10.188 27.992z" fill="#fc9302"/><path d="m334.936 329.927c-9.835-21.091-34.906-30.216-55.997-20.381-3.297 1.537-6.301 3.447-8.986 5.655l-52.153-111.843c-1.012-2.17-3.591-3.109-5.761-2.097-13.649 6.364-19.554 22.588-13.189 36.237l59.708 128.044c9.835 21.091 34.906 30.216 55.997 20.381 21.091-9.834 30.216-34.905 20.381-55.996zm-22.345 26.062c-4.916 10.543-17.449 15.104-27.992 10.188s-15.105-17.449-10.188-27.992c4.916-10.543 17.449-15.104 27.992-10.188s15.105 17.449 10.188 27.992zm-35.303-140.6 17.435 37.389-17.435 37.389-17.435-37.389z" fill="#f1ca50"/><path d="m259.484 311.168c0 4.962-4.022 8.984-8.984 8.984s-8.984-4.022-8.984-8.984 4.022-8.984 8.984-8.984 8.984 4.023 8.984 8.984z" fill="#f9eecf"/><path d="m270.5 135c0 11.046-8.954 20-20 20s-20-8.954-20-20 8.954-20 20-20 20 8.954 20 20zm-20 315c-11.046 0-20 8.954-20 20s8.954 20 20 20 20-8.954 20-20-8.954-20-20-20zm181.642-161.642c-7.81-7.811-20.474-7.811-28.284 0s-7.81 20.474 0 28.284 20.474 7.811 28.284 0 7.811-20.474 0-28.284zm-329.142 14.142c0-11.046-8.954-20-20-20s-20 8.954-20 20 8.954 20 20 20 20-8.954 20-20zm287.383-64.432c10.669 2.859 21.636-3.473 24.495-14.142s-3.473-21.636-14.142-24.495-21.636 3.473-24.495 14.142c-2.859 10.67 3.473 21.637 14.142 24.495zm-279.766 128.863c-10.669-2.859-21.636 3.473-24.495 14.142s3.473 21.636 14.142 24.495 21.636-3.473 24.495-14.142-3.473-21.636-14.142-24.495zm228.807-190.171c10.669-2.859 17.001-13.825 14.142-24.495s-13.826-17.001-24.495-14.142-17.001 13.826-14.142 24.495 13.826 17.001 24.495 14.142zm-177.853 251.482c-10.669 2.859-17.001 13.826-14.142 24.495s13.826 17.001 24.495 14.142 17.001-13.825 14.142-24.495c-2.859-10.669-13.825-17.001-24.495-14.142zm-61.304-228.811c-10.669 2.859-17.001 13.826-14.142 24.495s13.826 17.001 24.495 14.142 17.001-13.825 14.142-24.495c-2.859-10.669-13.826-17-24.495-14.142zm290.118 167.5c-10.669 2.859-17.001 13.826-14.142 24.495s13.826 17.001 24.495 14.142 17.001-13.825 14.142-24.495c-2.859-10.669-13.825-17-24.495-14.142zm-218.454-228.807c-10.669-2.859-21.636 3.473-24.495 14.142s3.473 21.636 14.142 24.495 21.636-3.473 24.495-14.142-3.473-21.637-14.142-24.495zm152.324 292.116c-9.566 5.523-12.843 17.755-7.32 27.321s17.755 12.843 27.32 7.321c9.566-5.523 12.843-17.755 7.32-27.321s-17.754-12.844-27.32-7.321z" fill="#fdf061"/><path d="m260.5 135c0 5.523-4.477 10-10 10s-10-4.477-10-10 4.477-10 10-10 10 4.477 10 10zm-10 325c-5.523 0-10 4.477-10 10s4.477 10 10 10 10-4.477 10-10-4.477-10-10-10zm174.571-164.571c-3.905-3.905-10.237-3.905-14.142 0s-3.905 10.237 0 14.142 10.237 3.905 14.142 0 3.905-10.237 0-14.142zm-342.071-2.929c-5.523 0-10 4.477-10 10s4.477 10 10 10 10-4.477 10-10-4.477-10-10-10zm315.147-83.409c-5.335-1.429-10.818 1.736-12.247 7.071s1.736 10.818 7.071 12.247 10.818-1.736 12.247-7.071c1.43-5.334-1.736-10.818-7.071-12.247zm-290.118 167.5c-5.335-1.429-10.818 1.736-12.247 7.071s1.736 10.818 7.071 12.247 10.818-1.736 12.247-7.071c1.429-5.334-1.736-10.818-7.071-12.247zm223.631-228.808c-5.335 1.429-8.5 6.913-7.071 12.247 1.429 5.335 6.913 8.5 12.247 7.071 5.335-1.429 8.5-6.913 7.071-12.247s-6.913-8.501-12.247-7.071zm-167.5 290.118c-5.335 1.429-8.5 6.913-7.071 12.247 1.429 5.335 6.913 8.5 12.247 7.071s8.5-6.913 7.071-12.247-6.913-8.5-12.247-7.071zm-61.305-228.81c-5.335 1.429-8.5 6.913-7.071 12.247 1.429 5.335 6.913 8.5 12.247 7.071 5.335-1.429 8.5-6.913 7.071-12.247-1.429-5.335-6.912-8.501-12.247-7.071zm283.048 179.747c1.429 5.335 6.913 8.5 12.247 7.071 5.335-1.429 8.5-6.913 7.071-12.247s-6.913-8.5-12.247-7.071c-5.335 1.429-8.501 6.913-7.071 12.247zm-216.56-241.055c-5.335-1.429-10.818 1.736-12.247 7.071s1.736 10.818 7.071 12.247 10.818-1.736 12.247-7.071c1.429-5.334-1.736-10.818-7.071-12.247zm155.253 297.189c-1.429 5.335 1.736 10.818 7.071 12.247s10.818-1.736 12.247-7.071-1.736-10.818-7.071-12.247-10.818 1.737-12.247 7.071z" fill="#fdcb6b"/><path d="m270.379 132.773c.811 7.508-2.538 14.293-8.029 18.339-3.25 2.395-7.851.015-7.851-4.022 0-1.576.681-3.113 1.947-4.051 2.804-2.077 4.483-5.586 3.957-9.446-.615-4.513-4.378-8.109-8.912-8.545-3.34-.322-6.383 1.001-8.416 3.253-.943 1.045-2.242 1.699-3.649 1.699h-.359c-4.191 0-6.429-4.93-3.683-8.096 4.155-4.792 10.551-7.588 17.558-6.759 9.127 1.081 16.451 8.49 17.437 17.628zm-17.437 317.372c-7.007-.83-13.403 1.967-17.558 6.759-2.746 3.167-.508 8.096 3.683 8.096h.359c1.408 0 2.706-.654 3.649-1.699 2.033-2.252 5.077-3.575 8.416-3.253 4.534.437 8.297 4.032 8.912 8.545.526 3.86-1.153 7.369-3.957 9.446-1.266.938-1.947 2.475-1.947 4.051 0 4.037 4.601 6.417 7.851 4.022 5.491-4.045 8.839-10.831 8.029-18.339-.986-9.138-8.31-16.547-17.437-17.628zm180.824-159.958c-4.368-5.541-10.868-8.086-17.194-7.636-4.181.297-6.084 5.366-3.121 8.329l.254.254c.995.995 2.376 1.451 3.782 1.379 3.03-.155 6.118 1.062 8.252 3.651 2.898 3.515 3.016 8.718.26 12.344-2.358 3.102-6.026 4.396-9.478 3.882-1.559-.232-3.127.373-4.241 1.488-2.855 2.855-1.284 7.791 2.708 8.396 6.743 1.022 13.909-1.408 18.644-7.29 5.763-7.161 5.824-17.579.134-24.797zm-330.887 10.086c-.987-9.138-8.31-16.548-17.438-17.628-7.007-.83-13.403 1.967-17.558 6.759-2.746 3.167-.508 8.096 3.683 8.096h.359c1.408 0 2.706-.654 3.649-1.699 2.033-2.252 5.077-3.575 8.416-3.253 4.534.437 8.297 4.032 8.912 8.545.526 3.86-1.153 7.369-3.957 9.446-1.264.939-1.945 2.475-1.945 4.051 0 4.037 4.601 6.417 7.851 4.022 5.491-4.045 8.839-10.83 8.028-18.339zm282.931-89.312.347.093c1.36.364 2.783.069 3.965-.696 2.547-1.649 5.829-2.139 8.971-.964 4.267 1.595 6.971 6.042 6.397 10.561-.491 3.865-3.021 6.82-6.267 8.1-1.466.578-2.521 1.887-2.929 3.409-1.045 3.9 2.783 7.389 6.542 5.917 6.351-2.486 11.341-8.174 12.501-15.636 1.412-9.082-3.744-18.135-12.281-21.541-6.553-2.615-13.455-1.569-18.709 1.984-3.471 2.347-2.586 7.688 1.463 8.773zm-272.872 156.742c-6.553-2.615-13.455-1.569-18.709 1.984-3.472 2.348-2.586 7.689 1.462 8.774l.347.093c1.36.364 2.783.069 3.965-.696 2.547-1.649 5.829-2.139 8.971-.964 4.267 1.595 6.971 6.042 6.397 10.561-.491 3.865-3.021 6.82-6.267 8.1-1.466.578-2.521 1.887-2.929 3.409-1.045 3.9 2.783 7.389 6.542 5.917 6.351-2.486 11.341-8.174 12.501-15.636 1.413-9.083-3.743-18.135-12.28-21.542zm208.972-212.131.347-.093c1.36-.364 2.445-1.332 3.085-2.585 1.381-2.702 3.978-4.767 7.287-5.321 4.493-.752 9.058 1.747 10.82 5.948 1.508 3.593.793 7.417-1.377 10.149-.98 1.234-1.24 2.895-.832 4.417 1.045 3.9 6.105 5.007 8.624 1.853 4.257-5.329 5.735-12.749 3.009-19.792-3.318-8.571-12.31-13.833-21.406-12.515-6.982 1.012-12.437 5.369-15.21 11.073-1.833 3.767 1.605 7.95 5.653 6.866zm-157.942 272.178c-6.982 1.012-12.437 5.368-15.21 11.073-1.833 3.769 1.605 7.952 5.653 6.867l.347-.093c1.36-.364 2.445-1.332 3.085-2.585 1.381-2.702 3.978-4.767 7.287-5.321 4.493-.752 9.058 1.747 10.82 5.947 1.508 3.593.793 7.417-1.377 10.149-.98 1.234-1.24 2.894-.832 4.417 1.045 3.9 6.105 5.007 8.624 1.853 4.257-5.329 5.735-12.75 3.009-19.792-3.319-8.572-12.31-13.834-21.406-12.515zm-71.238-209.734c1.522-.408 2.831-1.463 3.409-2.929 1.281-3.246 4.235-5.777 8.1-6.267 4.519-.573 8.966 2.13 10.561 6.397 1.175 3.143.685 6.425-.964 8.972-.765 1.181-1.061 2.605-.696 3.965l.093.347c1.085 4.049 6.426 4.934 8.774 1.462 3.553-5.254 4.599-12.156 1.984-18.709-3.406-8.537-12.459-13.693-21.541-12.281-7.462 1.16-13.149 6.15-15.636 12.501-1.473 3.758 2.016 7.587 5.916 6.542zm299.837 148.456c-7.462 1.16-13.149 6.15-15.636 12.501-1.472 3.759 2.017 7.587 5.917 6.542 1.522-.408 2.831-1.463 3.409-2.929 1.281-3.246 4.235-5.777 8.1-6.267 4.519-.573 8.966 2.13 10.561 6.397 1.175 3.143.685 6.425-.964 8.972-.765 1.181-1.061 2.605-.696 3.965l.093.347c1.085 4.049 6.426 4.934 8.774 1.462 3.553-5.254 4.599-12.156 1.984-18.709-3.407-8.537-12.46-13.693-21.542-12.281zm-218.517-227.656c-7.042-2.727-14.463-1.248-19.792 3.009-3.154 2.52-2.047 7.58 1.853 8.625 1.522.408 3.183.148 4.417-.832 2.732-2.171 6.556-2.885 10.149-1.377 4.2 1.763 6.699 6.328 5.947 10.82-.554 3.309-2.619 5.906-5.321 7.287-1.253.641-2.221 1.726-2.585 3.085l-.093.347c-1.085 4.049 3.098 7.486 6.867 5.653 5.704-2.773 10.061-8.228 11.073-15.21 1.319-9.097-3.943-18.088-12.515-21.407zm152.193 290.415c-6.908 3.052-11.109 9.344-11.867 16.122-.449 4.012 3.912 6.807 7.409 4.788 1.365-.788 2.355-2.146 2.535-3.711.397-3.467 2.596-6.676 6.202-8.15 4.216-1.724 9.212-.263 11.857 3.445 1.948 2.731 2.324 6.029 1.39 8.916-.433 1.339-.35 2.791.354 4.01l.18.311c2.096 3.63 7.484 3.103 8.853-.859 2.072-5.995 1.296-12.932-2.926-18.585-5.501-7.364-15.579-10.001-23.987-6.287z" fill="#f9eecf"/><path d="m394.207 186.28-6.941-20.544c-.399-1.182-1.327-2.11-2.509-2.509l-20.544-6.941c-3.626-1.225-3.626-6.354 0-7.579l20.544-6.941c1.182-.399 2.11-1.327 2.509-2.509l6.941-20.544c1.225-3.626 6.354-3.626 7.579 0l6.941 20.544c.399 1.182 1.327 2.11 2.509 2.509l20.544 6.941c3.626 1.225 3.626 6.354 0 7.579l-20.544 6.941c-1.182.399-2.11 1.327-2.509 2.509l-6.941 20.544c-1.225 3.627-6.354 3.627-7.579 0zm-213.853 144.6 5.123-15.164c.295-.872.98-1.557 1.852-1.852l15.164-5.123c2.677-.904 2.677-4.69 0-5.594l-15.164-5.123c-.872-.295-1.557-.98-1.852-1.852l-5.123-15.164c-.904-2.677-4.69-2.677-5.594 0l-5.123 15.164c-.295.872-.98 1.557-1.852 1.852l-15.164 5.123c-2.677.904-2.677 4.69 0 5.594l15.164 5.123c.872.295 1.557.98 1.852 1.852l5.123 15.164c.904 2.676 4.689 2.676 5.594 0z" fill="#fff5f5"/></g></svg>