<svg id="Capa_1" enable-background="new 0 0 501 501" height="512" viewBox="0 0 501 501" width="512" xmlns="http://www.w3.org/2000/svg"><g><path d="m338.573 481.227c-86.39 30.851-186.64 11.689-255.814-57.485-95.678-95.678-95.678-250.804 0-346.482 69.175-69.175 169.424-88.337 255.814-57.485-33.1 11.82-64.165 30.982-90.668 57.485-95.678 95.678-95.678 250.804 0 346.482 26.504 26.503 57.569 45.664 90.668 57.485z" fill="#6e61b5"/><path d="m429.241 423.741c-48.188 48.188-111.454 72.105-174.61 71.755-26.328-9.291-51.043-24.465-72.103-45.524-75.371-75.371-75.371-197.572 0-272.943s197.572-75.371 272.943 0c21.059 21.059 36.233 45.774 45.524 72.103.352 63.155-23.566 126.422-71.754 174.609z" fill="#968dca"/><path d="m426.64 387.915c-.349.355-.699.708-1.052 1.06-19.94 19.94-43.802 34.385-70.294 43.55 76.847-395.038-286.861-105.885-297.603-325.956 7.462-10.254 15.817-20.06 25.067-29.31 95.678-95.678 250.804-95.678 346.482 0s95.678 250.804 0 346.482c-.999.999-2.005 1.988-3.017 2.966 1.168-12.65 1.297-25.617.417-38.792z" fill="#ab5e2e"/><path d="m355.294 432.526c76.847-395.039-286.861-105.886-297.603-325.957 7.462-10.254 15.817-20.06 25.067-29.31 36.004-36.004 80.426-58.459 126.93-67.367-1.277.587-2.695 1.316-4.232 2.168-6.371 3.532-11.836 7.186-16.456 10.937-7.199 5.845-2.617 17.51 6.622 16.723 24.352-2.076 48.627.232 71.743 6.513 5.677 1.543 4.508 9.938-1.375 9.832-28.032-.503-56.908 3.909-85.212 13.691-5.549 1.918-8.08 8.408-5.165 13.504.056.098.112.196.169.293 1.793 3.097 5.257 4.826 8.824 4.542 14.792-1.178 29.608-.753 44.186 1.216 5.833.788 5.751 9.258-.097 9.923-5.083.578-10.173 1.322-15.261 2.234-8.147 1.46-10.522 12.031-3.816 16.882 15.194 10.993 33.69 21.018 53.871 29.387 206.004 85.43 108.038 279.173 91.805 284.789zm88.976-282.151c-32.899-54.468-86.907-88.35-145.208-97.497-5.799-.91-8.132 7.236-2.733 9.541 35.756 15.267 92.604 46.749 130.804 121.243 17.492 34.112 31.274 68.12 34.916 103.048.611 5.855 9.081 6.041 9.924.215 6.614-45.718-1.956-93.922-27.703-136.55zm-182.495-60.21c-5.799-.91-8.132 7.236-2.733 9.541 35.756 15.267 92.604 46.749 130.804 121.243 17.492 34.112 31.274 68.12 34.916 103.048.611 5.855 9.081 6.041 9.924.215 6.616-45.719-1.955-93.923-27.702-136.55-32.9-54.468-86.909-88.35-145.209-97.497z" fill="#8f4d24"/><path d="m104.07 354.417c-35.309 16.667-77.444 1.555-94.111-33.754l-3.177-6.73c-16.667-35.309-1.555-77.444 33.755-94.111 35.309-16.667 77.444-1.555 94.111 33.755l3.177 6.73c16.666 35.308 1.554 77.443-33.755 94.11z" fill="#ab2538"/><path d="m68.26 318.607c-2.753 1.299-5.094 2.41-7.914 3.328-17.037 5.549-35.482 4.246-51.057-2.691l-2.507-5.312c-16.667-35.309-1.555-77.444 33.755-94.111 19.381-9.148 40.818-8.722 58.971-.637l2.507 5.312c16.667 35.309 1.554 77.444-33.755 94.111zm103.341-44.176 59.173-27.931c5.52-2.606 12.05.449 13.587 6.357l20.44 78.537c2.36 9.067-2.067 18.529-10.54 22.529l-21.957 10.365c-4.236 2-9.296.701-12.046-3.091l-52.385-72.235c-3.584-4.943-1.793-11.926 3.728-14.531z" fill="#c92e43"/><path d="m260.445 261.884-49.05-103.912c-4.428-9.381 1.344-20.393 11.578-22.089l96.166-15.937c6.892-1.142 13.705 2.429 16.688 8.747l26.308 55.733c2.982 6.318 1.409 13.847-3.853 18.443l-73.424 64.116c-7.815 6.822-19.985 4.279-24.413-5.101z" fill="#d98800"/><path d="m260.445 261.884-35.832-75.91c-4.428-9.381 1.344-20.393 11.577-22.089l96.166-15.937c6.892-1.142 13.705 2.429 16.688 8.747l13.092 27.735c2.98 6.317 1.406 13.845-3.855 18.439l-73.424 64.116c-7.814 6.822-19.984 4.279-24.412-5.101z" fill="#fcb30b"/><path d="m98.616 335.968 103.977-49.08c9.7-4.579 21.174.789 23.876 11.17l35.916 138.004c4.146 15.932-3.633 32.559-18.52 39.587l-38.583 18.212c-7.444 3.514-16.334 1.232-21.167-5.431l-92.05-126.93c-6.297-8.684-3.149-20.953 6.551-25.532z" fill="#d98800"/><path d="m262.385 436.061c4.146 15.932-3.633 32.56-18.52 39.587l-9.736 4.596c-7.444 3.514-16.334 1.233-21.167-5.431l-92.05-126.93c-6.297-8.683-3.149-20.953 6.551-25.532l37.565-17.732 37.565-17.732c9.7-4.579 21.174.789 23.875 11.17z" fill="#fcb30b"/><path d="m268.238 135.612 45.467 96.322c5.268 11.161 1.852 24.491-8.136 31.742l-33.146 24.064c-39.518 28.69-84.065 49.718-131.331 61.993l-53.973 14.017c-3.635.944-7.427-.831-9.03-4.228l-58.037-122.95c-1.59-3.368-.582-7.389 2.408-9.609l41.566-30.863c6.448-4.788 13.033-9.369 19.746-13.739 2.015-1.312 7.606 6.413 9.644 5.14 1.884-1.178.214-11.358 2.118-12.503 33.282-20.022 69.426-35.006 107.258-44.4l36.035-8.947c11.879-2.949 24.187 2.893 29.411 13.961z" fill="#f9eecf"/><path d="m313.705 231.933c5.268 11.161 1.852 24.491-8.136 31.742l-33.146 24.064c-39.518 28.69-84.065 49.718-131.331 61.992l-53.973 14.017c-3.635.944-7.427-.831-9.03-4.228l-17.742-37.586 31.164-8.093c74.606-19.375 144.919-52.565 207.295-97.85l5.493-3.988z" fill="#f5dc90"/><path d="m164.206 352.478-80.433-170.117c3.879-2.525 7.8-4.98 11.762-7.363l81.135 171.606c1.747 3.695-.122 8.1-4.001 9.389-.044.015-.088.029-.132.044-3.278 1.087-6.855-.437-8.331-3.559z" fill="#fcb30b"/><path d="m141.98 305.469-58.207-123.108c3.879-2.525 7.8-4.98 11.761-7.363l58.902 124.582c1.626 3.44.156 7.547-3.284 9.173-3.439 1.626-7.546.156-9.172-3.284z" fill="#fdbf43"/><path d="m407.245 108.986-45.216 21.343c-3.746 1.768-8.216.165-9.984-3.581s-.165-8.216 3.581-9.984l45.216-21.343c11.219-5.296 16.039-18.732 10.742-29.952-2.942-6.233-10.407-8.91-16.64-5.968-3.746 1.768-8.216.165-9.984-3.581s-.165-8.216 3.581-9.984c13.712-6.473 30.135-.583 36.607 13.13 8.828 18.7.796 41.094-17.903 49.92zm2.253 48.698-28.26 13.34c-3.746 1.768-5.349 6.238-3.581 9.984s6.238 5.349 9.984 3.581l28.26-13.34c5.61-2.648 12.328-.238 14.976 5.371 1.177 2.493.106 5.479-2.387 6.656-3.746 1.768-5.349 6.238-3.581 9.984s6.238 5.349 9.984 3.581c9.973-4.708 14.257-16.651 9.549-26.624-6.179-13.089-21.854-18.711-34.944-12.533zm43.072-45.212c-1.768-3.746-6.238-5.349-9.984-3.581l-74.154 35.003c-3.746 1.768-5.349 6.238-3.581 9.984s6.238 5.349 9.984 3.581l74.154-35.003c3.746-1.768 5.349-6.238 3.581-9.984z" fill="#f7c37d"/></g></svg>