<svg id="Capa_1" enable-background="new 0 0 501 501" height="512" viewBox="0 0 501 501" width="512" xmlns="http://www.w3.org/2000/svg"><g><path d="m501 256c0 135.31-109.69 245-245 245s-245-109.69-245-245 109.69-245 245-245 245 109.69 245 245z" fill="#f7c37d"/><path d="m76.069 129.109-7.637 13.093c-1.625 7.47-8.235 12.798-15.88 12.798h-27.831c-7.644 0-14.255-5.328-15.879-12.798l-7.637-13.093c-3.403-5.834.805-13.16 7.559-13.16h59.746c6.754 0 10.962 7.326 7.559 13.16z" fill="#e43950"/><path d="m185.488 155h-103.767c-7.644 0-14.255-5.328-15.879-12.798l-7.637-13.093c-3.403-5.834.805-13.16 7.559-13.16h135.681c6.754 0 10.962 7.326 7.559 13.16l-7.637 13.093c-1.624 7.47-8.235 12.798-15.879 12.798z" fill="#ea5569"/><path d="m201.367 142.202-39.527 181.822c-2.468 11.354-12.517 19.453-24.136 19.453h-65.198c-11.62 0-21.668-8.099-24.136-19.453l-39.527-181.822z" fill="#ab2538"/><path d="m137.704 343.477h-8.041c-11.62 0-21.668-8.099-24.136-19.453l-39.527-181.822h135.367l-39.527 181.822c-2.468 11.355-12.517 19.453-24.136 19.453z" fill="#c92e43"/><path d="m162.5 228.54c0 30.238-24.512 54.75-54.75 54.75s-54.75-24.512-54.75-54.75 24.512-54.75 54.75-54.75 54.75 24.512 54.75 54.75z" fill="#ea5569"/><path d="m139 228.54c0 17.259-13.991 31.25-31.25 31.25s-31.25-13.991-31.25-31.25 13.991-31.25 31.25-31.25 31.25 13.991 31.25 31.25z" fill="#e43950"/><path d="m430 24.375h50v30h-50z" fill="#463b83"/><path d="m342 140h-32c-11.046 0-20-8.954-20-20v-50c0-11.046 8.954-20 20-20h32c11.046 0 20 8.954 20 20v50c0 11.046-8.954 20-20 20z" fill="#463b83"/><path d="m196 360v-110c0-42.165 32.62-76.71 74-79.778v-25.222c0-8.284 6.716-15 15-15h82c8.284 0 15 6.716 15 15v25.222c41.38 3.068-186 199.596-186 189.778z" fill="#002c5d"/><path d="m382 150h-112v-35c0-8.284 6.716-15 15-15h82c8.284 0 15 6.716 15 15z" fill="#6354b0"/><path d="m330 117.5v15c0 4.142-3.358 7.5-7.5 7.5s-7.5-3.358-7.5-7.5v-15c0-4.142 3.358-7.5 7.5-7.5s7.5 3.358 7.5 7.5zm-37.5-7.5c-4.142 0-7.5 3.358-7.5 7.5v15c0 4.142 3.358 7.5 7.5 7.5s7.5-3.358 7.5-7.5v-15c0-4.142-3.358-7.5-7.5-7.5zm60 0c-4.142 0-7.5 3.358-7.5 7.5v15c0 4.142 3.358 7.5 7.5 7.5s7.5-3.358 7.5-7.5v-15c0-4.142-3.358-7.5-7.5-7.5z" fill="#463b83"/><path d="m260.002 470.364c-.001-.121-.002-.243-.002-.364v-220c0-44.183 35.817-80 80-80h36c44.183 0 80 35.817 80 80v147.544c-35.448 49.997-89.174 86.124-151.44 98.644-3.861.776-44.404-8.524-44.558-25.824z" fill="#003c79"/><path d="m400 430c-11.046 0-20-8.954-20-20v-170c0-11.046 8.954-20 20-20 11.046 0 20 8.954 20 20v170c0 11.046-8.954 20-20 20z" fill="#54469b"/><path d="m463.21 11.283 34.545 12.955c1.952.732 3.245 2.597 3.245 4.682v22.628c0 2.152-1.377 4.063-3.419 4.743l-34.545 11.515c-3.238 1.079-6.581-1.331-6.581-4.743v-47.098c-.001-3.491 3.486-5.907 6.755-4.682zm-26.629 59.857-10.427 3.476 7.175 28.7c4.431 17.722 6.671 35.921 6.671 54.189 0 6.17-4.456 11.622-10.577 12.397-5.383.682-10.47-2.257-12.622-7.101l-32.357-72.801h-134.444c-11.046 0-20-8.954-20-20 0-38.66 31.34-70 70-70h116.373c2.398 0 4.777.431 7.022 1.273l13.36 5.01c1.952.732 3.245 2.598 3.245 4.682v55.431c0 2.152-1.377 4.063-3.419 4.744z" fill="#8279c0"/><path d="m290 90h-40c-11.046 0-20-8.954-20-20 0-38.66 31.34-70 70-70h40c-38.66 0-70 31.34-70 70 0 11.046 8.954 20 20 20z" fill="#6e61b5"/><path d="m405 39.514c0 5.523-4.477 10-10 10s-10-4.477-10-10 4.477-10 10-10 10 4.477 10 10z" fill="#463b83"/><path d="m179.75 330h-48.75c-24.853 0-45-20.147-45-45 0-24.853 20.147-45 45-45h48.75c24.853 0 45 20.147 45 45 0 24.853-20.147 45-45 45z" fill="#f48996"/><path d="m231 330h-56c-24.853 0-45-20.147-45-45 0-24.853 20.147-45 45-45h56c24.853 0 45 20.147 45 45 0 24.853-20.147 45-45 45z" fill="#f7a4ae"/><path d="m305 340v152c0 1.436-.152 2.837-.439 4.188-15.697 3.156-31.935 4.812-48.561 4.812-41.377 0-80.359-10.257-114.541-28.368-.117-.062-1.068-.57-1.185-.632-.019-.01-.002-.051.045-.119 2.931-4.225 2.634-9.882-1.152-13.362-2.682-2.465-5.296-4.767-6.333-5.372-25.586-14.908-48.226-34.319-66.834-57.147v-56c0-11.046 8.954-20 20-20h199c11.046 0 20 8.954 20 20z" fill="#8279c0"/><path d="m66 400h239v72h-154.5c-9.845-5.286-19.288-11.225-28.269-17.76-2.026-1.474-14.254-2.979-16.233-4.513-14.77-11.453-28.195-24.558-39.998-39.038z" fill="#f19b0b"/><path d="m106 400h199v72h-164.725c-12.066-6.478-23.526-13.938-34.275-22.272z" fill="#fdbf43"/><path d="m248 400v72h-69.5v-72z" fill="#f3d373"/><path d="m56 349c0-6.075 4.925-11 11-11h237c6.075 0 11 4.925 11 11s-4.925 11-11 11h-237c-6.075 0-11-4.925-11-11zm248 29h-237c-6.075 0-11 4.925-11 11s4.925 11 11 11h237c6.075 0 11-4.925 11-11s-4.925-11-11-11z" fill="#aba4d5"/><path d="m150.5 349c0-6.075 4.925-11 11-11h103.5c6.075 0 11 4.925 11 11s-4.925 11-11 11h-103.5c-6.075 0-11-4.925-11-11zm114.5 29h-103.5c-6.075 0-11 4.925-11 11s4.925 11 11 11h103.5c6.075 0 11-4.925 11-11s-4.925-11-11-11z" fill="#c1bbdf"/><path d="m287 206c13.807 0 25 11.193 25 25s-11.193 25-25 25-25-11.193-25-25 11.193-25 25-25z" fill="#81ade2"/><path d="m312 231c0 2.989-.525 5.856-1.487 8.513-2.657.962-5.524 1.487-8.513 1.487-13.807 0-25-11.193-25-25 0-2.989.525-5.856 1.487-8.513 2.657-.962 5.524-1.487 8.513-1.487 13.807 0 25 11.193 25 25z" fill="#91cefb"/><path d="m270 155c8.284 0 15 6.716 15 15s-6.716 15-15 15-15-6.716-15-15 6.716-15 15-15z" fill="#91cefb"/><path d="m260 230c11.046 0 20 8.954 20 20s-8.954 20-20 20-20-8.954-20-20 8.954-20 20-20z" fill="#e3f0fb"/><path d="m280.75 168.5c0 4.004-2.267 7.25-5.063 7.25s-5.063-3.246-5.063-7.25 2.267-7.25 5.063-7.25 5.063 3.246 5.063 7.25z" fill="#e3f0fb"/><path d="m271.167 246.667c0 5.155-3.395 9.333-7.583 9.333s-7.583-4.179-7.583-9.333c0-5.155 3.395-9.333 7.583-9.333 4.187-.001 7.583 4.178 7.583 9.333z" fill="#fff5f5"/><path d="m193.5 451.333h-50.5c-8.284 0-15-6.716-15-15v-3.667c0-8.284 6.716-15 15-15h50.5c8.284 0 15 6.716 15 15v3.667c0 8.285-6.716 15-15 15z" fill="#d98800"/><path d="m234.333 432.667v3.667c0 8.284-6.716 15-15 15h-40.833v-33.667h40.833c8.285 0 15 6.715 15 15z" fill="#f19b0b"/></g></svg>