<svg id="Capa_1" enable-background="new 0 0 501 501" height="512" viewBox="0 0 501 501" width="512" xmlns="http://www.w3.org/2000/svg"><g><path d="m5.848 242.84c6.838-129.191 113.757-231.84 244.652-231.84s237.814 102.649 244.652 231.84z" fill="#8279c0"/><path d="m5.5 256c0-8.782.462-17.456 1.364-26h487.273c.901 8.543 1.364 17.218 1.364 26 0 60.607-22.007 116.074-58.466 158.847-8.873 10.41-21.895 16.367-35.573 16.367h-313.092c-5.987 0-11.708-2.469-15.824-6.817-41.559-43.902-67.046-103.173-67.046-168.397z" fill="#6354b0"/><path d="m342.854 423.756c-23.438 24.937-168.262 17.842-168.262 17.842v-137.649c0-31.758 25.745-57.504 57.504-57.504h61.663c31.758 0 57.503 25.745 57.503 57.503v110.389c-2.723 3.212-5.527 6.353-8.408 9.419z" fill="#81ade2"/><path d="m376.457 466.186c-21.92-25.683-45.651-54.622-70.428-54.622-26.431 0-51.671 57.26-74.794 88.69-10.881-.846-21.563-2.404-31.999-4.625v-191.68c0-31.758 25.745-57.503 57.504-57.503h87.927l18.833 6.671 13.177-6.671h3.285c31.758 0 57.504 25.745 57.504 57.503v110.389c-17.32 20.432-37.929 37.986-61.009 51.848z" fill="#91cefb"/><path d="m392.285 336.808v81.062c-5.323 3.783-10.803 7.359-16.43 10.716v-91.778c0-4.537 3.678-8.215 8.215-8.215s8.215 3.678 8.215 8.215zm-164.297-8.215c-4.537 0-8.215 3.678-8.215 8.215v124.324c5.423.679 10.902 1.18 16.43 1.499v-125.823c0-4.537-3.678-8.215-8.215-8.215z" fill="#81ade2"/><path d="m429.3 423c.141.121.153.336.026.472-15.085 16.1-32.318 30.163-51.244 41.73-.386.236-2.125 1.284-2.486 1.499-22.764 13.544-47.91 23.505-74.659 29.103-.339.071-.69.141-1.053.211-33.519 6.414-64.503-19.617-64.503-53.743v-122.272h141.295v57.894z" fill="#ab2538"/><path d="m251.811 378.215c0-4.537 3.678-8.215 8.215-8.215h92.006c4.537 0 8.215 3.678 8.215 8.215 0 22.685-18.389 41.074-41.074 41.074h-26.288c-22.684 0-41.074-18.389-41.074-41.074z" fill="#c92e43"/><path d="m274.423 378.215c0-4.537 3.678-8.215 8.215-8.215h92.006c4.537 0 8.215 3.678 8.215 8.215 0 22.685-18.389 41.074-41.074 41.074h-26.288c-22.684 0-41.074-18.389-41.074-41.074z" fill="#e43950"/><path d="m362.711 350c-7.713 0-13.965-6.252-13.965-13.965v-89.59h27.93v89.59c.001 7.713-6.252 13.965-13.965 13.965z" fill="#c76d36"/><path d="m370.926 334.839c0 4.537-3.678 8.215-8.215 8.215s-8.215-3.678-8.215-8.215 3.678-8.215 8.215-8.215 8.215 3.679 8.215 8.215z" fill="#fcb30b"/><path d="m374.31 235.511-36.153 39.44c-17.274 18.844-46.983 18.844-64.257 0l-36.153-39.44c-1.565-1.707-2.433-3.939-2.433-6.255 0-5.112 4.144-9.257 9.257-9.257h122.916c5.112 0 9.257 4.144 9.257 9.257-.001 2.316-.869 4.548-2.434 6.255z" fill="#fff5f5"/><path d="m215.666 172.512c-11.342 0-20.537-9.195-20.537-20.537v-8.215c0-11.342 9.195-20.537 20.537-20.537 11.342 0 20.537 9.195 20.537 20.537v8.215c0 11.342-9.195 20.537-20.537 20.537z" fill="#eabe8d"/><path d="m207.451 139.652v16.43c0 6.718 3.226 12.683 8.213 16.43-11.341-.001-20.535-9.195-20.535-20.537v-8.215c0-11.342 9.194-20.536 20.535-20.537-4.987 3.746-8.213 9.711-8.213 16.429zm188.941-16.429v-16.43c0-49.906-40.457-90.363-90.363-90.363-49.906 0-90.363 40.457-90.363 90.363v32.859c0 41.363 27.791 76.234 65.719 86.961v28.046c0 13.611 11.034 24.644 24.645 24.644s24.645-11.034 24.645-24.644v-28.046c27.59-7.803 49.816-28.383 59.882-54.943 1.85.547 3.809.841 5.837.841 11.342 0 20.537-9.195 20.537-20.537v-8.215c-.002-11.342-9.197-20.536-20.539-20.536z" fill="#e3ac6e"/><path d="m396.392 106.793v32.859c0 41.725-28.28 76.844-66.718 87.238-7.412 2.004-15.235 2.004-22.647 0-38.438-10.393-66.718-45.513-66.718-87.238v-32.859c0-45.727 33.964-83.52 78.041-89.53 44.078 6.01 78.042 43.803 78.042 89.53z" fill="#eabe8d"/><path d="m294.118 145.182c-2.406-2.407-2.406-6.307 0-8.714 2.406-2.405 6.307-2.405 8.713 0 .856.856 1.992 1.328 3.198 1.328s2.342-.472 3.198-1.328c2.406-2.405 6.307-2.405 8.713 0 2.406 2.407 2.406 6.307 0 8.714-3.183 3.183-7.413 4.936-11.911 4.936s-8.728-1.753-11.911-4.936zm35.685 19.515c-2.929-2.929-7.678-2.929-10.606 0-3.471 3.471-8.082 5.383-12.981 5.383-4.9 0-9.51-1.912-12.981-5.383-2.929-2.93-7.678-2.929-10.606 0-2.929 2.929-2.929 7.677 0 10.606 6.304 6.305 14.681 9.777 23.587 9.777s17.283-3.472 23.587-9.777c2.929-2.928 2.929-7.677 0-10.606z" fill="#d89c56"/><path d="m279.331 112.954c0 6.805-5.517 12.322-12.322 12.322s-12.322-5.517-12.322-12.322 5.517-12.322 12.322-12.322 12.322 5.517 12.322 12.322zm65.718-12.322c-6.805 0-12.322 5.517-12.322 12.322s5.517 12.322 12.322 12.322 12.322-5.517 12.322-12.322c.001-6.805-5.516-12.322-12.322-12.322z" fill="#003c79"/><path d="m281.384 106.793c0 3.403-2.758 6.161-6.161 6.161s-6.161-2.758-6.161-6.161 2.758-6.161 6.161-6.161 6.161 2.758 6.161 6.161zm71.88-6.161c-3.403 0-6.161 2.758-6.161 6.161s2.758 6.161 6.161 6.161 6.161-2.758 6.161-6.161-2.758-6.161-6.161-6.161z" fill="#fff5f5"/><path d="m314.5 27.069c0 13.232-9.567 24.525-22.619 26.701-23.42 3.903-43.449 19.017-53.627 40.468l-9.966 21.003c-2.313 4.875-7.226 7.982-12.622 7.982v-96.154c0-14.95 12.119-27.069 27.069-27.069h44.696c14.95 0 27.069 12.119 27.069 27.069z" fill="#8f4d24"/><path d="m396.392 27.069v96.154c-5.396 0-10.309-3.107-12.622-7.982l-9.966-21.003c-5.48-11.549-13.816-21.261-23.998-28.376-12.969 7.196-27.894 11.294-43.777 11.294-15.882 0-30.807-4.098-43.776-11.294-8.878 6.203-16.351 14.38-21.753 24.027v-62.82c0-14.95 12.119-27.069 27.069-27.069h19.862c7.203 0 13.748 2.813 18.598 7.401 4.85-4.588 11.395-7.401 18.598-7.401h44.696c14.95 0 27.069 12.119 27.069 27.069z" fill="#ab5e2e"/><path d="m347.5 74c-16.915 0-31.143 11.726-34.981 27.477h-13.039c-3.837-15.751-18.065-27.477-34.98-27.477-19.851 0-36 16.149-36 36s16.149 36 36 36c18.678 0 34.078-14.298 35.833-32.523h11.334c1.755 18.225 17.155 32.523 35.833 32.523 19.851 0 36-16.149 36-36s-16.149-36-36-36zm-83 60c-13.234 0-24-10.767-24-24s10.766-24 24-24 24 10.767 24 24-10.766 24-24 24zm83 0c-13.234 0-24-10.767-24-24s10.766-24 24-24 24 10.767 24 24-10.766 24-24 24z" fill="#f9eecf"/><path d="m336.819 303.198c-1.227 3.362-5.457 4.425-8.095 2.007l-19.316-17.707c-1.912-1.752-4.846-1.752-6.757 0l-19.316 17.707c-2.638 2.418-6.869 1.355-8.095-2.007-2.764-7.576-4.21-15.391-4.21-23.38s1.446-15.804 4.21-23.38c1.227-3.362 5.457-4.425 8.095-2.007l19.316 17.707c1.912 1.752 4.846 1.752 6.757 0l19.316-17.707c2.638-2.418 6.869-1.355 8.095 2.007 2.764 7.576 4.21 15.391 4.21 23.38s-1.446 15.804-4.21 23.38z" fill="#6354b0"/><path d="m321.029 279.818c0 8.284-6.716 15-15 15s-15-6.716-15-15 6.716-15 15-15 15 6.716 15 15z" fill="#003c79"/><path d="m274.5 248.057v61.943h-210v-170l132.728 18.961c44.338 6.334 77.272 44.307 77.272 89.096z" fill="#d98800"/><path d="m110.664 146.595v163.405h-46.164v-170z" fill="#c98001"/><path d="m336.502 388.074-20.44-63.577c-2.317-7.206-10.036-11.169-17.242-8.853l-1.32.424 18.25 56.765c-2.22-.062-4.487.245-6.721.963-10.58 3.401-16.399 14.735-12.997 25.315 3.401 10.579 14.735 16.399 25.315 12.997 9.977-3.208 15.719-13.469 13.49-23.5zm-14.843 14.59c-5.289 1.7-10.954-1.208-12.654-6.497-1.7-5.288 1.209-10.954 6.497-12.654 5.289-1.7 10.954 1.208 12.654 6.497s-1.209 10.954-6.497 12.654z" fill="#f5dc90"/><path d="m368.585 372.032c-4.195 10.291-15.938 15.233-26.228 11.038l-61.841-25.208c-7.009-2.857-10.375-10.855-7.518-17.865l.523-1.284 56.486 23.025c.224-1.645.656-3.289 1.312-4.897 4.195-10.291 15.938-15.233 26.228-11.038 10.291 4.195 15.232 15.938 11.038 26.229zm-29.654-3.6c1.7 5.289 7.366 8.197 12.654 6.497 5.289-1.7 8.197-7.366 6.497-12.654-1.7-5.289-7.366-8.197-12.654-6.497s-8.197 7.366-6.497 12.654z" fill="#fff5f5"/><path d="m322.51 398.839v-11.496c0-13.605 11.029-24.634 24.634-24.634h12.317c6.802 0 12.317 5.514 12.317 12.317v36.129c0 6.802-5.514 12.317-12.317 12.317h-12.317c-13.605.001-24.634-11.028-24.634-24.633z" fill="#d89c56"/><path d="m359.46 398.018h-12.317c-11.181 0-20.621-7.449-23.63-17.654 3.009-10.205 12.45-17.654 23.63-17.654h12.317c6.802 0 12.317 5.514 12.317 12.317v10.675c0 6.801-5.515 12.316-12.317 12.316z" fill="#e3ac6e"/><path d="m358.639 413.08v-50.37h62.405v50.371h-62.405z" fill="#91cefb"/><path d="m429.325 423.473h-70.686v-25.455h78.827v16.32c-2.638 3.113-5.353 6.159-8.141 9.135z" fill="#81ade2"/><path d="m79.137 332.636c-11.342 0-20.537-9.195-20.537-20.537v-8.215c0-11.342 9.195-20.537 20.537-20.537 11.342 0 20.537 9.195 20.537 20.537v8.215c0 11.342-9.195 20.537-20.537 20.537z" fill="#efcfc8"/><path d="m70.922 299.776v16.43c0 6.718 3.226 12.683 8.213 16.43-11.341-.001-20.535-9.196-20.535-20.537v-8.215c0-11.342 9.194-20.536 20.536-20.537-4.988 3.746-8.214 9.711-8.214 16.429zm188.941-16.429v-16.43c0-49.906-40.457-90.363-90.363-90.363-49.906 0-90.363 40.457-90.363 90.363v32.859c0 41.363 27.791 76.234 65.719 86.961v52.691h49.289v-52.691c27.59-7.803 49.816-28.383 59.882-54.943 1.85.547 3.809.841 5.837.841 11.342 0 20.537-9.195 20.537-20.537v-8.215c-.001-11.342-9.195-20.536-20.538-20.536z" fill="#eac0b5"/><path d="m259.863 266.917v32.859c0 41.725-28.28 76.844-66.718 87.238-7.412 2.004-15.235 2.004-22.647 0-38.438-10.393-66.718-45.513-66.718-87.238v-32.859c0-45.727 33.964-83.52 78.041-89.53 44.078 6.01 78.042 43.803 78.042 89.53z" fill="#efcfc8"/><path d="m142.802 273.078c0 6.805-5.517 12.322-12.322 12.322s-12.322-5.517-12.322-12.322 5.517-12.322 12.322-12.322 12.322 5.517 12.322 12.322zm65.718-12.322c-6.805 0-12.322 5.517-12.322 12.322s5.517 12.322 12.322 12.322 12.322-5.517 12.322-12.322c.001-6.805-5.516-12.322-12.322-12.322z" fill="#533022"/><path d="m144.855 266.917c0 3.403-2.758 6.161-6.161 6.161s-6.161-2.758-6.161-6.161 2.758-6.161 6.161-6.161 6.161 2.758 6.161 6.161zm71.88-6.161c-3.403 0-6.161 2.758-6.161 6.161s2.758 6.161 6.161 6.161 6.161-2.758 6.161-6.161-2.758-6.161-6.161-6.161z" fill="#fff5f5"/><path d="m222.896 414.784c0 9.074-7.356 16.43-16.43 16.43h-73.934c-9.074 0-16.43-7.356-16.43-16.43 0-9.074 7.356-16.43 16.43-16.43h73.934c9.075 0 16.43 7.356 16.43 16.43z" fill="#e3f0fb"/><path d="m222.896 414.784c0 9.074-7.356 16.43-16.43 16.43h-41.896c-9.074 0-16.43-7.356-16.43-16.43 0-9.074 7.356-16.43 16.43-16.43h41.896c9.075 0 16.43 7.356 16.43 16.43z" fill="#fff5f5"/><path d="m106.557 454.277c-12.463-9.064-24.039-19.273-34.573-30.475 7.196-5.117 15.179-8.196 23.582-8.196h24.221c1.844 0 3.338 1.495 3.338 3.338v26.838c.001 8.522-9.675 13.507-16.568 8.495z" fill="#d98800"/><path d="m300.937 473.109v22.693c-16.277 3.407-33.148 5.198-50.437 5.198-53.385 0-102.782-17.074-143.027-46.06-16.963-12.217-8.634-39.165 12.27-39.332.156-.001.312-.002.469-.002h123.223c31.757-.001 57.502 25.745 57.502 57.503z" fill="#f4aa39"/><path d="m244.352 500.924c-7.589-.187-15.093-.719-22.495-1.581l.919-29.269c.232-5.534 4.786-9.9 10.325-9.9s10.092 4.367 10.325 9.9zm-74.852-60.674c-5.539 0-10.092 4.366-10.325 9.9l-1.122 32.808c7.543 3.076 15.274 5.787 23.171 8.11l-1.399-40.918c-.233-5.534-4.786-9.9-10.325-9.9z" fill="#d98800"/><path d="m111.485 233.236c-17.791-4.713-33.746-11.711-46.985-20.427v-72.809l39.645 5.664c12.54 1.791 21.855 12.531 21.855 25.199v51.268c0 7.576-7.191 13.046-14.515 11.105z" fill="#c98001"/><path d="m266.851 211.722c-25.586 17.413-61.816 28.278-101.988 28.278-19.205 0-37.807-2.564-54.477-7.058 10.864-38.942 7.771-64.942-9.591-87.757l96.433 13.776c31.597 4.514 57.401 25.096 69.623 52.761z" fill="#d98800"/><path d="m184.5 391.5h-30c-11.046 0-20-8.954-20-20v-43.509c0-11.046 8.954-20 20-20h30c11.046 0 20 8.954 20 20v43.509c0 11.046-8.954 20-20 20z" fill="#c98001"/><path d="m184.5 391.5h-8.716c-11.046 0-20-8.954-20-20v-43.509c0-11.046 8.954-20 20-20h8.716c11.046 0 20 8.954 20 20v43.509c0 11.046-8.954 20-20 20z" fill="#d98800"/><path d="m157.589 305.306c-2.406-2.407-2.406-6.307 0-8.714 2.406-2.405 6.307-2.405 8.713 0 .856.856 1.992 1.328 3.198 1.328 1.207 0 2.342-.472 3.198-1.328 2.406-2.405 6.307-2.405 8.713 0 2.406 2.407 2.406 6.307 0 8.714-3.183 3.183-7.413 4.936-11.911 4.936s-8.728-1.753-11.911-4.936z" fill="#dd9683"/><path d="m169.5 357.28c-13.611 0-24.645-11.034-24.645-24.644 0-3.403 2.758-6.161 6.161-6.161h36.967c3.403 0 6.161 2.758 6.161 6.161 0 13.61-11.033 24.644-24.644 24.644z" fill="#fff5f5"/><path d="m175.661 356.504c-1.969.507-4.034.776-6.161.776-13.611 0-24.645-11.034-24.645-24.645 0-3.403 2.758-6.161 6.161-6.161h12.322c-3.403 0-6.161 2.758-6.161 6.161.001 11.484 7.855 21.133 18.484 23.869z" fill="#e3f0fb"/><path d="m443.712 248.436 5.123-15.164c.295-.872.98-1.557 1.852-1.852l15.164-5.123c2.677-.904 2.677-4.69 0-5.594l-15.164-5.123c-.872-.295-1.557-.98-1.852-1.852l-5.123-15.164c-.904-2.677-4.69-2.677-5.594 0l-5.123 15.164c-.295.872-.98 1.557-1.852 1.852l-15.164 5.123c-2.677.904-2.677 4.69 0 5.594l15.164 5.123c.872.295 1.557.98 1.852 1.852l5.123 15.164c.904 2.677 4.69 2.677 5.594 0zm-378.808-29.884 3.305-9.783c.19-.563.632-1.005 1.195-1.195l9.783-3.305c1.727-.583 1.727-3.026 0-3.609l-9.783-3.305c-.563-.19-1.005-.632-1.195-1.195l-3.305-9.783c-.583-1.727-3.026-1.727-3.609 0l-3.305 9.783c-.19.563-.632 1.005-1.195 1.195l-9.783 3.305c-1.727.583-1.727 3.026 0 3.609l9.783 3.305c.563.19 1.005.632 1.195 1.195l3.305 9.783c.583 1.727 3.026 1.727 3.609 0z" fill="#fff5f5"/></g></svg>