<svg id="Capa_1" enable-background="new 0 0 501 501" height="512" viewBox="0 0 501 501" width="512" xmlns="http://www.w3.org/2000/svg"><g><path d="m490 256c0 135.31-109.69 245-245 245s-245-109.69-245-245 109.69-245 245-245 245 109.69 245 245z" fill="#003c79"/><path d="m490 256c0 3.408-.07 6.799-.208 10.173-27.315 77.937-101.527 133.827-188.792 133.827-110.457 0-200-89.543-200-200 0-87.265 55.89-161.476 133.827-188.792 3.374-.138 6.765-.208 10.173-.208 135.31 0 245 109.69 245 245z" fill="#004b92"/><path d="m116.334 384.666c7.81 7.81 7.81 20.474 0 28.284l-21.213 21.213c-3.359 3.359-7.616 5.274-11.999 5.743-7.799-6.87-15.158-14.229-22.029-22.028.469-4.383 2.384-8.64 5.743-11.999l21.213-21.213c7.811-7.81 20.474-7.81 28.285 0z" fill="#d98800"/><path d="m399.467 235.883-134.35-134.35c-15.621-15.621-15.621-40.948 0-56.569l20.922-20.922c5.858-5.858 15.355-5.858 21.213 0l169.706 169.706c5.858 5.858 5.858 15.355 0 21.213l-20.922 20.922c-15.621 15.621-40.948 15.621-56.569 0z" fill="#d98800"/><path d="m403.632 231.718-85.56-85.56c-15.621-15.621-15.621-40.948 0-56.569l16.758-16.758c5.858-5.858 15.355-5.858 21.213 0l120.915 120.915c5.858 5.858 5.858 15.355 0 21.213l-16.758 16.758c-15.62 15.622-40.947 15.622-56.568.001z" fill="#fcb30b"/><path d="m501 165.463-67.411 67.411c-7.18 0-11.205 0-18.385 0 0-7.18 0-11.205 0-18.385-7.18 0-11.205 0-18.385 0 0-7.18 0-11.205 0-18.385-7.18 0-11.205 0-18.385 0 0-7.18 0-11.205 0-18.385-7.18 0-11.205 0-18.385 0 0-7.18 0-11.205 0-18.385-7.18 0-11.205 0-18.385 0 0-7.18 0-11.205 0-18.385-7.18 0-11.205 0-18.385 0 0-7.18 0-11.205 0-18.385-7.18 0-11.205 0-18.385 0 0-7.18 0-11.205 0-18.385-7.18 0-11.205 0-18.385 0 0-7.18 0-11.205 0-18.385-7.18 0-11.205 0-18.385 0 0-7.18 0-11.205 0-18.385l67.413-67.409h18.385v18.385h18.385v18.385h18.385v18.385h18.385v18.385h18.385v18.385h18.385v18.385h18.385v18.385h18.385v18.385h18.385c-.002 7.178-.002 11.203-.002 18.383z" fill="#528ed7"/><path d="m486.395 147.078v7.527h-144.73c0-4.573 0-8.206 0-13.655-7.18 0-11.205 0-18.385 0 0-6.471 0-10.38 0-16.345h140.95v4.088h18.385v18.385zm-40.549-42.473c0-4.132 0-7.624 0-12.681-7.18 0-11.205 0-18.385 0 0-7.18 0-11.205 0-18.385-7.18 0-11.205 0-18.385 0 0-3.479 0-6.218 0-8.934h-112.681v39.575h8.501v.425z" fill="#91cefb"/><path d="m112.798 423.557-35.355-35.355c-7.81-7.81-7.81-20.474 0-28.284l7.071-7.071c7.81-7.81 20.474-7.81 28.284 0l35.355 35.355c7.81 7.81 7.81 20.474 0 28.284l-7.071 7.071c-7.81 7.81-20.473 7.81-28.284 0z" fill="#fcb30b"/><path d="m377.963 278.6-205.525 139.227c-7.939 5.378-18.578 4.364-25.359-2.416l-61.49-61.49c-6.781-6.781-7.794-17.42-2.416-25.359l139.227-205.525z" fill="#f7e6b0"/><path d="m147.079 415.411-23.306-23.306c-6.781-6.781-7.794-17.42-2.416-25.359l139.227-205.526 117.38 117.38-205.526 139.227c-7.94 5.378-18.579 4.365-25.359-2.416z" fill="#fff5f5"/><path d="m333.585 308.663-109.332 74.064-4.396-8.472c-4.417-8.512-2.171-18.96 5.354-24.905l68.234-53.908c7.524-5.945 18.209-5.712 25.468.554zm-181.935-32.873 53.908-68.234c5.945-7.524 5.712-18.209-.554-25.468l-12.667-14.673-74.064 109.332 8.472 4.396c8.512 4.418 18.961 2.172 24.905-5.353z" fill="#fdcb6b"/><path d="m267.655 182.434-41.719-41.719c-15.621-15.621-15.621-40.948 0-56.569l38.891-38.891c5.858-5.858 15.355-5.858 21.213 0l77.075 77.075c5.858 5.858 5.858 15.355 0 21.213l-38.891 38.891c-15.622 15.621-40.948 15.621-56.569 0z" fill="#d98800"/><path d="m360.286 275.065-99.702-99.702c-15.621-15.621-15.621-40.948 0-56.569l49.497-49.497 145.664 145.663c5.858 5.858 5.858 15.355 0 21.213l-38.891 38.891c-15.621 15.622-40.947 15.622-56.568.001z" fill="#fcb30b"/><path d="m201.187 299.813c-9.763-9.763-9.763-25.592 0-35.355l35.355-35.355c9.763-9.763 25.592-9.763 35.355 0 9.763 9.763 9.763 25.592 0 35.355l-35.355 35.355c-9.763 9.763-25.592 9.763-35.355 0z" fill="#fdd78d"/><path d="m236.542 292.742c-7.81 7.81-20.474 7.81-28.284 0s-7.81-20.474 0-28.284 20.474-7.81 28.284 0 7.81 20.474 0 28.284z" fill="#f4aa39"/><path d="m420.39 222.032c-3.905 3.905-10.237 3.905-14.142 0l-127.28-127.28c-3.905-3.905-3.905-10.237 0-14.142s10.237-3.905 14.142 0l127.28 127.279c3.905 3.906 3.905 10.237 0 14.143zm-155.564-113.138c-3.905-3.905-10.237-3.905-14.142 0-3.905 3.905-3.905 10.237 0 14.142l127.279 127.279c3.905 3.905 10.237 3.905 14.142 0s3.905-10.237 0-14.142z" fill="#d98800"/></g></svg>