<svg id="Capa_1" enable-background="new 0 0 501 501" height="512" viewBox="0 0 501 501" width="512" xmlns="http://www.w3.org/2000/svg"><g><path d="m471.319 350c-35.168 84.576-116.364 145.201-212.319 150.607-2.081.117-8.621-.977-15.195-2.217-8.132-1.535-16.423-.792-24.454 1.205-.145.036-.263.051-.35.042-74.974-7.909-139.866-49.633-179.142-109.637v-9.81c0-13.518-8.467-25.589-21.178-30.19-12.036-28.946-18.681-60.697-18.681-94 0-126.364 95.666-230.384 218.523-243.586.155-.017.31-.033.465-.049 8.36-.882 16.852.84 25.442.82 4.893-.011 9.746-2.065 14.567-1.796.088.005.176.01.264.015 128.543 7.309 230.103 112.884 230.737 243.379.092 18.981-1.974 37.464-5.968 55.217-7.993 5.895-12.71 15.237-12.71 25.169v14.831z" fill="#81ade2"/><path d="m471.319 350h-212.319v150.606c-4.633.261-9.301.394-14 .394-8.782 0-17.457-.462-26-1.364v-109.636h-179.141c-8.233-12.578-15.34-25.959-21.178-40h200.319v-337.636c8.543-.902 17.218-1.364 26-1.364 4.699 0 9.367.132 14 .394v298.606h225.029c-3.107 13.811-7.379 27.181-12.71 40z" fill="#bbe0fb"/><path d="m179 430v62.007c-45.336-12.652-85.369-38.015-116.016-72.007h106.016c5.523 0 10 4.477 10 10zm120-50c-5.523 0-10 4.477-10 10v70c0 5.523 4.477 10 10 10h65.376c38.077-21.286 69.888-52.44 91.972-90z" fill="#528ed7"/><path d="m434.03 283.099c-42.198 29.239-70.091 74.917-75.472 125.972l-.344 3.269c-.677 6.42-6.09 11.293-12.546 11.293-6.455 0-11.869-4.873-12.546-11.293l-.345-3.272c-5.373-50.986-33.131-96.71-75.308-125.855-40.3-27.848-66.794-74.254-67.13-126.867-.545-85.379 68.774-155.708 154.151-156.342 86.328-.64 156.51 69.148 156.51 155.328 0 52.959-26.503 99.728-66.97 127.767z" fill="#54469b"/><path d="m372.247 357.645c-7.113 16.154-11.795 33.457-13.689 51.426l-.345 3.268c-.677 6.42-6.09 11.293-12.546 11.293-6.455 0-11.869-4.873-12.546-11.293l-.345-3.272c-5.373-50.986-33.131-96.71-75.309-125.855-40.3-27.848-66.794-74.254-67.13-126.868-.472-73.933 51.447-136.582 120.815-152.46-45.001 27.536-75.045 77.31-74.686 133.632.336 52.613 26.83 99.02 67.13 126.868 32.95 22.768 57.099 55.653 68.651 93.261z" fill="#003c79"/><path d="m468.051 150.625c0 67.59-54.793 122.383-122.383 122.383s-122.383-54.793-122.383-122.383 54.793-122.383 122.383-122.383 122.383 54.793 122.383 122.383z" fill="#d98800"/><path d="m444.516 150.625c0 54.592-44.256 98.848-98.848 98.848s-98.848-44.256-98.848-98.848 44.256-98.848 98.848-98.848 98.848 44.256 98.848 98.848z" fill="#f3d373"/><path d="m444.516 150.625c0 19.586-5.696 37.841-15.523 53.2-15.359 9.826-33.614 15.523-53.2 15.523-54.592 0-98.848-44.256-98.848-98.848 0-19.586 5.696-37.841 15.523-53.2 15.359-9.826 33.614-15.523 53.2-15.523 54.592 0 98.848 44.256 98.848 98.848z" fill="#f9eecf"/><path d="m264.424 75.779c-4.808-4.808-4.558-12.684.553-17.17 21.662-19.012 50.095-30.496 81.212-30.367 66.894.278 121.584 54.969 121.862 121.863.129 31.117-11.355 59.548-30.367 81.211-4.485 5.11-12.362 5.36-17.169.553-4.365-4.365-4.643-11.385-.568-16.022 15.517-17.657 24.838-40.893 24.565-66.31-.575-53.485-44.269-97.179-97.754-97.754-25.417-.273-48.653 9.048-66.31 24.565-4.639 4.075-11.659 3.796-16.024-.569z" fill="#fcb30b"/><path d="m310.556 117.855c21.98-20.536 54.064 11.548 33.528 33.528-.372.398-.752.791-1.14 1.18-12.078 16.124-35.509 34.926-72.167 22.003-27.458-9.679-24.656-21.351-23.736-23.736 1.78-4.615 18.19 8.439 31.648 0 11.872-7.445 24.662-22.786 30.688-31.835.149-.224.61-.608 1.179-1.14z" fill="#8f4d24"/><path d="m381.96 118.995c6.026 9.049 18.815 24.39 30.688 31.835 13.458 8.439 29.868-4.615 31.648 0 .92 2.385 3.722 14.056-23.736 23.736-36.659 12.923-60.089-5.879-72.167-22.003-.388-.388-.768-.782-1.14-1.18-20.536-21.98 11.548-54.064 33.528-33.528.568.532 1.029.916 1.179 1.14z" fill="#ab5e2e"/><path d="m243.694 329.466c-42.198 29.239-70.091 74.917-75.472 125.972l-.344 3.269c-.677 6.42-6.09 11.293-12.546 11.293-6.455 0-11.869-4.873-12.546-11.293l-.345-3.272c-5.373-50.986-33.131-96.71-75.308-125.855-40.3-27.848-66.794-74.254-67.13-126.867-.545-85.377 68.774-155.707 154.15-156.34 86.328-.64 156.51 69.148 156.51 155.328.001 52.957-26.502 99.726-66.969 127.765z" fill="#e43950"/><path d="m181.911 404.012c-7.113 16.154-11.795 33.457-13.689 51.426l-.345 3.268c-.677 6.42-6.09 11.293-12.546 11.293-6.455 0-11.869-4.873-12.546-11.293l-.345-3.272c-5.373-50.986-33.131-96.71-75.308-125.855-40.3-27.848-66.794-74.254-67.13-126.868-.471-73.933 51.448-136.582 120.816-152.459-45.001 27.536-75.045 77.31-74.686 133.632.336 52.613 26.83 99.02 67.13 126.868 32.949 22.767 57.097 55.652 68.649 93.26z" fill="#c92e43"/><path d="m277.715 196.992c0 67.59-54.793 122.383-122.383 122.383s-122.383-54.793-122.383-122.383 54.793-122.383 122.383-122.383 122.383 54.793 122.383 122.383z" fill="#d98800"/><path d="m254.18 196.992c0 54.592-44.256 98.848-98.848 98.848s-98.848-44.256-98.848-98.848 44.256-98.848 98.848-98.848 98.848 44.256 98.848 98.848z" fill="#f3d373"/><path d="m254.18 196.992c0 19.586-5.696 37.841-15.523 53.2-15.359 9.826-33.614 15.523-53.2 15.523-54.592 0-98.848-44.256-98.848-98.848 0-19.586 5.696-37.841 15.523-53.2 15.359-9.826 33.614-15.523 53.2-15.523 54.592.001 98.848 44.256 98.848 98.848z" fill="#f9eecf"/><path d="m74.088 122.147c-4.808-4.808-4.558-12.684.553-17.17 21.662-19.012 50.095-30.496 81.212-30.367 66.894.278 121.584 54.969 121.862 121.863.129 31.117-11.355 59.548-30.367 81.211-4.485 5.11-12.362 5.36-17.169.553-4.365-4.365-4.643-11.385-.568-16.022 15.517-17.657 24.838-40.893 24.565-66.31-.575-53.485-44.269-97.179-97.754-97.754-25.417-.273-48.653 9.048-66.31 24.565-4.639 4.074-11.659 3.795-16.024-.569z" fill="#fcb30b"/><path d="m182.029 131.447c-1.506-.702-3.297-.051-3.999 1.455l-36.2 77.631c-1.864-1.533-3.949-2.858-6.237-3.925-14.64-6.827-32.042-.493-38.868 14.147-6.827 14.64-.493 32.042 14.147 38.869s32.042.493 38.869-14.147l41.444-88.877c4.416-9.475.317-20.736-9.156-25.153zm-43.294 107.848c-3.413 7.318-12.111 10.484-19.43 7.072-7.318-3.412-10.484-12.111-7.072-19.43 3.412-7.318 12.111-10.484 19.43-7.072 7.318 3.413 10.484 12.112 7.072 19.43z" fill="#003c79"/><path d="m199.793 260.073c-14.64 6.827-32.042.493-38.869-14.147l-41.444-88.877c-4.418-9.474-.319-20.735 9.155-25.152 1.506-.702 3.297-.051 3.999 1.455l36.2 77.631c1.864-1.533 3.949-2.858 6.237-3.925 14.64-6.827 32.042-.493 38.869 14.147 6.827 14.639.493 32.041-14.147 38.868zm-27.864-33.136c-3.413 7.318-.246 16.017 7.072 19.43s16.017.246 19.43-7.072.246-16.017-7.072-19.43c-7.318-3.412-16.017-.246-19.43 7.072zm-10.011-59.484 12.102 25.953 12.102-25.953-12.102-25.953z" fill="#54469b"/><path d="m161.568 208.184c0 3.444-2.792 6.236-6.236 6.236s-6.236-2.792-6.236-6.236 2.792-6.236 6.236-6.236 6.236 2.792 6.236 6.236z" fill="#8279c0"/></g></svg>