<svg id="Capa_1" enable-background="new 0 0 512 512" height="512" viewBox="0 0 512 512" width="512" xmlns="http://www.w3.org/2000/svg"><g><path d="m19.444 325.5c-5.506-20.402-8.444-41.858-8.444-64 0-135.31 109.69-245 245-245s245 109.69 245 245c0 22.142-2.938 43.598-8.444 64z" fill="#6354b0"/><path d="m497.06 305.5c-20.729 114.311-120.771 201-241.06 201-6.831 0-13.597-.281-20.286-.829v-1.314c0-20.908-16.949-37.857-37.857-37.857h-76.07c-55.036-36.105-94.656-93.776-106.846-161z" fill="#003c79"/><path d="m185.663 485.5v-169h44.673v164.285c-14.459 2.743-29.391 4.352-44.673 4.715zm307.733-163.202v-5.798h-44.673v96.286c20.709-26.344 36.133-57.04 44.673-90.488z" fill="#6354b0"/><path d="m177.5 325.5v-146.5c0-84.64 68.86-153.5 153.5-153.5s153.5 68.86 153.5 153.5v146.5z" fill="#528ed7"/><path d="m236.5 179v146.5h-59v-146.5c0-84.64 68.86-153.5 153.5-153.5 10.088 0 19.951.979 29.5 2.845-70.575 13.793-124 76.102-124 150.655z" fill="#0573cd"/><path d="m393.701 35.115-100.62 271.985-59.555-22.032 100.62-271.985zm24.854 9.194-100.62 271.985 31.419 11.623 100.62-271.985z" fill="#63bcfa"/><path d="m157.5 305.5v-126.5c0-95.668 77.832-173.5 173.5-173.5s173.5 77.832 173.5 173.5v126.5h-40v-126.5c0-73.612-59.888-133.5-133.5-133.5s-133.5 59.888-133.5 133.5v126.5z" fill="#d98800"/><path d="m344 25.5c0 7.18-5.82 13-13 13s-13-5.82-13-13 5.82-13 13-13 13 5.82 13 13zm127.06 153.179c0 7.18 5.82 13 13 13s13-5.82 13-13-5.82-13-13-13-13 5.821-13 13zm13 50.642c-7.18 0-13 5.82-13 13s5.82 13 13 13 13-5.82 13-13-5.821-13-13-13zm-215.06-203.821c-7.18 0-13 5.82-13 13s5.82 13 13 13 13-5.82 13-13-5.82-13-13-13zm124 0c-7.18 0-13 5.82-13 13s5.82 13 13 13 13-5.82 13-13-5.82-13-13-13zm-172 34c-7.18 0-13 5.82-13 13s5.82 13 13 13 13-5.82 13-13-5.82-13-13-13zm-30.5 46.434c-7.18 0-13 5.82-13 13s5.82 13 13 13 13-5.82 13-13-5.82-13-13-13zm295.333 13c0-7.18-5.82-13-13-13s-13 5.82-13 13 5.82 13 13 13 13-5.82 13-13z" fill="#f1ca50"/><path d="m337.5 25.5c0 3.59-2.91 6.5-6.5 6.5s-6.5-2.91-6.5-6.5 2.91-6.5 6.5-6.5 6.5 2.91 6.5 6.5zm146.56 159.679c3.59 0 6.5-2.91 6.5-6.5s-2.91-6.5-6.5-6.5-6.5 2.91-6.5 6.5 2.91 6.5 6.5 6.5zm0 50.642c-3.59 0-6.5 2.91-6.5 6.5s2.91 6.5 6.5 6.5 6.5-2.91 6.5-6.5-2.911-6.5-6.5-6.5zm-215.06-203.821c-3.59 0-6.5 2.91-6.5 6.5s2.91 6.5 6.5 6.5 6.5-2.91 6.5-6.5-2.91-6.5-6.5-6.5zm124 0c-3.59 0-6.5 2.91-6.5 6.5s2.91 6.5 6.5 6.5 6.5-2.91 6.5-6.5-2.91-6.5-6.5-6.5zm-172 34c-3.59 0-6.5 2.91-6.5 6.5s2.91 6.5 6.5 6.5 6.5-2.91 6.5-6.5-2.91-6.5-6.5-6.5zm-30.5 46.434c-3.59 0-6.5 2.91-6.5 6.5s2.91 6.5 6.5 6.5 6.5-2.91 6.5-6.5-2.91-6.5-6.5-6.5zm282.333 0c-3.59 0-6.5 2.91-6.5 6.5s2.91 6.5 6.5 6.5 6.5-2.91 6.5-6.5-2.91-6.5-6.5-6.5z" fill="#fdf7bd"/><path d="m343.922 24.053c.527 4.88-1.649 9.291-5.219 11.92-2.113 1.557-5.103.01-5.103-2.614 0-1.024.442-2.023 1.265-2.633 1.823-1.35 2.914-3.631 2.572-6.14-.4-2.934-2.846-5.271-5.793-5.555-2.171-.209-4.149.651-5.471 2.115-.613.679-1.457 1.104-2.372 1.104h-.233c-2.724 0-4.179-3.204-2.394-5.263 2.701-3.115 6.858-4.932 11.413-4.393 5.933.703 10.693 5.519 11.335 11.459zm130.312 146.114c-1.785 2.058-.33 5.263 2.394 5.263h.233c.915 0 1.759-.425 2.372-1.104 1.322-1.464 3.3-2.324 5.471-2.115 2.947.284 5.393 2.621 5.793 5.554.342 2.509-.75 4.79-2.572 6.14-.823.61-1.265 1.609-1.265 2.633 0 2.624 2.99 4.171 5.103 2.614 3.569-2.63 5.746-7.04 5.219-11.92-.642-5.94-5.401-10.756-11.334-11.459-4.555-.539-8.713 1.279-11.414 4.394zm11.413 59.248c-4.554-.539-8.712 1.278-11.413 4.393-1.785 2.058-.33 5.263 2.394 5.263h.233c.915 0 1.759-.425 2.372-1.104 1.322-1.464 3.3-2.324 5.471-2.115 2.947.284 5.393 2.621 5.793 5.555.342 2.509-.75 4.79-2.572 6.14-.823.61-1.265 1.609-1.265 2.633 0 2.624 2.99 4.171 5.103 2.614 3.569-2.63 5.746-7.04 5.219-11.92-.642-5.94-5.402-10.757-11.335-11.459zm-215.06-203.821c-4.554-.539-8.712 1.278-11.413 4.393-1.785 2.058-.33 5.263 2.394 5.263h.233c.915 0 1.759-.425 2.372-1.104 1.322-1.464 3.3-2.324 5.471-2.115 2.947.284 5.393 2.621 5.793 5.555.342 2.509-.75 4.79-2.572 6.14-.823.61-1.265 1.609-1.265 2.633 0 2.624 2.99 4.171 5.103 2.614 3.569-2.63 5.746-7.04 5.219-11.92-.642-5.94-5.402-10.756-11.335-11.459zm124 0c-4.554-.539-8.712 1.278-11.413 4.393-1.785 2.058-.33 5.263 2.394 5.263h.233c.915 0 1.759-.425 2.372-1.104 1.322-1.464 3.3-2.324 5.471-2.115 2.947.284 5.393 2.621 5.793 5.555.342 2.509-.75 4.79-2.572 6.14-.823.61-1.265 1.609-1.265 2.633 0 2.624 2.99 4.171 5.103 2.614 3.569-2.63 5.746-7.04 5.219-11.92-.642-5.94-5.402-10.756-11.335-11.459zm-172 34c-4.554-.539-8.712 1.278-11.413 4.393-1.785 2.058-.33 5.263 2.394 5.263h.233c.915 0 1.759-.425 2.372-1.104 1.322-1.464 3.3-2.324 5.471-2.115 2.947.284 5.393 2.621 5.793 5.555.342 2.509-.75 4.79-2.572 6.14-.823.61-1.265 1.609-1.265 2.633 0 2.624 2.99 4.171 5.103 2.614 3.569-2.63 5.746-7.04 5.219-11.92-.642-5.94-5.402-10.756-11.335-11.459zm-30.5 46.434c-4.554-.539-8.712 1.278-11.413 4.393-1.785 2.058-.33 5.263 2.394 5.263h.233c.915 0 1.759-.425 2.372-1.104 1.322-1.464 3.3-2.324 5.471-2.115 2.947.284 5.393 2.621 5.793 5.554.342 2.509-.75 4.79-2.572 6.14-.823.61-1.265 1.609-1.265 2.633 0 2.624 2.99 4.171 5.103 2.614 3.569-2.63 5.746-7.04 5.219-11.92-.642-5.939-5.402-10.755-11.335-11.458zm287.184 11.992c.342 2.509-.75 4.79-2.572 6.14-.823.61-1.265 1.609-1.265 2.633 0 2.624 2.99 4.171 5.103 2.614 3.569-2.63 5.746-7.04 5.219-11.92-.641-5.94-5.401-10.756-11.334-11.459-4.554-.539-8.712 1.278-11.413 4.393-1.785 2.058-.33 5.263 2.394 5.263h.233c.915 0 1.759-.425 2.372-1.104 1.322-1.464 3.3-2.324 5.471-2.115 2.946.284 5.392 2.621 5.792 5.555z" fill="#fdf385"/><path d="m390 265.5h-10c-5.523 0-10-4.477-10-10v-60c0-5.523 4.477-10 10-10h10c5.523 0 10 4.477 10 10v60c0 5.523-4.477 10-10 10z" fill="#f1ca50"/><path d="m400 295.5h-30c-5.523 0-10-4.477-10-10v-60c0-5.523 4.477-10 10-10h30c5.523 0 10 4.477 10 10v60c0 5.523-4.477 10-10 10z" fill="#e43950"/><path d="m380 295.5h-50c-5.523 0-10-4.477-10-10v-30c0-5.523 4.477-10 10-10h50c5.523 0 10 4.477 10 10v30c0 5.523-4.477 10-10 10z" fill="#f5dc90"/><path d="m380 295.5h-26c-5.523 0-10-4.477-10-10v-30c0-5.523 4.477-10 10-10h26c5.523 0 10 4.477 10 10v30c0 5.523-4.477 10-10 10z" fill="#f9eecf"/><path d="m407.807 335.5h-252.807c-2.761 0-5-2.239-5-5v-39c0-2.761 2.239-5 5-5h252.807c2.761 0 5 2.239 5 5v39c0 2.761-2.239 5-5 5z" fill="#8f4d24"/><path d="m507 335.5h-188.386c-2.761 0-5-2.239-5-5v-39c0-2.761 2.239-5 5-5h188.386c2.761 0 5 2.239 5 5v39c0 2.761-2.239 5-5 5z" fill="#c76d36"/><path d="m325 305.5v50c0 22.056-17.944 40-40 40h-67.676c1.702 2.942 2.676 6.357 2.676 10v10c0 11.046-8.954 20-20 20h-10v30c0 11.046-8.954 20-20 20s-20-8.954-20-20v-30h-10c-11.046 0-20-8.954-20-20v-10c0-3.643.974-7.058 2.676-10h-67.676c-22.056 0-40-17.944-40-40v-50c0-5.523 4.477-10 10-10s10 4.477 10 10v50c0 11.028 8.972 20 20 20h230c11.028 0 20-8.972 20-20v-50c0-5.523 4.477-10 10-10s10 4.477 10 10z" fill="#81ade2"/><path d="m200 435.5h-26.5c-11.046 0-20-8.954-20-20v-10c0-11.046 8.954-20 20-20h26.5c11.046 0 20 8.954 20 20v10c0 11.046-8.954 20-20 20z" fill="#b1c9eb"/><path d="m50 325.5c0 11.046-8.954 20-20 20h-10c-11.046 0-20-8.954-20-20v-30c0-11.046 8.954-20 20-20h10c11.046 0 20 8.954 20 20zm270-50h-10c-11.046 0-20 8.954-20 20v30c0 11.046 8.954 20 20 20h10c11.046 0 20-8.954 20-20v-30c0-11.046-8.954-20-20-20z" fill="#f19b0b"/><path d="m50 295.5v5c0 11.046-8.954 20-20 20h-10c-11.046 0-20-8.954-20-20v-5c0-11.046 8.954-20 20-20h10c11.046 0 20 8.954 20 20zm270-20h-10c-11.046 0-20 8.954-20 20v5c0 11.046 8.954 20 20 20h10c11.046 0 20-8.954 20-20v-5c0-11.046-8.954-20-20-20z" fill="#fcb30b"/><path d="m270 205.5v130c0 22.091-17.909 40-40 40h-120c-22.091 0-40-17.909-40-40v-130c0-22.091 17.909-40 40-40v-20c0-11.046 8.954-20 20-20h80c11.046 0 20 8.954 20 20v20c22.091 0 40 17.909 40 40z" fill="#fcb30b"/><path d="m118.189 359.788.572-14.288c-.823-3.196-1.26-6.547-1.26-10v-130c0-.538.011-1.073.032-1.606.741-18.772 16.643-33.394 35.43-33.394h31.913c4.107 0 7.688-3.165 7.811-7.269.127-4.247-3.278-7.731-7.497-7.731h-17.69c-5.523 0-10-4.477-10-10 0-11.046 8.954-20 20-20h-47.5c-11.046 0-20 8.954-20 20v20c-22.091 0-40 17.909-40 40v130c0 3.453.438 6.804 1.26 10h-1.26c-11.046 0-20 8.954-20 20v30c0 11.046 8.954 20 20 20h200c11.046 0 20-8.954 20-20v-30c0-11.046-160.766-5.712-171.811-5.712zm131.811 126.712c0 9.06-6.025 16.713-14.286 19.172-41.835-3.429-80.692-17.368-113.928-39.172h108.214c11.046 0 20 8.954 20 20z" fill="#f19b0b"/><path d="m270 385.5h-160c-11.046 0-20-8.954-20-20 0-11.046 8.954-20 20-20h160c11.046 0 20 8.954 20 20 0 11.046-8.954 20-20 20z" fill="#fdbf43"/><path d="m132.5 220.5c0 5.523-4.477 10-10 10s-10-4.477-10-10 4.477-10 10-10 10 4.477 10 10zm85 10c5.523 0 10-4.477 10-10s-4.477-10-10-10-10 4.477-10 10 4.477 10 10 10zm-47.5 15c-5.523 0-10 4.477-10 10s4.477 10 10 10 10-4.477 10-10-4.477-10-10-10zm-47.5 30c-5.523 0-10 4.477-10 10s4.477 10 10 10 10-4.477 10-10-4.477-10-10-10zm95 0c-5.523 0-10 4.477-10 10s4.477 10 10 10 10-4.477 10-10-4.477-10-10-10zm-47.5 35c-5.523 0-10 4.477-10 10s4.477 10 10 10 10-4.477 10-10-4.477-10-10-10z" fill="#d98800"/><path d="m422.714 115.787-6.941-20.544c-.399-1.182-1.327-2.11-2.509-2.509l-20.544-6.941c-3.626-1.225-3.626-6.354 0-7.579l20.544-6.941c1.182-.399 2.11-1.327 2.509-2.509l6.941-20.544c1.225-3.626 6.354-3.626 7.579 0l6.941 20.544c.399 1.182 1.327 2.11 2.509 2.509l20.544 6.941c3.626 1.225 3.626 6.354 0 7.579l-20.544 6.941c-1.182.399-2.11 1.327-2.509 2.509l-6.941 20.544c-1.225 3.626-6.354 3.626-7.579 0zm-52.973 311.593 5.123-15.164c.295-.872.98-1.557 1.852-1.852l15.164-5.123c2.677-.904 2.677-4.69 0-5.594l-15.164-5.123c-.872-.295-1.557-.98-1.852-1.852l-5.123-15.164c-.904-2.677-4.69-2.677-5.594 0l-5.123 15.164c-.295.872-.98 1.557-1.852 1.852l-15.164 5.123c-2.677.904-2.677 4.69 0 5.594l15.164 5.123c.872.295 1.557.98 1.852 1.852l5.123 15.164c.904 2.676 4.689 2.676 5.594 0z" fill="#fff5f5"/></g></svg>