<svg id="Capa_1" enable-background="new 0 0 501 501" height="512" viewBox="0 0 501 501" width="512" xmlns="http://www.w3.org/2000/svg"><g><path d="m45.398 390.059c-25.811-39.409-40.57-86.708-39.875-137.494 1.844-134.606 110.89-241.85 245.509-241.564 135.065.286 244.468 109.866 244.468 244.999 0 49.528-14.697 95.623-39.966 134.163-2.572 3.923-6.979 6.254-11.67 6.254h-386.616c-4.765 0-9.239-2.371-11.85-6.358z" fill="#003c79"/><path d="m394.625 431.602c9.565 0 13.648 12.085 6.096 17.955-41.485 32.243-93.611 51.443-150.221 51.443-63.099 0-120.626-23.854-164.057-63.035-2.482-2.239-.898-6.363 2.444-6.363z" fill="#c76d36"/><path d="m445.5 394.5h-390v-234.5h390z" fill="#528ed7"/><path d="m357.377 436.39-38.744-9.944 67.123-261.523 38.744 9.944zm13.365-275.321-29.058-7.458-67.123 261.523 29.058 7.458zm-99.637 13.797-38.744-9.944-67.123 261.523 38.744 9.944zm-53.757-13.797-29.058-7.458-67.123 261.523 29.058 7.458z" fill="#81ade2"/><path d="m103.5 280v45h51v15h-51v56.5h-48v-236.5h48v105h51v15z" fill="#fdbf43"/><path d="m445.5 390v-230h-48v230h-105v-230h-28v105h-76.5v-71.16h-15v71.16h-44.333c-4.142 0-7.5 3.358-7.5 7.5 0 4.142 3.358 7.5 7.5 7.5h44.333v45h-44.333c-4.142 0-7.5 3.358-7.5 7.5 0 4.142 3.358 7.5 7.5 7.5h44.333v50h-127.641c11.605 17.73 25.446 33.863 41.123 48h328.036c15.677-14.137 29.518-30.27 41.123-48zm-257.5-110h76.5v45h-76.5zm0 60h76.5v50h-76.5z" fill="#f1ca50"/><path d="m487.5 180v.061c-.005 3.315-2.768 5.969-6.083 5.969h-461.944c-3.297 0-5.971-2.672-5.973-5.969v-.061l50-130h374z" fill="#d98800"/><path d="m441.5 60h-382c-8.284 0-15-6.716-15-15 0-8.284 6.716-15 15-15h382c8.284 0 15 6.716 15 15 0 8.284-6.716 15-15 15z" fill="#f19b0b"/><path d="m441.5 60h-322c-8.284 0-15-6.716-15-15 0-8.284 6.716-15 15-15h322c8.284 0 15 6.716 15 15 0 8.284-6.716 15-15 15z" fill="#fdbf43"/><path d="m74.5 220h-21c-22.091 0-40-17.909-40-40h101c0 22.091-17.909 40-40 40z" fill="#ab2538"/><path d="m149.1 220h-21c-22.091 0-40-17.909-40-40h101c0 22.091-17.909 40-40 40z" fill="#e43950"/><path d="m223.7 220h-21c-22.091 0-40-17.909-40-40h101c0 22.091-17.909 40-40 40z" fill="#ab2538"/><path d="m298.3 220h-21c-22.091 0-40-17.909-40-40h101c0 22.091-17.909 40-40 40z" fill="#e43950"/><path d="m372.9 220h-21c-22.091 0-40-17.909-40-40h101c0 22.091-17.909 40-40 40z" fill="#ab2538"/><path d="m447.5 220h-21c-22.091 0-40-17.909-40-40h101c0 22.091-17.909 40-40 40z" fill="#e43950"/><path d="m449.038 80 38.462 100h-399.4l33.531-87.18c2.97-7.723 10.391-12.82 18.667-12.82z" fill="#fcb30b"/><path d="m369.5 290h-50c-2.761 0-5-2.239-5-5v-20c0-2.761 2.239-5 5-5h50c2.761 0 5 2.239 5 5v20c0 2.761-2.239 5-5 5z" fill="#f5dc90"/><path d="m369.5 290h-26.2c-2.761 0-5-2.239-5-5v-20c0-2.761 2.239-5 5-5h26.2c2.761 0 5 2.239 5 5v20c0 2.761-2.239 5-5 5z" fill="#fdf7bd"/><path d="m244.5 310v100c0 5.523-4.477 10-10 10h-60c-5.523 0-10-4.477-10-10v-100c0-5.523 4.477-10 10-10h60c5.523 0 10 4.477 10 10z" fill="#8f4d24"/><path d="m439.424 412c-11.635 14.075-24.813 26.828-39.275 38h-235.649c-5.523 0-10-4.477-10-10v-18c0-5.523 4.477-10 10-10z" fill="#f3d373"/><path d="m400.149 450h-188.111c-5.523 0-10-4.477-10-10v-18c0-5.523 4.477-10 10-10h227.386c-11.636 14.075-24.814 26.828-39.275 38z" fill="#f5dc90"/><path d="m332.189 81.689c0 45.115-36.573 81.689-81.689 81.689s-81.689-36.573-81.689-81.689 36.574-81.689 81.689-81.689 81.689 36.573 81.689 81.689z" fill="#81ade2"/><path d="m202.397 35.65c-6.142-6.142-5.282-16.399 1.876-21.321 13.65-9.385 30.294-14.729 48.207-14.306 43.303 1.025 78.66 36.382 79.685 79.685.424 17.913-4.92 34.558-14.306 48.207-4.922 7.158-15.179 8.018-21.321 1.876-4.803-4.803-5.353-12.299-1.535-17.917 6.217-9.147 9.687-20.311 9.226-32.307-1.07-27.838-23.771-50.538-51.609-51.609-11.996-.461-23.16 3.009-32.307 9.226-5.617 3.819-13.113 3.269-17.916-1.534z" fill="#91cefb"/><path d="m315.666 81.689c0 35.99-29.176 65.166-65.166 65.166s-65.166-29.176-65.166-65.166 29.176-65.166 65.166-65.166 65.166 29.175 65.166 65.166z" fill="#8f4d24"/><path d="m266.891 32.49-25.623 54.95c-1.275-1.048-2.701-1.954-4.265-2.684-10.011-4.668-21.91-.337-26.578 9.674s-.337 21.91 9.674 26.578 21.91.337 26.579-9.674l27.47-58.91c3.499-7.508.251-16.433-7.257-19.934zm-27.608 74.617c-2.333 5.004-8.282 7.169-13.286 4.836s-7.169-8.282-4.836-13.286 8.282-7.169 13.286-4.836 7.17 8.282 4.836 13.286z" fill="#fdbf43"/><path d="m290.577 94.737c-4.668-10.011-16.568-14.342-26.578-9.674-1.565.73-2.991 1.636-4.265 2.684l-25.623-54.95c-7.508 3.501-10.756 12.426-7.255 19.934l27.47 58.91c4.668 10.011 16.568 14.342 26.579 9.674s14.34-16.567 9.672-26.578zm-10.738 12.37c-2.333 5.004-8.282 7.169-13.286 4.836s-7.169-8.282-4.836-13.286 8.282-7.169 13.286-4.836 7.169 8.282 4.836 13.286z" fill="#f7e6b0"/><path d="m262.481 41.946 8.275 17.746-8.275 17.747-8.275-17.747z" fill="#f5dc90"/><path d="m204.5 350c-11.046 0-20-8.954-20-20 0-11.046 8.954-20 20-20 11.046 0 20 8.954 20 20 0 11.046-8.954 20-20 20z" fill="#fdf7bd"/><path d="m229.5 370h-50c-2.761 0-5-2.239-5-5 0-2.761 2.239-5 5-5h50c2.761 0 5 2.239 5 5 0 2.761-2.239 5-5 5z" fill="#fdf7bd"/><path d="m189.5 393h30c2.761 0 5 2.239 5 5 0 2.761-2.239 5-5 5h-30c-2.761 0-5-2.239-5-5 0-2.761 2.239-5 5-5zm-15-11.5c0 2.761 2.239 5 5 5h50c2.761 0 5-2.239 5-5 0-2.761-2.239-5-5-5h-50c-2.761 0-5 2.239-5 5z" fill="#fdd78d"/><path d="m216.169 330c0 6.445-5.224 11.669-11.669 11.669s-11.669-5.224-11.669-11.669 5.224-11.669 11.669-11.669 11.669 5.224 11.669 11.669z" fill="#fdd78d"/><path d="m315.836 79.681-5.123-15.164c-.295-.872-.98-1.557-1.852-1.852l-15.164-5.123c-2.677-.904-2.677-4.69 0-5.594l15.164-5.123c.872-.295 1.557-.98 1.852-1.852l5.123-15.164c.904-2.677 4.69-2.677 5.594 0l5.123 15.164c.295.872.98 1.557 1.852 1.852l15.164 5.123c2.677.904 2.677 4.69 0 5.594l-15.164 5.123c-.872.295-1.557.98-1.852 1.852l-5.123 15.164c-.904 2.677-4.69 2.677-5.594 0zm-212.037 230.391-5.123-15.164c-.295-.872-.98-1.557-1.852-1.852l-15.164-5.123c-2.677-.904-2.677-4.69 0-5.594l15.164-5.123c.872-.295 1.557-.98 1.852-1.852l5.123-15.164c.904-2.677 4.69-2.677 5.594 0l5.123 15.164c.295.872.98 1.557 1.852 1.852l15.164 5.123c2.677.904 2.677 4.69 0 5.594l-15.164 5.123c-.872.295-1.557.98-1.852 1.852l-5.123 15.164c-.905 2.677-4.69 2.677-5.594 0z" fill="#fff5f5"/></g></svg>