<svg id="Capa_1" enable-background="new 0 0 501 501" height="512" viewBox="0 0 501 501" width="512" xmlns="http://www.w3.org/2000/svg"><g><path d="m490 256c0 135.31-109.69 245-245 245s-245-109.69-245-245 109.69-245 245-245 245 109.69 245 245z" fill="#f5b65d"/><path d="m490 256c0 .795-.004 1.588-.011 2.381-26.594 75.307-98.402 129.267-182.813 129.267-107.046 0-193.824-86.778-193.824-193.824 0-84.411 53.96-156.219 129.267-182.813.792-.007 1.586-.011 2.381-.011 135.31 0 245 109.69 245 245z" fill="#f7c37d"/><path d="m242.701 217.048-51.962-30 100-173.205 51.962 30c14.349 8.284 19.265 26.632 10.981 40.981l-70 121.244c-8.285 14.348-26.633 19.264-40.981 10.98zm41.251 41.251 30 51.962 173.205-100-30-51.962c-8.284-14.349-26.632-19.265-40.981-10.981l-121.244 70c-14.348 8.285-19.264 26.633-10.98 40.981z" fill="#c92e43"/><path d="m242.701 217.048c-9.566-5.523-12.843-17.755-7.321-27.32l80-138.564c5.523-9.566 17.755-12.843 27.32-7.32 14.349 8.284 19.265 26.632 10.981 40.981l-70 121.244c-8.284 14.347-26.632 19.263-40.98 10.979zm41.251 41.251c5.523 9.566 17.755 12.843 27.32 7.321l138.564-80c9.566-5.523 12.843-17.755 7.32-27.32-8.284-14.349-26.632-19.265-40.981-10.981l-121.244 70c-14.347 8.284-19.263 26.632-10.979 40.98z" fill="#e43950"/><path d="m303.06 32.503-175.531 304.027 21.468 21.468s-79.012 69.456-79.888 68.552c-14.594-15.048-27.274-31.963-37.647-50.352l50.165-50.165 182.461-316.03c5.523-9.566 17.755-12.843 27.321-7.321l4.33 2.5c9.566 5.524 12.843 17.755 7.321 27.321z" fill="#463b83"/><path d="m490.997 236.912-316.03 182.46-50.165 50.165c-20.597-11.618-39.344-26.131-55.69-42.985l60.078-60.078c7.81-7.811 20.474-7.811 28.284 0l6.997 6.997 304.027-175.53c9.566-5.523 21.798-2.245 27.32 7.32l2.5 4.33c5.522 9.566 2.245 21.798-7.321 27.321z" fill="#54469b"/><path d="m173.308 373.792c-.615 24.845-21.255 44.487-46.1 43.872s-44.487-21.255-43.872-46.1 21.255-44.487 46.1-43.872 44.487 21.255 43.872 46.1z" fill="#968dca"/><path d="m121.22 417.143c-21.937-3.477-38.449-22.743-37.884-45.554s18.01-41.236 40.092-43.623z" fill="#6354b0"/><path d="m146.707 391.063c-9.763 9.763-25.592 9.763-35.355 0s-9.763-25.592 0-35.355 25.592-9.763 35.355 0 9.763 25.592 0 35.355z" fill="#54469b"/><path d="m321.703 432.223-5.123-15.164c-.295-.872-.98-1.557-1.852-1.852l-15.164-5.123c-2.677-.904-2.677-4.69 0-5.594l15.164-5.123c.872-.295 1.557-.98 1.852-1.852l5.123-15.164c.904-2.677 4.69-2.677 5.594 0l5.123 15.164c.295.872.98 1.557 1.852 1.852l15.164 5.123c2.677.904 2.677 4.69 0 5.594l-15.164 5.123c-.872.295-1.557.98-1.852 1.852l-5.123 15.164c-.904 2.677-4.69 2.677-5.594 0zm-106.578-314.538 6.941-20.544c.399-1.182 1.327-2.11 2.509-2.509l20.544-6.941c3.626-1.225 3.626-6.354 0-7.579l-20.544-6.941c-1.182-.399-2.11-1.327-2.509-2.509l-6.941-20.544c-1.225-3.626-6.354-3.626-7.579 0l-6.941 20.544c-.399 1.182-1.327 2.11-2.509 2.509l-20.544 6.941c-3.626 1.225-3.626 6.354 0 7.579l20.544 6.941c1.182.399 2.11 1.327 2.509 2.509l6.941 20.544c1.225 3.626 6.354 3.626 7.579 0z" fill="#fff5f5"/></g></svg>