<svg id="Capa_1" enable-background="new 0 0 501 501" height="512" viewBox="0 0 501 501" width="512" xmlns="http://www.w3.org/2000/svg"><g><path d="m495.5 245c0 135.309-109.69 245-244.999 245-135.283 0-245.423-110.501-245-245.784.296-94.62 54.23-176.613 132.989-217.171 2.884-1.485 6.294-1.57 9.238-.208 31.255 14.463 66.071 22.533 102.772 22.533 36.735 0 71.582-8.085 102.858-22.573 2.897-1.342 6.249-1.245 9.088.216 79.012 40.658 133.054 123.011 133.054 217.987z" fill="#463b83"/><path d="m437.876 176.376c0 102.525-82.342 185.818-184.501 187.355-103.458 1.556-189.155-81.879-190.241-185.343-.636-60.62 27.518-114.691 71.631-149.383 1.268-.681 2.544-1.351 3.825-2.011 4.818-2.478 10.578-2.248 15.216.552 28.229 17.04 61.316 26.843 96.693 26.843 35.758 0 69.176-10.016 97.603-27.396 4.058-2.481 9.12-2.641 13.359-.484 1.601.815 3.192 1.647 4.773 2.495 43.625 34.309 71.642 87.568 71.642 147.372z" fill="#54469b"/><path d="m373.703 362.936-5.123-15.164c-.295-.872-.98-1.557-1.852-1.852l-15.164-5.123c-2.677-.904-2.677-4.69 0-5.594l15.164-5.123c.872-.295 1.557-.98 1.852-1.852l5.123-15.164c.904-2.677 4.69-2.677 5.594 0l5.123 15.164c.295.872.98 1.557 1.852 1.852l15.164 5.123c2.677.904 2.677 4.69 0 5.594l-15.164 5.123c-.872.295-1.557.98-1.852 1.852l-5.123 15.164c-.904 2.677-4.69 2.677-5.594 0z" fill="#528ed7"/><path d="m60.686 256.342-5.123-15.164c-.295-.872-.98-1.557-1.852-1.852l-15.164-5.123c-2.677-.904-2.677-4.69 0-5.594l15.164-5.123c.872-.295 1.557-.98 1.852-1.852l5.123-15.164c.904-2.677 4.69-2.677 5.594 0l5.123 15.164c.295.872.98 1.557 1.852 1.852l15.164 5.123c2.677.904 2.677 4.69 0 5.594l-15.164 5.123c-.872.295-1.557.98-1.852 1.852l-5.123 15.164c-.905 2.676-4.69 2.676-5.594 0z" fill="#f5c02c"/><path d="m277.386 206.146c-1.509 1.509-3.118 2.881-4.817 4.119 13.747 24.241 14.629 50.082.069 64.642-1.263 1.263-2.611 2.409-4.036 3.442 13.783 22.401 15.203 46.874 1.661 60.416-17.224 17.224-52.132 10.243-77.968-15.594-25.269-25.269-32.502-59.213-16.694-76.807-18.544-24.288-23.66-52.556-12.458-70.37-28.314-33.887-34.533-75.631-13.036-97.127 2.435-2.436 5.131-4.515 8.045-6.247-10.849-14.748-17.656-30.599-19.991-45.404 9.462-4.891 19.284-9.183 29.415-12.827 25.898-9.314 87.557-12.363 88.597-11.323 35.147 35.147 44.645 82.635 21.213 106.066-2.435 2.436-5.131 4.515-8.045 6.247 23.985 32.605 28.215 70.598 8.045 90.767z" fill="#f19b0b"/><path d="m298.124 452.4-47.136 47.136c-1.953 1.953-5.119 1.953-7.071 0l-38.381-38.381c-6.213-6.213-11.047-13.283-14.501-20.83-.606 5.191-.676 10.432-.211 15.634.362 4.054-4.788 6.04-7.201 2.762-14.619-19.863-35.712-60.717 7.789-91.661 7.666-5.453 14.447-11.467 22.752-14.443 24.024-16.581 57.194-14.182 78.572 7.196l5.388 5.388c24.08 24.078 24.08 63.119 0 87.199z" fill="#f19b0b"/><path d="m303.729 453.237c.128-2.432.2-4.89.214-7.372-1.717 2.276-3.611 4.461-5.685 6.535l-31.58 31.58-22.826-22.826c-27.985-27.985-27.985-73.357 0-101.342 7.12-7.12 15.547-12.134 24.509-15.043 8.733 2.835 16.958 7.669 23.961 14.502 12.933 6.032 24.393 21.48 28.992 41.28 5.424 23.353-.387 45.478-13.162 55.022-1.887 1.409-4.546.017-4.423-2.336z" fill="#f4aa39"/><path d="m255.715 99.624c.153.151.306.304.458.456 26.134 26.134 83.047 44.103 77.827 68.92-8.836 5.156-64.613 22.138-76.289 21.197 26.449 28.217 76.177 31.829 58.472 50.803-2.56.08-47.928 33.041-50.608 32.749 16.542 23.574 19.164 50.541 4.688 65.016-.503.503-1.022.986-1.555 1.448-16.732-.063-36.487-8.85-52.679-25.042-21.438-21.438-29.894-49.12-22.313-67.764 6.672 8.162 13.847 18 18.565 26.482 1.28 2.302 4.78 1.641 5.105-.973 1.14-9.147-1.621-23.506-16.609-41.559-.678-.816-1.373-1.605-2.082-2.367-3.844-8.652-9.486-25.133-7.97-46.7 8.093 6.308 16.038 13.119 22.272 19.513 2.481 2.544 6.803.446 6.304-3.072-1.515-10.669-8.228-25.398-26.841-40.986-.323-.48-.696-.932-1.109-1.346 0 0-26.993-35.063-31.583-52.941-3.471-13.521 2.9-26.648 13.727-33.09 2.311 2.964 4.525 6.082 6.618 9.383 8.602 13.568 19.197 33.021 24.937 48.697 1.222 3.337 6.025 3.192 7.009-.222 3.446-11.951 2.789-31.668-13.385-58.884-1.202-2.023-5.256-7.931-5.679-8.425-12.567-14.67-21.127-30.9-25.421-46.527 25.9-9.314 53.82-14.39 82.926-14.39.841 0 1.681.004 2.52.013 1.061.996 2.113 2.014 3.154 3.054 29.897 29.898 90.029 35.579 78.326 60.933-8.877 3.591-67.966 37.479-78.785 35.624z" fill="#f4aa39"/><path d="m325.399 246.365c15.808 17.593 8.574 51.538-16.694 76.807-25.836 25.836-60.744 32.818-77.968 15.594s-10.243-52.132 15.594-77.968c7.91-7.91 16.671-14.053 25.514-18.274 9.983-5.702 20.22-10.011 30.315-12.952 2.706-.788 2.608-4.671-.131-5.337-26.276-6.392-57.28 6.362-72.577 15.442-1.748 1.038-3.868 1.216-5.765.484l-.083-.032c-3.073-1.187-4.831-4.456-4.073-7.662 3.576-15.116 12.556-31.15 26.298-44.892 1.53-1.53 3.088-3 4.671-4.412-.029-.025 18.895-13.602 20.513-14.54 10.88-6.308 22.076-10.955 33.073-13.976 2.155-.592 2.157-3.633.007-4.246-25.564-7.288-56.214 4.496-72.554 13.691-3.147 1.771-6.923 2.012-10.278.678l-.151-.06c-5.688-2.262-8.806-8.464-7.108-14.345 4.935-17.088 15.414-34.872 30.826-50.283 5.926-5.926 28.118-22 33.199-24.945 13.913-8.066 28.247-13.925 42.289-17.622 2.165-.57 2.18-3.606.036-4.251-29.981-9.009-64.006 7.544-83.488 20.792-4.555 3.097-10.403 3.552-15.373 1.178-.062-.03-.124-.059-.186-.089-6.615-3.145-10.094-10.484-8.403-17.611 4.352-18.342 15.252-37.792 31.926-54.466 1.041-1.041 2.092-2.059 3.154-3.054.837-.01 1.677-.014 2.518-.014 40.492 0 78.689 9.823 112.34 27.216-2.335 14.805-9.142 30.656-19.991 45.404 2.914 1.732 5.609 3.811 8.045 6.247 21.497 21.497 15.278 63.24-13.036 97.127 11.2 17.815 6.085 46.083-12.459 70.371z" fill="#fdcb6b"/><path d="m269.633 308.188c12.914-12.914 26.47-22.742 37.949-28.193 1.961-.931 4.001 1.108 3.07 3.07-5.451 11.479-15.278 25.035-28.192 37.949-14.983 14.983-30.831 25.812-43.296 30.47 4.657-12.465 15.485-28.313 30.469-43.296zm73.824-289.938c-16.482-6.764-33.865-11.783-51.918-14.828-2.651.664-5.318 1.49-7.979 2.488-29.636 11.106-42.487 26.07-47.28 37.547-1.372 3.284 2.282 6.409 5.328 4.568 14.286-8.637 34.719-17.18 49.918-22.382 17.836-6.105 35.21-7.109 51.931-7.393zm-65.03 166.512c-26.055 9.765-36.784 23.051-40.462 32.895-.916 2.451 1.815 4.688 4.04 3.311 12.123-7.498 29.973-14.987 43.165-19.502 13.514-4.626 26.714-5.792 39.485-6.158 2.42-.069 3.604-2.989 1.902-4.712-9.664-9.783-29.036-12.989-48.13-5.834zm1.706-80.78c-29.09 10.902-40.859 25.784-44.775 36.679-.935 2.601 1.921 4.926 4.266 3.464 13.376-8.34 33.273-16.697 47.946-21.719 15.021-5.141 29.69-6.408 43.878-6.801 2.512-.07 3.791-3.086 2.051-4.9-10.562-11.014-32.12-14.684-53.366-6.723zm-16.611 192.715c9.829-13.647 24.973-31.846 37.656-42.532 1.621-1.366.677-4.014-1.442-4.05-11.933-.198-31.417 6.246-52.336 33.595-16.276 21.278-17.779 47.474-5.755 60.29 5.059-15.815 10.918-32.086 21.877-47.303z" fill="#f4aa39"/><path d="m282.004 435.286c-1.652 1.156-3.909-.116-3.795-2.129.872-15.283-.473-31.641-4.337-48.275-4.242-18.267-11.065-34.897-19.642-49.115 17.563-.617 35.541 17.92 41.602 44.015 5.518 23.755-.59 46.24-13.828 55.504zm-42.54-39.786c0 20.635 3.37 39.268 8.787 52.534.825 2.02 3.673 2.02 4.498 0 5.417-13.267 8.787-31.899 8.787-52.534 0-23.358-4.318-44.152-11.036-57.5-6.717 13.348-11.036 34.142-11.036 57.5z" fill="#f19b0b"/><path d="m290.5 359h-80c-8.284 0-15-6.716-15-15 0-8.284 6.716-15 15-15h80c8.284 0 15 6.716 15 15 0 8.284-6.716 15-15 15z" fill="#ab2538"/><path d="m290.5 359h-52.017c-8.284 0-15-6.716-15-15 0-8.284 6.716-15 15-15h52.017c8.284 0 15 6.716 15 15 0 8.284-6.716 15-15 15z" fill="#e43950"/><path d="m338.161 202.784-6.941-20.544c-.399-1.182-1.327-2.11-2.509-2.509l-20.544-6.941c-3.626-1.225-3.626-6.354 0-7.579l20.544-6.941c1.182-.399 2.11-1.327 2.509-2.509l6.941-20.544c1.225-3.626 6.354-3.626 7.579 0l6.941 20.544c.399 1.182 1.327 2.11 2.509 2.509l20.544 6.941c3.626 1.225 3.626 6.354 0 7.579l-20.544 6.941c-1.182.399-2.11 1.327-2.509 2.509l-6.941 20.544c-1.225 3.626-6.354 3.626-7.579 0z" fill="#fff5f5"/></g></svg>