<svg id="Capa_1" enable-background="new 0 0 501 501" height="512" viewBox="0 0 501 501" width="512" xmlns="http://www.w3.org/2000/svg"><g><path d="m495.5 256c0 135.31-109.69 245-245 245s-245-109.69-245-245 109.69-245 245-245 245 109.69 245 245z" fill="#fda800"/><path d="m444.367 193.867c0 107.069-86.797 193.866-193.867 193.866s-193.867-86.797-193.867-193.866c0-60.263 27.496-114.103 70.627-149.66 36.203-21.112 78.309-33.207 123.24-33.207s87.037 12.095 123.24 33.207c43.131 35.557 70.627 89.397 70.627 149.66z" fill="#f5c02c"/><path d="m381.518 381.967c-6.269 6.268-6.269 16.468 0 22.736 2.406 2.407 2.406 6.307 0 8.714-1.203 1.202-2.781 1.804-4.357 1.804s-3.154-.602-4.357-1.804c-11.072-11.073-11.072-29.091 0-40.163 6.269-6.27 6.269-16.469 0-22.737-2.406-2.407-2.406-6.307 0-8.714 2.407-2.405 6.307-2.405 8.714 0 11.073 11.074 11.073 29.091 0 40.164zm34.678 0c11.072-11.074 11.072-29.09 0-40.164-2.407-2.405-6.307-2.405-8.714 0-2.406 2.407-2.406 6.307 0 8.714 6.269 6.268 6.269 16.467 0 22.737-11.073 11.072-11.073 29.09 0 40.163 1.203 1.202 2.781 1.804 4.357 1.804s3.154-.602 4.357-1.804c2.406-2.407 2.406-6.307 0-8.714-6.269-6.267-6.269-16.468 0-22.736zm-290-31.449c2.406-2.407 2.406-6.307 0-8.714-2.407-2.405-6.307-2.405-8.714 0-11.073 11.073-11.073 29.09 0 40.164 6.269 6.268 6.269 16.468 0 22.736-2.406 2.407-2.406 6.307 0 8.714 1.203 1.202 2.781 1.804 4.357 1.804s3.154-.602 4.357-1.804c11.072-11.073 11.072-29.091 0-40.163-6.269-6.27-6.269-16.469 0-22.737zm-34.678 0c2.406-2.407 2.406-6.307 0-8.714-2.407-2.405-6.307-2.405-8.714 0-11.072 11.073-11.072 29.09 0 40.164 6.269 6.268 6.269 16.468 0 22.736-2.406 2.407-2.406 6.307 0 8.714 1.203 1.202 2.781 1.804 4.357 1.804s3.154-.602 4.357-1.804c11.073-11.073 11.073-29.091 0-40.163-6.268-6.27-6.268-16.469 0-22.737z" fill="#f5dc90"/><path d="m170.5 232.5v15c-59.275 0-107.5-48.225-107.5-107.5h15c0 51.005 41.495 92.5 92.5 92.5zm252.5-92.5c0 51.005-41.495 92.5-92.5 92.5v15c59.275 0 107.5-48.225 107.5-107.5z" fill="#54469b"/><path d="m384.5 304.292c0 12.864-10.428 23.292-23.292 23.292-5.377 0-10.329-1.823-14.271-4.884 3.419 4.054 5.48 9.291 5.48 15.009 0 12.863-10.428 23.292-23.292 23.292s-23.292-10.428-23.292-23.292 10.428-23.292 23.292-23.292c5.377 0 10.329 1.823 14.271 4.884-2.468-2.926-4.228-6.468-5.016-10.363-.733.041-1.471.063-2.214.063-21.539 0-39-17.461-39-39s17.461-39 39-39 39 17.461 39 39c0 4.922-.912 9.63-2.576 13.966 7.108 3.988 11.91 11.596 11.91 20.325z" fill="#7d402d"/><path d="m191.083 337.708c0 12.863-10.428 23.292-23.292 23.292s-23.292-10.428-23.292-23.292c0-3.94.979-7.652 2.706-10.905-1.914.508-3.924.78-5.997.78-12.864 0-23.292-10.428-23.292-23.292 0-7.576 3.618-14.308 9.22-18.561-2.123-4.812-3.303-10.133-3.303-15.73 0-21.539 17.461-39 39-39s39 17.461 39 39c0 21.14-16.819 38.35-37.806 38.981-.45 2.201-1.21 4.288-2.233 6.215 1.914-.508 3.924-.78 5.997-.78 12.864.001 23.292 10.429 23.292 23.292z" fill="#533022"/><path d="m154.25 337.25c-12.081 0-21.875-9.794-21.875-21.875v-8.75c0-12.081 9.794-21.875 21.875-21.875 12.081 0 21.875 9.794 21.875 21.875v8.75c0 12.081-9.794 21.875-21.875 21.875z" fill="#eac0b5"/><path d="m145.5 302.25v17.5c0 7.156 3.436 13.509 8.748 17.5-12.08-.001-21.873-9.794-21.873-21.875v-8.75c0-12.081 9.793-21.874 21.873-21.875-5.312 3.991-8.748 10.344-8.748 17.5zm201.25-17.5v-17.5c0-53.157-43.093-96.25-96.25-96.25-53.157 0-96.25 43.093-96.25 96.25v35c0 44.057 29.601 81.201 70 92.627v56.123h52.5v-56.124c29.387-8.312 53.061-30.232 63.783-58.522 1.971.583 4.057.896 6.217.896 12.081 0 21.875-9.794 21.875-21.875v-8.75c0-12.081-9.794-21.875-21.875-21.875z" fill="#d9a091"/><path d="m346.75 267.25v35c0 44.443-30.122 81.85-71.064 92.921-7.895 2.135-16.227 2.135-24.122 0-40.942-11.071-71.064-48.478-71.064-92.921v-35c0-48.705 36.177-88.961 83.125-95.362 46.948 6.401 83.125 46.657 83.125 95.362z" fill="#eac0b5"/><path d="m237.813 308.14c-2.563-2.563-2.563-6.718 0-9.281 2.563-2.562 6.718-2.562 9.281 0 .912.912 2.121 1.414 3.406 1.414s2.495-.502 3.406-1.414c2.563-2.562 6.718-2.562 9.281 0 2.563 2.563 2.563 6.718 0 9.281-3.391 3.391-7.896 5.258-12.687 5.258s-9.296-1.867-12.687-5.258z" fill="#dd9683"/><path d="m222.063 273.813c0 7.249-5.876 13.125-13.125 13.125s-13.125-5.876-13.125-13.125 5.876-13.125 13.125-13.125c7.248 0 13.125 5.876 13.125 13.125zm70-13.125c-7.249 0-13.125 5.876-13.125 13.125s5.876 13.125 13.125 13.125 13.125-5.876 13.125-13.125-5.877-13.125-13.125-13.125z" fill="#002c5d"/><path d="m224.25 267.25c0 3.624-2.938 6.563-6.563 6.563s-6.563-2.938-6.563-6.563c0-3.624 2.938-6.563 6.563-6.563s6.563 2.939 6.563 6.563zm76.563-6.562c-3.624 0-6.563 2.938-6.563 6.563 0 3.624 2.938 6.563 6.563 6.563s6.563-2.938 6.563-6.563c-.001-3.625-2.939-6.563-6.563-6.563z" fill="#fff5f5"/><path d="m250.5 363.5c-14.498 0-26.25-11.753-26.25-26.25 0-3.624 2.938-6.563 6.563-6.563h39.375c3.624 0 6.563 2.938 6.563 6.563-.001 14.497-11.754 26.25-26.251 26.25z" fill="#fff5f5"/><path d="m257.063 362.673c-2.098.54-4.296.827-6.563.827-14.497 0-26.25-11.753-26.25-26.25 0-3.624 2.938-6.563 6.563-6.563h13.125c-3.624 0-6.563 2.938-6.563 6.563 0 12.231 8.366 22.509 19.688 25.423z" fill="#e3f0fb"/><path d="m307.375 424.75c0 9.665-7.835 17.5-17.5 17.5h-78.75c-9.665 0-17.5-7.835-17.5-17.5 0-9.665 7.835-17.5 17.5-17.5h78.75c9.665 0 17.5 7.835 17.5 17.5z" fill="#e3f0fb"/><path d="m307.375 424.75c0 9.665-7.835 17.5-17.5 17.5h-44.625c-9.665 0-17.5-7.835-17.5-17.5 0-9.665 7.835-17.5 17.5-17.5h44.625c9.665 0 17.5 7.835 17.5 17.5z" fill="#fff5f5"/><path d="m162.995 466.472c-3.965 8.817-14.597 12.514-23.219 8.139-8.118-4.12-15.976-8.678-23.542-13.645 9.76-20.877 30.948-35.341 55.516-35.341h38.016c-18.752 0-35.536 15.862-46.771 40.847z" fill="#962437"/><path d="m138.153 473.78c5.997-27.536 30.514-48.155 59.847-48.155h131.25c24.567 0 45.756 14.464 55.516 35.341-38.561 25.311-84.694 40.034-134.266 40.034-40.495 0-78.695-9.825-112.347-27.22z" fill="#c92e43"/><path d="m261.498 451.545 2.063 49.112c-4.325.227-8.679.342-13.06.342s-8.735-.115-13.06-.342l2.062-49.112c.247-5.894 5.098-10.545 10.997-10.545s10.75 4.651 10.998 10.545zm-78.742 10.677c-5.9 0-10.75 4.651-10.998 10.545l-.634 15.089c7.684 2.63 15.539 4.888 23.546 6.754l-.917-21.843c-.247-5.894-5.097-10.545-10.997-10.545zm146.485 10.545c-.248-5.894-5.098-10.545-10.998-10.545-5.899 0-10.75 4.651-10.998 10.545l-.917 21.843c8.007-1.866 15.863-4.125 23.546-6.754z" fill="#962437"/><path d="m221.083 234.292c0 12.864-10.428 23.292-23.292 23.292-1.141 0-2.262-.083-3.358-.241.044.644.067 1.294.067 1.949 0 15.625-12.667 28.292-28.292 28.292s-28.292-12.667-28.292-28.292 12.667-28.292 28.292-28.292c2.917 0 5.731.441 8.379 1.262 1.029-11.913 11.025-21.262 23.205-21.262 12.863 0 23.291 10.428 23.291 23.292z" fill="#533022"/><path d="m364.5 259.292c0 15.625-12.667 28.292-28.292 28.292s-28.292-12.667-28.292-28.292c0-.914.044-1.818.129-2.71-.084.001-.169.002-.254.002-8.791 0-16.444-4.871-20.409-12.06-2.925 1.323-6.172 2.06-9.591 2.06-5.584 0-10.708-1.965-14.721-5.241-3.277 8.896-11.829 15.241-21.863 15.241-12.864 0-23.292-10.428-23.292-23.292 0-12.863 10.428-23.292 23.292-23.292 5.584 0 10.708 1.965 14.721 5.241 3.277-8.896 11.829-15.241 21.863-15.241 8.791 0 16.444 4.871 20.409 12.06 2.925-1.323 6.172-2.06 9.591-2.06 12.253 0 22.296 9.461 23.222 21.477 1.684-.313 3.42-.477 5.195-.477 15.625 0 28.292 12.667 28.292 28.292z" fill="#7d402d"/><path d="m408.165 140c2.835 13.482 4.335 27.544 4.335 42 0 25.386-4.626 49.557-12.983 71.509-1.484 3.897-5.198 6.491-9.368 6.491h-66.521c-4.042 0-7.687-2.434-9.236-6.167l-.313-.755c-5.8-13.972-19.439-23.078-34.565-23.078h-59.56c-15.361 0-29.161 9.387-34.805 23.674-1.508 3.818-5.196 6.326-9.301 6.326h-64.997c-4.17 0-7.885-2.594-9.368-6.491-8.357-21.952-12.983-46.123-12.983-71.509 0-14.456 1.5-28.518 4.335-42z" fill="#05a2f9"/><path d="m160.5 182c0 27.912 5.593 54.357 15.589 77.997-.08.002-.16.003-.24.003h-64.997c-4.17 0-7.885-2.594-9.368-6.491-8.358-21.952-12.984-46.123-12.984-71.509 0-14.456 1.5-28.518 4.335-42h72c-2.834 13.482-4.335 27.544-4.335 42zm100-12c0 5.523-4.477 10-10 10s-10-4.477-10-10 4.477-10 10-10 10 4.477 10 10zm-45-10c-5.523 0-10 4.477-10 10s4.477 10 10 10 10-4.477 10-10-4.477-10-10-10zm70 0c-5.523 0-10 4.477-10 10s4.477 10 10 10 10-4.477 10-10-4.477-10-10-10z" fill="#0280e3"/><path d="m410.004 150h-319.008c8.235-52.155 36.241-96.633 75.004-123.31v-6.69c0-11.046 8.954-20 20-20h129c11.046 0 20 8.954 20 20v6.69c38.763 26.677 66.77 71.155 75.004 123.31z" fill="#003c79"/><path d="m330.276 23.561c41.205 26.243 71.163 72.188 79.728 126.439h-247.004c8.565-54.251 38.523-100.196 79.728-126.439 26.659-16.978 60.889-16.978 87.548 0z" fill="#54469b"/><path d="m285.57 105.93h-70.14c-17.082 0-30.93-13.848-30.93-30.93 0-17.082 13.848-30.93 30.93-30.93h70.14c17.082 0 30.93 13.848 30.93 30.93 0 17.082-13.848 30.93-30.93 30.93z" fill="#91cefb"/><path d="m235.192 59.378c8.628 8.628 8.628 22.616 0 31.244s-22.616 8.628-31.244 0-8.628-22.616 0-31.244 22.616-8.628 31.244 0zm46.238-6.471c-12.202 0-22.093 9.891-22.093 22.093s9.891 22.093 22.093 22.093 22.093-9.891 22.093-22.093-9.891-22.093-22.093-22.093z" fill="#015aad"/><path d="m235.192 59.378c1.633 1.633 2.956 3.458 3.971 5.402l-29.813 29.813c-1.944-1.015-3.769-2.338-5.402-3.971s-2.956-3.458-3.971-5.402l29.813-29.813c1.944 1.014 3.769 2.338 5.402 3.971zm46.238-6.471c-2.309 0-4.535.354-6.628 1.012v42.162c2.093.657 4.319 1.012 6.628 1.012s4.536-.354 6.628-1.012v-42.162c-2.092-.657-4.318-1.012-6.628-1.012z" fill="#05a2f9"/><path d="m436.5 150h-372c-5.523 0-10-4.477-10-10 0-5.523 4.477-10 10-10h372c5.523 0 10 4.477 10 10 0 5.523-4.477 10-10 10z" fill="#91cefb"/><path d="m336.752 150h-172.504c-5.523 0-10-4.477-10-10 0-5.523 4.477-10 10-10h172.503c5.523 0 10 4.477 10 10 .001 5.523-4.476 10-9.999 10z" fill="#bbe0fb"/></g></svg>