<svg id="Capa_1" enable-background="new 0 0 501 501" height="512" viewBox="0 0 501 501" width="512" xmlns="http://www.w3.org/2000/svg"><g><path d="m17.338 194.895c24.823-106.968 119.706-187.073 233.682-189.345 1.656-.033 3.316 4.315 4.98 4.315 116.184 0 192.618 76.508 217.802 185.03z" fill="#8f4d24"/><path d="m501 250.5c0 14.58-1.274 28.862-3.716 42.742-.385 2.188-2.759 4.336-3.201 6.503-2.08 10.184-4.791 20.139-8.092 29.82-.46 1.348 1.029 2.722.546 4.06-21.893 60.708-67.084 110.283-124.781 137.936h-192.15c-44.928-21.533-82.272-56.358-106.938-99.381-1.129-1.969-21.594-3.955-22.669-5.958-18.503-34.463-28.999-73.867-28.999-115.722 0-17.76 1.89-35.079 5.479-51.766h454.531c14.619 0 27.045 10.944 28.596 25.481.922 8.635 1.394 17.405 1.394 26.285z" fill="#533022"/><path d="m497.284 293.242c-2.445 13.9-6.063 27.396-10.746 40.383-3.44 3.942-7.029 7.784-10.764 11.519-42.944 42.945-100.042 66.595-160.774 66.595s-117.83-23.65-160.774-66.596c-42.945-42.944-66.596-100.041-66.596-160.774h15c0 117.102 95.269 212.37 212.37 212.37 77.334 0 145.145-41.549 182.284-103.497z" fill="#c98001"/><path d="m85 204.5c-8.284 0-15-6.716-15-15s6.716-15 15-15h403.983c3.177 9.746 5.76 19.76 7.705 30zm253.913 200c0-11.046-8.954-20-20-20h-7.826c-11.046 0-20 8.954-20 20v30h47.826z" fill="#fcb30b"/><path d="m161.027 454.5h216.282c4.207 0 5.733 5.573 2.1 7.695-36.241 21.172-78.408 33.305-123.409 33.305-35.33 0-68.913-7.478-99.253-20.938-10.34-4.587-7.032-20.062 4.28-20.062z" fill="#002c5d"/><path d="m315 374.239c-104.862 0-189.87-85.008-189.87-189.87 0-78.631 47.798-146.097 115.923-174.931 3.276-1.387 256.224 228.53 254.576 233.606-24.717 76.146-96.244 131.195-180.629 131.195z" fill="#fc9302"/><path d="m499.938 227.545c-5.436 23.376-15.189 45.095-28.374 64.271-11.439 16.637-35.28 18.636-49.556 4.36-11.164-11.164-12.442-28.586-3.567-41.645 14.449-21.261 22.516-47.209 21.444-75.092-2.488-64.703-55.252-117.467-119.955-119.955-27.883-1.072-53.831 6.995-75.092 21.444-13.058 8.875-30.48 7.598-41.644-3.566-14.276-14.276-12.277-38.117 4.36-49.556 13.355-9.183 27.943-16.7 43.466-22.255 1.656-.033 3.317-.05 4.981-.05 15.821 0 31.292 1.5 46.279 4.365 1.055.202 2.106 2.358 3.156 2.573 8.397 1.72 16.637 3.87 24.697 6.426.985.312 1.967-1.317 2.947-.993 15.613 5.17 30.529 11.868 44.572 19.917 5.353 3.068 8.759 10.032 13.849 13.483 5.313 3.602 12.298 3.708 17.302 7.706 11.67 9.323 22.47 19.691 32.257 30.961.518.597-.571 2.736-.059 3.338 7.198 8.453 13.833 17.401 19.845 26.785.436.681 2.474-.176 2.903.509 9.572 15.273 17.506 31.676 23.557 48.964.299.855-2.095 1.689-1.805 2.548 1.697 5.027 3.235 10.128 4.608 15.295.234.88 3.152 1.785 3.377 2.669 3.085 12.162 5.262 24.687 6.452 37.498z" fill="#fcb30b"/><path d="m447.335 184.37c0 64.258-45.799 117.819-106.535 129.822-2.204.436-4.183-1.7-6.425-1.375-6.246.904-30.932.98-36.671.22-2.017-.267-4.264 1.936-6.251 1.58-10.215-1.835-20.024-4.842-29.281-8.877-2.322-1.012-3.921-7.026-6.171-8.165-15.073-7.63-28.489-18.06-39.563-30.606-1.358-1.539-3.369 1.828-4.655.227-18.217-22.673-29.118-51.476-29.118-82.825 0-66.65 49.273-121.792 113.379-130.988 2.194-.315 2.581 4.572 4.808 4.367 4.058-.375 38.164 1.35 50.149 4.918 2.138.636 6.077-3.823 8.168-3.083 9.632 3.409 18.751 7.902 27.212 13.332 2.257 1.448-.021 8.141 2.14 9.72 9.408 6.876 17.874 14.964 25.169 24.033 1.465 1.821 7.37-1.495 8.738.403 15.673 21.746 24.907 48.443 24.907 77.297z" fill="#015aad"/><path d="m428.205 184.37c0 62.521-50.684 113.205-113.205 113.205s-113.205-50.684-113.205-113.205 50.684-113.205 113.205-113.205 113.205 50.683 113.205 113.205z" fill="#63bcfa"/><path d="m334.13 344.587c0 10.565-8.565 19.13-19.13 19.13s-19.13-8.565-19.13-19.13 8.565-19.13 19.13-19.13 19.13 8.564 19.13 19.13zm150.055-177.121c-7.23-3.839-16.405-2.713-22.495 3.377-7.471 7.471-7.471 19.583 0 27.055 7.471 7.471 19.583 7.471 27.054 0 1.069-1.069-2.919-29.562-4.559-30.432zm-315.875 3.376c-7.471-7.471-19.584-7.471-27.055 0s-7.471 19.583 0 27.055c7.471 7.471 19.584 7.471 27.055 0s7.471-19.584 0-27.055zm12.889 75.158c-10.205-2.734-20.695 3.322-23.43 13.527-2.735 10.206 3.322 20.695 13.527 23.43 10.205 2.734 20.695-3.322 23.43-13.527 2.735-10.206-3.322-20.696-13.527-23.43zm267.602-123.261c5.277 1.414 10.63.478 14.948-2.167-6.772-10.805-14.363-21.043-22.686-30.629-2.716 2.402-4.78 5.602-5.789 9.367-2.735 10.205 3.322 20.695 13.527 23.429zm-146.523-112.874c-3.932 3.504-6.409 8.606-6.409 14.288 0 10.565 8.565 19.13 19.13 19.13s19.13-8.565 19.13-19.13c0-2.201-.372-4.315-1.056-6.283-9.994-3.31-20.275-5.994-30.795-8.005zm97.78 54.232c3.449-.924 6.423-2.734 8.745-5.119-9.798-7.827-20.21-14.918-31.151-21.189-1.742 3.877-2.209 8.355-1.024 12.781 2.735 10.205 13.224 16.262 23.43 13.527zm-170.12 240.548c-10.205 2.734-16.262 13.225-13.527 23.43 2.735 10.206 13.224 16.262 23.43 13.527 10.205-2.734 16.262-13.225 13.527-23.43-2.735-10.206-13.225-16.262-23.43-13.527zm-58.639-218.863c-10.205 2.734-16.262 13.225-13.527 23.43 2.735 10.206 13.224 16.262 23.43 13.527 10.205-2.734 16.262-13.224 13.527-23.43s-13.225-16.261-23.43-13.527zm277.504 160.218c-10.205 2.735-16.262 13.225-13.527 23.43s13.225 16.262 23.43 13.527c10.206-2.735 16.262-13.225 13.527-23.43-2.734-10.206-13.224-16.262-23.43-13.527zm-208.956-218.86c-10.205-2.734-20.695 3.322-23.43 13.527-2.735 10.206 3.322 20.695 13.527 23.43 10.205 2.734 20.695-3.322 23.43-13.527s-3.321-20.695-13.527-23.43zm160.218 277.505c-10.205-2.734-20.695 3.322-23.43 13.527s3.322 20.695 13.527 23.43 20.695-3.322 23.43-13.527c2.734-10.206-3.322-20.696-13.527-23.43z" fill="#fdf061"/><path d="m324.565 344.587c0 5.283-4.283 9.565-9.565 9.565s-9.565-4.283-9.565-9.565 4.283-9.565 9.565-9.565 9.565 4.282 9.565 9.565zm157.416-166.981c-3.735-3.735-9.792-3.735-13.527 0s-3.735 9.792 0 13.527 9.792 3.735 13.527 0c3.736-3.736 3.736-9.792 0-13.527zm-333.962 0c-3.735 3.735-3.735 9.792 0 13.527s9.792 3.735 13.527 0c3.735-3.736 3.735-9.792 0-13.527s-9.792-3.735-13.527 0zm30.704 77.633c-5.103-1.367-10.348 1.661-11.715 6.764s1.661 10.348 6.764 11.715 10.348-1.661 11.715-6.764-1.661-10.348-6.764-11.715zm272.554-141.739c2.54.681 5.116.272 7.23-.94-3.575-5.238-7.348-10.331-11.309-15.267-1.255 1.178-2.207 2.708-2.685 4.492-1.367 5.103 1.661 10.348 6.764 11.715zm-136.277-98.913c-5.283 0-9.565 4.283-9.565 9.565s4.283 9.565 9.565 9.565 9.565-4.282 9.565-9.565-4.282-9.565-9.565-9.565zm82.582 40.271c1.328-.356 2.515-.975 3.522-1.786-4.908-3.613-9.955-7.047-15.132-10.293-.521 1.669-.591 3.501-.105 5.315 1.368 5.103 6.612 8.131 11.715 6.764zm-165.168 259.026c-5.103 1.367-8.131 6.612-6.764 11.715s6.612 8.131 11.715 6.764 8.131-6.612 6.764-11.715-6.613-8.131-11.715-6.764zm-58.64-218.863c-5.103 1.367-8.131 6.612-6.764 11.715s6.612 8.131 11.715 6.764 8.131-6.612 6.764-11.715c-1.367-5.102-6.612-8.131-11.715-6.764zm277.505 160.218c-5.103 1.368-8.131 6.612-6.764 11.715s6.612 8.131 11.715 6.764c5.103-1.368 8.131-6.612 6.764-11.715s-6.612-8.131-11.715-6.764zm-213.907-218.86c-5.103-1.367-10.348 1.661-11.715 6.764s1.661 10.348 6.764 11.715 10.348-1.661 11.715-6.764c1.366-5.103-1.662-10.347-6.764-11.715zm160.217 277.505c-5.103-1.367-10.348 1.661-11.715 6.764s1.661 10.348 6.764 11.715 10.348-1.661 11.715-6.764-1.661-10.348-6.764-11.715z" fill="#fdcb6b"/><path d="m472.335 203.283c-3.818-.579-5.32-5.3-2.59-8.03 1.066-1.066 2.566-1.645 4.057-1.423 3.301.491 6.811-.746 9.066-3.713 2.636-3.469 2.523-8.446-.248-11.808-2.042-2.476-4.994-3.64-7.893-3.492-1.345.069-2.665-.367-3.617-1.319l-.243-.243c-2.835-2.835-1.014-7.683 2.985-7.967 4.737-.337 9.574 1.082 13.457 4.255 2.348 6.708 4.412 13.551 6.178 20.511-.69 2.236-1.795 4.365-3.317 6.256-4.531 5.626-11.385 7.951-17.835 6.973zm-154.999 122.312c-6.702-.793-12.82 1.881-16.795 6.465-2.626 3.029-.486 7.744 3.523 7.744h.343c1.346 0 2.589-.625 3.491-1.625 1.945-2.154 4.856-3.42 8.05-3.112 4.337.417 7.936 3.857 8.525 8.174.504 3.693-1.103 7.049-3.785 9.036-1.211.897-1.862 2.368-1.862 3.875 0 3.862 4.401 6.138 7.51 3.847 5.252-3.87 8.455-10.359 7.68-17.541-.945-8.742-7.95-15.829-16.68-16.863zm-165.436-122.312c-3.818-.579-5.32-5.3-2.59-8.03 1.066-1.066 2.566-1.645 4.057-1.423 3.301.491 6.811-.746 9.066-3.713 2.636-3.469 2.523-8.446-.248-11.808-2.041-2.476-4.994-3.64-7.893-3.492-1.345.069-2.665-.367-3.617-1.319l-.243-.243c-2.835-2.835-1.014-7.683 2.985-7.967 6.052-.431 12.269 2.004 16.447 7.304 5.443 6.905 5.384 16.869-.129 23.718-4.531 5.626-11.384 7.951-17.835 6.973zm43.266 64.06c-1.11 7.138-5.883 12.578-11.958 14.956-3.596 1.408-7.257-1.93-6.258-5.66.39-1.456 1.399-2.708 2.802-3.261 3.105-1.225 5.525-4.051 5.995-7.748.549-4.322-2.038-8.576-6.119-10.102-3.006-1.124-6.145-.655-8.581.922-1.13.731-2.492 1.014-3.792.666l-.332-.089c-3.872-1.038-4.719-6.146-1.398-8.393 5.026-3.398 11.627-4.399 17.896-1.897 8.164 3.259 13.096 11.918 11.745 20.606zm259.289-150.921c.39-1.456 1.399-2.708 2.802-3.261.431-.17.849-.371 1.25-.601 1.798 2.634 3.545 5.305 5.242 8.011-.964.591-1.98 1.097-3.036 1.51-3.596 1.408-7.258-1.929-6.258-5.659zm-120.44-94.4c.776 7.182-2.427 13.672-7.68 17.542-3.109 2.291-7.51.015-7.51-3.847 0-1.507.651-2.978 1.862-3.875 2.682-1.987 4.289-5.343 3.785-9.036-.589-4.317-4.188-7.756-8.525-8.174-3.194-.308-6.105.958-8.05 3.112-.902 1-2.144 1.625-3.491 1.625h-.343c-4.009 0-6.149-4.716-3.523-7.745.541-.624 1.121-1.211 1.737-1.76 10.521 2.011 20.804 4.696 30.801 8.006.464 1.327.782 2.718.937 4.152zm-81.31 294.123c2.608 6.736 1.194 13.834-2.878 18.931-2.41 3.017-7.25 1.958-8.249-1.772-.39-1.456-.142-3.045.796-4.225 2.076-2.614 2.76-6.271 1.317-9.708-1.686-4.018-6.053-6.408-10.35-5.689-3.165.53-5.65 2.505-6.971 5.089-.613 1.199-1.651 2.125-2.951 2.473l-.332.089c-3.872 1.038-7.16-2.963-5.407-6.569 2.653-5.456 7.87-9.623 14.549-10.591 8.702-1.26 17.302 3.773 20.476 11.972zm-95.373-209.02c-1.35-8.688 3.581-17.347 11.747-20.605 6.268-2.501 12.87-1.501 17.896 1.898 3.321 2.246 2.474 7.355-1.398 8.392l-.332.089c-1.3.349-2.662.066-3.792-.666-2.436-1.577-5.575-2.046-8.581-.922-4.081 1.526-6.667 5.779-6.119 10.102.469 3.697 2.89 6.523 5.995 7.748 1.402.553 2.411 1.805 2.802 3.261 1 3.73-2.662 7.067-6.258 5.659-6.077-2.378-10.851-7.818-11.96-14.956zm305.748 149.903-.332.089c-1.301.348-2.662.065-3.792-.666-2.436-1.578-5.575-2.046-8.582-.922-4.081 1.525-6.667 5.779-6.119 10.102.469 3.697 2.89 6.523 5.995 7.748 1.402.553 2.411 1.805 2.802 3.261 1 3.73-2.662 7.067-6.258 5.66-6.075-2.378-10.848-7.818-11.958-14.956-1.35-8.688 3.581-17.347 11.747-20.604 6.268-2.501 12.87-1.501 17.896 1.897 3.321 2.245 2.474 7.354-1.399 8.391zm-243.122-199.457c-4.072-5.097-5.486-12.195-2.878-18.931 3.174-8.199 11.775-13.232 20.475-11.971 6.679.968 11.896 5.135 14.549 10.592 1.753 3.605-1.535 7.606-5.407 6.568l-.332-.089c-1.3-.348-2.339-1.274-2.951-2.473-1.321-2.584-3.805-4.56-6.97-5.09-4.297-.719-8.664 1.671-10.35 5.689-1.442 3.437-.759 7.094 1.317 9.708.938 1.18 1.186 2.769.796 4.225-.999 3.73-5.839 4.789-8.249 1.772zm192.364 257.194c1.753 3.605-1.535 7.606-5.407 6.569l-.332-.089c-1.3-.349-2.339-1.274-2.951-2.473-1.321-2.584-3.805-4.56-6.971-5.089-4.297-.719-8.664 1.671-10.35 5.689-1.442 3.436-.759 7.094 1.317 9.708.938 1.18 1.186 2.769.796 4.225-.999 3.73-5.839 4.789-8.249 1.772-4.072-5.097-5.486-12.195-2.878-18.931 3.174-8.199 11.775-13.232 20.475-11.971 6.679.967 11.897 5.134 14.55 10.59z" fill="#f9eecf"/><path d="m422.426 107.073-81.626 207.118c-8.345 1.649-16.972 2.514-25.8 2.514-8.037 0-15.906-.717-23.548-2.089l95.188-241.531c13.95 8.998 26.098 20.547 35.786 33.988zm-107.426-55.039c-6.437 0-12.766.46-18.957 1.348l-84.263 213.81c13.34 16.604 30.604 29.921 50.384 38.544l97.008-246.15c-13.814-4.89-28.682-7.552-44.172-7.552z" fill="#528ed7"/><path d="m413.776 129.023-64.323 163.213c-10.864 3.467-22.44 5.338-34.453 5.338-5.559 0-11.024-.401-16.369-1.175l80.831-205.101c14.103 9.786 25.874 22.695 34.314 37.725zm-98.776-57.858c-9.401 0-18.534 1.146-27.268 3.306l-67.64 171.63c11.911 18.275 28.958 32.897 49.093 41.819l82.966-210.518c-11.637-4.041-24.138-6.237-37.151-6.237z" fill="#91cefb"/><path d="m378.435 462.761h-164.435c-2.761 0-5-2.238-5-5v-8.261c0-13.807 11.193-25 25-25h162c8.599 0 16.184 4.342 20.683 10.953-11.811 10.27-24.614 19.427-38.248 27.308z" fill="#c98001"/><path d="m398.704 449.5v.172c-6.524 4.683-13.288 9.053-20.269 13.089h-59.732c-2.761 0-5-2.238-5-5v-8.261c0-13.807 11.193-25 25-25h35.002c13.806 0 24.999 11.193 24.999 25z" fill="#d98800"/><path d="m86.035 170.68-5.84-48.979c-.44-3.689-3.787-6.323-7.475-5.883s-6.322 3.787-5.883 7.475c-.44-3.688-3.787-6.322-7.475-5.882s-6.322 3.786-5.883 7.474c-.44-3.688-3.787-6.321-7.475-5.881-3.689.44-6.322 3.787-5.883 7.475-.44-3.688-3.787-6.322-7.475-5.882s-6.322 3.786-5.883 7.474c-.44-3.688-3.787-6.321-7.475-5.881-3.689.44-6.322 3.787-5.883 7.475-.44-3.688-3.787-6.322-7.475-5.882s-6.322 3.787-5.883 7.475l5.84 48.979c.44 3.689 3.787 6.323 7.475 5.883 3.689-.44 6.322-3.787 5.883-7.476.44 3.689 3.787 6.323 7.475 5.883s6.322-3.787 5.883-7.475c.44 3.688 3.787 6.322 7.475 5.882s6.322-3.786 5.883-7.475c.44 3.688 3.787 6.322 7.475 5.882 3.689-.44 6.322-3.787 5.883-7.475.44 3.688 3.787 6.322 7.475 5.882s6.322-3.786 5.883-7.475c.44 3.688 3.787 6.322 7.475 5.882 3.689-.44 6.323-3.786 5.883-7.475z" fill="#6e61b5"/><path d="m32.604 177.051c.44 3.688-2.194 7.035-5.883 7.475s-7.035-2.194-7.475-5.883l-5.84-48.979c-.44-3.688 2.194-7.035 5.883-7.475s7.035 2.194 7.475 5.882zm53.431-6.371-5.84-48.979c-.44-3.689-3.787-6.323-7.475-5.883s-6.322 3.787-5.883 7.475l5.84 48.979c.44 3.688 3.787 6.322 7.475 5.882s6.323-3.785 5.883-7.474zm-32.556-45.793c-.44-3.688-3.787-6.322-7.475-5.882s-6.322 3.787-5.883 7.475l5.84 48.979c.44 3.688 3.787 6.322 7.475 5.882 3.689-.44 6.322-3.787 5.883-7.475z" fill="#968dca"/><path d="m90.87 171.667 6.126 51.376c.338 2.837-1.688 5.412-4.525 5.75-15.334 1.828-26.501 15.421-25.317 30.819l11.286 135.511-12.394 1.478-20.895-134.365c-2.47-15.244-16.52-25.831-31.854-24.002-2.837.338-5.412-1.688-5.75-4.525l-6.126-51.376c-.338-2.837 1.688-5.412 4.525-5.75l79.173-9.44c2.838-.34 5.412 1.686 5.751 4.524z" fill="#ea5569"/><path d="m53.431 254.911c.444 9.589 11.444 10.464 13.722 4.702l11.286 135.511-12.394 1.478-20.894-134.366c-2.47-15.245-16.52-25.831-31.854-24.002-2.837.338-5.412-1.688-5.75-4.525l-6.126-51.376c-.338-2.837 1.688-5.412 4.525-5.75l12.918-1.54 5.239 43.938c.427 3.582 3.677 6.139 7.258 5.712 9.448-1.128 21.512 18.147 22.07 30.218z" fill="#e43950"/><path d="m160 324.5v110c0 14.629-10.472 26.813-24.328 29.464-40.41-22.827-73.691-56.797-95.672-97.739v-41.725c0-5.523 4.477-10 10-10h100c5.523 0 10 4.477 10 10z" fill="#49b4fa"/><path d="m160 324.5v64.504c-7.628 15.123-23.299 25.496-41.393 25.496-25.589 0-46.333-20.744-46.333-46.333v-53.667h77.726c5.523 0 10 4.477 10 10z" fill="#91cefb"/><path d="m133.498 294.803 13.359 3.982c4.072 1.214 6.214 5.669 4.62 9.607l-27.593 68.166c-1.394 3.443-5.177 5.262-8.736 4.201-3.56-1.061-5.729-4.655-5.01-8.299l14.234-72.149c.822-4.167 5.054-6.722 9.126-5.508zm-53.465-.033 6.97 73.208c.352 3.698 3.458 6.522 7.172 6.522 3.714 0 6.82-2.824 7.172-6.522l6.97-73.208c.403-4.23-2.923-7.887-7.172-7.887h-13.94c-4.249 0-7.575 3.658-7.172 7.887z" fill="#463b83"/><path d="m151.477 308.393-7.687 18.99c-1.741 4.302-5.919 7.118-10.56 7.118h-1.743c-7.177 0-12.566-6.556-11.177-13.598l4.062-20.59c.822-4.168 5.055-6.723 9.126-5.51l13.359 3.982c4.071 1.214 6.214 5.669 4.62 9.608zm-43.16-13.623c.403-4.23-2.923-7.887-7.172-7.887h-13.94c-4.249 0-7.575 3.658-7.172 7.887l2.801 29.417c.557 5.847 5.468 10.313 11.341 10.313 5.874 0 10.784-4.466 11.341-10.313z" fill="#6e61b5"/><path d="m260 444.5c0 16.568-13.431 30-30 30h-73.393c-12.014-5.339-23.519-11.616-34.421-18.738-1.409-3.478-2.186-7.279-2.186-11.262 0-16.568 13.431-30 30-30h80c16.569 0 30 13.432 30 30z" fill="#ef7280"/><path d="m156.607 447c-11.336-5.038-22.218-10.911-32.57-17.541 5.193-8.944 14.875-14.959 25.962-14.959h80c11.613 0 21.684 6.598 26.67 16.25-4.985 9.652-15.056 16.25-26.669 16.25z" fill="#f7a4ae"/><path d="m180 444.5c0 14.694-10.565 26.92-24.513 29.499-11.609-5.229-22.738-11.336-33.301-18.236-1.409-3.478-2.186-7.279-2.186-11.262 0-16.568 13.431-30 30-30s30 13.431 30 29.999zm60 0c0 3.105-.361 6.1-1.015 8.871-.739 3.134 1.662 6.129 4.882 6.129 2.333 0 4.364-1.605 4.89-3.878.807-3.481 1.242-7.217 1.242-11.122s-.435-7.641-1.242-11.122c-.527-2.273-2.557-3.878-4.89-3.878-3.22 0-5.622 2.994-4.882 6.129.654 2.771 1.015 5.766 1.015 8.871zm-53.875 0c0 3.105-.361 6.1-1.015 8.871-.739 3.134 1.662 6.129 4.882 6.129 2.333 0 4.364-1.605 4.89-3.878.807-3.481 1.242-7.217 1.242-11.122s-.435-7.641-1.242-11.122c-.527-2.273-2.557-3.878-4.89-3.878-3.22 0-5.622 2.994-4.882 6.129.654 2.771 1.015 5.766 1.015 8.871zm21.826 15c2.333 0 4.364-1.605 4.89-3.878.807-3.481 1.242-7.217 1.242-11.122s-.435-7.641-1.242-11.122c-.527-2.273-2.557-3.878-4.89-3.878-3.22 0-5.622 2.994-4.882 6.129.654 2.772 1.015 5.766 1.015 8.871s-.361 6.1-1.015 8.871c-.74 3.135 1.662 6.129 4.882 6.129zm17.958 0c2.333 0 4.364-1.605 4.89-3.878.807-3.481 1.242-7.217 1.242-11.122s-.435-7.641-1.242-11.122c-.527-2.273-2.557-3.878-4.89-3.878-3.22 0-5.622 2.994-4.882 6.129.654 2.772 1.015 5.766 1.015 8.871s-.361 6.1-1.015 8.871c-.739 3.135 1.662 6.129 4.882 6.129zm-8.884 5c-2.333 0-4.364 1.605-4.891 3.878-.455 1.964-.792 4.01-.999 6.122h10.073c.169-1.329.404-2.623.699-3.872.739-3.134-1.662-6.128-4.882-6.128zm-17.959 0c-2.333 0-4.364 1.605-4.891 3.878-.455 1.964-.792 4.01-.999 6.122h10.073c.169-1.329.404-2.623.699-3.872.74-3.134-1.662-6.128-4.882-6.128zm30.027-50c.207 2.112.544 4.158.999 6.122.527 2.272 2.557 3.878 4.891 3.878 3.22 0 5.622-2.994 4.882-6.128-.183-.774-.342-1.566-.478-2.373-2.953-.972-6.109-1.499-9.388-1.499zm5.89 50c-2.333 0-4.364 1.605-4.891 3.878-.455 1.964-.792 4.01-.999 6.122h.907c3.279 0 6.434-.526 9.388-1.499.135-.807.295-1.599.478-2.373.739-3.134-1.663-6.128-4.883-6.128zm-58.766-43.878c.527 2.272 2.557 3.878 4.891 3.878 3.22 0 5.622-2.994 4.882-6.128-.295-1.249-.529-2.543-.699-3.872h-10.073c.207 2.112.544 4.158.999 6.122zm17.959 0c.527 2.272 2.557 3.878 4.891 3.878 3.22 0 5.622-2.994 4.882-6.128-.295-1.249-.529-2.543-.699-3.872h-10.073c.206 2.112.543 4.158.999 6.122zm17.958 0c.527 2.272 2.557 3.878 4.891 3.878 3.22 0 5.622-2.994 4.882-6.128-.295-1.249-.529-2.543-.699-3.872h-10.073c.207 2.112.544 4.158.999 6.122zm-31.026 43.878c-2.333 0-4.364 1.605-4.891 3.878-.455 1.964-.792 4.01-.999 6.122h10.073c.169-1.329.404-2.623.699-3.872.74-3.134-1.662-6.128-4.882-6.128z" fill="#e43950"/><path d="m170 444.5c0 11.046-8.954 20-20 20s-20-8.954-20-20 8.954-20 20-20 20 8.954 20 20z" fill="#962437"/><path d="m238.436 214.806-5.123-15.164c-.295-.872-.98-1.557-1.852-1.852l-15.164-5.123c-2.677-.904-2.677-4.69 0-5.594l15.164-5.123c.872-.295 1.557-.98 1.852-1.852l5.123-15.164c.904-2.677 4.69-2.677 5.594 0l5.123 15.164c.295.872.98 1.557 1.852 1.852l15.164 5.123c2.677.904 2.677 4.69 0 5.594l-15.164 5.123c-.872.295-1.557.98-1.852 1.852l-5.123 15.164c-.904 2.676-4.689 2.676-5.594 0zm121.857-43.026 6.941-20.544c.399-1.182 1.327-2.11 2.509-2.509l20.544-6.941c3.626-1.225 3.626-6.354 0-7.579l-20.544-6.941c-1.182-.399-2.11-1.327-2.509-2.509l-6.941-20.544c-1.225-3.626-6.354-3.626-7.579 0l-6.941 20.544c-.399 1.182-1.327 2.11-2.509 2.509l-20.544 6.941c-3.626 1.225-3.626 6.354 0 7.579l20.544 6.941c1.182.399 2.11 1.327 2.509 2.509l6.941 20.544c1.225 3.627 6.354 3.627 7.579 0z" fill="#fff5f5"/></g></svg>