<svg id="Capa_1" enable-background="new 0 0 501 501" height="512" viewBox="0 0 501 501" width="512" xmlns="http://www.w3.org/2000/svg"><g><path d="m5.5 245c0-135.309 109.69-245 244.999-245 135.269 0 245.404 110.48 245 245.748-.204 68.396-28.435 130.197-73.811 174.522h-308.082c-24.284 0-47.072-11.655-61.357-31.292-29.404-40.417-46.749-90.172-46.749-143.978z" fill="#528ed7"/><path d="m5.894 259c-.261-4.633-.394-9.301-.394-14 0-135.31 109.69-245 245-245s245 109.69 245 245c0 4.699-.132 9.367-.394 14z" fill="#63bcfa"/><path d="m414.5 69v358.016c-43.424 39.151-100.929 62.984-164 62.984-47.885 0-92.561-13.737-130.302-37.486-1.13-.711.347-4.207-.77-4.936-9.819-6.405-19.151-13.495-27.927-21.203-.743-.652-4.082 1.467-4.817.806-13.875-12.485-26.317-26.532-37.048-41.865v-316.316c0-16.569 13.431-30 30-30h304.864c16.569 0 30 13.431 30 30z" fill="#ab5e2e"/><path d="m402.135 74v363.449c-4.855 3.831-9.858 7.481-15 10.942v-374.391c0-4.136-3.364-7.5-7.5-7.5h-295.135c-4.136 0-7.5 3.364-7.5 7.5v343.981c-5.243-5.259-10.249-10.755-15-16.47v-327.511c0-12.406 10.094-22.5 22.5-22.5h295.135c12.406 0 22.5 10.094 22.5 22.5zm-232.042 402.5h160.814c11.905-4.134 23.392-9.161 34.382-15h-229.579c10.99 5.839 22.478 10.866 34.383 15z" fill="#8f4d24"/><path d="m377.452 80.486v367.027c0 2.761-2.239 5-5 5h-252.255c-11.9-7.488-23.11-15.971-33.514-25.333v-346.694c0-2.761 2.239-5 5-5h280.769c2.762 0 5 2.239 5 5z" fill="#f5dc90"/><path d="m357.068 439h-250c-2.761 0-5-2.239-5-5v-340c0-2.761 2.239-5 5-5h250c2.761 0 5 2.239 5 5v340c0 2.761-2.239 5-5 5z" fill="#fff5f5"/><path d="m211.423 119.808c-1.46-.681-3.196-.049-3.876 1.411l-35.091 75.253c-1.807-1.486-3.828-2.771-6.046-3.805-14.191-6.618-31.061-.478-37.678 13.713s-.478 31.061 13.714 37.678 31.061.478 37.678-13.714l40.175-86.155c4.281-9.183.307-20.099-8.876-24.381zm-41.968 104.545c-3.308 7.094-11.741 10.163-18.834 6.855-7.094-3.308-10.163-11.74-6.855-18.834s11.741-10.163 18.835-6.855c7.093 3.307 10.162 11.739 6.854 18.834z" fill="#8f4d24"/><path d="m203.906 179.339-11.731-25.158 11.731-25.157 11.731 25.157zm24.737 65.155c-14.191 6.618-31.06.478-37.678-13.714l-40.175-86.155c-4.282-9.184-.309-20.1 8.874-24.382 1.46-.681 3.196-.049 3.876 1.411l35.091 75.253c1.807-1.486 3.828-2.771 6.046-3.805 14.191-6.618 31.06-.478 37.678 13.714s.48 31.06-13.712 37.678zm-37.054-50.3c0-3.338-2.706-6.044-6.045-6.044s-6.045 2.707-6.045 6.044c0 3.339 2.707 6.045 6.045 6.045s6.045-2.706 6.045-6.045zm28.878 11.324c-7.094-3.308-15.527-.239-18.834 6.855-3.308 7.094-.239 15.526 6.855 18.834s15.527.239 18.834-6.855c3.308-7.094.239-15.526-6.855-18.834z" fill="#c98001"/><path d="m328.66 126.236c0 3.996-3.24 7.236-7.236 7.236h-39.698c-3.996 0-7.236-3.24-7.236-7.236 0-3.996 3.24-7.236 7.236-7.236h39.698c3.997 0 7.236 3.24 7.236 7.236zm-7.235 21.197h-39.698c-3.996 0-7.236 3.24-7.236 7.236s3.24 7.236 7.236 7.236h39.698c3.996 0 7.236-3.24 7.236-7.236s-3.24-7.236-7.236-7.236zm0 28.433h-39.698c-3.996 0-7.236 3.239-7.236 7.236 0 3.996 3.24 7.236 7.236 7.236h39.698c3.996 0 7.236-3.24 7.236-7.236-.001-3.997-3.24-7.236-7.236-7.236zm0 28.433h-39.698c-3.996 0-7.236 3.239-7.236 7.236 0 3.996 3.24 7.236 7.236 7.236h39.698c3.996 0 7.236-3.24 7.236-7.236-.001-3.996-3.24-7.236-7.236-7.236zm0 28.433h-39.698c-3.996 0-7.236 3.239-7.236 7.236 0 3.996 3.24 7.236 7.236 7.236h39.698c3.996 0 7.236-3.24 7.236-7.236-.001-3.996-3.24-7.236-7.236-7.236z" fill="#c98001"/><path d="m254.261 227.204v-88.018c0-11.046 8.954-20 20-20h13.396v128.018h-13.396c-11.045 0-20-8.954-20-20z" fill="#8f4d24"/><path d="m312.068 286.5c0 4.142-3.358 7.5-7.5 7.5h-145c-4.142 0-7.5-3.358-7.5-7.5s3.358-7.5 7.5-7.5h145c4.142 0 7.5 3.358 7.5 7.5z" fill="#8f4d24"/><path d="m269.635 396.5c0 4.142-3.358 7.5-7.5 7.5h-60.135c-4.142 0-7.5-3.358-7.5-7.5 0-4.142 3.358-7.5 7.5-7.5h60.135c4.142 0 7.5 3.358 7.5 7.5z" fill="#c98001"/><path d="m289.635 351.5c0 4.143-3.358 7.5-7.5 7.5h-100.135c-4.142 0-7.5-3.357-7.5-7.5 0-4.142 3.358-7.5 7.5-7.5h100.135c4.142 0 7.5 3.357 7.5 7.5zm-117.635-22.5h120.135c4.142 0 7.5-3.358 7.5-7.5s-3.358-7.5-7.5-7.5h-120.135c-4.142 0-7.5 3.358-7.5 7.5s3.358 7.5 7.5 7.5z" fill="#f3d373"/><path d="m456.375 479.583c.698 2.623-1.632 5.054-4.282 4.467l-34.044-7.531-25.699 23.528c-2.006 1.837-5.246.889-5.945-1.74l-33.665-126.545 73.246-6.408z" fill="#f5c02c"/><path d="m446.668 443.097c-1.637.857-3.175 1.931-4.569 3.207-14.702 13.46-38.442 6.512-43.566-12.751l-17.106-64.3 44.559-3.898z" fill="#f1ca50"/><path d="m330.641 365.354 73.246 6.408-33.665 126.545c-.699 2.629-3.939 3.577-5.945 1.74l-25.699-23.528-34.044 7.531c-2.65.586-4.98-1.844-4.282-4.467z" fill="#d98800"/><path d="m369.818 466.951c-3.874-3.546-9.233-4.982-14.361-3.848-14.443 3.195-27.138-10.048-23.335-24.343l19.05-71.61 52.716 4.612-27.036 101.628z" fill="#f19b0b"/><path d="m450.201 375.764c-2.272 3.787-3.508 8.106-3.582 12.521-.151 8.988-5.086 17.212-12.945 21.575-3.862 2.144-7.091 5.266-9.363 9.053-4.625 7.708-13.01 12.363-21.998 12.211-4.416-.074-8.774 1.016-12.635 3.159-7.859 4.363-17.449 4.202-25.157-.423-3.787-2.272-8.105-3.508-12.521-3.582-8.987-.151-17.212-5.085-21.574-12.944-2.144-3.862-5.266-7.091-9.053-9.363-7.708-4.625-12.363-13.01-12.212-21.997.074-4.416-1.015-8.774-3.159-12.635-4.363-7.859-4.201-17.449.423-25.156v-.001c2.272-3.787 3.508-8.105 3.582-12.521.151-8.987 5.086-17.211 12.945-21.575 3.861-2.143 7.091-5.265 9.363-9.053 4.625-7.708 13.01-12.363 21.997-12.212 4.416.074 8.774-1.015 12.635-3.159 7.859-4.363 17.449-4.201 25.157.423 3.787 2.272 8.105 3.507 12.521 3.582 8.987.151 17.212 5.086 21.575 12.945 2.144 3.862 5.266 7.091 9.053 9.363 7.708 4.625 12.363 13.01 12.212 21.998-.074 4.416 1.015 8.773 3.159 12.635 4.363 7.858 4.202 17.448-.423 25.156z" fill="#e43950"/><path d="m450.201 375.764c-2.309 3.848-3.547 8.244-3.585 12.734-.073 8.732-4.487 16.993-12.249 20.992-.085.044-.169.088-.253.132-4.291 2.272-9.546 1.562-12.98-1.871l-1.596-1.596c-3.807-3.807-4.352-9.866-1.123-14.173 6.693-8.929 10.473-20.167 9.931-32.305-1.149-25.708-22.021-46.582-47.728-47.734-11.874-.532-22.887 3.073-31.72 9.495-4.697 3.414-11.177 2.9-15.283-1.206-3.911-3.911-4.577-10.005-1.618-14.678.109-.172.215-.345.32-.519 4.566-7.611 12.799-12.245 21.658-12.215 4.529.015 9.012-.955 12.971-3.154 7.859-4.364 17.45-4.204 25.159.421 3.786 2.272 8.108 3.508 12.523 3.582 8.987.152 17.21 5.086 21.573 12.944 2.144 3.861 5.268 7.092 9.055 9.364 7.709 4.626 12.363 13.012 12.211 22.001-.077 4.529 1.177 8.94 3.322 12.93 4.193 7.8 3.978 17.245-.588 24.856z" fill="#ea5569"/><path d="m428.397 361.973c0 27.66-22.423 50.083-50.083 50.083s-50.083-22.423-50.083-50.083 22.423-50.083 50.083-50.083 50.083 22.423 50.083 50.083z" fill="#962437"/><path d="m416.878 361.973c0 21.298-17.266 38.564-38.564 38.564s-38.564-17.266-38.564-38.564 17.266-38.564 38.564-38.564 38.564 17.266 38.564 38.564z" fill="#ab2538"/><path d="m383.27 335.982 5.633 11.415c.5 1.013 1.466 1.715 2.584 1.877l12.597 1.83c2.815.409 3.939 3.868 1.902 5.854l-9.115 8.885c-.809.788-1.178 1.924-.987 3.038l2.152 12.546c.481 2.804-2.462 4.942-4.98 3.618l-11.267-5.923c-1-.526-2.194-.526-3.194 0l-11.267 5.923c-2.518 1.324-5.461-.814-4.98-3.618l2.152-12.546c.191-1.113-.178-2.249-.987-3.038l-9.115-8.885c-2.037-1.986-.913-5.445 1.902-5.854l12.597-1.83c1.118-.162 2.084-.865 2.584-1.877l5.633-11.415c1.26-2.551 4.898-2.551 6.156 0z" fill="#f5c02c"/><path d="m396.872 365.843c-.809.788-1.178 1.924-.987 3.038l.277 1.617c-2.07.612-4.261.941-6.53.941-12.309 0-22.358-9.68-22.948-21.844l2.213-.322c1.118-.162 2.084-.864 2.584-1.877l5.633-11.414c1.259-2.551 4.896-2.551 6.155 0l5.633 11.414c.5 1.013 1.466 1.715 2.584 1.877l12.597 1.831c2.815.409 3.939 3.868 1.902 5.854z" fill="#f3d373"/></g></svg>