<svg id="Capa_1" enable-background="new 0 0 501 501" height="512" viewBox="0 0 501 501" width="512" xmlns="http://www.w3.org/2000/svg"><g><path d="m5.5 256c0-135.133 109.403-244.713 244.469-244.999 135.292-.287 244.713 108.204 245.527 243.493.453 75.393-33.15 142.951-86.326 188.191-5.602 4.766-12.756 7.315-20.11 7.315h-276.387c-7.995 0-15.707-2.897-21.77-8.108-52.286-44.932-85.403-111.544-85.403-185.892z" fill="#528ed7"/><path d="m495.5 256c0 1.479-.013 2.954-.04 4.426-18.291 51.969-57.495 96.375-107.947 117.711-23.386 9.889-49.525 12.863-76.513 12.863-107.972 0-195.5-87.528-195.5-195.5 0-85.212 54.517-157.69 130.574-184.46 1.472-.026 2.947-.04 4.426-.04 135.31 0 245 109.69 245 245z" fill="#63bcfa"/><path d="m376.5 178.462v10c0 65.424-53.037 118.462-118.462 118.462h-15.077c-65.424 0-118.462-53.037-118.462-118.462v-10c.001-65.425 53.038-118.462 118.463-118.462h15.077c65.424 0 118.461 53.037 118.461 118.462z" fill="#7d402d"/><path d="m116.493 420.136c-14.192-9.29-16.295-29.517-3.938-41.138 12.526-11.781 29.393-18.998 47.945-18.998h180c29.684 0 55.052 18.477 65.232 44.556-42.261 34.65-96.318 55.444-155.232 55.444-49.461 0-95.499-14.657-134.007-39.864z" fill="#a95947"/><path d="m390.739 381.256c10.592 10.915 8.817 28.793-3.809 37.274-38.994 26.189-85.927 41.47-136.43 41.47-47.608 0-92.044-13.579-129.647-37.075 3.547-35.338 33.375-62.925 69.647-62.925h30v-21.585c0-1.516-1.003-2.834-2.451-3.28-44.912-13.847-77.549-55.679-77.549-105.135v-40c0-60.751 49.249-110 110-110 60.751 0 110 49.249 110 110v20c13.807 0 25 11.193 25 25v10c0 13.807-11.193 25-25 25-2.468 0-4.853-.358-7.105-1.024-12.254 32.333-39.309 57.384-72.895 66.883v24.141h60c19.71 0 37.518 8.146 50.239 21.256z" fill="#b76c54"/><path d="m360.5 190v40c0 50.792-34.425 93.543-81.216 106.195-9.023 2.44-18.545 2.44-27.568 0-46.791-12.652-81.216-55.403-81.216-106.195v-40c0-55.663 41.345-101.669 95-108.985 53.655 7.316 95 53.322 95 108.985z" fill="#c68978"/><path d="m218 197.5c0 8.284-6.716 15-15 15s-15-6.716-15-15 6.716-15 15-15 15 6.716 15 15zm80-15c-8.284 0-15 6.716-15 15s6.716 15 15 15 15-6.716 15-15-6.716-15-15-15z" fill="#002c5d"/><path d="m220.5 190c0 4.142-3.358 7.5-7.5 7.5s-7.5-3.358-7.5-7.5 3.358-7.5 7.5-7.5 7.5 3.358 7.5 7.5zm87.5-7.5c-4.142 0-7.5 3.358-7.5 7.5s3.358 7.5 7.5 7.5 7.5-3.358 7.5-7.5-3.358-7.5-7.5-7.5z" fill="#fff5f5"/><path d="m250.5 300c-16.569 0-30-13.431-30-30 0-4.142 3.358-7.5 7.5-7.5h45c4.142 0 7.5 3.358 7.5 7.5 0 16.569-13.431 30-30 30z" fill="#fff5f5"/><path d="m258 299.055c-2.397.617-4.91.945-7.5.945-16.568 0-30-13.431-30-30 0-4.142 3.358-7.5 7.5-7.5h15c-4.142 0-7.5 3.358-7.5 7.5 0 13.979 9.561 25.724 22.5 29.055z" fill="#e3f0fb"/><path d="m236 238.731c-2.929-2.93-2.929-7.678 0-10.607 2.929-2.928 7.678-2.928 10.606 0 1.042 1.042 2.424 1.616 3.893 1.616s2.851-.574 3.893-1.616c2.929-2.928 7.678-2.928 10.606 0 2.929 2.93 2.929 7.678 0 10.607-3.875 3.875-9.024 6.009-14.5 6.009s-10.623-2.134-14.498-6.009z" fill="#a95947"/><path d="m376.495 177.428c-35.422 7.783-73.945-2.099-101.493-29.646 0 0-40.628-42.32-45.235-50.108-23.631 25.09-38.373 60.604-38.373 99.979v50.056c0 37.182 13.145 70.92 34.507 95.69 1.155 1.339.144 3.42-1.622 3.309-64.547-4.05-115.775-64.032-115.775-137.435v-11.621c0-63.167 37.939-116.397 89.655-132.594-1.713-3.829-2.618-8.628-2.658-14.64 0-.138-.001-.277-.001-.418 0-27.614 24.624-50 55-50s55 22.386 55 50c0 7.7-1.915 13.438-5.335 17.71 44.322 16.868 75.901 59.577 76.33 109.718z" fill="#7d402d"/><path d="m265.426 68.655c-.692.13-1.384.264-2.077.4-40.845 8.055-77.135 31.712-100.594 66.104-12.742 18.68-23.663 40.969-23.663 62.494v11.621c0 60.793 35.14 112.382 83.884 130.612.959 1.192 1.936 2.365 2.931 3.519 1.154 1.338.139 3.414-1.624 3.304-64.548-4.048-115.778-64.032-115.778-137.435v-11.621c0-63.167 37.939-116.397 89.655-132.594-1.752-3.917-2.66-8.851-2.66-15.059 0-27.614 24.624-50 55-50 5.307 0 10.438.684 15.292 1.959-22.934 6.023-39.705 25.251-39.705 48.041 0 3.73.328 6.999.97 9.864 12.564-1.524 25.201-1.887 37.747-1.113 5.913.365 6.444 8.809.622 9.904z" fill="#533022"/><path d="m410.5 430v11.545c-42.926 37.05-98.847 59.455-160 59.455s-117.074-22.405-160-59.455v-11.545c0-20.564 8.867-39.057 22.987-51.863 39.108 26.429 86.258 41.863 137.013 41.863s97.905-15.434 137.013-41.863c14.12 12.806 22.987 31.299 22.987 51.863z" fill="#d98800"/><path d="m410.5 430v11.545c-42.926 37.05-98.847 59.455-160 59.455-47.757 0-92.322-13.665-130-37.296v-33.704c0-14.853 4.626-28.625 12.515-39.954 34.881 19.097 74.915 29.954 117.485 29.954 50.755 0 97.905-15.434 137.013-41.863 14.12 12.806 22.987 31.299 22.987 51.863z" fill="#fcb30b"/><path d="m355.5 450v27.423c-6.514 3.094-13.186 5.91-20 8.431v-35.854c0-5.523 4.477-10 10-10s10 4.477 10 10zm-200-10c-5.523 0-10 4.477-10 10v27.423c6.514 3.094 13.185 5.91 20 8.431v-35.854c0-5.523-4.477-10-10-10z" fill="#d98800"/><path d="m360.674 347.617h-12.349c-3.764 0-6.71-3.24-6.353-6.987l6.174-64.853c.312-3.276 3.063-5.777 6.353-5.777 3.29 0 6.042 2.502 6.353 5.777l6.174 64.853c.358 3.747-2.588 6.987-6.352 6.987z" fill="#463b83"/><path d="m364.5 270c0 5.523-4.477 10-10 10s-10-4.477-10-10 4.477-10 10-10 10 4.477 10 10z" fill="#002c5d"/><path d="m427.214 227.28-6.941-20.544c-.399-1.182-1.327-2.11-2.509-2.509l-20.544-6.941c-3.626-1.225-3.626-6.354 0-7.579l20.544-6.941c1.182-.399 2.11-1.327 2.509-2.509l6.941-20.544c1.225-3.626 6.354-3.626 7.579 0l6.941 20.544c.399 1.182 1.327 2.11 2.509 2.509l20.544 6.941c3.626 1.225 3.626 6.354 0 7.579l-20.544 6.941c-1.182.399-2.11 1.327-2.509 2.509l-6.941 20.544c-1.225 3.627-6.354 3.627-7.579 0zm-340.145 119.736 5.123-15.164c.295-.872.98-1.557 1.852-1.852l15.164-5.123c2.677-.904 2.677-4.69 0-5.594l-15.164-5.123c-.872-.295-1.557-.98-1.852-1.852l-5.123-15.164c-.904-2.677-4.69-2.677-5.594 0l-5.123 15.164c-.295.872-.98 1.557-1.852 1.852l-15.164 5.123c-2.677.904-2.677 4.69 0 5.594l15.164 5.123c.872.295 1.557.98 1.852 1.852l5.123 15.164c.905 2.676 4.69 2.676 5.594 0zm281.852-208.311 3.305-9.783c.19-.563.632-1.005 1.195-1.195l9.783-3.305c1.727-.583 1.727-3.026 0-3.609l-9.783-3.305c-.563-.19-1.005-.632-1.195-1.195l-3.305-9.783c-.583-1.727-3.026-1.727-3.609 0l-3.305 9.783c-.19.563-.632 1.005-1.195 1.195l-9.783 3.305c-1.727.583-1.727 3.026 0 3.609l9.783 3.305c.563.19 1.005.632 1.195 1.195l3.305 9.783c.583 1.727 3.026 1.727 3.609 0z" fill="#fff5f5"/></g></svg>