<svg id="Capa_1" enable-background="new 0 0 501 501" height="512" viewBox="0 0 501 501" width="512" xmlns="http://www.w3.org/2000/svg"><g><path d="m5.5 256c0-135.144 109.422-244.732 244.503-245 134.847-.267 245.199 109.601 245.496 244.448.133 60.592-21.729 116.075-58.05 158.911-10.738 12.664-26.495 19.974-43.098 19.974h-298.846c-8.653 0-16.922-3.565-22.873-9.845-41.609-43.911-67.132-103.219-67.132-168.488z" fill="#8f4d24"/><path d="m495.5 256c0 4.011-.097 8-.287 11.964h-489.426c-.19-3.964-.287-7.953-.287-11.964 0-135.31 109.69-245 245-245s245 109.69 245 245z" fill="#ab5e2e"/><path d="m424.311 202.204c-.039 1.597-2.116 2.188-3.006.862-2.269-3.378-5.138-6.436-8.584-9.007-2.999-2.238-6.227-3.953-9.575-5.16 8.406 6.776 13.783 17.157 13.783 28.795 0 20.416-16.551 36.967-36.967 36.967h-33.681c-20.416 0-36.967-16.551-36.967-36.967 0-20.417 16.551-36.967 36.967-36.967h10.274l1.172-1.57c12.211-16.362 35.374-19.728 51.736-7.517 9.988 7.453 15.132 18.986 14.848 30.564z" fill="#528ed7"/><path d="m428.567 424.278c-23.235 24.578-61.759 26.262-87.278 4.065-11.448-9.958-23.231-16.779-35.26-16.779-16.094 0-31.746 21.23-46.748 44.931-9.636 15.223-60.045-25.281-60.045-25.281v-127.265c0-31.758 25.745-57.503 57.503-57.503h92.007l5.75 2.805h17.251l4.929-2.805h3.285c31.758 0 57.504 25.745 57.504 57.504v110.389c-2.876 3.393-5.844 6.707-8.898 9.939z" fill="#c1bbdf"/><path d="m392.285 336.808v94.405c-5.323 3.783-10.803 7.359-16.43 10.716v-105.121c0-4.537 3.678-8.215 8.215-8.215s8.215 3.678 8.215 8.215zm-164.297-8.215c-4.537 0-8.215 3.678-8.215 8.215v137.668c5.423.679 10.902 1.18 16.43 1.499v-139.167c0-4.537-3.678-8.215-8.215-8.215z" fill="#968dca"/><path d="m371.748 90.363v32.859c0 49.906-40.457 90.363-90.363 90.363-49.906 0-90.363-40.457-90.363-90.363v-32.859c-.001-49.906 40.456-90.363 90.362-90.363 49.907 0 90.364 40.457 90.364 90.363z" fill="#0573cd"/><path d="m421.037 90.363v32.859c0 49.906-40.457 90.363-90.363 90.363-49.906 0-90.363-40.457-90.363-90.363v-32.859c-.001-49.906 40.456-90.363 90.362-90.363 49.907 0 90.364 40.457 90.364 90.363z" fill="#528ed7"/><path d="m215.666 172.512c-11.342 0-20.537-9.195-20.537-20.537v-8.215c0-11.342 9.195-20.537 20.537-20.537 11.342 0 20.537 9.195 20.537 20.537v8.215c0 11.342-9.195 20.537-20.537 20.537z" fill="#eabe8d"/><path d="m207.451 139.652v16.43c0 6.718 3.226 12.683 8.213 16.43-11.341-.001-20.535-9.195-20.535-20.537v-8.215c0-11.342 9.194-20.536 20.535-20.537-4.987 3.746-8.213 9.711-8.213 16.429zm188.941-16.429v-16.43c0-49.906-40.457-90.363-90.363-90.363-49.906 0-90.363 40.457-90.363 90.363v32.859c0 41.362 27.791 76.234 65.719 86.961v28.046c0 13.61 11.034 24.644 24.645 24.644s24.645-11.034 24.645-24.644v-28.046c27.59-7.804 49.816-28.383 59.882-54.944 1.85.548 3.809.842 5.837.842 11.342 0 20.537-9.195 20.537-20.537v-8.215c-.002-11.342-9.197-20.536-20.539-20.536z" fill="#e3ac6e"/><path d="m396.392 106.793v32.859c0 41.725-28.28 76.844-66.718 87.238-7.412 2.004-15.235 2.004-22.647 0-38.438-10.393-66.718-45.513-66.718-87.238v-32.859c0-45.727 33.964-83.52 78.041-89.53 44.078 6.01 78.042 43.803 78.042 89.53z" fill="#eabe8d"/><path d="m294.118 145.182c-2.406-2.407-2.406-6.307 0-8.714 2.406-2.405 6.307-2.405 8.713 0 .856.856 1.992 1.328 3.198 1.328s2.342-.472 3.198-1.328c2.406-2.405 6.307-2.405 8.713 0 2.406 2.407 2.406 6.307 0 8.714-3.183 3.183-7.413 4.936-11.911 4.936s-8.728-1.753-11.911-4.936z" fill="#d89c56"/><path d="m279.331 112.954c0 6.805-5.517 12.322-12.322 12.322s-12.322-5.517-12.322-12.322 5.517-12.322 12.322-12.322 12.322 5.517 12.322 12.322zm65.718-12.322c-6.805 0-12.322 5.517-12.322 12.322s5.517 12.322 12.322 12.322 12.322-5.517 12.322-12.322c.001-6.805-5.516-12.322-12.322-12.322z" fill="#533022"/><path d="m281.384 106.793c0 3.403-2.758 6.161-6.161 6.161s-6.161-2.758-6.161-6.161 2.758-6.161 6.161-6.161 6.161 2.758 6.161 6.161zm71.88-6.161c-3.403 0-6.161 2.758-6.161 6.161s2.758 6.161 6.161 6.161 6.161-2.758 6.161-6.161-2.758-6.161-6.161-6.161z" fill="#fff5f5"/><path d="m306.029 197.156c-13.611 0-24.645-11.034-24.645-24.644 0-3.403 2.758-6.161 6.161-6.161h36.967c3.403 0 6.161 2.758 6.161 6.161 0 13.61-11.033 24.644-24.644 24.644z" fill="#d27d69"/><path d="m312.19 196.38c-1.969.507-4.034.776-6.161.776-13.611 0-24.645-11.034-24.645-24.645 0-3.403 2.758-6.161 6.161-6.161h12.322c-3.403 0-6.161 2.758-6.161 6.161.001 11.484 7.855 21.133 18.484 23.869z" fill="#b66e56"/><path d="m251.535 82.899c-11.739-3.294-23.043-7.626-33.809-12.891 14.175-34.841 48.37-59.404 88.303-59.404 22.462.001-41.495 75.942-54.494 72.295z" fill="#0573cd"/><path d="m429.559 423.222c-15.341 16.42-32.915 30.729-52.237 42.441-.212.128-3.752 2.236-5.321 3.134-21.807 12.478-45.715 21.7-71.064 27.005-.339.071-.69.141-1.053.211-33.518 6.414-64.502-19.616-64.502-53.743v-146.536h141.295v82.161z" fill="#002c5d"/><path d="m362.711 327.324c-7.713 0-13.965-6.252-13.965-13.965v-66.914h27.93v66.914c.001 7.713-6.252 13.965-13.965 13.965z" fill="#f4aa39"/><path d="m370.926 312.164c0 4.537-3.678 8.215-8.215 8.215s-8.215-3.678-8.215-8.215 3.678-8.215 8.215-8.215 8.215 3.678 8.215 8.215z" fill="#d98800"/><path d="m261.811 353.238c0-4.537 3-8.215 6.7-8.215h75.036c3.7 0 6.7 3.678 6.7 8.215 0 22.685-14.998 41.074-33.498 41.074h-21.439c-18.501 0-33.499-18.389-33.499-41.074z" fill="#d98800"/><path d="m394.098 69.44c-1.319.875-2.645 1.731-3.98 2.568-9.122 4.201-18.611 7.739-28.407 10.553-2.819.81-5.729-.978-6.29-3.856l-1.709-8.761c-.478-2.453-2.628-4.224-5.127-4.224h-.37c-2.5 0-4.649 1.771-5.127 4.224l-2.767 14.191c-.402 2.062-2.046 3.671-4.123 3.983-3.465.521-6.959.954-10.48 1.295-2.652.257-5.049-1.594-5.451-4.228l-3.54-23.243c-.42-2.756-2.944-4.734-5.788-4.401-2.378.278-4.212 2.244-4.573 4.611l-3.624 23.79c-.386 2.531-2.621 4.353-5.18 4.247-18.613-.771-36.573-4.068-53.546-9.56 6.963-28.599 17.817-52.795 40.024-67.68 7.002-1.639 14.488-2.343 21.99-2.343 39.714-.001 73.754 24.295 88.068 58.834z" fill="#528ed7"/><path d="m304.5 294.875c0 30.812-8.488 59.211-22.774 81.921-4.305 6.844-11.195 11.648-19.097 13.361-29.54 6.407-60.793 9.843-93.129 9.843s-63.589-3.436-93.129-9.843c-7.902-1.714-14.792-6.517-19.097-13.361-14.286-22.71-22.774-51.109-22.774-81.921 0-74.489 49.609-134.875 110.806-134.875 8.31 0 16.407 1.114 24.194 3.225 7.788-2.111 15.884-3.225 24.194-3.225 61.197 0 110.806 60.386 110.806 134.875z" fill="#f7e6b0"/><path d="m304.5 294.875c0 30.812-8.488 59.21-22.774 81.921-4.305 6.844-11.195 11.647-19.097 13.361-15.231 3.303-30.918 5.817-46.973 7.477-16.056-1.66-31.742-4.174-46.973-7.477-7.902-1.714-14.792-6.517-19.097-13.361-14.286-22.71-22.774-51.109-22.774-81.921 0-65.337 38.168-119.823 88.844-132.226 50.676 12.403 88.844 66.889 88.844 132.226z" fill="#f9eecf"/><path d="m79.137 332.636c-11.342 0-20.537-9.195-20.537-20.537v-8.215c0-11.342 9.195-20.537 20.537-20.537 11.342 0 20.537 9.195 20.537 20.537v8.215c0 11.342-9.195 20.537-20.537 20.537z" fill="#e1a595"/><path d="m70.922 299.776v16.43c0 6.718 3.226 12.683 8.213 16.43-11.341-.001-20.535-9.196-20.535-20.537v-8.215c0-11.342 9.194-20.536 20.536-20.537-4.988 3.746-8.214 9.711-8.214 16.429zm188.941-16.429v-16.43c0-49.906-40.457-90.363-90.363-90.363-49.906 0-90.363 40.457-90.363 90.363v32.859c0 41.362 27.791 76.234 65.719 86.961v52.69h49.289v-52.69c27.59-7.804 49.816-28.383 59.882-54.944 1.85.548 3.809.842 5.837.842 11.342 0 20.537-9.195 20.537-20.537v-8.215c-.001-11.342-9.195-20.536-20.538-20.536z" fill="#dd9683"/><path d="m259.863 266.917v32.859c0 41.725-28.28 76.844-66.718 87.238-7.412 2.004-15.235 2.004-22.647 0-38.438-10.393-66.718-45.513-66.718-87.238v-32.859c0-45.727 33.964-83.52 78.041-89.53 44.078 6.01 78.042 43.803 78.042 89.53z" fill="#e1a595"/><path d="m157.589 305.306c-2.406-2.407-2.406-6.307 0-8.714 2.406-2.405 6.307-2.405 8.713 0 .856.856 1.992 1.328 3.198 1.328s2.342-.472 3.198-1.328c2.406-2.405 6.307-2.405 8.713 0 2.406 2.407 2.406 6.307 0 8.714-3.183 3.183-7.413 4.936-11.911 4.936s-8.728-1.753-11.911-4.936z" fill="#d27d69"/><path d="m142.802 273.078c0 6.805-5.517 12.322-12.322 12.322s-12.322-5.517-12.322-12.322 5.517-12.322 12.322-12.322 12.322 5.517 12.322 12.322zm65.718-12.322c-6.805 0-12.322 5.517-12.322 12.322s5.517 12.322 12.322 12.322 12.322-5.517 12.322-12.322c.001-6.805-5.516-12.322-12.322-12.322z" fill="#002c5d"/><path d="m144.855 266.917c0 3.403-2.758 6.161-6.161 6.161s-6.161-2.758-6.161-6.161 2.758-6.161 6.161-6.161 6.161 2.758 6.161 6.161zm71.88-6.161c-3.403 0-6.161 2.758-6.161 6.161s2.758 6.161 6.161 6.161 6.161-2.758 6.161-6.161-2.758-6.161-6.161-6.161z" fill="#fff5f5"/><path d="m169.5 357.28c-13.611 0-24.645-11.034-24.645-24.645 0-3.403 2.758-6.161 6.161-6.161h36.967c3.403 0 6.161 2.758 6.161 6.161 0 13.611-11.033 24.645-24.644 24.645z" fill="#fff5f5"/><path d="m175.661 356.504c-1.969.507-4.034.776-6.161.776-13.611 0-24.645-11.034-24.645-24.645 0-3.403 2.758-6.161 6.161-6.161h12.322c-3.403 0-6.161 2.758-6.161 6.161.001 11.484 7.855 21.133 18.484 23.869z" fill="#e3f0fb"/><path d="m222.896 414.784c0 9.074-7.356 16.43-16.43 16.43h-73.934c-9.074 0-16.43-7.356-16.43-16.43 0-9.074 7.356-16.43 16.43-16.43h73.934c9.075 0 16.43 7.356 16.43 16.43z" fill="#49b4fa"/><path d="m222.896 414.784c0 9.074-7.356 16.43-16.43 16.43h-41.896c-9.074 0-16.43-7.356-16.43-16.43 0-9.074 7.356-16.43 16.43-16.43h41.896c9.075 0 16.43 7.356 16.43 16.43z" fill="#91cefb"/><path d="m300.937 473.109v22.693c-16.277 3.407-33.148 5.198-50.437 5.198-70.38 0-133.829-29.676-178.516-77.198 7.196-5.117 15.179-8.196 23.582-8.196h147.867c31.759-.001 57.504 25.745 57.504 57.503z" fill="#d98800"/><path d="m300.937 473.109v22.693c-16.277 3.407-33.148 5.198-50.437 5.198-53.385 0-102.782-17.074-143.027-46.06-16.963-12.217-8.634-39.166 12.27-39.332.156-.001.312-.002.469-.002h123.223c31.757-.001 57.502 25.745 57.502 57.503z" fill="#f4aa39"/><path d="m244.352 500.924c-7.589-.187-15.093-.719-22.495-1.581l.919-29.269c.232-5.534 4.786-9.9 10.325-9.9s10.092 4.367 10.325 9.9zm-74.852-60.674c-5.539 0-10.092 4.366-10.325 9.9l-1.122 32.808c7.543 3.076 15.274 5.787 23.171 8.11l-1.399-40.918c-.233-5.534-4.786-9.9-10.325-9.9z" fill="#d98800"/><path d="m304.5 294.875c0 1.136-.012 2.27-.035 3.399-83.133-9.883-153.497-61.393-189.66-133.1 9.69-3.37 19.922-5.175 30.501-5.175 8.31 0 16.407 1.114 24.194 3.225 7.788-2.111 15.884-3.225 24.194-3.225 61.197.001 110.806 60.387 110.806 134.876z" fill="#f9eecf"/><path d="m288.235 243.171c13.315 2.719 23.764 13.218 26.22 26.584.015.082.03.163.045.245-72.53-7.202-136.261-46.241-176.308-103.413 4.849-1.062 9.807-1.739 14.853-2.005 34.938 39.784 82.332 67.794 135.19 78.589z" fill="#e43950"/><path d="m277.854 215.399c11.036-.097 21.115 6.471 25.332 16.671.026.062.051.125.077.187-58.83 6.573-116.067-13.633-157.566-52.256 3.671-1.665 7.495-3.043 11.457-4.11 34.494 25.678 76.886 39.893 120.7 39.508z" fill="#ea5569"/><path d="m36.735 267.791c10.301-61.509 54.996-107.791 108.571-107.791 8.31 0 16.407 1.114 24.194 3.225 7.788-2.111 15.884-3.225 24.194-3.225 4.671 0 9.274.353 13.794 1.036-38.15 57.038-99.609 97.164-170.753 106.755z" fill="#f7e6b0"/><path d="m105.815 247.767c-.349.16-3.065-67.041 39.97-87.765 8.142.042 16.078 1.152 23.716 3.223 7.788-2.111 15.884-3.225 24.194-3.225 4.671 0 9.274.353 13.794 1.036-25.097 37.522-60.282 67.725-101.674 86.731z" fill="#f9eecf"/><path d="m355.487 350v34.686h-31.974v-34.686c0-5.523 4.477-10 10-10h11.974c5.523 0 10 4.477 10 10z" fill="#968dca"/><path d="m364.5 345c0 4.142-3.358 7.5-7.5 7.5h-1.513v32.186h-17.974v-32.186h-40.513c-4.142 0-7.5-3.358-7.5-7.5s3.358-7.5 7.5-7.5h60c4.142 0 7.5 3.358 7.5 7.5z" fill="#aba4d5"/><path d="m297 352.5c-4.142 0-7.5-3.358-7.5-7.5 0-4.142 3.358-7.5 7.5-7.5 4.142 0 7.5 3.358 7.5 7.5 0 4.142-3.358 7.5-7.5 7.5z" fill="#968dca"/><path d="m284.798 363.882c0 3.195-2.59 5.786-5.786 5.786s-5.786-2.59-5.786-5.786 2.59-5.786 5.786-5.786 5.786 2.591 5.786 5.786zm-22.179-22.179c-3.195 0-5.786 2.59-5.786 5.786 0 3.195 2.59 5.786 5.786 5.786 3.195 0 5.786-2.59 5.786-5.786s-2.591-5.786-5.786-5.786zm22.179-18.321c-3.195 0-5.786 2.59-5.786 5.786s2.59 5.786 5.786 5.786 5.786-2.59 5.786-5.786-2.591-5.786-5.786-5.786z" fill="#49b4fa"/><path d="m308.379 457.503c-8.553-8.191-13.879-19.725-13.879-32.503 0-25.435 21.102-45.941 46.753-44.967 23.312.885 42.312 19.872 43.212 43.184.522 13.53-4.931 25.795-13.933 34.37-3.682 3.507-8.605 5.413-13.69 5.413h-34.682c-5.127 0-10.077-1.95-13.781-5.497z" fill="#49b4fa"/><path d="m370.533 457.587c-3.682 3.507-8.605 5.413-13.69 5.413h-1.609c-5.697 0-11.198-2.167-15.312-6.107-9.504-9.102-15.422-21.917-15.422-36.115 0-16.618 8.107-31.342 20.581-40.433 21.532 2.688 38.534 20.851 39.385 42.873.522 13.529-4.932 25.795-13.933 34.369z" fill="#91cefb"/><path d="m322.51 398.839v-11.496c0-13.605 11.029-24.634 24.634-24.634h12.317c6.802 0 12.317 5.514 12.317 12.317v36.129c0 6.802-5.514 12.317-12.317 12.317h-12.317c-13.605.001-24.634-11.028-24.634-24.633z" fill="#d89c56"/><path d="m359.46 398.018h-12.317c-11.181 0-20.621-7.449-23.63-17.654 3.009-10.205 12.45-17.654 23.63-17.654h12.317c6.802 0 12.317 5.514 12.317 12.317v10.675c0 6.801-5.515 12.316-12.317 12.316z" fill="#e3ac6e"/><path d="m358.639 407.5v-44.79h62.405v44.79z" fill="#c1bbdf"/><path d="m429.325 423.473h-70.686v-25.455h78.827v16.32c-2.638 3.113-5.353 6.159-8.141 9.135z" fill="#968dca"/><path d="m94.011 146.421 5.123-15.164c.295-.872.98-1.557 1.852-1.852l15.164-5.123c2.677-.904 2.677-4.69 0-5.594l-15.164-5.123c-.872-.295-1.557-.98-1.852-1.852l-5.123-15.164c-.904-2.677-4.69-2.677-5.594 0l-5.123 15.164c-.295.872-.98 1.557-1.852 1.852l-15.164 5.123c-2.677.904-2.677 4.69 0 5.594l15.164 5.123c.872.295 1.557.98 1.852 1.852l5.123 15.164c.904 2.676 4.69 2.676 5.594 0z" fill="#f4aa39"/><path d="m440.263 341.023 5.123-15.164c.295-.872.98-1.557 1.852-1.852l15.164-5.123c2.677-.904 2.677-4.69 0-5.594l-15.164-5.123c-.872-.295-1.557-.98-1.852-1.852l-5.123-15.164c-.904-2.677-4.69-2.677-5.594 0l-5.123 15.164c-.295.872-.98 1.557-1.852 1.852l-15.164 5.123c-2.677.904-2.677 4.69 0 5.594l15.164 5.123c.872.295 1.557.98 1.852 1.852l5.123 15.164c.904 2.677 4.69 2.677 5.594 0zm-290.317-252.318 3.305-9.783c.19-.563.632-1.005 1.195-1.195l9.783-3.305c1.727-.583 1.727-3.026 0-3.609l-9.783-3.305c-.563-.19-1.005-.632-1.195-1.195l-3.305-9.783c-.583-1.727-3.026-1.727-3.609 0l-3.305 9.783c-.19.563-.632 1.005-1.195 1.195l-9.783 3.305c-1.727.583-1.727 3.026 0 3.609l9.783 3.305c.563.19 1.005.632 1.195 1.195l3.305 9.783c.583 1.727 3.026 1.727 3.609 0z" fill="#fff5f5"/></g></svg>