<svg id="Capa_1" enable-background="new 0 0 501 501" height="512" viewBox="0 0 501 501" width="512" xmlns="http://www.w3.org/2000/svg"><g><path d="m78.588 71.759c95.374-95.678 250.007-95.678 345.381 0s95.374 250.803 0 346.482-250.007 95.678-345.381 0-95.374-250.804 0-346.482z" fill="#63bcfa"/><path d="m423.969 418.24c-95.374 95.678-250.007 95.678-345.381 0-41.416-41.548-64.847-94.305-70.293-148.537 37.857-47.65 100.555-79.747 161.245-76.703 107.831 5.407 161.349 100.786 228.272 73.297 2.043-.839 34.436-9.843 42.863-35.297 14.989-45.272-6.479-78.98-32.895-95-11.684-7.086 42.365-18.628 60.518-3.514 47.542 92.23 32.766 208.414-44.329 285.754z" fill="#528ed7"/><path d="m426.926 415.223c-.975 1.012-4.678 1.862-5.988 2.381-143.286 56.759-240.605 113.313-335.979 17.635-31.327-31.427-61.48-80.806-71.781-121.733-21.062-83.676 1.363-177.496 65.41-241.747 9.221-9.25 18.996-17.606 29.217-25.067 219.372 10.74-68.862 374.448 324.921 297.602-9.136 26.492-23.535 50.353-43.412 70.294-.351.352-.703.703-1.057 1.052 13.133.879 26.058.751 38.669-.417z" fill="#9d5528"/><path d="m426.926 415.223c-.975 1.012-1.961 2.018-2.957 3.017-54.841 55.016-129.414 79.158-200.909 70.904-.567 2.618-.1 4.357 2.318 6.628 1.994 1.873.589 5.297-2.142 5.226-34.301-.884-60.621-9.53-80.915-20.938-38.445-21.612-126.791-84.214-113.334-227.253 1.881-19.99 13.654-94.063 73.13-120.309 52.544-23.186 101.689 61.788 101.874 70.87 1.887 92.227 12.201 183.18 228.734 140.923-9.136 26.492-23.535 50.353-43.412 70.294-.351.353-.704.703-1.057 1.052 13.134.882 26.06.753 38.67-.414z" fill="#c76d36"/><path d="m350.595 404.542c.883-.051 1.739.551 1.835 1.433.06.557-.169 1.066-.726 1.195-106.671 24.592-213.017-42.221-237.532-149.232-7.034-30.704-1.279-62.063 10.899-90.356 6.967-16.185 31.16-9.77 24.134 14.684-6.348 22.094-8.22 45.37-2.972 68.28 21.966 95.885 109.632 159.497 204.362 153.996zm-262.573-145.469c-2.587-26.07 2.749-51.537 12.867-75.067 11.199-26.042-14.647-36.552-24.621-19.642-17.434 29.559-28.197 63.415-24.73 98.352 12.084 121.767 120.277 210.651 241.657 198.529.634-.063.959-.594.97-1.218.019-.989-.843-1.776-1.827-1.844-105.498-7.297-193.488-90.003-204.316-199.11z" fill="#9d5528"/><path d="m320.751 108.38c23.895-23.972 51.549-42.789 81.62-55.895 7.48 5.923 14.694 12.348 21.598 19.273 3.861 3.873 7.565 7.843 11.113 11.903-31.296 10.703-60.679 28.551-85.594 53.547z" fill="#e3f0fb"/><path d="m162.863 140.907 95.04-49.941c31.52-16.563 70.112-10.655 95.272 14.586 25.16 25.241 31.05 63.956 14.54 95.576l-49.783 95.342z" fill="#463b83"/><path d="m363.559 118.313c16.071 24.423 18.082 56.143 4.155 82.815l-49.757 95.294-131.776-132.196 95.04-49.941c26.509-13.931 58.022-11.965 82.338 4.028z" fill="#54469b"/><path d="m381.369 119.694c3.893 3.905 3.893 10.237 0 14.142-3.893 3.905-10.204 3.905-14.097 0l-42.292-42.426c-3.893-3.905-3.893-10.237 0-14.142 3.893-3.905 10.204-3.905 14.097 0zm-42.277 14.157c-6.051-6.031-15.352-7.322-22.908-3.352-5.321 2.795-12.043 6.327-18.717 9.834-13.866 7.285-16.709 25.973-5.641 37.076l19.08 19.141c11.068 11.103 29.695 8.251 36.958-5.658 9.834-18.834 6.326-41.895-8.66-56.929-.037-.038-.075-.075-.112-.112zm37.057-74.306c-3.539-4.231-9.826-4.782-14.044-1.232-4.217 3.55-4.767 9.857-1.229 14.088l32.449 38.794c3.539 4.231 9.826 4.782 14.043 1.233 4.217-3.55 4.767-9.858 1.229-14.088zm61.173 25.343-28.955-41.484c-3.158-4.524-9.373-5.624-13.883-2.456s-5.606 9.403-2.448 13.927l28.955 41.484c3.158 4.524 9.373 5.624 13.883 2.456 4.51-3.167 5.606-9.403 2.448-13.927z" fill="#6354b0"/><path d="m335.553 314.148c-7.786 7.81-20.409 7.81-28.194 0l-162.118-162.634c-7.786-7.81-7.786-20.474 0-28.284 7.786-7.81 20.409-7.81 28.194 0l162.118 162.634c7.786 7.81 7.786 20.474 0 28.284z" fill="#b1c9eb"/><path d="m335.553 314.148c-7.786 7.81-20.409 7.81-28.194 0l-127.58-127.986c-7.786-7.81-7.786-20.474 0-28.284 7.786-7.81 20.409-7.81 28.194 0l127.58 127.986c7.786 7.81 7.786 20.474 0 28.284z" fill="#e3f0fb"/><path d="m186.442 224.337-57.158 40.15c-4.51 3.168-10.725 2.068-13.883-2.456s-2.062-10.76 2.448-13.927l57.158-40.15c4.51-3.168 10.725-2.068 13.883 2.456 3.157 4.524 2.061 10.759-2.448 13.927zm-65.166 115.267c-3.893-3.905-10.204-3.905-14.097 0s-3.893 10.237 0 14.142 10.204 3.905 14.097 0c3.893-3.905 3.893-10.237 0-14.142zm-2.872-58.483c-3.158-4.524-9.373-5.624-13.883-2.456l-23.697 16.645c-4.51 3.168-5.606 9.403-2.448 13.927s9.374 5.624 13.883 2.456l23.696-16.645c4.51-3.168 5.606-9.403 2.449-13.927zm-19.097-42.429c5.173-1.889 7.841-7.627 5.958-12.817-1.883-5.19-7.603-7.865-12.776-5.977l-20.057 7.323c-5.173 1.889-7.841 7.627-5.958 12.817s7.603 7.865 12.776 5.977zm92.455 30.201c3.893 3.905 10.204 3.905 14.097 0l14.097-14.142c3.893-3.905 3.893-10.237 0-14.142s-10.205-3.905-14.097 0l-14.097 14.142c-3.893 3.905-3.893 10.237 0 14.142zm-68.226-59.808 29.56-10.793c5.173-1.889 7.841-7.627 5.958-12.817s-7.603-7.866-12.776-5.977l-29.56 10.793c-5.173 1.889-7.841 7.627-5.958 12.817 1.882 5.19 7.602 7.866 12.776 5.977zm61.177 66.879c-3.893-3.905-10.204-3.905-14.097 0l-21.146 21.213c-3.893 3.905-3.893 10.237 0 14.142s10.204 3.905 14.097 0l21.146-21.213c3.893-3.905 3.893-10.236 0-14.142zm89.409 24.945c-5.173-1.889-10.893.787-12.776 5.977l-23.865 65.779c-1.883 5.19.784 10.928 5.958 12.817 5.173 1.889 10.893-.787 12.776-5.977l23.865-65.779c1.882-5.189-.785-10.928-5.958-12.817zm-34.276.999 11.868-17.003c3.158-4.524 2.062-10.76-2.448-13.927-4.51-3.168-10.725-2.068-13.883 2.456l-11.868 17.003c-3.158 4.524-2.062 10.76 2.448 13.927s10.725 2.069 13.883-2.456zm-17.579 49.204c-5.173-1.889-10.894.787-12.776 5.977l-9.192 25.336c-1.883 5.19.785 10.928 5.958 12.817s10.893-.787 12.776-5.977l9.192-25.336c1.882-5.19-.785-10.929-5.958-12.817zm-15.667-37.332c-4.51-3.168-10.725-2.068-13.883 2.456l-21.838 31.287c-3.158 4.524-2.062 10.76 2.448 13.927 4.51 3.168 10.725 2.068 13.883-2.456l21.838-31.287c3.158-4.524 2.062-10.76-2.448-13.927zm-48.592 77.027c-4.51-3.167-10.725-2.068-13.883 2.456-3.158 4.524-2.062 10.759 2.448 13.927 4.51 3.167 10.725 2.068 13.883-2.456s2.061-10.759-2.448-13.927z" fill="#fff5f5"/></g></svg>