<svg id="Capa_1" enable-background="new 0 0 501 501" height="512" viewBox="0 0 501 501" width="512" xmlns="http://www.w3.org/2000/svg"><g><path d="m12.417 314.043c-4.521-18.607-6.917-38.045-6.917-58.043 0-135.31 109.69-245 245-245s245 109.69 245 245c0 19.998-2.396 39.436-6.917 58.043-66.766-29.582-149.062-47.043-238.083-47.043s-171.317 17.461-238.083 47.043z" fill="#81ade2"/><path d="m90.497 441.543c-47.207-40.745-78.698-99.201-84.152-165.045 5.892-21.055 25.219-36.498 48.155-36.498.118 0 .236.001.355.002 2.425-16.962 17.012-30.002 34.645-30.002 12.647 0 23.728 6.708 29.877 16.761 7.383-4.298 15.965-6.761 25.123-6.761 27.614 0 50 22.386 50 50 0 3.425-.345 6.769-1.001 10h21.001v-30h129.965c-1.918-5.307-2.965-11.031-2.965-17 0-27.614 22.386-50 50-50 20.227 0 37.648 12.011 45.522 29.29 3.876-1.479 8.082-2.29 12.478-2.29 19.33 0 35 15.67 35 35 0 1.698-.122 3.368-.355 5.002.118-.001.237-.002.355-.002 3.763 0 7.428.417 10.954 1.205.031 1.595.046 3.193.046 4.795 0 74.156-32.946 140.618-85 185.545-42.926 37.05-277.076 37.049-320.003-.002z" fill="#528ed7"/><path d="m424.759 127.993-5.123-15.164c-.295-.872-.98-1.557-1.852-1.852l-15.164-5.123c-2.677-.904-2.677-4.69 0-5.594l15.164-5.123c.872-.295 1.557-.98 1.852-1.852l5.123-15.164c.904-2.677 4.69-2.677 5.594 0l5.123 15.164c.295.872.98 1.557 1.852 1.852l15.164 5.123c2.677.904 2.677 4.69 0 5.594l-15.164 5.123c-.872.295-1.557.98-1.852 1.852l-5.123 15.164c-.904 2.676-4.689 2.676-5.594 0z" fill="#f5c02c"/><path d="m88.646 331.88-5.123-15.164c-.295-.872-.98-1.557-1.852-1.852l-15.164-5.123c-2.677-.904-2.677-4.69 0-5.594l15.164-5.123c.872-.295 1.557-.98 1.852-1.852l5.123-15.164c.904-2.677 4.69-2.677 5.594 0l5.123 15.164c.295.872.98 1.557 1.852 1.852l15.164 5.123c2.677.904 2.677 4.69 0 5.594l-15.164 5.123c-.872.295-1.557.98-1.852 1.852l-5.123 15.164c-.904 2.676-4.689 2.676-5.594 0z" fill="#f19b0b"/><path d="m410.5 420v21.545c-42.926 37.049-98.847 59.455-160 59.455s-117.074-22.406-160-59.455v-21.545c0-38.66 31.34-70 70-70h180c38.66 0 70 31.34 70 70z" fill="#8f4d24"/><path d="m120.503 463.705c-10.57-6.63-20.598-14.044-30.003-22.16v-21.545c0-38.66 31.34-70 70-70h53.304c-38.66 0-70 31.34-70 70v29.954c0 10.869-10.835 18.752-20.992 14.882-.829-.315-1.606-.689-2.309-1.131z" fill="#8f4d24"/><path d="m410.5 420v21.545c-42.926 37.049-98.847 59.455-160 59.455-47.757 0-92.322-13.664-130-37.296v-43.704c0-38.66 31.34-70 70-70h150c38.66 0 70 31.34 70 70z" fill="#ab5e2e"/><path d="m140.5 260c-13.807 0-25-11.193-25-25v-10c0-13.807 11.193-25 25-25 13.807 0 25 11.193 25 25v10c0 13.807-11.193 25-25 25z" fill="#d9a091"/><path d="m130.5 220v20c0 8.178 3.927 15.439 9.998 20-13.806-.001-24.998-11.194-24.998-25v-10c0-13.806 11.192-24.999 24.998-25-6.071 4.561-9.998 11.822-9.998 20zm230-20v-20c0-60.751-49.249-110-110-110-60.751 0-110 49.249-110 110v40c0 60.751 49.249 110 110 110 47.027 0 87.162-29.511 102.895-71.024 2.252.666 4.637 1.024 7.105 1.024 13.807 0 25-11.193 25-25v-10c0-13.807-11.193-25-25-25z" fill="#c68978"/><path d="m360.5 180v40c0 50.792-34.425 93.543-81.216 106.195-9.023 2.44-18.545 2.44-27.568 0-46.791-12.652-81.216-55.403-81.216-106.195v-40c0-55.663 41.345-101.669 95-108.985 53.655 7.316 95 53.322 95 108.985z" fill="#d9a091"/><path d="m236 226.731c-2.929-2.93-2.929-7.678 0-10.607 2.929-2.928 7.678-2.928 10.606 0 1.042 1.042 2.424 1.616 3.893 1.616s2.851-.574 3.893-1.616c2.929-2.928 7.678-2.928 10.606 0 2.929 2.93 2.929 7.678 0 10.607-3.875 3.875-9.024 6.009-14.499 6.009s-10.624-2.134-14.499-6.009z" fill="#b76c54"/><path d="m211.696 183.384c2.929 2.93 2.929 7.678 0 10.607-3.875 3.875-9.024 6.009-14.5 6.009s-10.625-2.134-14.5-6.009c-2.929-2.93-2.929-7.678 0-10.607 2.929-2.928 7.678-2.928 10.606 0 1.042 1.042 2.424 1.616 3.893 1.616s2.851-.574 3.893-1.616c2.93-2.928 7.679-2.928 10.608 0zm106.607 0c-2.929-2.928-7.678-2.928-10.606 0-1.042 1.042-2.424 1.616-3.893 1.616s-2.851-.574-3.893-1.616c-2.929-2.928-7.678-2.928-10.606 0-2.929 2.93-2.929 7.678 0 10.607 3.875 3.875 9.024 6.009 14.5 6.009 5.475 0 10.625-2.134 14.5-6.009 2.927-2.929 2.927-7.678-.002-10.607z" fill="#7d402d"/><path d="m185.647 438.305 2.294 54.635c-10.039-2.643-19.825-5.908-29.317-9.75l1.885-44.885c.283-6.736 5.826-12.052 12.569-12.052s12.286 5.316 12.569 12.052zm154.843 0c-.283-6.736-5.826-12.052-12.569-12.052-6.742 0-12.286 5.316-12.569 12.052l-2.294 54.635c10.039-2.643 19.825-5.908 29.316-9.75zm-89.99-36.305c-6.742 0-12.286 5.315-12.569 12.052l-3.629 86.421c5.354.35 10.755.527 16.198.527s10.844-.178 16.198-.527l-3.629-86.421c-.283-6.737-5.827-12.052-12.569-12.052z" fill="#8f4d24"/><path d="m234.5 15c0 8.284-6.716 15-15 15s-15-6.716-15-15 6.716-15 15-15 15 6.716 15 15zm120 5c-11.046 0-20 8.954-20 20s8.954 20 20 20 20-8.954 20-20-8.954-20-20-20z" fill="#f7e6b0"/><path d="m404.5 175c0 19.33-15.67 35-35 35s-35-15.67-35-35c0-5.38 1.214-10.475 3.383-15.029-23.827-.842-42.938-20.207-43.374-44.135-6.127 2.678-12.895 4.164-20.009 4.164-11.657 0-22.382-3.989-30.885-10.677-5.495 3.59-12.061 5.677-19.115 5.677-1.779 0-3.526-.133-5.233-.389-2.309 22.687-21.471 40.389-44.767 40.389-.488 0-.973-.009-1.457-.024.948 3.176 1.457 6.54 1.457 10.024 0 19.33-15.67 35-35 35s-35-15.67-35-35c0-17.586 12.97-32.142 29.866-34.625-3.112-6.117-4.866-13.041-4.866-20.375 0-24.853 20.147-45 45-45 6.014 0 11.752 1.18 16.996 3.32 4.809-13.587 17.77-23.32 33.004-23.32 2.172 0 4.298.198 6.361.577 8.56-15.263 24.895-25.577 43.639-25.577 27.614 0 50 22.386 50 50 0 .867-.022 1.729-.066 2.584 4.711-1.673 9.782-2.584 15.066-2.584 24.853 0 45 20.147 45 45 0 9.551-2.976 18.406-8.05 25.69 16.001 3.224 28.05 17.36 28.05 34.31z" fill="#fff5f5"/><path d="m376.775 303.222c0 12.825-10.396 23.221-23.221 23.221-1.495 0-2.957-.141-4.373-.411-1.424 6.802-7.456 11.91-14.681 11.91-2.191 0-4.273-.47-6.15-1.315-21.766 26.75-51.286 36.653-77.85 41.266-49.803-8.649-87-42.926-87-83.894v-18.5c0-19.606 20.638-35.5 46.097-35.5h81.806c1.277 0 2.542.04 3.792.119 1.733-5.037 6.513-8.657 12.138-8.657 7.088 0 12.833 5.746 12.833 12.833 0 .289-.01.575-.029.859 24.639-20.172 40.363-50.826 40.363-85.153v60c0 13.359-.722 25.583-2.073 36.769 6.379 1.726 11.073 7.555 11.073 14.481 0 4.547-2.023 8.621-5.218 11.372 7.425 3.874 12.493 11.645 12.493 20.6z" fill="#fff5f5"/><path d="m250.5 290c-16.569 0-30-13.431-30-30 0-4.142 3.358-7.5 7.5-7.5h45c4.142 0 7.5 3.358 7.5 7.5 0 16.569-13.431 30-30 30z" fill="#d9a091"/><path d="m258 289.055c-2.397.617-4.91.945-7.5.945-16.568 0-30-13.431-30-30 0-4.142 3.358-7.5 7.5-7.5h15c-4.142 0-7.5 3.358-7.5 7.5 0 13.979 9.561 25.724 22.5 29.055z" fill="#c68978"/><path d="m49.101 203.205-3.305-9.783c-.19-.563-.632-1.005-1.195-1.195l-9.783-3.305c-1.727-.583-1.727-3.026 0-3.609l9.783-3.305c.563-.19 1.005-.632 1.195-1.195l3.305-9.783c.583-1.727 3.026-1.727 3.609 0l3.305 9.783c.19.563.632 1.005 1.195 1.195l9.783 3.305c1.727.583 1.727 3.026 0 3.609l-9.783 3.305c-.563.19-1.005.632-1.195 1.195l-3.305 9.783c-.584 1.727-3.026 1.727-3.609 0z" fill="#f7e6b0"/><path d="m227.44 9.559c1.826 3.197 1.654 6.733-.384 7.897s-5.171-.484-6.997-3.681-1.654-6.733.384-7.897c2.039-1.164 5.171.484 6.997 3.681zm128.425 17.819c-2.857 1.632-3.098 6.588-.539 11.07 2.56 4.482 6.951 6.792 9.808 5.16s3.098-6.588.538-11.07c-2.558-4.481-6.95-6.792-9.807-5.16z" fill="#fff5f5"/><path d="m320.144 49.559c-8.894-9.559-63.394-21.059-84.771 10.478-.52-.024-29.623-1.287-34.187 25.648-.161.95-.648 1.812-1.278 2.542-.01.012-.02.023-.031.035-1.225 1.421-3.07 2.161-4.934 1.946-1.185-.137-2.39-.207-3.611-.207-17.213 0-29.876 12.839-33.083 29.75-2.057 10.845 1.092 19.216 4.244 24.537 2.184 3.687 1.593 8.441-1.444 11.465-3.266 3.252-5.05 7.122-5.05 13.171 0 6.812 6.779 13.014 11.056 17.659-1.38 1.759-2.925 3.383-4.611 4.848 1.903 2.193 3.055 5.056 3.055 8.188 0 6.703-5.275 12.173-11.9 12.486 7.241 13.438 17.196 25.198 29.131 34.546 7.564-4.185 16.841-6.65 26.866-6.65h4.901c-6.259 7.526-9.998 17.053-9.998 27.415v22.972c0 36.056 18.687 67.938 47.304 87.274-.434.08-.868.157-1.304.233-30.411-5.281-64.698-18.802-86.788-55.511-1.637.366-3.34.56-5.087.56-12.825 0-23.222-10.397-23.222-23.222 0-5.889 2.192-11.266 5.805-15.359-4.598-2.563-7.708-7.474-7.708-13.111 0-6.254 3.827-11.613 9.266-13.865-1.474-11.377-2.265-23.805-2.265-37.387v-20.014c-.797.022-1.6.018-2.409-.014-17.69-.694-32.276-14.808-33.504-32.469-1.3-18.691 12.088-34.528 29.779-37.128-3.554-6.987-5.338-15.025-4.759-23.525 1.511-22.184 19.412-40.15 41.592-41.731 7.215-.514 14.101.673 20.297 3.202 4.809-13.588 17.77-23.321 33.004-23.321 2.172 0 4.298.198 6.361.577 8.56-15.263 24.895-25.577 43.639-25.577 20.332 0 37.829 12.136 45.644 29.559z" fill="#f7e6b0"/><path d="m412.131 346.332c-.195.002-.389.002-.584 0-14.086-.15-23.979-14.102-19.894-27.584 4.126-13.621 11.083-26.012 20.187-36.487 9.104 10.476 16.06 22.866 20.187 36.487 4.083 13.482-5.809 27.434-19.896 27.584z" fill="#e3f0fb"/><path d="m454.677 279.449c-.118.001-.236.001-.355 0-8.552-.091-14.558-8.562-12.078-16.747 2.505-8.27 6.729-15.792 12.256-22.152 5.527 6.36 9.751 13.883 12.256 22.152 2.479 8.186-3.527 16.656-12.079 16.747zm-30.527 51.164c-.294.003-.588.003-.882 0-13.33-.142-24.171-8.473-28.885-19.683-1.014 2.556-1.926 5.163-2.73 7.817-4.084 13.482 5.808 27.434 19.894 27.584.195.002.39.002.584 0 10.315-.11 18.381-7.621 20.357-16.929-2.635.757-5.427 1.18-8.338 1.211z" fill="#bbe0fb"/></g></svg>