<svg id="Capa_1" enable-background="new 0 0 501 501" height="512" viewBox="0 0 501 501" width="512" xmlns="http://www.w3.org/2000/svg"><g><path d="m490 250.5c0 135.31-109.69 245-245 245s-245-109.69-245-245c0-10.268.632-20.388 1.858-30.323.193-1.565 6.204-2.326 6.427-3.882 1.072-7.491 2.482-14.872 4.215-22.128.516-2.16-4.742-5.109-4.169-7.247 27.999-104.486 123.35-181.42 236.669-181.42 135.31 0 245 109.69 245 245z" fill="#003c79"/><path d="m490 250.5c0 5.145-.159 10.253-.471 15.319-27.873 79.317-103.435 136.181-192.279 136.181-112.528 0-203.75-91.222-203.75-203.75 0-88.844 56.864-164.406 136.181-192.279 5.066-.312 10.174-.471 15.319-.471 135.31 0 245 109.69 245 245z" fill="#004b92"/><path d="m397 215.995v28.99c0 64.197-24.789 117.909-57.979 131.462-6.405-2.615-12.497-6.727-18.159-12.121-15.464 46.885-42.988 81.765-75.862 93.771-32.874-12.006-60.397-46.886-75.862-93.771-5.662 5.394-11.754 9.505-18.159 12.121-33.19-13.553-57.979-67.265-57.979-131.462v-28.99c0-30.723 13.754-55.629 30.72-55.629h54.518c3.755 0 7.353 1.22 10.68 3.454 4.45-2.244 9.182-3.454 14.089-3.454h83.987c4.906 0 9.638 1.209 14.089 3.454 3.326-2.233 6.924-3.454 10.68-3.454h54.518c16.965 0 30.719 24.906 30.719 55.629z" fill="#c98001"/><path d="m397 215.995v28.99c0 64.197-24.789 117.909-57.979 131.462-6.405-2.615-12.497-6.727-18.159-12.121-1.386 4.202-2.869 8.307-4.443 12.308-94.419 94.866-188.37-106.276-200.008-214.684 2.343-1.035 4.79-1.584 7.309-1.584h54.518c3.755 0 7.353 1.22 10.68 3.454 4.45-2.244 9.182-3.454 14.089-3.454h83.987c4.906 0 9.638 1.209 14.089 3.454 3.326-2.233 6.924-3.454 10.68-3.454h54.518c16.965 0 30.719 24.906 30.719 55.629z" fill="#d98800"/><path d="m303.146 426.38-5.123-15.164c-.295-.872-.98-1.557-1.852-1.852l-15.164-5.123c-2.677-.904-2.677-4.69 0-5.594l15.164-5.123c.872-.295 1.557-.98 1.852-1.852l5.123-15.164c.904-2.677 4.69-2.677 5.594 0l5.123 15.164c.295.872.98 1.557 1.852 1.852l15.164 5.123c2.677.904 2.677 4.69 0 5.594l-15.164 5.123c-.872.295-1.557.98-1.852 1.852l-5.123 15.164c-.904 2.676-4.689 2.676-5.594 0z" fill="#f7e6b0"/><path d="m245 143.193c8.542 13.095 14.32 38.191 14.32 66.999v39.944c0 43.138-5.348 82.84-14.32 114.364-8.972-31.524-14.32-71.226-14.32-114.364v-39.944c0-28.808 5.778-53.903 14.32-66.999zm-50.132 70.391c0-4.505.311-8.878.896-13.053h-8.515c-9.734 0-17.625 14.289-17.625 31.915v16.632c0 31.924 10.685 59.329 25.932 71.128 4.215 3.262 10.128 3.44 14.375.22l.068-.052c-9.478-21.804-15.132-49.314-15.132-79.216v-27.574zm107.883-13.053h-8.515c.585 4.175.896 8.549.896 13.053v27.574c0 29.902-5.654 57.412-15.132 79.216l.068.052c4.247 3.22 10.16 3.042 14.375-.22 15.247-11.799 25.932-39.204 25.932-71.128v-16.632c.001-17.626-7.89-31.915-17.624-31.915z" fill="#c98001"/><path d="m339.1 104.39c15.516 23.298 48.446 62.799 79.015 81.967 34.651 21.729 76.902-11.883 81.486 0 2.369 6.142 9.583 36.192-61.115 61.115-94.388 33.273-154.717-15.138-185.815-56.653-1-1-1.978-2.012-2.936-3.037-52.875-56.593 29.735-139.203 86.328-86.328 1.465 1.368 2.652 2.358 3.037 2.936z" fill="#fdcb6b"/><path d="m435.539 208.5s-18.375 4.25-28.539 2.412c-39.893-7.214-68.225-30.295-85.232-52.999-.795-.795-1.574-1.601-2.336-2.417-4.258-4.557-7.412-9.327-9.594-14.175-3.368-7.481-12.932-9.823-19.053-4.361-.199.178-.397.357-.595.537-3.697 3.377-3.847 9.034-.627 12.868.031.038.056.069.073.094 42.288 63.23 103.538 82.897 103.538 82.897s-18.375 4.25-28.539 2.412c-32.656-5.905-57.566-22.444-74.858-40.704-2.351-2.483-8.486-9.69-13.306-15.597-2.494-3.056-7.478-1.394-7.584 2.55-.373 13.997 4.586 28.633 16.934 41.849.958 1.025 1.937 2.038 2.937 3.037.472.63.95 1.261 1.436 1.894-15.416-11.561-27.875-25.102-37.521-37.98-1-1-1.979-2.012-2.937-3.037-1.72-1.841-3.297-3.71-4.735-5.6-1.438 1.891-3.015 3.76-4.734 5.6-.958 1.025-1.937 2.038-2.937 3.037-31.098 41.515-91.427 89.927-185.815 56.653-25.205-8.885-40.506-18.422-49.656-27.295 1.411-11.434 3.611-22.623 6.542-33.513 16.543 5.018 41.538 13.456 63.486-.307 26.04-16.329 53.794-47.412 71.037-70.665 2.999-4.044 12.203-16.567 21.892-22.604 29.344-18.284 62.695-5.499 80.19 18.456 19.694-26.88 59.437-39.635 91.058-10.091 1.465 1.369 2.653 2.358 3.038 2.937 4.117 6.182 9.46 13.505 15.66 21.286-6.62-3.045-13.362-4.642-20.01-5.007-2.61-.144-4.252 2.768-2.762 4.915l.013.019c42.286 63.232 103.536 82.899 103.536 82.899z" fill="#f4aa39"/><path d="m217.993 166.853c-1.153 5.256-3.328 10.456-6.681 15.407-2.438 3.6-22.235 23.083-28.499 28.129-17.255 13.9-39.787 25.674-67.192 28.069-23.371 2.042-37.066-5.458-22.121-5.458 29.172 0 85.207-53.497 110.277-74.662 6.377-5.384 16.005.363 14.216 8.515zm-60.436 8.457c4.935-4.994 21.642-25.288 23.803-29.827 2.301-4.833 3.624-9.754 4.103-14.628.841-8.566-9.946-12.969-15.22-6.167-14.426 18.605-36.602 45.378-56.994 59.563-23.015 16.009-44.661 23.341-55.416 26.288-1.805.495-1.688 3.089.15 3.445 40.963 7.915 77.918-16.761 99.574-38.674z" fill="#d98800"/><path d="m40.846 312.492-5.123-15.164c-.295-.872-.98-1.557-1.852-1.852l-15.164-5.123c-2.677-.904-2.677-4.69 0-5.594l15.164-5.123c.872-.295 1.557-.98 1.852-1.852l5.123-15.164c.904-2.677 4.69-2.677 5.594 0l5.123 15.164c.295.872.98 1.557 1.852 1.852l15.164 5.123c2.677.904 2.677 4.69 0 5.594l-15.164 5.123c-.872.295-1.557.98-1.852 1.852l-5.123 15.164c-.904 2.676-4.69 2.676-5.594 0z" fill="#f4aa39"/><path d="m252.245 134.787-6.941-20.544c-.399-1.182-1.327-2.11-2.509-2.509l-20.544-6.941c-3.626-1.225-3.626-6.354 0-7.579l20.544-6.941c1.182-.399 2.11-1.327 2.509-2.509l6.941-20.544c1.225-3.626 6.354-3.626 7.579 0l6.941 20.544c.399 1.182 1.327 2.11 2.509 2.509l20.544 6.941c3.626 1.225 3.626 6.354 0 7.579l-20.544 6.941c-1.182.399-2.11 1.327-2.509 2.509l-6.941 20.544c-1.225 3.626-6.353 3.626-7.579 0z" fill="#fff5f5"/></g></svg>