<svg id="Capa_1" enable-background="new 0 0 501 501" height="512" viewBox="0 0 501 501" width="512" xmlns="http://www.w3.org/2000/svg"><g><path d="m0 250.5c0-135.31 109.69-245 245-245 35.88 0 69.958 7.713 100.667 21.571 5.128 2.314 2.9 12.933 7.833 15.582 41.999 22.558 76.66 57.009 99.477 98.848 2.299 4.216 11.74.375 13.794 4.737 14.9 31.635 23.229 66.976 23.229 104.262 0 135.31-109.69 245-245 245-37.247 0-72.552-8.312-104.163-23.181-4.776-2.247 4.671-12.284.07-14.824-41.879-23.118-76.269-58.137-98.611-100.495-2.328-4.413-18.664-1.265-20.725-5.833-13.858-30.709-21.571-64.787-21.571-100.667z" fill="#ab5e2e"/><path d="m14.567 333.916c-9.427-26.036-14.567-54.126-14.567-83.416 0-135.31 109.69-245 245-245 33.079 0 64.627 6.556 93.415 18.439-169.945 9.591-307.037 142.06-323.848 309.977z" fill="#9d5528"/><path d="m175.589 197.148 170.077-170.078c53.223 24.017 96.326 66.492 121.151 119.265l-19.6 20.177c-4.015 4.133-10.826 3.481-13.984-1.339l-7.207-11.001c-2.169-3.311-7.144-2.908-8.751.709l-36.275 81.619-85.203 80.856z" fill="#e7ac8b"/><path d="m21.57 351.166 227.633-227.633 120.208 120.208-228.576 228.577c-52.773-24.826-95.248-67.929-119.265-121.152z" fill="#fff5f5"/><path d="m386 256.5c0 16.569-13.431 30-30 30s-30-13.431-30-30c0-9.802 4.702-18.506 11.972-23.981-10.145-4.811-17.16-15.146-17.16-27.121 0-16.569 13.431-30 30-30s30 13.431 30 30c0 9.802-4.702 18.506-11.972 23.981 10.144 4.812 17.16 15.147 17.16 27.121zm-83.293 80.526c-10.237 0-19.34 4.851-25.137 12.38-4.543-6.261-11.92-10.333-20.247-10.333-13.807 0-25 11.193-25 25s11.193 25 25 25c6.486 0 12.396-2.47 16.839-6.521 5.135 10.588 15.988 17.889 28.545 17.889 17.511 0 31.707-14.196 31.707-31.707.001-17.512-14.195-31.708-31.707-31.708z" fill="#fff5f5"/><path d="m411 211.5c0-13.807 11.193-25 25-25s25 11.193 25 25-11.193 25-25 25-25-11.193-25-25z" fill="#63bcfa"/><path d="m437.287 196.5c0-13.807 11.193-25 25-25s25 11.193 25 25-11.193 25-25 25-25-11.193-25-25z" fill="#91cefb"/><path d="m301 141.5c0 13.807-11.193 25-25 25-7.171 0-13.637-3.02-18.196-7.856l-221.026 221.025c-5.669-9.119-10.756-18.637-15.208-28.503l96.137-96.137c-6.399-4.528-10.576-11.987-10.576-20.422 0-5.787 1.966-11.114 5.267-15.351-9.358-3.614-15.997-12.696-15.997-23.329 0-13.807 11.193-25 25-25s25 11.193 25 25c0 5.787-1.966 11.114-5.267 15.351 4.63 1.788 8.594 4.915 11.418 8.905l68.138-68.138c-2.793-4.035-4.43-8.933-4.43-14.212 0-13.807 11.193-25 25-25 7.742 0 14.661 3.519 19.247 9.045 4.259-3.367 9.641-5.378 15.492-5.378 13.808 0 25.001 11.193 25.001 25z" fill="#e3f0fb"/><path d="m331 81.5c0-13.807 11.193-25 25-25s25 11.193 25 25-11.193 25-25 25-25-11.193-25-25zm140 175c16.569 0 30-13.431 30-30s-13.431-30-30-30-30 13.431-30 30 13.431 30 30 30z" fill="#e3f0fb"/><path d="m112.367 383.134c-13.864-13.864-13.864-36.341 0-50.205l84.146-84.146c13.864-13.864 36.341-13.864 50.205 0 13.864 13.864 13.864 36.341 0 50.205l-84.146 84.146c-13.865 13.863-36.342 13.863-50.205 0z" fill="#54469b"/><path d="m303.992 348.485-156.977-156.977c-5.858-5.858-5.858-15.355 0-21.213l42.426-42.426c5.858-5.858 15.355-5.858 21.213 0l156.978 156.978c5.858 5.858 5.858 15.355 0 21.213l-42.426 42.426c-5.858 5.857-15.356 5.857-21.214-.001z" fill="#528ed7"/><path d="m179.592 224.084-32.577-32.577c-5.858-5.858-5.858-15.355 0-21.213l42.426-42.427c5.858-5.858 15.355-5.858 21.213 0l32.577 32.577c-5.858-5.857-15.355-5.856-21.212.001l-42.426 42.427c-5.858 5.858-5.858 15.355-.001 21.212z" fill="#015aad"/><path d="m308.185 225.398h-127.279l-6.569-6.569v-33.431h93.848zm20 20h-127.279l30 30h127.279z" fill="#91cefb"/><path d="m42.296 388.15 54.515-54.514c17.964-17.964 47.09-17.964 65.054 0 17.964 17.964 17.964 47.089 0 65.054l-54.515 54.514c-25.562-17.391-47.662-39.492-65.054-65.054z" fill="#e43950"/><path d="m64.642 416.321c-8.112-8.818-15.585-18.232-22.347-28.17l54.515-54.514c17.964-17.964 47.09-17.964 65.054 0 1.455 1.455 2.791 2.983 4.01 4.572-13.036-1.103-26.452 3.333-36.427 13.308l-26.617 26.617c-.002.002-.003.003-.005.005z" fill="#c92e43"/><path d="m140.651 382.617c-7.668 7.668-20.1 7.668-27.768 0s-7.668-20.1 0-27.768 20.1-7.668 27.768 0 7.668 20.1 0 27.768z" fill="#968dca"/><path d="m134.435 350.652c2.259.957 4.375 2.356 6.216 4.197s3.24 3.957 4.197 6.216l-25.749 25.749c-2.259-.957-4.375-2.356-6.216-4.197s-3.24-3.957-4.197-6.216z" fill="#6354b0"/><path d="m289.85 376.77-171.12-171.12c-5.858-5.858-5.858-15.355 0-21.213l35.355-35.355c5.858-5.858 15.355-5.858 21.213 0l171.12 171.12c5.858 5.858 5.858 15.355 0 21.213l-35.355 35.355c-5.857 5.857-15.355 5.857-21.213 0z" fill="#6354b0"/><path d="m346.419 341.414-35.355 35.355c-5.858 5.858-15.355 5.858-21.213 0l-60.458-60.458-15.026 15.026c-7.485 7.485-19.62 7.485-27.104 0-7.485-7.485-7.485-19.62 0-27.104l7.955-7.955c3.905-3.905 3.905-10.237 0-14.142l-55.154-55.154c-5.858-5.858-5.858-15.355 0-21.213l35.355-35.355c5.858-5.858 15.355-5.858 21.213 0l149.787 149.787c5.858 5.858 5.858 15.355 0 21.213z" fill="#6e61b5"/><path d="m214.807 29.303c-2.929-2.929-2.929-7.678 0-10.606 2.929-2.929 7.678-2.929 10.606 0 20.459 20.459 28.648 48.611 24.57 75.23h-15.207c4.227-22.72-2.43-47.084-19.969-64.624zm.715 422.063c-2.929 2.929-2.929 7.678 0 10.606 2.929 2.929 7.678 2.929 10.606 0 17.54-17.539 41.904-24.196 64.624-19.97v-15.207c-26.618-4.077-54.771 4.112-75.23 24.571zm-112.022-354.866c-4.142 0-7.5 3.358-7.5 7.5 0 24.805-12.522 46.74-31.575 59.816l10.753 10.753c21.706-15.938 35.822-41.636 35.822-70.569 0-4.142-3.358-7.5-7.5-7.5zm313.724 242.573h-15.207c-4.079 26.619 4.111 54.771 24.57 75.23 2.929 2.929 7.678 2.929 10.606 0 2.929-2.929 2.929-7.678 0-10.606-17.539-17.54-24.196-41.904-19.969-64.624zm81.579-68.766c-2.929-2.929-7.678-2.929-10.606 0-17.54 17.54-41.904 24.196-64.624 19.97v15.207c26.619 4.079 54.771-4.111 75.23-24.57 2.929-2.93 2.929-7.679 0-10.607z" fill="#8f4d24"/><path d="m372.025 79.463c0 7.988-4.749 14.463-10.607 14.463s-10.607-6.475-10.607-14.463 4.75-14.463 10.608-14.463 10.606 6.475 10.606 14.463zm109.582 128.351c-5.858 0-10.607 6.475-10.607 14.463s4.749 14.463 10.607 14.463 10.607-6.475 10.607-14.463-4.75-14.463-10.607-14.463z" fill="#fff5f5"/></g></svg>