<svg id="Capa_1" enable-background="new 0 0 501 501" height="512" viewBox="0 0 501 501" width="512" xmlns="http://www.w3.org/2000/svg"><g><path d="m26.577 336.655c-10.086-26.846-15.595-55.93-15.577-86.304.08-135.289 112.722-246.458 248.002-244.833 78.576.943 148.253 38.878 192.424 97.197 5.842 7.713.355 18.785-9.321 18.785h-296.49v225.676h-103.756c-6.782 0-12.897-4.173-15.282-10.521z" fill="#f5c02c"/><path d="m407.423 404.5c15.407 0 22.677 19.06 11.155 29.288-43.254 38.395-100.193 61.712-162.578 61.712-26.562 0-52.136-4.227-76.087-12.045-43.743-14.278-33.339-78.955 12.675-78.955z" fill="#002c5d"/><path d="m220.502 43.931h38.104v95.261h-38.104zm142.891 0v95.261h38.104v-95.261z" fill="#f9eecf"/><path d="m394.426 26.718c10.849 3.027 18.344 12.925 18.344 24.188 0 16.192-15.093 28.128-30.858 24.435-22.773-5.334-46.513-8.155-70.912-8.155s-48.139 2.821-70.912 8.155c-15.765 3.693-30.858-8.243-30.858-24.435 0-11.263 7.496-21.161 18.344-24.188 26.542-7.406 54.522-11.365 83.426-11.365s56.884 3.959 83.426 11.365zm-184.426 407.782h-74.284c-11.046 0-20-8.954-20-20v-283.413c0-16.569 13.431-30 30-30h54.284c16.569 0 30 13.431 30 30v283.413c0 11.045-8.954 20-20 20z" fill="#8f4d24"/><path d="m501 250.5c0 73.311-32.2 139.101-83.227 184h-235.38c-11.046 0-20-8.954-20-20v-283.413c0-16.569 13.431-30 30-30h257.789c12.216 15.853 22.534 33.244 30.614 51.832 1.049 2.414-6.603 4.72-5.63 7.174 4.161 10.493 7.619 21.342 10.314 32.489.628 2.597 9.879 5.339 10.423 7.968 3.342 16.126 5.097 32.833 5.097 49.95zm-88.23-199.593c0 16.192-15.093 28.128-30.858 24.435-22.773-5.334-46.513-8.155-70.912-8.155-5.593 0-11.152.148-16.672.441-14.77.783-27.147-11.046-27.147-25.836 0-13.653 10.605-24.978 24.232-25.829 6.478-.404 13.009-.609 19.588-.609 28.904 0 56.884 3.96 83.426 11.365 10.848 3.026 18.343 12.924 18.343 24.188z" fill="#ab5e2e"/><path d="m120 384.972-21.497 9.528-18.247-90.932-45.701 6.236c-4.925.672-9.462-2.776-10.134-7.701s2.776-9.462 7.701-10.134c-4.925.672-9.462-2.776-10.134-7.7-.672-4.925 2.776-9.462 7.7-10.134-4.925.672-9.462-2.776-10.134-7.701s2.776-9.462 7.7-10.134c-4.925.672-9.462-2.776-10.134-7.7-.672-4.925 2.776-9.462 7.7-10.134-4.925.672-9.462-2.776-10.134-7.701s2.776-9.462 7.701-10.134c-4.925.672-9.462-2.776-10.134-7.7-.672-4.925 2.776-9.462 7.701-10.134-4.925.672-9.462-2.776-10.134-7.701-.672-4.925 2.776-9.462 7.701-10.134-4.925.672-9.462-2.776-10.134-7.7-.672-4.925 2.776-9.462 7.7-10.134-4.925.672-9.462-2.776-10.134-7.701-.672-4.925 2.775-9.462 7.7-10.134-4.925.672-9.462-2.776-10.134-7.701s2.775-9.462 7.7-10.134c-4.925.672-9.462-2.776-10.134-7.701-.672-4.925 2.776-9.462 7.7-10.134l62.422-8.518c9.85-1.344 18.924 5.551 20.268 15.401l21.903 160.512c.104.762.158 1.519.167 2.268z" fill="#6e61b5"/><path d="m120 384.972-21.497 9.528-18.247-90.932-45.702 6.236c-4.925.672-9.462-2.776-10.134-7.701s2.776-9.462 7.7-10.134l38.642-5.273c9.85-1.344 16.745-10.418 15.401-20.268l-56.477 7.707c-4.925.672-9.462-2.776-10.134-7.701s2.776-9.462 7.701-10.134l56.477-7.707-2.434-17.835-56.477 7.707c-4.925.672-9.462-2.776-10.134-7.701s2.776-9.462 7.701-10.134l56.477-7.707-2.434-17.835-56.477 7.707c-4.925.672-9.462-2.776-10.134-7.701-.672-4.925 2.776-9.462 7.7-10.134l56.477-7.707-2.434-17.835-56.477 7.707c-4.925.672-9.462-2.776-10.134-7.701-.672-4.925 2.776-9.462 7.701-10.134l56.477-7.707c-1.344-9.85-10.418-16.745-20.268-15.401l-38.642 5.273c-4.925.672-9.462-2.776-10.134-7.701-.672-4.925 2.776-9.462 7.7-10.134l62.422-8.518c9.85-1.344 18.924 5.551 20.268 15.401l21.903 160.512c.104.762.158 1.519.166 2.268z" fill="#463b83"/><path d="m200 157.919v37.63c0 2.761-2.239 5-5 5h-80c-2.761 0-5-2.239-5-5v-37.63c0-2.761 2.239-5 5-5h80c2.761 0 5 2.239 5 5z" fill="#aba4d5"/><path d="m495.904 200.55h-319.221c-13.153 0-23.815-10.662-23.815-23.815s10.663-23.815 23.815-23.815h304.114c6.582 15.142 11.679 31.081 15.107 47.63z" fill="#c1bbdf"/><path d="m153.82 176.734c0 5.261-4.265 9.526-9.526 9.526s-9.526-4.265-9.526-9.526 4.265-9.526 9.526-9.526 9.526 4.265 9.526 9.526zm38.104-9.526c-5.261 0-9.526 4.265-9.526 9.526s4.265 9.526 9.526 9.526 9.526-4.265 9.526-9.526-4.265-9.526-9.526-9.526zm47.63 0c-5.261 0-9.526 4.265-9.526 9.526s4.265 9.526 9.526 9.526 9.526-4.265 9.526-9.526c.001-5.261-4.264-9.526-9.526-9.526zm142.892 0c-5.261 0-9.526 4.265-9.526 9.526s4.265 9.526 9.526 9.526 9.526-4.265 9.526-9.526-4.265-9.526-9.526-9.526zm47.63 0c-5.261 0-9.526 4.265-9.526 9.526s4.265 9.526 9.526 9.526 9.526-4.265 9.526-9.526-4.265-9.526-9.526-9.526zm47.63 0c-5.261 0-9.526 4.265-9.526 9.526s4.265 9.526 9.526 9.526 9.526-4.265 9.526-9.526-4.265-9.526-9.526-9.526z" fill="#8279c0"/><path d="m333.867 211.182h-45.735c-11.046 0-20-8.954-20-20v-26.682c0-11.046 8.954-20 20-20h45.735c11.046 0 20 8.954 20 20v26.682c0 11.046-8.954 20-20 20z" fill="#f7e6b0"/><path d="m333.867 211.182h-12.393c-11.046 0-20-8.954-20-20v-26.682c0-11.046 8.954-20 20-20h12.393c11.046 0 20 8.954 20 20v26.682c0 11.046-8.954 20-20 20z" fill="#f9eecf"/><path d="m320.526 178.965v13.165c0 5.261-4.265 9.526-9.526 9.526s-9.526-4.265-9.526-9.526v-13.165c-2.923-2.616-4.763-6.419-4.763-10.65 0-7.892 6.397-14.289 14.289-14.289s14.289 6.397 14.289 14.289c0 4.232-1.84 8.034-4.763 10.65z" fill="#002c5d"/><path d="m390 314.5c0 44.183-35.817 80-80 80s-80-35.817-80-80 35.817-80 80-80 80 35.817 80 80z" fill="#8f4d24"/><path d="m338.583 255.213c-1.556-.726-3.406-.052-4.132 1.504l-37.403 80.21c-1.926-1.584-4.081-2.953-6.445-4.056-15.126-7.053-33.106-.509-40.16 14.617s-.509 33.106 14.617 40.16c15.126 7.053 33.106.509 40.16-14.617l42.821-91.83c4.566-9.788.331-21.423-9.458-25.988zm-44.731 111.431c-3.526 7.562-12.514 10.833-20.075 7.307s-10.833-12.514-7.307-20.075c3.526-7.562 12.514-10.833 20.075-7.307s10.832 12.514 7.307 20.075z" fill="#c1bbdf"/><path d="m371.555 347.953c-7.053-15.126-25.033-21.67-40.16-14.617-2.364 1.103-4.519 2.472-6.445 4.056l-37.403-80.21c-.726-1.556-2.575-2.229-4.132-1.504-9.789 4.564-14.023 16.2-9.459 25.988l42.821 91.83c7.053 15.126 25.033 21.671 40.16 14.617s21.672-25.034 14.618-40.16zm-16.025 18.691c-3.526 7.562-12.514 10.833-20.075 7.307s-10.833-12.514-7.307-20.075c3.526-7.562 12.514-10.833 20.075-7.307s10.833 12.514 7.307 20.075zm-24.861-101.815 12.504 26.815-12.504 26.814-12.504-26.815z" fill="#fff5f5"/><path d="m317.443 334.5c0 3.558-2.885 6.443-6.443 6.443s-6.443-2.885-6.443-6.443 2.885-6.443 6.443-6.443 6.443 2.884 6.443 6.443z" fill="#8279c0"/><path d="m113.741 394.704-19.883-2.16 16.199-149.123 19.883 2.16z" fill="#aba4d5"/><path d="m25.779 334.5h181.519c6.473 0 11.24 6.056 9.721 12.347l-33.281 137.821c-73.239-22.574-131.826-78.564-157.959-150.168z" fill="#528ed7"/><path d="m48.326 334.5h158.972c6.473 0 11.24 6.056 9.721 12.347l-7.563 31.321c-11.467 47.488-69.839 65.31-105.68 32.113-23.028-21.33-41.951-47.03-55.45-75.781z" fill="#81ade2"/><path d="m182.949 355.079-13.454-37.67c-6.027-16.876-24.661-25.703-41.537-19.676-16.877 6.027-25.703 24.661-19.676 41.537l13.453 37.67c6.027 16.876 24.661 25.703 41.538 19.676s25.703-24.66 19.676-41.537zm-24.721 27.412c-9.087 3.245-19.121-1.507-22.366-10.594l-13.453-37.67c-3.246-9.087 1.507-19.121 10.594-22.366s19.121 1.507 22.366 10.595l13.453 37.669c3.246 9.087-1.507 19.12-10.594 22.366z" fill="#e43950"/><path d="m122.566 334.5 28.763-49.989 17.335 9.974-23.023 40.015z" fill="#6e61b5"/><path d="m139.881 246.661c-1.193 10.981-11.062 18.916-22.043 17.723s-18.916-11.062-17.723-22.043 11.062-18.916 22.043-17.723 18.916 11.062 17.723 22.043zm30.09 25.501c-9.574-5.509-21.801-2.213-27.31 7.361s-2.213 21.801 7.361 27.31 21.801 2.213 27.31-7.361 2.213-21.801-7.361-27.31z" fill="#f7e6b0"/><path d="m132.814 242c0 5.937-3.54 10.75-7.907 10.75s-7.907-4.813-7.907-10.75 3.54-10.75 7.907-10.75 7.907 4.813 7.907 10.75zm33.593 36.748c-4.367 0-7.907 4.813-7.907 10.75s3.54 10.75 7.907 10.75 7.907-4.813 7.907-10.75-3.54-10.75-7.907-10.75z" fill="#fff5f5"/></g></svg>