<svg id="Capa_1" enable-background="new 0 0 501 501" height="512" viewBox="0 0 501 501" width="512" xmlns="http://www.w3.org/2000/svg"><g><path d="m495.5 256c0 135.31-109.69 245-245 245s-245-109.69-245-245 109.69-245 245-245 245 109.69 245 245z" fill="#81ade2"/><path d="m320.5 350.538c-102.47 0-185.538-83.068-185.538-185.538 0-62.329 30.734-117.479 77.874-151.123 12.278-1.894 24.856-2.877 37.664-2.877 126.667 0 230.883 96.125 243.679 219.408-26.449 70.196-94.232 120.13-173.679 120.13z" fill="#91cefb"/><path d="m467.941 369c-40.846 78.438-122.888 132-217.441 132-2.006 0-4.006-.025-6-.073-10.006-58.128-60.418-100.604-119.401-100.604h-72.598c-7.231-9.904-13.738-20.371-19.442-31.323z" fill="#c92e43"/><path d="m191.553 210c0 27.614-17.909 50-40 50s-40-22.386-40-50 17.909-50 40-50 40 22.386 40 50z" fill="#8f4d24"/><path d="m193.605 290h-84.105c-8.284 0-15-6.716-15-15v-20c0-8.284 6.716-15 15-15h84.105c8.284 0 15 6.716 15 15v20c0 8.284-6.716 15-15 15z" fill="#ab5e2e"/><path d="m359.5 100h-78v-70h78z" fill="#463b83"/><path d="m264.5 25c0-8.284 6.716-15 15-15h82c8.284 0 15 6.716 15 15s-6.716 15-15 15h-82c-8.284 0-15-6.716-15-15zm97 35h-82c-8.284 0-15 6.716-15 15s6.716 15 15 15h82c8.284 0 15-6.716 15-15s-6.716-15-15-15z" fill="#8279c0"/><path d="m376.5 75c0 8.284-6.716 15-15 15h-50c-8.284 0-15-6.716-15-15s6.716-15 15-15h50c8.284 0 15 6.716 15 15zm-65-35h50c8.284 0 15-6.716 15-15s-6.716-15-15-15h-50c-8.284 0-15 6.716-15 15s6.716 15 15 15z" fill="#968dca"/><path d="m396.5 410h-152c-11.046 0-20-8.954-20-20v-270c0-22.091 17.909-40 40-40h112c22.091 0 40 17.909 40 40v270c0 11.046-8.954 20-20 20z" fill="#002c5d"/><path d="m396.5 410h-102c-11.046 0-20-8.954-20-20v-270c0-22.091 17.909-40 40-40h62c22.091 0 40 17.909 40 40v270c0 11.046-8.954 20-20 20z" fill="#463b83"/><path d="m395.5 215c0 41.421-33.579 75-75 75s-75-33.579-75-75 33.579-75 75-75 75 33.579 75 75z" fill="#d98800"/><path d="m193.605 290h-40.605c-8.284 0-15-6.716-15-15v-20c0-8.284 6.716-15 15-15h40.605c8.284 0 15 6.716 15 15v20c0 8.284-6.716 15-15 15zm-30.457-112.333c-8.09 0-14.648 9.253-14.648 20.667s6.558 20.667 14.648 20.667 14.648-9.253 14.648-20.667c.001-11.415-6.558-20.667-14.648-20.667z" fill="#c98001"/><path d="m244.5 320v180.928c-78.889-1.896-148.539-41.081-192-100.604v-80.324c0-22.091 17.909-40 40-40h112c22.091 0 40 17.909 40 40z" fill="#fcb30b"/><path d="m244.5 320v180.928c-53.291-1.281-102.366-19.578-142-49.665v-131.263c0-22.091 17.909-40 40-40h62c22.091 0 40 17.909 40 40z" fill="#f1ca50"/><path d="m213.5 375c0 35.898-29.101 65-65 65s-65-29.102-65-65 29.101-65 65-65 65 29.102 65 65z" fill="#d98800"/><path d="m148.905 419.998c-.27.003-.54.003-.811 0-19.544-.208-33.27-19.566-27.603-38.272 5.725-18.899 15.378-36.091 28.009-50.626 12.631 14.535 22.283 31.727 28.009 50.626 5.667 18.706-8.059 38.064-27.604 38.272z" fill="#f7e6b0"/><path d="m176.509 381.726c1.479 4.881 1.636 9.806.715 14.424-4.542 2.394-9.72 3.789-15.304 3.848-.316.003-.633.003-.949 0-19.763-.21-34.444-17.147-33.802-35.87 5.536-12.038 12.745-23.147 21.331-33.028 12.631 14.535 22.283 31.727 28.009 50.626z" fill="#fff5f5"/><path d="m338.792 191.032c9.318 9.318 15.405 21.377 17.367 34.408 1.831 12.158 7.255 23.49 15.577 32.541l50.151 54.548c3.593 3.908 3.467 9.955-.288 13.709-3.754 3.754-9.801 3.881-13.709.288l-54.548-50.151c-9.051-8.321-20.384-13.746-32.541-15.577-13.031-1.962-25.09-8.049-34.409-17.367l-133.77-133.77 52.4-52.4z" fill="#f7e6b0"/><path d="m301.189 209.997-113.137-113.137c-7.81-7.81-7.81-20.474 0-28.284 7.81-7.81 20.474-7.81 28.284 0l113.137 113.137c7.81 7.81 7.81 20.474 0 28.284-7.81 7.811-20.474 7.811-28.284 0z" fill="#fff5f5"/><path d="m168.923 16.994c19.526 19.526 22.692 48.019 7.071 63.64s-44.113 12.455-63.64-7.071-22.692-48.019-7.071-63.64 44.113-12.455 63.64 7.071z" fill="#8f4d24"/><path d="m226.943 72.111-59.471 59.471c-5.858 5.858-15.355 5.858-21.213 0l-14.142-14.142c-5.858-5.858-5.858-15.355 0-21.213l59.471-59.471c5.858-5.858 15.355-5.858 21.213 0l14.142 14.142c5.857 5.858 5.857 15.356 0 21.213z" fill="#ab5e2e"/><path d="m141.243 12.609c12.943 4.807 21.097 15 18.213 22.766s-15.715 10.164-28.658 5.357-21.097-15-18.213-22.766 15.715-10.165 28.658-5.357zm85.7 59.502-30.443 30.443c-5.858 5.858-15.355 5.858-21.213 0l-14.142-14.142c-5.858-5.858-5.858-15.355 0-21.213l30.443-30.443c5.858-5.858 15.355-5.858 21.213 0l14.142 14.142c5.857 5.858 5.857 15.356 0 21.213z" fill="#c98001"/><path d="m416.927 394.071c-.164.002-.329.002-.493 0-11.888-.127-20.236-11.901-16.789-23.279 3.482-11.495 9.353-21.952 17.036-30.793 7.683 8.841 13.554 19.298 17.036 30.793 3.446 11.378-4.902 23.153-16.79 23.279z" fill="#fcb30b"/><path d="m433.717 370.792c3.447 11.378-4.902 23.152-16.79 23.279-.164.002-.329.002-.493 0-11.888-.126-20.236-11.901-16.79-23.279.458-1.512.958-3.006 1.497-4.48 2.962 5.356 8.56 9.164 15.292 9.236.164.002.329.002.493 0 6.733-.072 12.33-3.88 15.292-9.236.541 1.475 1.041 2.969 1.499 4.48z" fill="#d98800"/></g></svg>