<svg id="Capa_1" enable-background="new 0 0 501 501" height="512" viewBox="0 0 501 501" width="512" xmlns="http://www.w3.org/2000/svg"><g><path d="m371.906 53.301c49.053 48.824 79.825 119.096 79.825 197.199 0 102.549-198.555 244.988-199.962 244.964-133.177-2.255-240.477-110.772-240.768-244.418-.268-122.909 89.048-224.313 206.741-242.604 12.175-1.892 123.722 14.559 154.164 44.859z" fill="#e43950"/><path d="m171.166 480.415c-93.338-34.452-159.936-124.118-160.165-229.369-.268-122.909 89.048-224.313 206.74-242.604 12.176-1.892 123.723 14.558 154.165 44.859 13.078 13.017 24.857 27.56 35.1 43.368-74.051-10.843-138.906 20.481-196.006 77.831-85.219 85.592-107.241 210.439-39.834 305.915z" fill="#c92e43"/><path d="m279.493 468.327c-.498.004-.995.006-1.493.006-28.2 0-55.287-6.658-80.5-18.91 333.673-224.996-127.969-277.714 20.049-440.923 12.527-1.974 25.369-3 38.451-3 135.31 0 245 109.69 245 245s-109.69 245-245 245c-1.413 0-2.823-.012-4.231-.036 9.771-8.12 19.031-17.198 27.724-27.137z" fill="#f4aa39"/><path d="m421.558 127.857c72.542 95.677 55.692 231.512-37.274 306.185-4.617 3.708-5.781-2.075-4.617-3.375 69.338-77.443 77.735-194.658 12.583-280.588-15.38-20.285-35.874-35.049-58.531-45.359-5.937 3.052-11.549 6.593-16.799 10.505 22.477 12.227 42.293 29.208 55.327 51.865 51.404 89.351 25.67 201.94-56.423 260.69-5.35 3.829-9.115.66-5.09-3.292 63.053-61.911 79.024-160.778 32.907-240.94-11.673-20.29-28.784-36.027-48.375-47.876-17.151 20.375-26.573 44.192-25.178 62.392-54.453-58.556-123.443-111.383-52.539-189.564 12.527-1.974 25.369-3 38.451-3 91.365 0 171.05 50.012 213.171 124.153-17.607-15.149-34.858-25.026-51.386-30.707-8.763-3.012-15.526 7.961-8.927 14.466 4.533 4.469 8.782 9.278 12.7 14.445z" fill="#d98800"/><path d="m385.327 179.334-67.411 67.411c-5.077 5.077-13.308 5.077-18.385 0-.299-.299-.579-.608-.842-.928l-9.875 9.875c-5.077 5.077-13.308 5.077-18.385 0s-5.077-13.308 0-18.385l9.875-9.875c-4.216-5.107-3.936-12.679.842-17.457-5.077 5.077-13.308 5.077-18.385 0-.299-.299-.579-.608-.842-.928l-9.875 9.875c-5.077 5.077-13.308 5.077-18.385 0s-5.077-13.308 0-18.385l9.875-9.875c-3.941-4.774-3.953-11.702-.035-16.488v-.169c-5.107 4.26-12.714 3.994-17.508-.8-.299-.299-.579-.608-.842-.928l-9.875 9.875c-5.077 5.077-13.308 5.077-18.385 0s-5.077-13.308 0-18.385l9.875-9.875c-4.216-5.107-3.936-12.679.842-17.457l67.411-67.411c5.077-5.077 13.308-5.077 18.385 0 5.076 5.076 5.077 13.305.002 18.382 5.077-5.074 13.306-5.074 18.382.002 5.077 5.077 5.077 13.308 0 18.385 5.077-5.077 13.308-5.077 18.385 0 5.076 5.076 5.077 13.307.001 18.384 5.077-5.075 13.307-5.075 18.384.001 5.077 5.077 5.077 13.308 0 18.385 5.077-5.077 13.308-5.077 18.385 0 5.076 5.076 5.077 13.307.001 18.384 5.077-5.075 13.307-5.075 18.384.001 5.078 5.078 5.078 13.309.001 18.386z" fill="#54469b"/><path d="m293.519 87.41-67.411 67.411c-5.077 5.077-13.308 5.077-18.385 0s-5.077-13.308 0-18.385l67.411-67.411c5.077-5.077 13.308-5.077 18.385 0s5.077 13.308 0 18.385zm36.77 18.385c-5.077-5.077-13.308-5.077-18.385 0l-67.411 67.411c-5.077 5.077-5.077 13.308 0 18.385 5.077 5.077 13.308 5.077 18.385 0l67.411-67.411c5.076-5.077 5.076-13.308 0-18.385zm36.769 36.77c-5.077-5.077-13.308-5.077-18.385 0l-67.411 67.411c-5.077 5.077-5.077 13.308 0 18.385 5.077 5.077 13.308 5.077 18.385 0l67.411-67.411c5.077-5.077 5.077-13.308 0-18.385z" fill="#002c5d"/><path d="m322.196 255.267-70.711 70.711c-3.905 3.905-10.237 3.905-14.142 0-21.105-21.105-55.097-21.819-77.069-1.617l-129.369 127.293c-3.918 3.827-10.186 3.79-14.058-.083l-13.918-13.918c-3.868-3.868-3.91-10.127-.094-14.046l127.157-129.528c20.201-21.972 19.488-55.964-1.617-77.07-2.565-2.565-3.445-6.176-2.641-9.459.42-1.716 1.301-3.342 2.641-4.683l70.711-70.711c3.905-3.905 10.237-3.905 14.142 0l108.969 108.969c3.904 3.905 3.904 10.237-.001 14.142z" fill="#bbe0fb"/><path d="m158.045 224.96c21.105 21.105 21.819 55.097 1.618 77.069l-144.622 147.736-12.112-12.112c-3.868-3.868-3.91-10.127-.095-14.046l127.157-129.528c20.201-21.972 19.488-55.964-1.617-77.07-.624-.624-1.147-1.309-1.572-2.036-2.234-3.829-1.71-8.824 1.572-12.106l70.711-70.711c3.905-3.905 10.237-3.905 14.142 0l11.74 11.74-66.921 66.921c-3.906 3.906-3.906 10.237-.001 14.143z" fill="#91cefb"/><path d="m392.994 171.667-21.192 21.192c5.077-5.077 5.077-13.308 0-18.385s-13.308-5.077-18.385 0l-23.321 23.321c-5.077 5.077-13.308 5.077-18.385 0s-5.077-13.308 0-18.385l16.222-16.222c5.073-5.077 5.072-13.305-.004-18.381-5.077-5.077-13.308-5.077-18.385 0l-21.219 21.219c-5.077 5.077-13.308 5.077-18.385 0-5.077-5.077-5.077-13.308 0-18.385l26.219-26.219c5.077-5.077 5.077-13.308 0-18.385-5.076-5.076-13.306-5.077-18.383-.002l-6.22 6.22c-5.077 5.077-13.308 5.077-18.385 0s-5.077-13.308 0-18.385l29.513-29.513c5.077-5.077 13.308-5.077 18.385 0s5.077 13.308 0 18.385c5.077-5.077 13.308-5.077 18.385 0 5.076 5.076 5.077 13.307.001 18.384 5.077-5.076 13.307-5.075 18.383.001 5.077 5.077 5.077 13.308 0 18.385 5.077-5.077 13.308-5.077 18.385 0 5.077 5.077 5.077 13.308 0 18.385 5.077-5.077 13.308-5.077 18.385 0s5.077 13.308 0 18.385c5.077-5.077 13.308-5.077 18.385 0 5.078 5.077 5.078 13.308.001 18.385z" fill="#e3f0fb"/><g fill="#fff5f5"><path d="m295.838 121.422c5.077-5.077 5.077-13.308 0-18.385-5.076-5.076-13.306-5.077-18.383-.002l23.293-23.293c5.077-5.077 13.308-5.077 18.385 0s5.077 13.308 0 18.385zm96.834 31.86c-5.077-5.077-13.308-5.077-18.385 0l-21.192 21.192c5.077-5.077 13.308-5.077 18.385 0s5.077 13.308 0 18.385l21.192-21.192c5.077-5.077 5.077-13.308 0-18.385zm-36.77-18.385c5.077-5.077 5.077-13.308 0-18.385-5.077-5.077-13.308-5.077-18.385 0l-28.295 28.295c5.077-5.077 13.308-5.077 18.385 0 5.076 5.076 5.077 13.307.001 18.383z"/><path d="m277.279 325.752-6.941-20.544c-.399-1.182-1.327-2.11-2.509-2.509l-20.544-6.941c-3.626-1.225-3.626-6.354 0-7.579l20.544-6.941c1.182-.399 2.11-1.327 2.509-2.509l6.941-20.544c1.225-3.626 6.354-3.626 7.579 0l6.941 20.544c.399 1.182 1.327 2.11 2.509 2.509l20.544 6.941c3.626 1.225 3.626 6.354 0 7.579l-20.544 6.941c-1.182.399-2.11 1.327-2.509 2.509l-6.941 20.544c-1.225 3.626-6.354 3.626-7.579 0zm-84.482-231.316 5.123-15.164c.295-.872.98-1.557 1.852-1.852l15.164-5.123c2.677-.904 2.677-4.69 0-5.594l-15.164-5.123c-.872-.295-1.557-.98-1.852-1.852l-5.123-15.164c-.904-2.677-4.69-2.677-5.594 0l-5.123 15.164c-.295.872-.98 1.557-1.852 1.852l-15.164 5.123c-2.677.904-2.677 4.69 0 5.594l15.164 5.123c.872.295 1.557.98 1.852 1.852l5.123 15.164c.904 2.677 4.69 2.677 5.594 0zm26.19 142.741 3.305-9.783c.19-.563.632-1.005 1.195-1.195l9.783-3.305c1.727-.583 1.727-3.026 0-3.609l-9.783-3.305c-.563-.19-1.005-.632-1.195-1.195l-3.305-9.785c-.583-1.727-3.026-1.727-3.609 0l-3.305 9.783c-.19.563-.632 1.005-1.195 1.195l-9.783 3.305c-1.727.583-1.727 3.026 0 3.609l9.783 3.305c.563.19 1.005.632 1.195 1.195l3.305 9.783c.583 1.728 3.025 1.728 3.609.002z"/></g></g></svg>