<svg id="Capa_1" enable-background="new 0 0 501 501" height="512" viewBox="0 0 501 501" width="512" xmlns="http://www.w3.org/2000/svg"><g><path d="m495.5 256c0 135.31-109.69 245-245 245s-245-109.69-245-245 109.69-245 245-245 245 109.69 245 245z" fill="#fda800"/><path d="m495.5 256c0 2.748-.045 5.485-.135 8.211-27.121 77.335-100.767 132.789-187.365 132.789-109.629 0-198.5-88.872-198.5-198.5 0-86.598 55.454-160.244 132.789-187.365 2.726-.09 5.463-.135 8.211-.135 135.31 0 245 109.69 245 245z" fill="#f5c02c"/><path d="m404.207 177.28-6.941-20.544c-.399-1.182-1.327-2.11-2.509-2.509l-20.544-6.941c-3.626-1.225-3.626-6.354 0-7.579l20.544-6.941c1.182-.399 2.11-1.327 2.509-2.509l6.941-20.544c1.225-3.626 6.354-3.626 7.579 0l6.941 20.544c.399 1.182 1.327 2.11 2.509 2.509l20.544 6.941c3.626 1.225 3.626 6.354 0 7.579l-20.544 6.941c-1.182.399-2.11 1.327-2.509 2.509l-6.941 20.544c-1.225 3.627-6.354 3.627-7.579 0zm-355.561 64.6-5.123-15.164c-.295-.872-.98-1.557-1.852-1.852l-15.164-5.123c-2.677-.904-2.677-4.69 0-5.594l15.164-5.123c.872-.295 1.557-.98 1.852-1.852l5.123-15.164c.904-2.677 4.69-2.677 5.594 0l5.123 15.164c.295.872.98 1.557 1.852 1.852l15.164 5.123c2.677.904 2.677 4.69 0 5.594l-15.164 5.123c-.872.295-1.557.98-1.852 1.852l-5.123 15.164c-.904 2.676-4.689 2.676-5.594 0zm360 106.113-5.123-15.164c-.295-.872-.98-1.557-1.852-1.852l-15.164-5.123c-2.677-.904-2.677-4.69 0-5.594l15.164-5.123c.872-.295 1.557-.98 1.852-1.852l5.123-15.164c.904-2.677 4.69-2.677 5.594 0l5.123 15.164c.295.872.98 1.557 1.852 1.852l15.164 5.123c2.677.904 2.677 4.69 0 5.594l-15.164 5.123c-.872.295-1.557.98-1.852 1.852l-5.123 15.164c-.904 2.676-4.689 2.676-5.594 0z" fill="#fff5f5"/><path d="m184.5 260c0 16.569-13.431 30-30 30-13.08 0-24.205-8.371-28.31-20.047-.56.031-1.123.047-1.69.047-16.569 0-30-13.431-30-30 0-8.89 3.867-16.877 10.011-22.371-8.63-8.199-14.011-19.785-14.011-32.629 0-24.853 20.147-45 45-45s45 20.147 45 45c0 19.192-12.015 35.578-28.933 42.047.466.972.882 1.974 1.243 3.001.56-.031 1.123-.047 1.69-.047 16.569-.001 30 13.43 30 29.999z" fill="#533022"/><path d="m414.5 220c0 16.569-13.431 30-30 30-4.624 0-9.003-1.046-12.915-2.915 1.869 3.912 2.915 8.291 2.915 12.915 0 16.569-13.431 30-30 30s-30-13.431-30-30 13.431-30 30-30c4.624 0 9.003 1.046 12.915 2.915-.607-1.27-1.127-2.589-1.552-3.949-20.222-4.413-35.363-22.421-35.363-43.966 0-24.853 20.147-45 45-45s45 20.147 45 45c0 5.59-1.02 10.941-2.882 15.879 4.298 5.191 6.882 11.854 6.882 19.121z" fill="#67382a"/><path d="m135.5 155c-16.569 0-30 13.431-30 30s13.431 30 30 30 30-13.431 30-30-13.431-30-30-30zm0 50c-11.046 0-20-8.954-20-20s8.954-20 20-20 20 8.954 20 20-8.954 20-20 20zm230-50c-16.569 0-30 13.431-30 30s13.431 30 30 30 30-13.431 30-30-13.431-30-30-30zm0 50c-11.046 0-20-8.954-20-20s8.954-20 20-20 20 8.954 20 20-8.954 20-20 20z" fill="#ea5569"/><path d="m140.5 260c-13.807 0-25-11.193-25-25v-10c0-13.807 11.193-25 25-25 13.807 0 25 11.193 25 25v10c0 13.807-11.193 25-25 25z" fill="#e3b5a9"/><path d="m130.5 220v20c0 8.178 3.927 15.439 9.998 20-13.806-.001-24.998-11.194-24.998-25v-10c0-13.806 11.192-24.999 24.998-25-6.071 4.561-9.998 11.822-9.998 20zm230-20v-20c0-60.751-49.249-110-110-110-60.751 0-110 49.249-110 110v40c0 50.351 33.83 92.801 80 105.859v64.141h60v-64.141c33.586-9.499 60.641-34.551 72.895-66.883 2.252.666 4.637 1.024 7.105 1.024 13.807 0 25-11.193 25-25v-10c0-13.807-11.193-25-25-25z" fill="#d9a091"/><path d="m360.5 180v40c0 50.792-34.425 93.543-81.216 106.195-9.023 2.44-18.545 2.44-27.568 0-46.791-12.652-81.216-55.403-81.216-106.195v-40c0-55.663 41.345-101.669 95-108.985 53.655 7.316 95 53.322 95 108.985z" fill="#e3b5a9"/><path d="m236 226.731c-2.929-2.93-2.929-7.678 0-10.607 2.929-2.928 7.678-2.928 10.606 0 1.042 1.042 2.424 1.616 3.893 1.616s2.851-.574 3.893-1.616c2.929-2.928 7.678-2.928 10.606 0 2.929 2.93 2.929 7.678 0 10.607-3.875 3.875-9.024 6.009-14.5 6.009s-10.623-2.134-14.498-6.009z" fill="#c68978"/><path d="m218 187.5c0 8.284-6.716 15-15 15s-15-6.716-15-15 6.716-15 15-15 15 6.716 15 15zm80-15c-8.284 0-15 6.716-15 15s6.716 15 15 15 15-6.716 15-15-6.716-15-15-15z" fill="#002c5d"/><path d="m220.5 180c0 4.142-3.358 7.5-7.5 7.5s-7.5-3.358-7.5-7.5 3.358-7.5 7.5-7.5 7.5 3.358 7.5 7.5zm87.5-7.5c-4.142 0-7.5 3.358-7.5 7.5s3.358 7.5 7.5 7.5 7.5-3.358 7.5-7.5-3.358-7.5-7.5-7.5z" fill="#fff5f5"/><path d="m250.5 290c-16.569 0-30-13.431-30-30 0-4.142 3.358-7.5 7.5-7.5h45c4.142 0 7.5 3.358 7.5 7.5 0 16.569-13.431 30-30 30z" fill="#fff5f5"/><path d="m258 289.055c-2.397.617-4.91.945-7.5.945-16.568 0-30-13.431-30-30 0-4.142 3.358-7.5 7.5-7.5h15c-4.142 0-7.5 3.358-7.5 7.5 0 13.979 9.561 25.724 22.5 29.055z" fill="#e3f0fb"/><path d="m315.5 360c0 11.046-8.954 20-20 20h-90c-11.046 0-20-8.954-20-20 0-11.046 8.954-20 20-20h90c11.046 0 20 8.954 20 20z" fill="#81ade2"/><path d="m315.5 360c0 11.046-8.954 20-20 20h-51c-11.046 0-20-8.954-20-20 0-11.046 8.954-20 20-20h51c11.046 0 20 8.954 20 20z" fill="#b1c9eb"/><path d="m122.328 464.838c-11.242-6.914-21.884-14.711-31.828-23.293v-10.545c0-38.66 31.34-70 70-70h57.5c-38.66 0-70 31.34-70 70v19.405c0 13.175-14.45 21.335-25.672 14.433z" fill="#962437"/><path d="m410.5 431v10.545c-42.926 37.049-98.847 59.455-160 59.455-47.757 0-92.322-13.664-130-37.296v-32.704c0-38.66 31.34-70 70-70h150c38.66 0 70 31.34 70 70z" fill="#c92e43"/><path d="m185.647 427.305 2.761 65.758c-10.363-2.707-20.458-6.075-30.238-10.057l2.339-55.701c.283-6.736 5.826-12.052 12.569-12.052s12.286 5.316 12.569 12.052zm154.843 0c-.283-6.736-5.826-12.052-12.569-12.052-6.742 0-12.286 5.316-12.569 12.052l-2.761 65.758c10.363-2.707 20.458-6.075 30.238-10.057zm-89.99-36.305c-6.742 0-12.286 5.315-12.569 12.052l-4.09 97.391c5.505.37 11.06.558 16.658.558s11.153-.188 16.658-.558l-4.09-97.391c-.281-6.737-5.825-12.052-12.567-12.052z" fill="#962437"/><path d="m150.5 260c0 5.523-4.477 10-10 10s-10-4.477-10-10 4.477-10 10-10 10 4.477 10 10zm210-10c-5.523 0-10 4.477-10 10s4.477 10 10 10 10-4.477 10-10-4.477-10-10-10z" fill="#fff5f5"/><path d="m221.235 84.146c2.101 4.861 3.265 10.221 3.265 15.854 0 22.091-17.909 40-40 40-3.69 0-7.264-.5-10.656-1.436-7.921 12.861-22.131 21.436-38.344 21.436-24.853 0-45-20.147-45-45s20.147-45 45-45c.092 0 .184.001.276.002-.182-1.642-.276-3.311-.276-5.002 0-24.853 20.147-45 45-45s45 20.147 45 45c0 6.847-1.53 13.337-4.265 19.146z" fill="#533022"/><path d="m410.5 115c0 20.365-13.529 37.571-32.089 43.12-5.479 7.218-14.15 11.88-23.911 11.88-16.569 0-30-13.431-30-30 0-.092.001-.184.002-.276-1.642.182-3.311.276-5.002.276-13.272 0-25.201-5.746-33.437-14.885 2.149 13.841-4.299 28.211-17.208 35.473-1.805 1.015-3.852 1.202-5.699.685-1.848-.517-3.499-1.74-4.515-3.545-2.03-3.611-.75-8.183 2.86-10.215 9.405-5.29 12.753-17.247 7.462-26.652-2.594-4.612-4.012-9.572-4.352-14.53-7.332 8.378-18.103 13.669-30.111 13.669-19.474 0-35.697-13.916-39.269-32.347-.48-2.477 10.269-5.536 10.269-8.153 0-10.949 2.333-19.5.527-27.593-.347-2.252-.527-4.558-.527-6.907 0-24.853 20.147-45 45-45 19.425 0 35.975 12.308 42.278 29.551 7.641-5.984 17.265-9.551 27.722-9.551 24.853 0 45 20.147 45 45 0 1.691-.094 3.359-.276 5.002.092 0 .184-.002.276-.002 24.853 0 45 20.147 45 45z" fill="#67382a"/><path d="m250.5 15c-16.569 0-30 13.431-30 30s13.431 30 30 30 30-13.431 30-30-13.431-30-30-30zm0 50c-11.046 0-20-8.954-20-20s8.954-20 20-20 20 8.954 20 20-8.954 20-20 20zm-68-30c-16.569 0-30 13.431-30 30s13.431 30 30 30 30-13.431 30-30-13.431-30-30-30zm0 50c-11.046 0-20-8.954-20-20s8.954-20 20-20 20 8.954 20 20-8.954 20-20 20zm136-50c-16.569 0-30 13.431-30 30s13.431 30 30 30 30-13.431 30-30-13.431-30-30-30zm0 50c-11.046 0-20-8.954-20-20s8.954-20 20-20 20 8.954 20 20-8.954 20-20 20zm-183 0c-16.569 0-30 13.431-30 30s13.431 30 30 30 30-13.431 30-30-13.431-30-30-30zm0 50c-11.046 0-20-8.954-20-20s8.954-20 20-20 20 8.954 20 20-8.954 20-20 20zm230-50c-16.569 0-30 13.431-30 30s13.431 30 30 30 30-13.431 30-30-13.431-30-30-30zm0 50c-11.046 0-20-8.954-20-20s8.954-20 20-20 20 8.954 20 20-8.954 20-20 20z" fill="#ea5569"/></g></svg>