<svg id="Capa_1" enable-background="new 0 0 501 501" height="512" viewBox="0 0 501 501" width="512" xmlns="http://www.w3.org/2000/svg"><g><path d="m455.842 123.364c.422-.006.818.205 1.046.561 24.44 38.112 38.612 83.438 38.612 132.074.001 134.723-108.084 243.81-242.802 244.991-35.705.313-69.664-7.012-100.344-20.441-3.906-1.709.806-10.109-2.99-12.013-55.355-27.766-98.732-75.89-120.309-134.55-.993-2.699-10.503 1.171-11.403-1.572-7.886-24.045-12.152-49.731-12.152-76.414 0-127.231 96.984-231.811 221.057-243.845 11.538-1.119 22.897 3.842 29.857 13.112 6.899 9.188 14.528 18.001 22.887 26.36 48.678 48.679 112.744 72.591 176.541 71.737z" fill="#003c79"/><path d="m464.5 175c0 96.65-78.35 175-175 175s-175-78.35-175-175c0-73.819 45.706-136.961 110.362-162.674 8.426-.877 16.98-1.326 25.638-1.326 86.726 0 162.926 45.062 206.467 113.048 4.898 16.122 7.533 33.229 7.533 50.952z" fill="#0573cd"/><path d="m456.967 124.048c4.899 16.122 7.533 33.229 7.533 50.952 0 33.164-9.225 64.173-25.249 90.601-26.429 16.024-57.438 25.249-90.601 25.249-96.65 0-175-78.35-175-175 0-33.163 9.225-64.172 25.248-90.6 8.234-4.993 16.914-9.326 25.964-12.925 8.426-.876 16.98-1.325 25.638-1.325 86.726 0 162.926 45.062 206.467 113.048z" fill="#528ed7"/><path d="m449 270.978-3.305-9.783c-.19-.563-.632-1.005-1.195-1.195l-9.783-3.305c-1.727-.583-1.727-3.026 0-3.609l9.783-3.305c.563-.19 1.005-.632 1.195-1.195l3.305-9.783c.583-1.727 3.026-1.727 3.609 0l3.305 9.783c.19.563.632 1.005 1.195 1.195l9.783 3.305c1.727.583 1.727 3.026 0 3.609l-9.782 3.305c-.563.19-1.005.632-1.195 1.195l-3.305 9.783c-.584 1.727-3.026 1.727-3.61 0z" fill="#63bcfa"/><path d="m341.041 3.173-5.93-2.765c-2.17-1.012-4.749-.073-5.761 2.097l-63.33 135.812c-3.241-2.666-6.868-4.97-10.847-6.826-25.458-11.871-55.72-.857-67.591 24.601s-.857 55.72 24.601 67.591 55.72.857 67.591-24.601l74.456-159.673c6.365-13.648.46-29.872-13.189-36.236zm-80.403 185.158c-5.934 12.726-21.061 18.232-33.787 12.298s-18.232-21.061-12.298-33.787 21.061-18.232 33.787-12.298c12.726 5.933 18.232 21.061 12.298 33.787z" fill="#fc9302"/><path d="m321.577 109.436-21.045-45.131 21.045-45.131 21.045 45.13zm45.24 115.027c-25.458 11.871-55.72.857-67.591-24.601l-74.456-159.671c-6.364-13.648-.459-29.872 13.189-36.237l5.93-2.765c2.17-1.012 4.749-.073 5.761 2.097l63.33 135.812c3.241-2.666 6.868-4.97 10.847-6.826 25.458-11.871 55.72-.857 67.591 24.601 11.871 25.457.857 55.719-24.601 67.59zm-14.668-69.92c-12.726-5.934-27.853-.428-33.787 12.298s-.428 27.853 12.298 33.787 27.853.428 33.787-12.298c5.934-12.725.428-27.853-12.298-33.787z" fill="#f1ca50"/><path d="m300.344 134.23c0 5.989-4.855 10.844-10.844 10.844s-10.844-4.855-10.844-10.844 4.855-10.844 10.844-10.844c5.989.001 10.844 4.855 10.844 10.844z" fill="#d98800"/><path d="m414.207 110.287-6.941-20.544c-.399-1.182-1.327-2.11-2.509-2.509l-20.544-6.941c-3.626-1.225-3.626-6.354 0-7.579l20.544-6.941c1.182-.399 2.11-1.327 2.509-2.509l6.941-20.544c1.225-3.626 6.354-3.626 7.579 0l6.941 20.544c.399 1.182 1.327 2.11 2.509 2.509l20.544 6.941c3.626 1.225 3.626 6.354 0 7.579l-20.544 6.941c-1.182.399-2.11 1.327-2.509 2.509l-6.941 20.544c-1.225 3.626-6.354 3.626-7.579 0z" fill="#f1ca50"/><path d="m119.623 225.164-5.123-15.164c-.295-.872-.98-1.557-1.852-1.852l-15.164-5.123c-2.677-.904-2.677-4.69 0-5.594l15.164-5.123c.872-.295 1.557-.98 1.852-1.852l5.123-15.164c.904-2.677 4.69-2.677 5.594 0l5.123 15.164c.295.872.98 1.557 1.852 1.852l15.164 5.123c2.677.904 2.677 4.69 0 5.594l-15.164 5.123c-.872.295-1.557.98-1.852 1.852l-5.123 15.164c-.904 2.676-4.689 2.676-5.594 0z" fill="#d98800"/><path d="m235.312 83.472-3.305-9.783c-.19-.563-.632-1.005-1.195-1.195l-9.783-3.305c-1.727-.583-1.727-3.026 0-3.609l9.783-3.305c.563-.19 1.005-.632 1.195-1.195l3.305-9.783c.583-1.727 3.026-1.727 3.609 0l3.305 9.783c.19.563.632 1.005 1.195 1.195l9.783 3.305c1.727.583 1.727 3.026 0 3.609l-9.783 3.305c-.563.19-1.005.632-1.195 1.195l-3.305 9.783c-.583 1.727-3.026 1.727-3.609 0zm-101.038 44.488-5.207-15.411c-.3-.887-.996-1.583-1.882-1.882l-15.411-5.207c-2.72-.919-2.72-4.767 0-5.686l15.411-5.207c.887-.3 1.583-.996 1.882-1.882l5.207-15.411c.919-2.72 4.767-2.72 5.686 0l5.207 15.411c.3.887.996 1.583 1.882 1.882l15.411 5.207c2.72.919 2.72 4.767 0 5.686l-15.411 5.207c-.887.3-1.583.996-1.882 1.882l-5.207 15.411c-.92 2.72-4.767 2.72-5.686 0z" fill="#f9eecf"/><path d="m430.338 332.06-46.631 54.065c-7.598 8.81-18.656 13.875-30.29 13.875h-164.151c-10.609 0-20.783 4.214-28.284 11.716l-37.383 37.383c-33.578-22.682-61.231-53.468-80.152-89.553l87.83-87.83c7.501-7.501 17.676-11.716 28.284-11.716h154.939c11.046 0 20 8.954 20 20 0 11.046-8.954 20-20 20h-110c-8.909 0-13.371 10.771-7.071 17.071 1.875 1.875 4.419 2.929 7.071 2.929h166.797c6.21 0 12.334-1.446 17.889-4.223l20.501-10.25c6.601-3.3 14.573-2.007 19.791 3.212 6.35 6.349 6.725 16.522.86 23.321z" fill="#eac0b5"/><path d="m57.172 382.561c-4.978-7.396-9.563-15.077-13.725-23.015l87.83-87.83c7.501-7.501 17.676-11.716 28.284-11.716h36.74c-10.609 0-20.783 4.214-28.284 11.716l-35.415 35.415-.002.001zm357.693-32.561h-160.365c-5.523 0-10 4.477-10 10s4.477 10 10 10h143.115z" fill="#e1a595"/><path d="m324.5 290h-15c-2.761 0-5-2.239-5-5v-10c0-2.761 2.239-5 5-5h15c5.523 0 10 4.477 10 10 0 5.523-4.477 10-10 10z" fill="#f4e0d8"/><path d="m167.091 416.317c5.858 5.858 5.858 15.355 0 21.213l-25.03 25.03-112.387-113.886 24.281-24.281c5.858-5.858 15.355-5.858 21.213 0z" fill="#f5dc90"/><path d="m167.091 416.317c5.858 5.858 5.858 15.355 0 21.213l-26.421 26.422-94.42-95.702 25.781-25.781c5.858-5.858 15.355-5.858 21.213 0z" fill="#fff5f5"/><path d="m58.722 354.766-7.623 7.623c-7.135 7.135-19.151 4.911-23.363-4.259-3.826-8.331-7.199-16.914-10.086-25.717l2.413-2.413c5.858-5.858 15.355-5.858 21.213 0l17.446 17.446c2.022 2.021 2.022 5.298 0 7.32z" fill="#fcb30b"/><path d="m161.485 450.208c5.858 5.858 5.858 15.355 0 21.213l-9.129 9.129c-55.384-24.24-100.078-68.371-125.048-123.358l9.973-9.973c5.858-5.858 15.355-5.858 21.213 0z" fill="#f1ca50"/></g></svg>