<svg id="Capa_1" enable-background="new 0 0 501 501" height="512" viewBox="0 0 501 501" width="512" xmlns="http://www.w3.org/2000/svg"><g><path d="m34.75 372.189c-18.659-34.575-29.25-74.145-29.25-116.189 0-134.433 107.228-243.181 241.649-244.978 136.845-1.829 248.351 108.553 248.351 244.978 0 42.047-10.592 81.619-29.253 116.195-3.797 7.034-11.712 10.767-19.556 9.232-60.475-11.838-126.728-18.368-196.191-18.368-69.454 0-135.7 6.528-196.17 18.364-7.852 1.537-15.781-2.193-19.58-9.234z" fill="#49b4fa"/><path d="m495.5 256c0 4.471-.12 8.915-.356 13.327-27.65 78.817-102.712 135.333-190.974 135.333-111.744 0-202.33-90.586-202.33-202.33 0-88.262 56.516-163.324 135.333-190.974 4.413-.236 8.856-.356 13.327-.356 135.31 0 245 109.69 245 245z" fill="#91cefb"/><path d="m121.5 222.987c0 20.218-16.449 36.667-36.667 36.667-.056 0-.111-.001-.167-.002-.056.001-.111.002-.167.002-16.542 0-30 13.458-30 30 0 5.523-4.477 10-10 10s-10-4.477-10-10c0-27.57 22.43-50 50-50 .056 0 .111.001.167.002.056-.001.111-.002.167-.002 9.19 0 16.667-7.477 16.667-16.667 0-12.866-10.467-23.333-23.333-23.333-5.523 0-10-4.477-10-10s4.477-10 10-10c23.894 0 43.333 19.439 43.333 43.333zm294 16.667c-.056 0-.111.001-.167.002-.056-.001-.111-.002-.167-.002-9.19 0-16.667-7.477-16.667-16.667 0-12.866 10.467-23.333 23.333-23.333 5.523 0 10-4.477 10-10s-4.477-10-10-10c-23.894 0-43.333 19.439-43.333 43.333 0 20.218 16.449 36.667 36.667 36.667.056 0 .111-.001.167-.002.056.001.111.002.167.002 16.542 0 30 13.458 30 30 0 5.523 4.477 10 10 10s10-4.477 10-10c0-27.571-22.43-50-50-50zm-71-141.716v102.062c0 5.523-4.477 10-10 10h-175.876c-5.523 0-10-4.477-10-10v-102.062c0-54.003 43.935-97.938 97.938-97.938s97.938 43.935 97.938 97.938zm-20 0c0-42.975-34.963-77.938-77.938-77.938s-77.938 34.963-77.938 77.938v92.062h155.876z" fill="#463b83"/><path d="m345.5 310h-190c-11.046 0-20-8.954-20-20v-160c0-11.046 8.954-20 20-20h190c11.046 0 20 8.954 20 20v160c0 11.046-8.954 20-20 20z" fill="#f19b0b"/><path d="m466.5 371.725c-41.314 76.951-122.546 129.275-216 129.275s-174.686-52.324-216-129.275v-81.725c0-11.046 8.954-20 20-20h392c11.046 0 20 8.954 20 20z" fill="#d98800"/><path d="m305.002 170h-109.004c-5.523 0-10-4.477-10-10 0-5.523 4.477-10 10-10h109.004c5.523 0 10 4.477 10 10 0 5.523-4.477 10-10 10zm-8.502 30c0-5.523-4.477-10-10-10h-72c-5.523 0-10 4.477-10 10 0 5.523 4.477 10 10 10h72c5.523 0 10-4.477 10-10z" fill="#c98001"/><path d="m269.5 500.274c-6.27.481-12.606.726-19 .726-93.454 0-174.686-52.324-216-129.275v-81.725c0-11.046 8.954-20 20-20h81v-140c0-11.046 8.954-20 20-20h39c-11.046 0-20 8.954-20 20v160c0 21.167-19 20-19 20h-57.504c-13.395 0-23.447 12.368-20.574 25.451 17.624 80.248 80.996 144.974 164.277 161.083 9.097 1.76 18.374 3.017 27.801 3.74z" fill="#c98001"/><path d="m283.324 354.974-42.38-90.884c-6.727-14.426-23.874-20.667-38.3-13.94s-20.667 23.874-13.94 38.3 23.874 20.667 38.3 13.94c2.255-1.052 4.31-2.358 6.146-3.868l36.923 79.182 5.995-2.796c7.509-3.501 10.758-12.426 7.256-19.934zm-60.001-65.648c-7.211 3.363-15.783.243-19.145-6.968-3.363-7.211-.243-15.783 6.968-19.145s15.783-.243 19.145 6.968c3.363 7.211.243 15.783-6.968 19.145z" fill="#b1c9eb"/><path d="m290.266 249.707c-14.426-6.727-31.573-.486-38.3 13.94l-42.38 90.884c-3.501 7.508-.253 16.433 7.255 19.934l5.995 2.796 36.923-79.182c1.837 1.51 3.891 2.816 6.146 3.868 14.426 6.727 31.573.486 38.3-13.94s.486-31.573-13.939-38.3zm-8.502 39.619c-7.211 3.363-15.783.243-19.145-6.968-3.363-7.211-.243-15.783 6.968-19.145s15.783-.243 19.145 6.968c3.363 7.211.243 15.783-6.968 19.145z" fill="#fff5f5"/><path d="m174.5 282.704v100c0 2.761-2.239 5-5 5h-10c-2.761 0-5-2.239-5-5v-100c0-2.761 2.239-5 5-5h10c2.761 0 5 2.238 5 5zm176 11.95h-16v-6.95h16c2.761 0 5-2.239 5-5s-2.239-5-5-5h-31c-2.761 0-5 2.239-5 5v100c0 2.761 2.239 5 5 5h10c2.761 0 5-2.239 5-5v-61.807h16c2.761 0 5-2.239 5-5s-2.239-5-5-5h-16v-6.243h16c2.761 0 5-2.239 5-5 0-2.762-2.239-5-5-5z" fill="#8f4d24"/><path d="m335.5 447.704h-170c-16.569 0-30-13.431-30-30v-85c0-8.284 6.716-15 15-15h200c8.284 0 15 6.716 15 15v85c0 16.568-13.431 30-30 30z" fill="#f19b0b"/><path d="m365.5 332.704v85c0 16.569-13.431 30-30 30h-1c-16.569 0-30-13.431-30-30v-100h46c8.284 0 15 6.715 15 15zm-161 85v-100h-40v100c0 16.569 13.431 30 30 30h40c-16.569 0-30-13.432-30-30zm71 0v-100h-42v100c0 16.569 13.431 30 30 30h42c-16.569 0-30-13.432-30-30z" fill="#fdbf43"/><path d="m364.759 187.993-5.123-15.164c-.295-.872-.98-1.557-1.852-1.852l-15.164-5.123c-2.677-.904-2.677-4.69 0-5.594l15.164-5.123c.872-.295 1.557-.98 1.852-1.852l5.123-15.164c.904-2.677 4.69-2.677 5.594 0l5.123 15.164c.295.872.98 1.557 1.852 1.852l15.164 5.123c2.677.904 2.677 4.69 0 5.594l-15.164 5.123c-.872.295-1.557.98-1.852 1.852l-5.123 15.164c-.904 2.676-4.689 2.676-5.594 0zm-223.23 236.521 6.941-20.544c.399-1.182 1.327-2.11 2.509-2.509l20.544-6.941c3.626-1.225 3.626-6.354 0-7.579l-20.543-6.941c-1.182-.399-2.11-1.327-2.509-2.509l-6.941-20.544c-1.225-3.626-6.354-3.626-7.579 0l-6.941 20.544c-.399 1.182-1.327 2.11-2.509 2.509l-20.544 6.941c-3.626 1.225-3.626 6.354 0 7.579l20.544 6.941c1.182.399 2.11 1.327 2.509 2.509l6.941 20.544c1.224 3.626 6.353 3.626 7.578 0z" fill="#fff5f5"/></g></svg>