<svg id="Capa_1" enable-background="new 0 0 501 501" height="512" viewBox="0 0 501 501" width="512" xmlns="http://www.w3.org/2000/svg"><g><path d="m485.591 266.007c5.329-.002 8.251 19.011 7.629 23.55-12.246 89.408-72.731 163.447-154.358 195.024-.349.135-1.013-1.048-1.363-.915-14.576 5.561-29.82 9.771-45.577 12.475-.633.109-.952 1.532-1.587 1.636-12.964 2.121-26.271 3.223-39.835 3.223-97.339 0-181.42-56.766-220.944-138.998-1.663-3.46 6.89-7.329 5.387-10.877-9.414-22.222-15.641-46.121-18.11-71.125-.469-4.75-10.939-9.174-11.133-13.999-.133-3.317-.2-6.651-.2-10.001 0-3.349.067-6.683.2-10 .148-3.699 11.769-6.76 12.08-10.414 2.251-26.483 8.716-51.764 18.719-75.172 1.412-3.304-8.496-7.187-6.945-10.414 38.19-79.457 117.979-135.137 211.132-138.806-.128 3.255-.193 6.527-.193 9.814 0 135.31 109.69 245 245 245 .033-.001.065-.001.098-.001z" fill="#003c79"/><path d="m495.5 256c0 11.384-.776 22.586-2.279 33.558-30.316 81.991-109.193 140.442-201.721 140.442-118.741 0-215-96.259-215-215 0-92.528 58.451-171.405 140.442-201.721 10.972-1.503 22.174-2.279 33.558-2.279 135.31 0 245 109.69 245 245z" fill="#004b92"/><path d="m347.714 228.787-6.941-20.544c-.399-1.182-1.327-2.11-2.509-2.509l-20.544-6.941c-3.626-1.225-3.626-6.354 0-7.579l20.544-6.941c1.182-.399 2.11-1.327 2.509-2.509l6.941-20.544c1.225-3.626 6.354-3.626 7.579 0l6.941 20.544c.399 1.182 1.327 2.11 2.509 2.509l20.544 6.941c3.626 1.225 3.626 6.354 0 7.579l-20.544 6.941c-1.182.399-2.11 1.327-2.509 2.509l-6.941 20.544c-1.225 3.626-6.354 3.626-7.579 0z" fill="#fff5f5"/><path d="m350.5 216v238c0 11.74-4.398 22.453-11.637 30.581-15.477 5.987-31.715 10.447-48.528 13.197-18.474-5.973-31.835-23.315-31.835-43.778v-238c0-25.405 20.595-46 46-46 25.405 0 46 20.595 46 46z" fill="#f19b0b"/><path d="m350.5 216v238c0 11.74-4.399 22.453-11.637 30.581-6.819 2.638-13.785 4.979-20.883 7.008-11.785-8.329-19.48-22.06-19.48-37.589v-238c0-18.237 10.613-33.996 26-41.436 15.387 7.44 26 23.199 26 41.436z" fill="#fdbf43"/><path d="m279.5 270c0-5.523 4.477-10 10-10h30c5.523 0 10 4.477 10 10s-4.477 10-10 10h-30c-5.523 0-10-4.477-10-10zm40 30h-30c-5.523 0-10 4.477-10 10s4.477 10 10 10h30c5.523 0 10-4.477 10-10s-4.477-10-10-10zm0 40h-30c-5.523 0-10 4.477-10 10s4.477 10 10 10h30c5.523 0 10-4.477 10-10s-4.477-10-10-10zm0 40h-30c-5.523 0-10 4.477-10 10v60c0 5.523 4.477 10 10 10h30c5.523 0 10-4.477 10-10v-60c0-5.523-4.477-10-10-10z" fill="#d98800"/><path d="m304.5 230c-19.606 0-35.5-15.894-35.5-35.5v-119c0-19.606 15.894-35.5 35.5-35.5 19.606 0 35.5 15.894 35.5 35.5v119c0 19.606-15.894 35.5-35.5 35.5z" fill="#8279c0"/><path d="m340 75.5v119c0 13.949-8.046 26.02-19.75 31.823-11.704-5.804-19.75-17.874-19.75-31.823v-119c0-13.95 8.046-26.02 19.75-31.823 11.704 5.803 19.75 17.873 19.75 31.823z" fill="#968dca"/><path d="m254 98.333h-70.5c-8.284 0-15-6.716-15-15v-50c0-8.284 6.716-15 15-15h70.5c8.284 0 15 6.716 15 15v50c0 8.285-6.716 15-15 15z" fill="#6e61b5"/><path d="m425.5 98.333h-186.686c-8.284 0-15-6.716-15-15v-50c0-8.284 6.716-15 15-15h186.686c8.284 0 15 6.716 15 15v50c0 8.285-6.716 15-15 15z" fill="#8279c0"/><path d="m405.5 70h-202c-8.284 0-15-6.716-15-15v-40c0-8.284 6.716-15 15-15h202c8.284 0 15 6.716 15 15v40c0 8.284-6.716 15-15 15z" fill="#528ed7"/><path d="m420.5 15v5h-210v-5c0-8.284 6.716-15 15-15h180c8.284 0 15 6.716 15 15zm-210 40c0 8.284 6.716 15 15 15h180c8.284 0 15-6.716 15-15v-15h-210z" fill="#81ade2"/><path d="m383.683 0-49.58 70h-36.763l49.58-70zm-110.289 0-49.58 70h49.017l49.58-70z" fill="#bbe0fb"/><path d="m355.351 40h-36.763l14.166-20h36.763zm-110.288 0h49.017l14.166-20h-49.017z" fill="#91cefb"/><path d="m284.5 215v82c0 19.33-15.67 35-35 35-19.33 0-35-15.67-35-35v-5h-20l24.026 56.061c2.828 6.599-2.012 13.939-9.191 13.939h-179.78c-14.057-29.248-22.478-61.717-23.855-96h21.475c3.458 5.978 9.921 10 17.324 10s13.866-4.022 17.324-10h27.677v5c0 8.284 6.716 15 15 15s15-6.716 15-15v-5h27.676c3.458 5.978 9.921 10 17.324 10 11.046 0 20-8.954 20-20s-8.954-20-20-20c-7.403 0-13.866 4.022-17.324 10h-27.676v-5c0-8.284-6.716-15-15-15s-15 6.716-15 15v5h-27.676c-3.458-5.978-9.921-10-17.324-10s-13.866 4.022-17.324 10h-21.475c1.376-34.283 9.797-66.752 23.855-96h179.779c7.179 0 12.019 7.341 9.191 13.939l-24.026 56.061h20v-5c0-19.33 15.67-35 35-35 19.33 0 35 15.67 35 35z" fill="#b1c9eb"/><path d="m284.5 292v5c0 19.33-15.67 35-35 35-19.33 0-35-15.67-35-35v-5zm-90 0h-186.373c3.641 24.728 10.977 48.255 21.428 70h179.779c7.179 0 12.019-7.341 9.191-13.939z" fill="#81ade2"/><path d="m86.376 266-44.985 96h-11.836c-5.844-12.16-10.714-24.876-14.509-38.049l22.973-49.025c2.033.696 4.213 1.074 6.481 1.074 7.403 0 13.866-4.022 17.324-10zm76.443-116-43.319 92.446v3.554h27.676c1.729-2.989 4.209-5.489 7.182-7.241l41.592-88.759zm-100.995 96h27.676v-5c0-8.284 6.716-15 15-15 .206 0 .41.004.614.012l35.619-76.012h-44.174l-41.663 88.911c2.86 1.744 5.249 4.186 6.928 7.089zm57.676 25c0 8.284-6.716 15-15 15-1.756 0-3.442-.302-5.008-.856l-36.014 76.856h33.13l44.985-96h-22.093z" fill="#b1c9eb"/><path d="m119.5 266h22.093l-12.183 26h-33.13l3.213-6.856c1.566.554 3.252.856 5.008.856 8.284 0 15-6.716 15-15v-5zm-75 10c-2.268 0-4.448-.378-6.481-1.074l-8.001 17.074h44.174l12.183-26h-24.551c-3.458 5.978-9.921 10-17.324 10zm118.319-126-43.319 92.446v3.554h27.676c1.729-2.989 4.209-5.489 7.182-7.241l41.592-88.759zm-57.705 76.012 35.619-76.012h-44.174l-41.663 88.911c2.861 1.744 5.249 4.186 6.928 7.089h27.676v-5c0-8.284 6.716-15 15-15 .206 0 .41.004.614.012z" fill="#e3f0fb"/><path d="m144.759 391.88-5.123-15.164c-.295-.872-.98-1.557-1.852-1.852l-15.164-5.123c-2.677-.904-2.677-4.69 0-5.594l15.164-5.123c.872-.295 1.557-.98 1.852-1.852l5.123-15.164c.904-2.677 4.69-2.677 5.594 0l5.123 15.164c.295.872.98 1.557 1.852 1.852l15.164 5.123c2.677.904 2.677 4.69 0 5.594l-15.164 5.123c-.872.295-1.557.98-1.852 1.852l-5.123 15.164c-.904 2.676-4.689 2.676-5.594 0z" fill="#fff5f5"/></g></svg>