<svg id="Capa_1" enable-background="new 0 0 501 501" height="512" viewBox="0 0 501 501" width="512" xmlns="http://www.w3.org/2000/svg"><g><path d="m5.5 256c0-135.133 109.403-244.713 244.469-244.999 135.964-.288 245.526 109.026 245.531 244.99.003 72.418-31.415 137.498-81.363 182.353-1.506 1.353-3.791 1.31-5.292-.048-43.465-39.337-101.107-63.296-164.345-63.296-57.457 0-110.295 19.779-152.076 52.899-5.255 4.165-12.824 3.78-17.501-1.025-42.961-44.137-69.423-104.415-69.423-170.874z" fill="#81ade2"/><path d="m495.5 256c0 6.009-.217 11.967-.642 17.867-28.17 79.898-104.333 137.156-193.87 137.156-113.501 0-205.511-92.011-205.511-205.512 0-89.536 57.258-165.699 137.156-193.87 5.9-.424 11.858-.641 17.867-.641 135.31 0 245 109.69 245 245z" fill="#91cefb"/><path d="m176.75 20v120h-102.25v-120c0-11.046 8.954-20 20-20h62.25c11.046 0 20 8.954 20 20z" fill="#b1c9eb"/><path d="m244.5 20v120h-135.5v-120c0-11.046 8.954-20 20-20h95.5c11.046 0 20 8.954 20 20z" fill="#e3f0fb"/><path d="m184.5 100h-50c-5.523 0-10-4.477-10-10v-40c0-5.523 4.477-10 10-10h50c5.523 0 10 4.477 10 10v40c0 5.523-4.477 10-10 10z" fill="#003c79"/><path d="m184.5 106.667h-23.333c-5.523 0-10-4.477-10-10v-46.667c0-5.523 4.477-10 10-10h23.333c5.523 0 10 4.477 10 10v46.667c0 5.523-4.477 10-10 10z" fill="#6354b0"/><path d="m199.5 120h-83.25c-8.284 0-15-6.716-15-15 0-8.284 6.716-15 15-15h83.25c8.284 0 15 6.716 15 15 0 8.284-6.716 15-15 15z" fill="#6354b0"/><path d="m203.19 120h-51.524c-8.284 0-15-6.716-15-15 0-8.284 6.716-15 15-15h51.524c8.284 0 15 6.716 15 15 0 8.284-6.716 15-15 15z" fill="#968dca"/><path d="m174.5 65.667c0 8.284-6.716 15-15 15s-15-6.716-15-15 6.716-15 15-15 15 6.715 15 15z" fill="#968dca"/><path d="m167 65.667c0 4.142-3.358 7.5-7.5 7.5s-7.5-3.358-7.5-7.5 3.358-7.5 7.5-7.5 7.5 3.358 7.5 7.5z" fill="#003c79"/><path d="m236.833 140-6.667 320c0 16.569.902 30-15.667 30 0 0-84.386-19.084-105-33.616-12.592-8.877-24.31-18.911-35-29.947v-71.923l9.334-23.514v-69.666l-9.333-8.405v-112.929c0-16.569 13.431-30 30-30h110c16.569 0 22.333 13.431 22.333 30z" fill="#ab2538"/><path d="m139.5 110h75c.944 0 1.878.044 2.8.129 15.256 1.412 27.2 74.724 27.2 74.724v275.147c0 16.569-103.439 16.109-119.997 6.161-5.126-3.08-10.13-6.342-15.003-9.777v-316.384c0-16.569 13.431-30 30-30z" fill="#c92e43"/><path d="m244.5 184.853-169.662 169.662c-.222-1.473-.338-2.98-.338-4.515v-97.071l142.8-142.8c15.256 1.412 27.2 14.246 27.2 29.871z" fill="#f19b0b"/><path d="m244.5 140v44.853l-135.5 135.5v-101.924l108.3-108.3c15.255 1.412 27.2 14.246 27.2 29.871z" fill="#fdbf43"/><path d="m360.833 75.667v25.083h70.667c7.18 0 13 5.82 13 13s-5.82 13-13 13h-70.667v25.083h70.667c7.18 0 13 5.82 13 13s-5.82 13-13 13h-70.667v25.083h70.667c7.18 0 13 5.82 13 13 0 7.18-5.82 13-13 13h-70.667v25.084h70.667c7.18 0 13 5.82 13 13s-5.82 13-13 13h-126.667c-11.046 0-20-8.954-20-20v-190c0-11.046 8.954-20 20-20h28.396c.944-.218 1.927-.333 2.938-.333h95.333c7.18 0 13 5.82 13 13 0 7.18-5.82 13-13 13z" fill="#8f4d24"/><path d="m310.833 260v-190c0-11.046 8.954-20 20-20h40v230h-40c-11.045 0-20-8.954-20-20z" fill="#ab5e2e"/><path d="m414.5 240v52.333s-36.142 137.869-52.5 162.417c-.982 1.474 8.835 14.714 7.925 15.223-7.726 4.322-15.711 8.237-23.925 11.717-1.658.702-4.49-3.19-6.166-2.523-20.928 8.323-43.275 13.846-66.576 16.104-1.912.185-2.666 4.925-4.591 5.066-5.999.439-12.057.663-18.167.663-43.464 0-84.284-11.318-119.675-31.168-3.923-2.2-6.325-6.376-6.325-10.873v-218.959c0-11.046 8.954-20 20-20h250c11.046 0 20 8.954 20 20z" fill="#003c79"/><path d="m268.667 500.336v-115.336h77.333v96.689c-24.054 10.192-50.074 16.65-77.333 18.647z" fill="#6354b0"/><path d="m124.5 300h70v170h-63.376c-2.23-1.247-4.438-2.527-6.624-3.841z" fill="#f19b0b"/><path d="m164.5 300h250v138.016c-13.584 12.247-28.545 22.995-44.624 31.984h-205.376z" fill="#fdbf43"/><path d="m346 300v170h-77.333v-170z" fill="#f3d373"/><path d="m308.051 358.206c6.401 9.612 19.987 25.908 32.598 33.816 14.296 8.964 31.727-4.903 33.618 0 .977 2.534 3.954 14.931-25.213 25.213-38.94 13.727-63.829-6.245-76.659-23.373-.412-.412-.816-.83-1.211-1.253-21.814-23.348 12.267-57.429 35.615-35.615.603.565 1.093.973 1.252 1.212z" fill="#c76d36"/><path d="m232.202 356.994c23.348-21.814 57.429 12.267 35.615 35.615-.395.423-.799.841-1.211 1.253-12.83 17.127-37.719 37.1-76.659 23.373-29.167-10.282-26.19-22.679-25.213-25.213 1.891-4.903 19.322 8.964 33.618 0 12.611-7.908 26.197-24.204 32.598-33.816.158-.239.648-.647 1.252-1.212z" fill="#9d5528"/><path d="m267.935 392.482c-.039.042-.078.085-.117.127-.395.423-.799.841-1.211 1.253-12.83 17.127-37.719 37.1-76.659 23.373-29.167-10.282-26.19-22.679-25.213-25.213 1.736-4.501 16.569 6.817 30.049 1.767 3.377 1.93 7.604 3.861 12.886 5.723 26.287 9.267 46.171 3.176 60.265-7.03z" fill="#8f4d24"/><path d="m290.368 411.315c-7.523-5.123-13.486-11.462-17.974-17.452-.412-.412-.816-.83-1.211-1.253-21.814-23.348 12.267-57.429 35.615-35.615.604.565 1.094.973 1.253 1.211 2.718 4.081 6.731 9.367 11.414 14.704-20.969-7.777-43.821 18.177-29.097 38.405z" fill="#ab5e2e"/><path d="m424.5 289c0 6.075-4.925 11-11 11h-288c-6.075 0-11-4.925-11-11s4.925-11 11-11h288c6.075 0 11 4.925 11 11zm-299-29h288c6.075 0 11-4.925 11-11s-4.925-11-11-11h-288c-6.075 0-11 4.925-11 11s4.925 11 11 11z" fill="#6354b0"/><path d="m370.167 289c0 6.075-4.925 11-11 11h-103.667c-6.075 0-11-4.925-11-11s4.925-11 11-11h103.667c6.075 0 11 4.925 11 11zm-114.667-29h103.667c6.075 0 11-4.925 11-11s-4.925-11-11-11h-103.667c-6.075 0-11 4.925-11 11s4.925 11 11 11z" fill="#968dca"/></g></svg>