<svg id="Capa_1" enable-background="new 0 0 501 501" height="512" viewBox="0 0 501 501" width="512" xmlns="http://www.w3.org/2000/svg"><g><path d="m5.5 256c0-133.795 107.248-242.54 240.465-244.959 137.472-2.496 249.49 107.382 249.535 244.877.024 74.547-33.246 141.324-85.755 186.275-2.701 2.312-6.657 2.393-9.469.218-41.412-32.035-93.368-51.099-149.776-51.099-56.222 0-108.021 18.938-149.366 50.782-3.055 2.353-7.346 2.278-10.271-.237-52.263-44.931-85.363-111.528-85.363-185.857z" fill="#f19b0b"/><path d="m448.427 170c0 109.312-88.615 197.927-197.927 197.927s-197.927-88.615-197.927-197.927c0-27.739 5.707-54.146 16.01-78.11 44.838-49.672 109.732-80.89 181.917-80.89s137.079 31.218 181.917 80.89c10.303 23.964 16.01 50.371 16.01 78.11z" fill="#fcb30b"/><path d="m121.718 464.462c-11.017-6.821-21.454-14.49-31.218-22.917v-71.545c0-38.66 31.34-70 70-70h43.5c-38.66 0-70 31.34-70 70v87.588c0 6.302-6.923 10.192-12.282 6.874z" fill="#81ade2"/><path d="m410.5 370v71.545c-40.575 35.02-92.76 56.957-150 59.255-1.166.047-1.465-2.078-2.635-2.047-2.158.056-10.888.055-13.073-.002-1.143-.03-3.153 2.095-4.292 2.05-43.974-1.765-84.965-15.121-120-37.096v-93.705c0-38.66 31.34-70 70-70h150c38.66 0 70 31.34 70 70z" fill="#91cefb"/><path d="m355.5 410v67.423c-6.514 3.094-13.186 5.91-20 8.431v-75.854c0-5.523 4.477-10 10-10s10 4.477 10 10zm-200-10c-5.523 0-10 4.477-10 10v67.423c6.514 3.094 13.186 5.91 20 8.431v-75.854c0-5.523-4.477-10-10-10z" fill="#81ade2"/><path d="m319.5 361.545c9.389 0 17 7.611 17 17v106.936c-10.981 4.117-22.336 7.468-34 9.989v-116.925c0-9.389 7.611-17 17-17zm-155 103.46c10.981 4.117 22.336 7.468 34 9.989v-96.45c0-9.389-7.611-17-17-17-9.389 0-17 7.611-17 17z" fill="#003c79"/><path d="m164.5 300h34v81.455c0 9.389-7.611 17-17 17s-17-7.611-17-17zm138 0v81.455c0 9.389 7.611 17 17 17s17-7.611 17-17v-81.455z" fill="#6e61b5"/><path d="m318.781 295.511-68.281 74.489-68.281-74.489c-1.565-1.707-2.433-3.939-2.433-6.255 0-5.112 4.144-9.257 9.257-9.257h122.916c5.112 0 9.257 4.144 9.257 9.257-.002 2.316-.87 4.548-2.435 6.255z" fill="#fff5f5"/><path d="m308 101.015v28.985c0 44.183-35.817 80-80 80h-23.5c-44.183 0-80-35.817-80-80v-28.986c0-44.183 35.817-80 80-80h23.5c44.183.001 80 35.818 80 80.001z" fill="#67382a"/><path d="m376.5 101.015v28.985c0 44.183-35.817 80-80 80h-22c-44.183 0-80-35.817-80-80v-28.986c0-44.183 35.817-80 80-80h22c44.183.001 80 35.818 80 80.001z" fill="#7d402d"/><path d="m140.5 210c-13.807 0-25-11.193-25-25v-10c0-13.807 11.193-25 25-25 13.807 0 25 11.193 25 25v10c0 13.807-11.193 25-25 25z" fill="#efcfc8"/><path d="m130.5 170v20c0 8.178 3.927 15.439 9.998 20-13.806-.001-24.998-11.194-24.998-25v-10c0-13.806 11.192-24.999 24.998-25-6.071 4.561-9.998 11.822-9.998 20zm230-20v-20c0-60.751-49.249-110-110-110-60.751 0-110 49.249-110 110v40c0 50.351 33.83 92.801 80 105.859v34.141c0 16.569 13.431 30 30 30s30-13.431 30-30v-34.141c33.586-9.499 60.641-34.551 72.895-66.883 2.252.666 4.637 1.024 7.105 1.024 13.807 0 25-11.193 25-25v-10c0-13.807-11.193-25-25-25z" fill="#eac0b5"/><path d="m360.5 130v40c0 50.792-34.425 93.543-81.216 106.195-9.023 2.44-18.545 2.44-27.568 0-46.791-12.652-81.216-55.403-81.216-106.195v-40c0-55.663 41.345-101.669 95-108.985 53.655 7.316 95 53.322 95 108.985z" fill="#efcfc8"/><path d="m218 137.5c0 8.284-6.716 15-15 15s-15-6.716-15-15 6.716-15 15-15 15 6.716 15 15zm80-15c-8.284 0-15 6.716-15 15s6.716 15 15 15 15-6.716 15-15-6.716-15-15-15z" fill="#002c5d"/><path d="m220.5 130c0 4.142-3.358 7.5-7.5 7.5s-7.5-3.358-7.5-7.5 3.358-7.5 7.5-7.5 7.5 3.358 7.5 7.5zm87.5-7.5c-4.142 0-7.5 3.358-7.5 7.5s3.358 7.5 7.5 7.5 7.5-3.358 7.5-7.5-3.358-7.5-7.5-7.5z" fill="#fff5f5"/><path d="m250.5 240c-16.569 0-30-13.431-30-30 0-4.142 3.358-7.5 7.5-7.5h45c4.142 0 7.5 3.358 7.5 7.5 0 16.569-13.431 30-30 30z" fill="#fff5f5"/><path d="m258 239.055c-2.397.617-4.91.945-7.5.945-16.568 0-30-13.431-30-30 0-4.142 3.358-7.5 7.5-7.5h15c-4.142 0-7.5 3.358-7.5 7.5 0 13.979 9.561 25.724 22.5 29.055z" fill="#e3f0fb"/><path d="m376.5 5v35c0 33.137-26.863 60-60 60h-62c-27.614 0-50-22.386-50-50 0-27.614 22.386-50 50-50h117c2.761 0 5 2.239 5 5z" fill="#7d402d"/><path d="m124.5 105v-45c0-33.137 26.863-60 60-60h2c27.614 0 50 22.386 50 50v10c0 27.614-22.386 50-50 50h-57c-2.761 0-5-2.239-5-5z" fill="#67382a"/><path d="m240.5 340h20v160.799c-3.317.133-6.65.201-10 .201s-6.683-.067-10-.201z" fill="#fff5f5"/><path d="m218.5 420v20c0 5.523-4.477 10-10 10-5.523 0-10-4.477-10-10v-20c0-5.523 4.477-10 10-10 5.523 0 10 4.477 10 10z" fill="#e1a595"/><path d="m244.5 457v14c0 13.349-8.719 24.661-20.772 28.554-12.927-1.405-25.553-3.815-37.796-7.152-.918-1.942-1.431-4.112-1.431-6.402v-44c0-8.284 6.716-15 15-15h15c16.568 0 29.999 13.431 29.999 30z" fill="#e1a595"/><path d="m184.5 455v-13c0-8.284 6.716-15 15-15h15c13.616 0 25.113 9.071 28.778 21.5-3.665 12.429-15.162 21.5-28.778 21.5h-15c-8.284 0-15-6.716-15-15z" fill="#eac0b5"/><path d="m185.5 205c0-13.807 11.193-25 25-25h30c8.284 0 15 6.716 15 15 0 8.284-6.716 15-15 15h-50c-2.761 0-5-2.239-5-5z" fill="#67382a"/><path d="m310.5 210h-50c-8.284 0-15-6.716-15-15 0-8.284 6.716-15 15-15h30c13.807 0 25 11.193 25 25 0 2.761-2.239 5-5 5z" fill="#7d402d"/><path d="m236 178.731c-2.929-2.93-2.929-7.678 0-10.607 2.929-2.928 7.678-2.928 10.606 0 1.042 1.042 2.424 1.616 3.893 1.616s2.851-.574 3.893-1.616c2.929-2.928 7.678-2.928 10.606 0 2.929 2.93 2.929 7.678 0 10.607-3.875 3.875-9.024 6.009-14.5 6.009s-10.623-2.134-14.498-6.009z" fill="#e1a595"/><path d="m122.667 427h76v68.506c-27.302-5.881-52.913-16.312-76-30.459z" fill="#91cefb"/><path d="m131.124 470h67.543v25.506c-24.011-5.172-46.715-13.862-67.543-25.506z" fill="#81ade2"/><path d="m427.214 273.784-6.941-20.544c-.399-1.182-1.327-2.11-2.509-2.509l-20.544-6.941c-3.626-1.225-3.626-6.354 0-7.579l20.544-6.941c1.182-.399 2.11-1.327 2.509-2.509l6.941-20.544c1.225-3.626 6.354-3.626 7.579 0l6.941 20.544c.399 1.182 1.327 2.11 2.509 2.509l20.544 6.941c3.626 1.225 3.626 6.354 0 7.579l-20.544 6.941c-1.182.399-2.11 1.327-2.509 2.509l-6.941 20.544c-1.225 3.626-6.354 3.626-7.579 0zm-360.934 52.421 5.123-15.164c.295-.872.98-1.557 1.852-1.852l15.164-5.123c2.677-.904 2.677-4.69 0-5.594l-15.164-5.123c-.872-.295-1.557-.98-1.852-1.852l-5.123-15.164c-.904-2.677-4.69-2.677-5.594 0l-5.123 15.164c-.295.872-.98 1.557-1.852 1.852l-15.164 5.123c-2.677.904-2.677 4.69 0 5.594l15.164 5.123c.872.295 1.557.98 1.852 1.852l5.123 15.164c.904 2.677 4.689 2.677 5.594 0z" fill="#fff5f5"/><path d="m123.694 102.652-3.305-9.783c-.19-.563-.632-1.005-1.195-1.195l-9.783-3.305c-1.727-.583-1.727-3.026 0-3.609l9.783-3.305c.563-.19 1.005-.632 1.195-1.195l3.305-9.783c.583-1.727 3.026-1.727 3.609 0l3.305 9.783c.19.563.632 1.005 1.195 1.195l9.783 3.305c1.727.583 1.727 3.026 0 3.609l-9.783 3.305c-.563.19-1.005.632-1.195 1.195l-3.305 9.783c-.583 1.727-3.025 1.727-3.609 0z" fill="#f3d373"/></g></svg>