<svg id="Capa_1" enable-background="new 0 0 501 501" height="512" viewBox="0 0 501 501" width="512" xmlns="http://www.w3.org/2000/svg"><g><path d="m18.517 176.997c32.87-96.546 124.316-165.997 231.983-165.997s199.113 69.451 231.983 165.997z" fill="#f5c02c"/><path d="m30.025 149.028h440.95c15.712 32.323 24.525 68.618 24.525 106.972 0 41.771-10.453 81.101-28.887 115.515h-432.226c-18.433-34.414-28.887-73.744-28.887-115.515 0-38.354 8.813-74.649 24.525-106.972z" fill="#fda800"/><path d="m213.989 342.344-24.278-177.203c-.052-.703-.148-1.411-.29-2.12l-30.069-149.423c-1.845-9.169-10.774-15.107-19.944-13.262l-58.109 11.694c-4.585.922-7.553 5.387-6.631 9.972.923 4.584 5.387 7.553 9.971 6.631-4.584.923-7.553 5.387-6.63 9.972s5.387 7.554 9.972 6.631c-4.585.923-7.553 5.387-6.631 9.972.923 4.585 5.387 7.554 9.972 6.631-4.585.923-7.553 5.387-6.631 9.972.923 4.584 5.387 7.553 9.972 6.631-4.585.922-7.553 5.387-6.631 9.972.923 4.584 5.387 7.553 9.972 6.631-4.585.922-7.553 5.387-6.631 9.972.923 4.585 5.387 7.554 9.972 6.631-4.585.923-7.553 5.387-6.631 9.972.923 4.584 5.387 7.553 9.972 6.631-4.585.922-7.553 5.387-6.631 9.972.923 4.584 5.387 7.553 9.972 6.631-4.585.922-7.553 5.387-6.631 9.972s5.387 7.553 9.972 6.631c-4.585.922-7.553 5.387-6.631 9.972.923 4.585 5.387 7.554 9.972 6.631-4.585.923-7.553 5.387-6.631 9.972.923 4.585 5.387 7.554 9.972 6.631l42.544-8.561 42.327 158.474z" fill="#6e61b5"/><path d="m476.819 350c-36.866 88.66-124.312 151-226.319 151-52.852 0-101.794-16.735-141.819-45.195-2.447-1.74-1.677-7.407-4.056-9.233-2.334-1.792-7.819.258-10.085-1.615-30.57-25.26-54.907-57.797-70.359-94.957z" fill="#8f4d24"/><path d="m202.921 344.571-42.327-158.474-42.544 8.561c-4.585.923-9.049-2.046-9.972-6.631-.922-4.584 2.046-9.049 6.631-9.972l35.973-7.239c9.169-1.845 15.107-10.774 13.262-19.944l-52.575 10.58c-4.585.922-9.049-2.046-9.972-6.631s2.046-9.049 6.631-9.972l52.575-10.58-3.341-16.603-52.575 10.58c-4.585.923-9.049-2.046-9.972-6.631-.923-4.584 2.046-9.049 6.631-9.972l52.575-10.58-3.341-16.603-52.575 10.58c-4.585.922-9.049-2.046-9.972-6.631-.923-4.585 2.046-9.049 6.631-9.972l52.575-10.58-3.341-16.603-52.575 10.58c-4.585.923-9.049-2.046-9.972-6.631-.922-4.584 2.046-9.049 6.631-9.972l52.575-10.58c-1.845-9.169-10.774-15.107-19.944-13.262l-35.973 7.244c-4.585.922-9.049-2.046-9.972-6.631-.922-4.585 2.046-9.049 6.631-9.972l58.109-11.693c9.169-1.845 18.099 4.092 19.944 13.262l30.069 149.424c.143.709.239 1.417.29 2.12l24.278 177.203z" fill="#463b83"/><path d="m237.87 238.924c2.04-23.322 5.537-45.934 10.317-67.601 2.8-12.692 10.317-20.009 18.601-22.296 7.46 3.291 13.347 10.253 14.08 20.573 1.292 18.197 1.17 36.953-.501 56.05-2.391 27.327-28.457 152.34-42.014 193.145-2.383-66.611-2.607-155.59-.483-179.871z" fill="#54469b"/><path d="m398.52 45.607c-7.44-1.994-14.982-1.207-21.518 1.719-5.186-12.165-15.703-21.919-29.438-25.6-23.716-6.354-48.18 7.77-54.535 31.486l-8.739 32.613v.001l-10.579 39.479-47.738-4.176 1.798 67.799 53.987 4.723 11.85-59.427 8.69-32.431 22.217 5.953c23.716 6.354 48.18-7.77 54.534-31.486.067-.249.13-.498.192-.747.208-.48.384-.981.523-1.502 1.536-5.733 7.45-9.147 13.183-7.611 5.742 1.538 11.644-1.869 13.183-7.611 1.539-5.741-1.868-11.644-7.61-13.182zm-68.433 41.345-22.216-5.953 5.953-22.216c3.282-12.25 15.919-19.546 28.169-16.264s19.546 15.919 16.263 28.169c-3.283 12.251-15.919 19.547-28.169 16.264z" fill="#528ed7"/><path d="m300.595 37.784c10.629-13.941 29.014-20.869 46.969-16.058 3.169.849 6.166 2.022 8.967 3.472 5.238 2.714 7.327 9.131 4.668 14.398l-.019.037c-2.728 5.405-9.309 7.349-14.705 4.604-1.404-.714-2.902-1.294-4.483-1.717-9.226-2.472-18.67 1.056-24.174 8.181-3.185 4.123-8.785 5.502-13.436 3.154l-.04-.02c-5.972-3.016-7.804-10.73-3.747-16.051z" fill="#81ade2"/><path d="m227.772 188.928 21.296 1.863-1.699-64.057.319-.028-5.16-58.975-1.67-19.084c-2.14-24.459-23.78-42.617-48.239-40.477s-42.617 23.78-40.477 48.239 23.779 42.617 48.238 40.477l22.913-2.005 2.846 32.53zm-6.354-115.492-22.913 2.005c-12.634 1.105-23.812-8.274-24.917-20.908s8.274-23.812 20.908-24.917 23.812 8.274 24.917 20.908l1.67 19.084.081.926z" fill="#0573cd"/><path d="m256.283 173.656c-7.896-.691-13.737-7.652-13.046-15.548s7.652-13.737 15.548-13.046 13.737 7.652 13.046 15.548-7.652 13.736-15.548 13.046z" fill="#e3f0fb"/><path d="m253.333 145.632c1.714-.525 3.556-.736 5.452-.57s3.673.693 5.27 1.509l-2.32 26.515c-1.714.525-3.556.736-5.452.57s-3.673-.693-5.27-1.508z" fill="#bbe0fb"/><path d="m125.934 206.572h195.404c6.343 0 11.083 5.83 9.79 12.04l-47.492 227.96h-120l-47.492-227.96c-1.294-6.211 3.446-12.04 9.79-12.04z" fill="#c92e43"/><path d="m321.337 206.571c2.628 0 4.981 1.001 6.744 2.615l-25.287 121.378h-120l-25.832-123.993z" fill="#e43950"/><path d="m433.59 203.926v13.278c0 4.142-3.358 7.5-7.5 7.5h-56.62v60.676h-60.276v-60.676h-9.491c-4.142 0-7.5-3.357-7.5-7.5v-13.278c0-4.142 3.358-7.5 7.5-7.5h126.387c4.142 0 7.5 3.358 7.5 7.5z" fill="#002c5d"/><path d="m397.833 422.81c-6.941 6.611-16.222 10.204-25.808 10.204h-65.381c-9.666 0-18.998-3.676-25.979-10.362-16.124-15.442-26.165-37.186-26.165-61.274 0-30.392 15.982-57.051 40-72.031v-23.587c0-5.523 4.477-10 10-10h69.664c5.523 0 10 4.477 10 10v23.702c23.078 14.492 38.824 39.775 39.935 68.555.985 25.506-9.296 48.629-26.266 64.793zm-80.509-205.606v-13.277c0-4.142 3.358-7.5 7.5-7.5h101.266c4.142 0 7.5 3.358 7.5 7.5v13.277c0 4.142-3.358 7.5-7.5 7.5h-101.266c-4.143 0-7.5-3.358-7.5-7.5z" fill="#54469b"/><path d="m397.767 422.873c-6.925 6.583-16.187 10.141-25.742 10.141h-2.982c-10.947 0-21.453-4.279-29.314-11.897-17.683-17.133-28.674-41.132-28.674-67.699 0-19.28 5.789-37.209 15.723-52.141 12.214-18.36 36.919-24.091 55.84-12.763 23.92 14.32 40.346 40.085 41.482 69.503.986 25.539-9.324 48.689-26.333 64.856z" fill="#6e61b5"/><path d="m281.462 417.631c0 23.31-18.896 42.206-42.206 42.206h-112.55c-.064 0-.129 0-.193 0-11.092-.05-19.872-9.427-19.546-20.514.694-23.568 7.613-63.898 24.49-63.898h107.798c23.311 0 42.207 18.896 42.207 42.206z" fill="#81ade2"/><path d="m195.736 445.769c-3.282 0-6.139 2.259-6.88 5.456-.641 2.764-1.115 5.642-1.406 8.613h21.463c.238-1.869.569-3.69.983-5.447 1.04-4.41-9.63-8.622-14.16-8.622zm-25.265 0c-3.282 0-6.139 2.259-6.88 5.456-.641 2.764-1.115 5.642-1.406 8.613h14.172c.238-1.869.569-3.69.983-5.447 1.04-4.41-2.339-8.622-6.869-8.622z" fill="#528ed7"/><path d="m279.256 394.412h-112.55c-23.31 0-23.31-84.412 0-84.412h112.55c23.31 0 42.206 18.896 42.206 42.206 0 23.31-18.896 42.206-42.206 42.206z" fill="#81ade2"/><path d="m208.912 352.206c0 23.31-18.896 42.206-42.206 42.206-1.671 0-3.32-.098-4.94-.287 4.513 6.718 7.146 14.804 7.146 23.505 0 23.31-18.896 42.206-42.206 42.206-6.449 0-12.56-1.447-18.026-4.033-4.847-3.447-9.564-7.066-14.141-10.848-6.261-7.363-10.039-16.903-10.039-27.325 0-23.31 18.893-42.49 42.203-42.49 1.671 0 3.054-.023 4.675.166-4.513-6.718-6.878-14.399-6.878-23.1 0-23.31 18.896-42.206 42.206-42.206 23.31 0 42.206 18.897 42.206 42.206z" fill="#0573cd"/><path d="m307.393 352.206c0 5.494-.612 10.75-1.747 15.647-.741 3.198-3.598 5.456-6.88 5.456-4.531 0-7.909-4.212-6.869-8.622.92-3.899 1.427-8.112 1.427-12.481s-.508-8.582-1.427-12.481c-1.04-4.409 2.338-8.622 6.869-8.622 3.282 0 6.139 2.258 6.88 5.456 1.136 4.897 1.747 10.154 1.747 15.647zm-77.542 15.647c1.135-4.896 1.747-10.153 1.747-15.647s-.612-10.75-1.747-15.647c-.741-3.198-3.598-5.456-6.88-5.456-4.531 0-7.909 4.213-6.869 8.622.92 3.899 1.427 8.112 1.427 12.481s-.508 8.582-1.427 12.481c-1.04 4.41 2.338 8.622 6.869 8.622 3.282 0 6.138-2.258 6.88-5.456zm25.265 0c1.135-4.896 1.747-10.153 1.747-15.647s-.612-10.75-1.747-15.647c-.741-3.198-3.598-5.456-6.88-5.456-4.531 0-7.909 4.213-6.869 8.622.92 3.899 1.427 8.112 1.427 12.481s-.508 8.582-1.427 12.481c-1.04 4.41 2.338 8.622 6.869 8.622 3.282 0 6.139-2.258 6.88-5.456zm25.265 0c1.135-4.896 1.747-10.153 1.747-15.647s-.612-10.75-1.747-15.647c-.741-3.198-3.598-5.456-6.88-5.456-4.53 0-7.909 4.213-6.869 8.622.92 3.899 1.427 8.112 1.427 12.481s-.507 8.582-1.427 12.481c-1.04 4.41 2.339 8.622 6.869 8.622 3.282 0 6.139-2.258 6.88-5.456zm5.885-43.784c4.53 0 7.909-4.212 6.869-8.622-.257-1.089-.482-2.204-.672-3.338-4.155-1.368-8.594-2.108-13.207-2.108h-1.276c.291 2.971.765 5.85 1.406 8.613.741 3.196 3.598 5.455 6.88 5.455zm-75.795 0c4.53 0 7.909-4.212 6.869-8.622-.414-1.756-.745-3.578-.983-5.447h-14.172c.291 2.971.765 5.85 1.406 8.613.741 3.197 3.598 5.456 6.88 5.456zm25.265 0c4.53 0 7.909-4.212 6.869-8.622-.414-1.756-.745-3.578-.983-5.447h-14.172c.291 2.971.765 5.85 1.406 8.613.741 3.197 3.598 5.456 6.88 5.456zm25.265 0c4.53 0 7.909-4.212 6.869-8.622-.414-1.756-.745-3.578-.983-5.447h-14.172c.291 2.971.765 5.85 1.406 8.613.741 3.197 3.598 5.456 6.88 5.456z" fill="#528ed7"/><path d="m322.294 459.837h-112.55c-23.31 0-23.31-84.412 0-84.412h112.55c23.31 0 42.206 18.896 42.206 42.206 0 23.31-18.896 42.206-42.206 42.206z" fill="#bbe0fb"/><path d="m322.294 375.425c16.617 0 30.99 9.604 37.875 23.563-6.885 13.959-21.258 23.563-37.875 23.563h-112.55c-16.617 0-16.617-47.125 0-47.125h112.55z" fill="#e3f0fb"/><path d="m209.744 459.837c-23.31 0-42.206-18.896-42.206-42.206 0-23.31 18.896-42.206 42.206-42.206 23.31 0 42.206 18.896 42.206 42.206 0 23.31-18.896 42.206-42.206 42.206z" fill="#528ed7"/><path d="m154.844 417.631c0 15.54-12.598 28.137-28.137 28.137s-28.137-12.598-28.137-28.137c0-15.54 12.598-28.137 28.137-28.137s28.137 12.597 28.137 28.137zm11.862-93.562c-15.54 0-28.137 12.598-28.137 28.137s12.598 28.137 28.137 28.137 28.137-12.598 28.137-28.137-12.597-28.137-28.137-28.137zm43.038 65.425c-15.54 0-28.137 12.598-28.137 28.137 0 15.54 12.598 28.137 28.137 28.137s28.137-12.598 28.137-28.137c.001-15.54-12.597-28.137-28.137-28.137z" fill="#004b92"/><path d="m350.431 417.631c0 5.494-.612 10.75-1.747 15.647-.741 3.197-3.598 5.456-6.88 5.456-4.53 0-7.909-4.212-6.869-8.622.92-3.899 1.427-8.112 1.427-12.481 0-4.368-.507-8.581-1.427-12.481-1.04-4.409 2.339-8.622 6.869-8.622 3.282 0 6.139 2.258 6.88 5.456 1.136 4.897 1.747 10.154 1.747 15.647zm-77.542 15.648c1.135-4.897 1.747-10.154 1.747-15.647s-.612-10.75-1.747-15.647c-.741-3.198-3.598-5.456-6.88-5.456-4.53 0-7.909 4.213-6.869 8.622.92 3.9 1.427 8.113 1.427 12.481 0 4.369-.507 8.582-1.427 12.481-1.04 4.41 2.339 8.622 6.869 8.622 3.282-.001 6.139-2.259 6.88-5.456zm25.265 0c1.135-4.897 1.747-10.154 1.747-15.647s-.612-10.75-1.747-15.647c-.741-3.198-3.598-5.456-6.88-5.456-4.53 0-7.909 4.213-6.869 8.622.92 3.9 1.427 8.113 1.427 12.481 0 4.369-.508 8.582-1.427 12.481-1.04 4.41 2.339 8.622 6.869 8.622 3.282-.001 6.139-2.259 6.88-5.456zm25.265 0c1.135-4.897 1.747-10.154 1.747-15.647s-.612-10.75-1.747-15.647c-.741-3.198-3.598-5.456-6.88-5.456-4.53 0-7.909 4.213-6.869 8.622.92 3.9 1.427 8.113 1.427 12.481 0 4.369-.507 8.582-1.427 12.481-1.04 4.41 2.338 8.622 6.869 8.622 3.282-.001 6.139-2.259 6.88-5.456zm-19.38 12.49c-3.282 0-6.139 2.259-6.88 5.456-.641 2.764-1.115 5.642-1.406 8.613h14.172c.238-1.869.569-3.69.983-5.447 1.04-4.41-2.338-8.622-6.869-8.622zm-25.265 0c-3.282 0-6.139 2.259-6.88 5.456-.641 2.764-1.115 5.642-1.406 8.613h14.172c.238-1.869.569-3.69.983-5.447 1.04-4.41-2.338-8.622-6.869-8.622zm50.531-56.275c4.53 0 7.909-4.212 6.869-8.622-.257-1.089-.482-2.204-.672-3.338-4.155-1.368-8.594-2.108-13.207-2.108h-1.276c.291 2.971.765 5.85 1.406 8.613.741 3.196 3.597 5.455 6.88 5.455zm0 56.275c-3.282 0-6.139 2.259-6.88 5.456-.641 2.764-1.115 5.642-1.406 8.613h1.276c4.613 0 9.052-.74 13.207-2.108.19-1.135.415-2.249.672-3.339 1.039-4.41-2.339-8.622-6.869-8.622zm-75.796-56.275c4.53 0 7.909-4.212 6.869-8.622-.415-1.756-.745-3.578-.983-5.447h-14.172c.291 2.971.765 5.85 1.406 8.613.741 3.197 3.598 5.456 6.88 5.456zm25.265 0c4.53 0 7.909-4.212 6.869-8.622-.414-1.756-.745-3.578-.983-5.447h-14.172c.291 2.971.765 5.85 1.406 8.613.741 3.197 3.598 5.456 6.88 5.456zm25.265 0c4.53 0 7.909-4.212 6.869-8.622-.415-1.756-.745-3.578-.983-5.447h-14.172c.291 2.971.765 5.85 1.406 8.613.741 3.197 3.598 5.456 6.88 5.456zm-50.53 56.275c-3.282 0-6.139 2.259-6.88 5.456-.641 2.764-1.115 5.642-1.406 8.613h14.172c.238-1.869.569-3.69.983-5.447 1.04-4.41-2.339-8.622-6.869-8.622z" fill="#81ade2"/><path d="m425.809 369.508-5.123-15.164c-.295-.872-.98-1.557-1.852-1.852l-15.164-5.123c-2.677-.904-2.677-4.69 0-5.594l15.164-5.123c.872-.295 1.557-.98 1.852-1.852l5.123-15.164c.904-2.677 4.69-2.677 5.594 0l5.123 15.164c.295.872.98 1.557 1.852 1.852l15.164 5.123c2.677.904 2.677 4.69 0 5.594l-15.164 5.123c-.872.295-1.557.98-1.852 1.852l-5.123 15.164c-.904 2.676-4.69 2.676-5.594 0zm-181.358-264.067 6.941-20.544c.399-1.182 1.327-2.11 2.509-2.509l20.544-6.941c3.626-1.225 3.626-6.354 0-7.579l-20.544-6.941c-1.182-.399-2.11-1.327-2.509-2.509l-6.941-20.544c-1.225-3.626-6.354-3.626-7.579 0l-6.941 20.544c-.399 1.182-1.327 2.11-2.509 2.509l-20.544 6.941c-3.626 1.225-3.626 6.354 0 7.579l20.544 6.941c1.182.399 2.11 1.327 2.509 2.509l6.941 20.544c1.225 3.626 6.353 3.626 7.579 0z" fill="#fff5f5"/><path d="m252.977 197.331-27.593 68.167c-1.394 3.443-5.177 5.262-8.736 4.201-3.56-1.061-5.729-4.654-5.01-8.298l14.234-72.149c.822-4.168 5.055-6.723 9.126-5.51l13.359 3.982c4.071 1.214 6.214 5.669 4.62 9.607zm-50.332-21.51h-13.939c-4.249 0-7.575 3.658-7.172 7.887l6.97 73.208c.352 3.698 3.458 6.521 7.172 6.521s6.82-2.824 7.172-6.521l6.97-73.208c.401-4.229-2.925-7.887-7.173-7.887z" fill="#f7c37d"/><path d="m252.976 197.331-9.102 22.485c-1.689 4.172-5.74 6.903-10.242 6.903h-1.712c-6.961 0-12.187-6.358-10.84-13.188l4.79-24.281c.822-4.168 5.055-6.724 9.126-5.51l13.358 3.982c4.074 1.216 6.217 5.671 4.622 9.609zm-50.331-21.51h-13.939c-4.249 0-7.575 3.658-7.172 7.887l3.143 33.009c.54 5.671 5.303 10.002 10.999 10.002s10.459-4.331 10.999-10.002l3.143-33.009c.401-4.229-2.925-7.887-7.173-7.887z" fill="#fff5f5"/></g></svg>