<svg id="Capa_1" enable-background="new 0 0 501 501" height="512" viewBox="0 0 501 501" width="512" xmlns="http://www.w3.org/2000/svg"><g><path d="m14.468 190.089c28.784-103.297 123.557-179.089 236.032-179.089s207.248 75.792 236.032 179.089c.521 1.87-113.785 64.003-230.032 64.035-120.247.033-242.571-62.101-242.032-64.035z" fill="#003c79"/><path d="m23.526 303.884c-7.877 0-14.554-5.803-15.647-13.604-1.568-11.202-2.379-22.646-2.379-34.28 0-22.835 3.124-44.939 8.968-65.911h472.064c5.844 20.971 8.968 43.076 8.968 65.911 0 11.742-.826 23.291-2.423 34.593-1.077 7.62-7.591 13.291-15.287 13.291z" fill="#004b92"/><path d="m493.16 290c-5.538 39.888-20.679 76.705-43.013 108.04-1.481 2.078-5.936 1.93-7.48 3.96-17.344 22.799-38.593 42.465-62.75 58.003-3.283 2.112-3.678 6.349-7.066 8.306-36.003 20.793-77.787 32.691-122.351 32.691-15.833 0-31.314-1.502-46.311-4.371-3.598-.688-6.189-3.854-6.189-7.517v-119.842h-164.8c-12.699-24.312-21.438-51.021-25.36-79.27z" fill="#8f4d24"/><path d="m294.5 15c0 8.284-6.716 15-15 15h-75v50h-70v-50h-5c-8.284 0-15-6.716-15-15s6.716-15 15-15h150c8.284 0 15 6.716 15 15z" fill="#81ade2"/><path d="m209.5 100h-80c-8.284 0-15-6.716-15-15 0-8.284 6.716-15 15-15h80c8.284 0 15 6.716 15 15 0 8.284-6.716 15-15 15zm70-70h-113.667c-8.284 0-15-6.716-15-15 0-8.284 6.716-15 15-15h113.667c8.284 0 15 6.716 15 15 0 8.284-6.716 15-15 15z" fill="#91cefb"/><path d="m209.5 100h-45c-8.284 0-15-6.716-15-15 0-8.284 6.716-15 15-15h45c8.284 0 15 6.716 15 15 0 8.284-6.716 15-15 15zm70-70c-8.284 0-15-6.716-15-15 0-8.284 6.716-15 15-15 8.284 0 15 6.716 15 15 0 8.284-6.716 15-15 15z" fill="#e3f0fb"/><path d="m224.5 360h-110c-16.569 0-30-13.431-30-30v-210c0-16.569 13.431-30 30-30h110c16.569 0 30 13.431 30 30v210c0 16.569-13.431 30-30 30z" fill="#ab2538"/><path d="m224.5 360h-76.5c-16.569 0-30-13.431-30-30v-210c0-16.569 13.431-30 30-30h76.5c16.569 0 30 13.431 30 30v210c0 16.569-13.431 30-30 30z" fill="#c92e43"/><path d="m254.5 164.853-148.24 148.24-9.295-92.629 130.335-130.335c15.256 1.412 27.2 14.246 27.2 29.871z" fill="#ef7280"/><path d="m118 301.353-33.162 33.162c-.222-1.473-.338-2.98-.338-4.515v-97.071l33.5-33.5z" fill="#e43950"/><path d="m22.918 360c-.133-9.39 1.874-18.78 6.486-27 17.06-30.409 60.696-28.654 63.5-28.5 26.461 1.452 27.69 15.971 62 21.5 11.366 1.832 35.542 5.728 60-5 23.104-10.134 24.47-23.672 38-24 24.322-.59 50.846 42.412 49.542 63z" fill="#fff5f5"/><path d="m100.506 360h-77.588c-.133-9.39 1.874-18.78 6.486-27 17.06-30.409 60.696-28.654 63.5-28.5 14.93.819 21.828 5.799 31.167 10.976-6.673 4.129-12.737 9.785-17.079 17.524-4.612 8.22-6.619 17.61-6.486 27z" fill="#fde5bd"/><path d="m34.5 350h280v10c0 66.945-46.987 122.914-109.782 136.73-73.343-13.863-135.13-60.415-169.641-123.935-.381-4.214-.577-8.482-.577-12.795z" fill="#8279c0"/><path d="m100.5 360v-10h214v10c0 56.044-32.932 104.396-80.5 126.762-57.06-20.402-104.344-61.367-132.923-113.968-.381-4.213-.577-8.481-.577-12.794z" fill="#968dca"/><path d="m329.5 380h-305.625c-8.284 0-15-6.716-15-15 0-8.284 6.716-15 15-15h305.625c8.284 0 15 6.716 15 15 0 8.284-6.716 15-15 15z" fill="#aba4d5"/><path d="m329.5 380h-241.009c-8.284 0-15-6.716-15-15 0-8.284 6.716-15 15-15h241.009c8.284 0 15 6.716 15 15 0 8.284-6.716 15-15 15z" fill="#c1bbdf"/><path d="m301.858 69.999c-.118.001-.236.001-.355 0-8.552-.091-14.558-8.562-12.078-16.747 2.505-8.27 6.729-15.792 12.256-22.152 5.527 6.36 9.751 13.883 12.256 22.152 2.479 8.185-3.527 16.656-12.079 16.747z" fill="#fcb30b"/><path d="m313.936 53.252c2.48 8.185-3.526 16.656-12.078 16.747-.118.001-.236.001-.355 0-8.552-.091-14.558-8.562-12.078-16.747.453-1.495.962-2.966 1.525-4.41 1.587 5.097 6.23 9.045 12.053 9.107.118.001.236.001.355 0 4.366-.047 8.068-2.277 10.317-5.538.089.279.176.56.261.841z" fill="#d98800"/><path d="m170.406 295.041c-2.161-.579-3.609-2.6-3.481-4.834 3.254-56.902 34.202-111.105 87.248-141.732s115.462-30.326 166.367-4.693c1.998 1.006 3.024 3.271 2.445 5.432l-53.376 199.203z" fill="#81ade2"/><path d="m422.642 150.497c-34.983 29.173-75.174 57.306-119.456 82.872s-88.741 46.306-131.496 62.016l-1.284-.344c-2.161-.579-3.609-2.6-3.482-4.834 3.254-56.902 34.202-111.105 87.248-141.732s115.462-30.326 166.367-4.693c1.998 1.006 3.024 3.271 2.445 5.432z" fill="#91cefb"/><path d="m270.694 289.848-105.516-28.273c-5.017-1.344-7.995-6.502-6.651-11.519s6.502-7.995 11.519-6.651l91.633 24.553-76.654-44.256c-4.498-2.597-6.04-8.349-3.443-12.848 2.597-4.498 8.349-6.04 12.848-3.443l86.442 49.907-70.967-70.967c-3.673-3.673-3.673-9.628 0-13.301s9.628-3.673 13.301 0l81.142 81.142-58.907-102.031c-2.597-4.499-1.056-10.251 3.443-12.848 4.498-2.597 10.251-1.056 12.848 3.443l58.907 102.031-29.7-110.841c-1.344-5.017 1.633-10.175 6.651-11.519 5.017-1.344 10.175 1.633 11.519 6.65l25.976 96.942v-99.815c0-5.194 4.211-9.405 9.405-9.405s9.405 4.211 9.405 9.405v88.512l24.553-91.633c1.344-5.017 6.502-7.995 11.519-6.651 5.017 1.344 7.995 6.502 6.651 11.519l-28.273 105.516z" fill="#81ade2"/><path d="m450.147 398.04c-.421.591-.845 1.223-1.309 1.818-20.199 27.801-46.101 51.19-75.987 68.45-.102-.167-.203-.336-.302-.507-4.39-7.604-3.758-16.73.868-23.535l-95.107-111.39c-2.9-3.396-2.007-8.592 1.861-10.824l111.325-64.274c3.868-2.233 8.813-.409 10.305 3.801z" fill="#d98800"/><path d="m414.203 391.397c-16.161 9.331-36.678 5.803-48.795-8.388l-63.005-73.792 89.094-51.438c3.868-2.233 8.813-.409 10.305 3.801l29.535 83.366c6.231 17.589-.973 37.121-17.134 46.451zm27.077 11.154-32.313 18.656c-10.122 5.844-13.885 18.473-8.86 28.826 18.532-14.31 34.958-31.216 48.731-50.174-2.59.415-5.15 1.302-7.558 2.692z" fill="#fcb30b"/><path d="m365.799 116.09c6.093 14.783-37.814 39.824-93.652 71.669-54.471 31.066-92.789 52.919-101.834 41.195-5.077-6.581-1.269-24.181 9.639-44.011-1.611-.33-2.87-1.049-3.756-2.197-5.866-7.603 4.078-34.811 24.939-57.544-.287-8.943 5.731-24.365 16.714-39.668 18.738-1.868 35.104.618 42.702 5.366 30.076-6.699 58.601-1.769 62.289 7.181.549 1.332.557 2.775.073 4.325 22.577.462 39.696 5.946 42.886 13.684z" fill="#fff5f5"/><path d="m323.119 125.419c-11.058 9.289-25.347 18.247-41.095 27.339-7.349 4.243-15.014 8.515-22.819 12.864-13.827 7.705-26.545 14.792-38.351 20.613-3.423 13.448-3.717 24.538-.769 30.421-26.261 13.571-43.992 19.789-49.772 12.298-5.077-6.581-1.269-24.181 9.639-44.011-1.611-.33-2.87-1.049-3.756-2.197-5.866-7.603 4.078-34.811 24.939-57.543-.287-8.943 5.731-24.365 16.714-39.668 7.832-.781 15.249-.801 21.785-.213-2.545 7.536-3.954 14.449-4.198 20.01 5.199-2.969 9.844-5.813 13.077-8.529 3.983-3.339 9.911-2.825 13.251 1.152 3.341 3.978 2.826 9.91-1.152 13.251-4.038 3.393-9.08 6.558-14.586 9.736-2.489 1.437-5.071 2.876-7.7 4.342-4.849 2.702-9.302 5.184-13.498 7.232-5.875 13.844-8.282 26.562-7.065 34.217 9.96-5.103 20.72-11.099 32.282-17.542 23.726-13.22 46.132-25.707 60.975-38.176 3.981-3.339 9.91-2.825 13.251 1.152 3.341 3.978 2.825 9.91-1.152 13.252z" fill="#fde5bd"/></g></svg>