<svg id="Capa_1" enable-background="new 0 0 501 501" height="512" viewBox="0 0 501 501" width="512" xmlns="http://www.w3.org/2000/svg"><g><path d="m490 256c0 135.31-109.69 245-245 245s-245-109.69-245-245 109.69-245 245-245 245 109.69 245 245z" fill="#6354b0"/><path d="m488.839 280c-12.06 124.046-116.627 221-243.839 221s-231.779-96.954-243.839-221z" fill="#8279c0"/><path d="m319 390h-280c-5.523 0-10-4.477-10-10v-300c0-5.523 4.477-10 10-10h280c5.523 0 10 4.477 10 10v300c0 5.523-4.477 10-10 10z" fill="#81ade2"/><path d="m319 390h-250c-5.523 0-10-4.477-10-10v-300c0-5.523 4.477-10 10-10h250c5.523 0 10 4.477 10 10v300c0 5.523-4.477 10-10 10z" fill="#bbe0fb"/><path d="m209 135v30c0 2.761-2.239 5-5 5h-60c-2.761 0-5-2.239-5-5v-30c0-2.761 2.239-5 5-5h60c2.761 0 5 2.239 5 5zm85-5h-60c-2.761 0-5 2.239-5 5v30c0 2.761 2.239 5 5 5h44.083c11.552 0 20.917-9.365 20.917-20.917v-14.083c0-2.761-2.239-5-5-5zm-90 60h-60c-2.761 0-5 2.239-5 5v30c0 2.761 2.239 5 5 5h60c2.761 0 5-2.239 5-5v-30c0-2.761-2.239-5-5-5zm-90 120h-60c-2.761 0-5 2.239-5 5v30c0 2.761 2.239 5 5 5h60c2.761 0 5-2.239 5-5v-30c0-2.761-2.239-5-5-5zm180 0h-60c-2.761 0-5 2.239-5 5v30c0 2.761 2.239 5 5 5h60c2.761 0 5-2.239 5-5v-30c0-2.761-2.239-5-5-5zm-90-60h-60c-2.761 0-5 2.239-5 5v30c0 2.761 2.239 5 5 5h60c2.761 0 5-2.239 5-5v-30c0-2.761-2.239-5-5-5z" fill="#81ade2"/><path d="m114 250h-60c-2.761 0-5 2.239-5 5v30c0 2.761 2.239 5 5 5h60c2.761 0 5-2.239 5-5v-30c0-2.761-2.239-5-5-5zm5-115v30c0 2.761-2.239 5-5 5h-60c-2.761 0-5-2.239-5-5v-30c0-2.761 2.239-5 5-5h60c2.761 0 5 2.239 5 5zm-5 55h-60c-2.761 0-5 2.239-5 5v30c0 2.761 2.239 5 5 5h60c2.761 0 5-2.239 5-5v-30c0-2.761-2.239-5-5-5zm180 0h-60c-2.761 0-5 2.239-5 5v30c0 2.761 2.239 5 5 5h60c2.761 0 5-2.239 5-5v-30c0-2.761-2.239-5-5-5zm0 60h-60c-2.761 0-5 2.239-5 5v30c0 2.761 2.239 5 5 5h60c2.761 0 5-2.239 5-5v-30c0-2.761-2.239-5-5-5zm-90 60h-60c-2.761 0-5 2.239-5 5v30c0 2.761 2.239 5 5 5h60c2.761 0 5-2.239 5-5v-30c0-2.761-2.239-5-5-5z" fill="#ea5569"/><path d="m332.802 127.521-42.809-17.124c-.65-.26-1.358-.345-2.051-.246l-67.429 9.633c-.974.139-1.966-.086-2.784-.632l-27.613-18.409c-.724-.483-1.585-.716-2.454-.665l-163.775 9.634c-2.525.149-4.552-2.055-4.195-4.559l8.817-61.719c.282-1.97 1.97-3.434 3.96-3.434h292.951c2.038 0 3.75 1.533 3.976 3.558l8.867 79.807c.334 3.003-2.655 5.278-5.461 4.156z" fill="#f9eecf"/><path d="m59 107.647-35.112 2.065c-2.525.148-4.552-2.055-4.195-4.559l8.817-61.719c.281-1.97 1.969-3.434 3.959-3.434h41.531z" fill="#f3d373"/><path d="m59 90h-30c-5.523 0-10-4.477-10-10v-70c0-5.523 4.477-10 10-10h30c5.523 0 10 4.477 10 10v70c0 5.523-4.477 10-10 10z" fill="#d98800"/><path d="m329 90h-270c-5.523 0-10-4.477-10-10v-70c0-5.523 4.477-10 10-10h270c5.523 0 10 4.477 10 10v70c0 5.523-4.477 10-10 10z" fill="#fcb30b"/><path d="m98.712 45c0 8.205-6.651 14.856-14.856 14.856s-14.856-6.651-14.856-14.856 6.651-14.856 14.856-14.856 14.856 6.651 14.856 14.856zm195.144-14.856c-8.205 0-14.856 6.651-14.856 14.856s6.651 14.856 14.856 14.856 14.856-6.651 14.856-14.856-6.651-14.856-14.856-14.856z" fill="#c76d36"/><path d="m83.856 30.144c1.97 0 3.851.384 5.571 1.08v27.552c-1.72.696-3.601 1.08-5.571 1.08s-3.851-.384-5.571-1.08v-27.552c1.721-.696 3.601-1.08 5.571-1.08zm210 0c-1.97 0-3.851.384-5.571 1.08v27.552c1.72.696 3.601 1.08 5.571 1.08s3.851-.384 5.571-1.08v-27.552c-1.72-.696-3.601-1.08-5.571-1.08z" fill="#8f4d24"/><path d="m283.921 303.022-30.069-149.424c-1.845-9.169-10.774-15.107-19.944-13.262l-58.109 11.693c-4.585.923-7.553 5.387-6.631 9.972.923 4.585 5.387 7.553 9.972 6.631-4.585.923-7.553 5.387-6.631 9.972s5.387 7.553 9.972 6.631c-4.585.923-7.553 5.387-6.631 9.972.923 4.585 5.387 7.553 9.972 6.631-4.585.923-7.553 5.387-6.631 9.972.922 4.585 5.387 7.553 9.972 6.631-4.585.923-7.553 5.387-6.631 9.972.923 4.585 5.387 7.553 9.972 6.631-4.585.923-7.553 5.387-6.631 9.972.923 4.585 5.387 7.553 9.972 6.631-4.585.923-7.553 5.387-6.631 9.972s5.387 7.553 9.972 6.631c-4.585.923-7.553 5.387-6.631 9.972s5.387 7.553 9.972 6.631c-4.585.923-7.553 5.387-6.631 9.972s5.387 7.553 9.971 6.631c-4.584.923-7.553 5.387-6.63 9.972s5.387 7.553 9.971 6.631c-4.584.923-7.553 5.387-6.63 9.972s5.387 7.553 9.972 6.631l58.109-11.693c9.169-1.849 15.107-10.778 13.262-19.947zm-44.13 8.88 5.391-1.085z" fill="#c76d36"/><path d="m297.421 484.572-42.327-158.474-42.544 8.561c-4.585.923-9.049-2.046-9.972-6.631s2.046-9.049 6.631-9.972l35.972-7.239c9.169-1.845 15.107-10.774 13.262-19.944l-52.575 10.58c-4.585.923-9.049-2.046-9.972-6.631-.922-4.585 2.046-9.049 6.631-9.972l52.575-10.58-3.341-16.603-52.575 10.58c-4.585.923-9.049-2.046-9.972-6.631-.922-4.585 2.046-9.049 6.631-9.972l52.575-10.58-3.341-16.603-52.575 10.58c-4.585.923-9.049-2.046-9.972-6.631-.923-4.585 2.046-9.049 6.631-9.972l52.575-10.58-3.341-16.603-52.575 10.58c-4.585.923-9.049-2.046-9.972-6.631s2.046-9.049 6.631-9.972l52.575-10.58c-1.845-9.169-10.774-15.107-19.944-13.262l-35.973 7.239c-4.585.923-9.049-2.046-9.972-6.631s2.046-9.049 6.631-9.972l58.109-11.693c9.169-1.845 18.099 4.092 19.944 13.262l30.069 149.424v.001c.142.708.238 1.415.29 2.118l24.278 177.204z" fill="#8f4d24"/><path d="m375.368 309.601c1.292 18.197 1.17 36.953-.501 56.05-1.003 11.468-6.177 40.142-12.845 72.575-13.667 7.444-28.122 13.625-43.207 18.386-1.562-41.682-2.002-81.946-.779-95.932 1.671-19.098 4.807-37.59 9.24-55.286 6.769-27.024 46.119-23.581 48.092 4.207z" fill="#d98800"/><path d="m375.368 309.601c1.292 18.197 1.17 36.953-.501 56.05-.916 10.471-5.309 35.287-11.142 64.211-10.49 5.822-21.452 10.897-32.814 15.152.002-30.069.482-54.923 1.459-66.09 2.041-23.322 5.537-45.934 10.317-67.601 2.8-12.692 10.317-20.009 18.601-22.295 7.459 3.291 13.347 10.253 14.08 20.573z" fill="#fcb30b"/><path d="m341.864 263-4.835-55.269-1.67-19.084c-2.14-24.459-23.78-42.617-48.239-40.477s-42.617 23.78-40.477 48.239 23.78 42.617 48.238 40.477l22.913-2.005 2.846 32.529 1.632 61.517 53.987 4.723 13.257-66.482zm-48.859-47.56c-12.634 1.105-23.812-8.274-24.917-20.908s8.274-23.812 20.908-24.917 23.812 8.274 24.917 20.908l1.67 19.084.335 3.828z" fill="#f3d373"/><path d="m493.02 185.606c-7.44-1.994-14.982-1.207-21.518 1.719-5.186-12.165-15.703-21.919-29.438-25.599-23.716-6.355-48.18 7.77-54.535 31.486l-8.739 32.613v.001l-10.578 39.479-26.443-2.313 1.798 67.799 32.691 2.86 11.85-59.426 8.69-32.431 22.217 5.953c23.716 6.355 48.18-7.77 54.534-31.485.067-.249.13-.498.192-.747.208-.48.384-.982.523-1.502 1.536-5.733 7.45-9.147 13.183-7.611 5.742 1.539 11.644-1.869 13.183-7.611s-1.868-11.646-7.61-13.185zm-68.433 41.346-22.217-5.953.995-3.712 4.958-18.505c3.282-12.25 15.919-19.546 28.169-16.264s19.546 15.919 16.263 28.169-15.918 19.548-28.168 16.265zm-89.098-36.816c.509 5.82-3.718 10.984-9.524 11.635-6.009.673-11.394-3.734-11.921-9.758l-.083-.949c-1.115-12.747-12.493-22.683-25.227-21.424-1.807.179-3.545.563-5.194 1.129-6.545 2.245-13.491-2.075-14.261-8.952-.564-5.033 2.462-9.758 7.251-11.405 3.548-1.22 7.311-2.007 11.231-2.294 24.413-1.788 45.537 16.962 47.67 41.348z" fill="#f7e6b0"/><path d="m350.783 313.655c-7.896-.691-13.737-7.652-13.046-15.548s7.652-13.737 15.548-13.046 13.737 7.652 13.046 15.548-7.652 13.737-15.548 13.046z" fill="#fcb30b"/><path d="m347.833 285.632c1.714-.525 3.556-.736 5.452-.57s3.673.693 5.27 1.509l-2.32 26.515c-1.714.525-3.556.736-5.452.57s-3.673-.693-5.27-1.508z" fill="#d98800"/><path d="m425.627 358.611-16.523 79.312c-43.436 39.206-100.982 63.077-164.104 63.077-1.571 0-3.138-.015-4.701-.044l-29.655-142.345c-1.294-6.21 3.447-12.04 9.79-12.04h195.404c6.343 0 11.083 5.83 9.789 12.04z" fill="#c92e43"/><path d="m425.627 358.611-14.218 68.246c-1.56.966-3.218 1.915-4.965 2.847-61.069 32.571-136.322-3.508-150.438-71.265l-2.472-11.867h162.304c6.343-.001 11.083 5.829 9.789 12.039z" fill="#e43950"/><path d="m400.568 186.156-5.123-15.164c-.295-.872-.98-1.557-1.852-1.852l-15.164-5.123c-2.677-.904-2.677-4.69 0-5.594l15.164-5.123c.872-.295 1.557-.98 1.852-1.852l5.123-15.164c.904-2.677 4.69-2.677 5.594 0l5.123 15.164c.295.872.98 1.557 1.852 1.852l15.164 5.123c2.677.904 2.677 4.69 0 5.594l-15.164 5.123c-.872.295-1.557.98-1.852 1.852l-5.123 15.164c-.904 2.677-4.69 2.677-5.594 0zm-175.507 296.481 6.941-20.544c.399-1.182 1.327-2.11 2.509-2.509l20.544-6.941c3.626-1.225 3.626-6.354 0-7.579l-20.544-6.941c-1.182-.399-2.11-1.327-2.509-2.509l-6.941-20.544c-1.225-3.626-6.354-3.626-7.579 0l-6.941 20.544c-.399 1.182-1.327 2.11-2.509 2.509l-20.544 6.941c-3.626 1.225-3.626 6.354 0 7.579l20.544 6.941c1.182.399 2.11 1.327 2.509 2.509l6.941 20.544c1.225 3.626 6.354 3.626 7.579 0z" fill="#fff5f5"/></g></svg>