<svg id="Capa_1" enable-background="new 0 0 501 501" height="512" viewBox="0 0 501 501" width="512" xmlns="http://www.w3.org/2000/svg"><g><path d="m495.5 256c0 135.31-109.69 245-245 245s-245-109.69-245-245 109.69-245 245-245 245 109.69 245 245z" fill="#fda800"/><path d="m250.5 11c5.135 0 10.234.158 15.29.47 79.311 27.869 136.17 103.424 136.17 192.26 0 112.517-91.213 203.73-203.73 203.73-88.836 0-164.391-56.859-192.26-136.169-.312-5.057-.47-10.156-.47-15.291 0-135.31 109.69-245 245-245z" fill="#f5c02c"/><path d="m424.995 370.843c-.071.101-.143.203-.214.304-6.602 9.351-19.885 10.833-28.311 3.086l-147.646-135.745-28.736 12.315c-15.005 6.431-32.059 4.157-44.75-5.386-2.372-1.784-.813-11.969-2.838-14.251l-11.018-12.416c-2.89-3.257-9.521 1.603-12.335-1.715-5.776-6.809-11.392-13.746-16.844-20.804-2.248-2.91-1.611-9.613-3.803-12.564-7.893-10.628-15.422-21.519-22.573-32.654-.998-1.554-4.844.661-5.827-.902-12.245-19.47-23.346-39.669-33.235-60.497-7.238-15.243-5.335-33.255 4.927-46.651l31.225-40.76c2.148-2.805 327.086 361.382 321.978 368.64z" fill="#528ed7"/><path d="m424.995 370.843c-.071.101-.143.203-.214.304-6.602 9.351-19.885 10.833-28.311 3.086l-147.646-135.745-52.196-57.907-21.295 64.832c-2.37-1.783-4.588-3.819-6.611-6.099l-11.018-12.416c-2.891-3.258-5.744-6.547-8.56-9.866l21.457-65.326-17.351-19.25-20.948 63.774c-11.471-14.851-22.216-30.241-32.201-46.116l18.446-56.157-.191-.212-46.201-51.257 30.861-40.284c2.149-2.806 6.323-2.956 8.669-.313l27.08 30.513 1.484 11.721 24.865 28.018 8.208-.8 17.276 19.466 15.402 27.473 10.521 1.736 55.134 62.125 151.755 165.059c6.006 6.532 6.693 16.383 1.585 23.641z" fill="#81ade2"/><path d="m173.324 71.344-20.074 61.113-34.703-38.5 20.218-61.553zm17.279 19.47-14.31 43.566-5.691 17.326 26.027 28.875 6.299-19.178 13.594-41.385z" fill="#bbe0fb"/><path d="m390.612 246.02c15.131 15.131 15.131 39.751 0 54.882l-194.124 194.124c-27.937-6.286-54.068-17.344-77.491-32.273l216.732-216.733c15.131-15.13 39.752-15.13 54.883 0z" fill="#9d5528"/><path d="m390.612 300.903-136.603 136.602c-15.131 15.131-39.751 15.131-54.882 0s-15.131-39.751 0-54.882l136.605-136.605c15.131-15.129 39.75-15.128 54.88.002 15.13 15.131 15.13 39.752 0 54.883z" fill="#ab5e2e"/><path d="m398.452 238.18c19.485 19.485 19.485 51.077 0 70.563l-188.858 188.857c-8.705-1.463-17.253-3.385-25.621-5.74l198.798-198.798c10.808-10.808 10.808-28.394 0-39.201-10.808-10.808-28.394-10.808-39.201 0l-214.804 214.803c-6.584-3.777-12.976-7.851-19.157-12.204l218.28-218.28c19.486-19.485 51.078-19.485 70.563 0z" fill="#8f4d24"/><path d="m398.452 308.743-101.983 101.982c-4.33 4.33-11.351 4.33-15.681 0-4.33-4.33-4.33-11.351 0-15.681l101.983-101.983c11.005-11.005 10.804-29.037-.602-39.786-10.977-10.344-28.351-9.664-39.016 1.002l-59.066 59.066c-4.33 4.33-11.351 4.33-15.681 0-4.33-4.33-4.33-11.351 0-15.681l59.971-59.971c19.347-19.347 50.355-19.688 70.023-.666 20.092 19.432 20.85 50.038.052 71.718z" fill="#c76d36"/><path d="m363.5 293c0 11.046-8.954 20-20 20s-20-8.954-20-20 8.954-20 20-20 20 8.954 20 20z" fill="#968dca"/><path d="m336 274.454c2.316-.938 4.848-1.454 7.5-1.454s5.184.517 7.5 1.454v37.092c-2.316.938-4.848 1.454-7.5 1.454s-5.184-.517-7.5-1.454z" fill="#6e61b5"/><path d="m372.76 165.734-5.123-15.164c-.295-.872-.98-1.557-1.852-1.852l-15.164-5.123c-2.677-.904-2.677-4.69 0-5.594l15.164-5.123c.872-.295 1.557-.98 1.852-1.852l5.123-15.164c.904-2.677 4.69-2.677 5.594 0l5.123 15.164c.295.872.98 1.557 1.852 1.852l15.164 5.123c2.677.904 2.677 4.69 0 5.594l-15.164 5.123c-.872.295-1.557.98-1.852 1.852l-5.123 15.164c-.904 2.677-4.69 2.677-5.594 0zm-152.449-13.669 6.941-20.544c.399-1.182 1.327-2.11 2.509-2.509l20.544-6.941c3.626-1.225 3.626-6.354 0-7.579l-20.544-6.941c-1.182-.399-2.11-1.327-2.509-2.509l-6.941-20.544c-1.225-3.626-6.354-3.626-7.579 0l-6.941 20.544c-.399 1.182-1.327 2.11-2.509 2.509l-20.544 6.941c-3.626 1.225-3.626 6.354 0 7.579l20.544 6.941c1.182.399 2.11 1.327 2.509 2.509l6.941 20.544c1.225 3.626 6.354 3.626 7.579 0z" fill="#fff5f5"/></g></svg>