<svg id="Capa_1" enable-background="new 0 0 501 501" height="512" viewBox="0 0 501 501" width="512" xmlns="http://www.w3.org/2000/svg"><g><path d="m5.5 256c0-135.133 109.404-244.713 244.47-244.999 135.893-.288 245.427 108.917 245.53 244.81.087 115.165-79.286 211.806-186.313 238.116-3.711.912-7.577.988-11.328.253-15.323-3.001-31.157-4.574-47.359-4.574-16.201 0-32.034 1.573-47.356 4.573-3.766.738-7.648.654-11.374-.263-106.947-26.312-186.27-122.85-186.27-237.916z" fill="#003c79"/><path d="m232.089 111.573 11.036 62.589-172.024 30.332-6.695-37.969c-2.398-13.597 6.682-26.564 20.279-28.961zm197.248 123.097c-2.397-13.597-15.364-22.677-28.961-20.279l-147.404 25.991 11.036 62.589 172.024-30.332z" fill="#6354b0"/><path d="m325.5 460h-150v-300h150z" fill="#528ed7"/><path d="m325.5 460h-121v-300h121z" fill="#81ade2"/><path d="m325.5 413.48v30l-150 26.52v-30z" fill="#0573cd"/><path d="m204.5 465.017-29 4.983v-30l29-5.127z" fill="#015aad"/><path d="m175.5 386.162 150-26.52v30l-150 26.52zm0-133.162v30l150-26.52v-30z" fill="#e43950"/><path d="m204.5 247.873v30l-29 5.127v-30zm-29 168.289 29-5.127v-30l-29 5.127z" fill="#ab2538"/><path d="m329 78.5c0 43.354-35.146 78.5-78.5 78.5s-78.5-35.146-78.5-78.5 35.146-78.5 78.5-78.5 78.5 35.146 78.5 78.5z" fill="#528ed7"/><path d="m288.569 118.931c-43.354 0-78.5-35.146-78.5-78.5 0-11.835 2.62-23.058 7.31-33.122 10.063-4.69 21.286-7.309 33.121-7.309 43.354 0 78.5 35.146 78.5 78.5 0 11.835-2.619 23.058-7.309 33.121-10.064 4.69-21.287 7.31-33.122 7.31z" fill="#63bcfa"/><path d="m295.965 37.936c15.106 15.106 20.792 33.913 12.7 42.005s-26.899 2.407-42.005-12.7-20.792-33.913-12.7-42.005 26.899-2.406 42.005 12.7z" fill="#bbe0fb"/><path d="m175.5 450h150c0 16.519-5.722 31.701-15.292 43.673-19.111 4.786-39.113 7.327-59.708 7.327s-40.597-2.541-59.708-7.327c-9.57-11.972-15.292-27.154-15.292-43.673z" fill="#d98800"/><path d="m284.478 480.666c-.344 5.315-4.995 9.334-10.321 9.334h-26.552c-4.421 0-6.652 5.302-3.59 8.49.814.847 1.648 1.673 2.503 2.479-19.193-.306-37.85-2.818-55.728-7.296-9.568-11.972-15.29-27.154-15.29-43.673h49c0 6.95 1.013 13.663 2.899 20h47.101c5.743 0 10.355 4.841 9.978 10.666z" fill="#c98001"/><path d="m331.5 160h-162c-8.284 0-15-6.716-15-15 0-8.284 6.716-15 15-15h162c8.284 0 15 6.716 15 15 0 8.284-6.716 15-15 15zm15 295c0-8.284-6.716-15-15-15h-162c-8.284 0-15 6.716-15 15 0 8.284 6.716 15 15 15h162c8.284 0 15-6.716 15-15z" fill="#fcb30b"/><path d="m207.5 160h-38c-8.284 0-15-6.716-15-15s6.716-15 15-15h38c-8.284 0-15 6.716-15 15s6.716 15 15 15zm-15 295c0-8.284 6.716-15 15-15h-38c-8.284 0-15 6.716-15 15s6.716 15 15 15h38c-8.284 0-15-6.716-15-15z" fill="#d98800"/><path d="m66.994 327.812c-1.827-2.383-.475-5.853 2.482-6.373l338.841-59.586c13.827-2.438 23.059-15.623 20.621-29.45l15.766 89.413c2.438 13.827-6.794 27.012-20.621 29.45l-338.849 59.587c-2.955.52-5.409-2.279-4.508-5.141l13.387-42.524zm369.761-197.69c.901-2.864-1.556-5.663-4.512-5.14l-338.787 59.898c-13.827 2.438-27.012-6.794-29.45-20.621l15.766 89.413c2.438 13.827 15.623 23.059 29.45 20.621l338.793-59.899c2.955-.522 4.304-3.991 2.478-6.373l-27.123-35.381z" fill="#f9eecf"/><path d="m132.36 201.083-3.947-22.384 303.829-53.717c2.956-.523 5.413 2.276 4.512 5.14l-13.384 42.518 1.904 2.484-263.463 46.581c-13.827 2.437-27.013-6.795-29.451-20.622zm296.638 31.66h-.002c2.228 13.702-6.966 26.691-20.679 29.109l-288.72 50.772c8.727 11.383 11.358 26.306 7.051 39.987l-6.516 20.698c-.901 2.862 1.553 5.66 4.508 5.141l319.783-56.235c.109-.156.171-.244.28-.4z" fill="#fff5f5"/><path d="m200.351 241.369c3.234-1.919 4.301-6.096 2.382-9.331l-24.427-41.18c-.034-.058-.069-.115-.105-.172-1.709-2.697-4.849-4.079-7.991-3.521-3.145.559-5.614 2.937-6.291 6.058-.011.054-.022.107-.033.161l-9.022 47.075c-.708 3.693 1.713 7.262 5.406 7.969.434.083.865.123 1.29.123 3.201 0 6.055-2.268 6.68-5.529l1.364-7.115 17.737-3.127 3.681 6.206c1.918 3.235 6.094 4.303 9.329 2.383zm-28.005-19.774 2.041-10.65 5.526 9.315zm152.748-8.691-3.902-22.132c-.002-.012-.005-.024-.007-.036-.002-.011-.003-.021-.005-.032l-3.903-22.135c-.654-3.703 1.819-7.235 5.523-7.888l18.681-3.294c3.703-.653 7.236 1.82 7.888 5.523.654 3.704-1.819 7.235-5.523 7.889l-11.975 2.112 1.544 8.755 10.597-1.868c3.699-.653 7.236 1.82 7.888 5.524.654 3.703-1.819 7.235-5.523 7.888l-10.597 1.868 1.544 8.755 11.974-2.112c3.706-.651 7.235 1.82 7.888 5.524.654 3.703-1.819 7.235-5.523 7.888l-18.68 3.294c-.4.07-.798.105-1.191.105-3.243.001-6.116-2.324-6.698-5.628zm-182.965 19.789c-.883-5.008-3.664-9.372-7.829-12.289-.282-.198-.569-.387-.859-.568.995-2.785 1.256-5.793.729-8.784v-.001c-.8-4.541-3.321-8.498-7.099-11.143s-8.358-3.662-12.9-2.86l-12.997 2.292c-3.703.653-6.176 4.185-5.523 7.888l3.629 20.579c.001.008.002.016.004.024l4.257 24.14c.314 1.784 1.326 3.369 2.813 4.404 1.15.802 2.511 1.223 3.893 1.223.403 0 .81-.036 1.212-.109.002 0 11.935-2.159 15.228-2.74 5.008-.883 9.373-3.664 12.289-7.829 2.917-4.167 4.036-9.219 3.153-14.227zm-25.593-22.234c.957-.172 1.926.045 2.724.603.797.559 1.329 1.394 1.498 2.352v.001c.168.958-.045 1.926-.604 2.723s-1.394 1.329-2.353 1.499c-.95.167-2.733.487-4.681.838l-1.607.283-1.268-7.191zm11.284 28.649c-.83 1.186-2.073 1.977-3.498 2.229-1.6.282-5.234.936-8.557 1.535l-1.886-10.694c.508-.091 1.016-.183 1.515-.273l7.046-1.242c1.42-.252 2.862.067 4.049.898 1.186.83 1.977 2.073 2.229 3.499.251 1.424-.068 2.862-.898 4.048zm136.683-40.435c.001.008.002.016.004.024l4.257 24.14c.314 1.784 1.327 3.369 2.813 4.404 1.15.802 2.511 1.223 3.893 1.223.403 0 .809-.036 1.212-.109.002 0 11.935-2.159 15.228-2.74 10.338-1.824 17.266-11.718 15.442-22.056-.976-5.532-4.262-10.087-8.691-12.847.998-2.787 1.26-5.799.732-8.794v-.001c-.8-4.541-3.322-8.498-7.098-11.143-3.778-2.645-8.359-3.661-12.9-2.86l-12.997 2.292c-3.704.653-6.177 4.185-5.523 7.888zm25.042 13.53c-1.601.282-5.234.936-8.557 1.535l-1.886-10.694c.548-.099 1.097-.198 1.634-.294l6.926-1.221c2.943-.524 5.76 1.454 6.279 4.396.518 2.943-1.453 5.759-4.396 6.278zm-7.786-30.877c.957-.171 1.926.045 2.724.603.797.559 1.329 1.394 1.499 2.352v.001c.168.958-.045 1.926-.604 2.723-.559.798-1.394 1.33-2.353 1.499-.946.167-2.719.485-4.657.833l-1.631.288-1.268-7.191zm-31.954 40.286-12.328-9.858c2.114-1.286 3.98-2.972 5.492-4.995 3.1-4.146 4.325-9.163 3.45-14.126s-3.742-9.258-8.073-12.094c-4.181-2.737-9.207-3.764-14.153-2.892l-11.889 2.096c-.003 0-.006.001-.009.002-.002 0-.004.001-.006.001-3.703.653-6.176 4.185-5.523 7.888l7.889 44.743c.583 3.304 3.455 5.628 6.698 5.628.393 0 .791-.034 1.191-.105 3.704-.653 6.177-4.185 5.523-7.888l-1.713-9.717 14.947 11.952c1.256 1.004 2.757 1.492 4.248 1.492 1.998 0 3.978-.876 5.323-2.557 2.347-2.937 1.87-7.222-1.067-9.57zm-23.246-30.553c1.494-.266 3.075.054 4.327.873.668.437 1.831 1.416 2.122 3.065.29 1.649-.468 2.967-.945 3.606-.896 1.198-2.269 2.036-3.768 2.3-1.228.217-3.173.567-5.135.922-.344-1.894-.679-3.758-.887-4.934-.178-1.01-.521-2.929-.878-4.922zm180.178 2.881-12.32-9.852c6.511-3.942 10.294-11.423 8.935-19.127v-.001c-1.783-10.11-11.763-16.834-22.226-14.985l-11.886 2.096c-.006.001-.012.002-.018.003-3.703.653-6.176 4.185-5.523 7.888l7.889 44.743c.583 3.304 3.455 5.628 6.698 5.628.393 0 .791-.034 1.191-.105 3.704-.653 6.177-4.185 5.523-7.888l-1.713-9.716 14.945 11.951c1.255 1.004 2.757 1.492 4.248 1.492 1.998 0 3.977-.876 5.322-2.557 2.349-2.936 1.872-7.221-1.065-9.57zm-23.245-30.552c3.018-.534 5.978 1.27 6.448 3.939.47 2.667-1.688 5.372-4.713 5.905-1.228.216-3.173.567-5.135.922-.344-1.895-.68-3.759-.888-4.935-.178-1.01-.521-2.928-.878-4.92zm-137.181 195.411c.653 3.703-1.819 7.235-5.523 7.888-.4.07-.798.105-1.191.105-3.242 0-6.115-2.325-6.698-5.628l-2.897-16.432-17.551 3.095 2.897 16.433c.653 3.703-1.819 7.235-5.523 7.888-.4.07-.798.105-1.191.105-3.242 0-6.115-2.325-6.698-5.628l-4.074-23.106c-.002-.011-.004-.022-.006-.032s-.003-.02-.005-.029l-3.804-21.575c-.653-3.703 1.819-7.235 5.523-7.888 3.699-.651 7.236 1.82 7.888 5.524l2.627 14.898 17.551-3.095-2.627-14.898c-.653-3.703 1.819-7.235 5.523-7.888 3.698-.653 7.235 1.82 7.888 5.524zm-60.991 1.971c-.02 9.099-7.27 16.979-17.239 18.737-1.725.304-3.455.453-5.167.453-6.207 0-12.189-1.966-16.953-5.663-2.971-2.306-3.51-6.584-1.204-9.554 2.307-2.971 6.586-3.509 9.554-1.204 3.003 2.331 7.271 3.286 11.403 2.556 4.077-.719 5.982-3.62 5.986-5.354.004-2.105-3.102-3.417-6.011-3.942-7.427-1.343-14.107-3.008-14.388-3.078-.347-.087-.689-.202-1.02-.343-5.669-2.418-9.313-7.769-9.512-13.962-.21-6.572 3.54-12.612 9.786-15.762 12.116-6.11 24.152.704 24.659.997 3.255 1.883 4.368 6.049 2.484 9.304-1.875 3.239-6.009 4.355-9.256 2.512-.209-.114-6.354-3.379-11.756-.654-2.138 1.079-2.325 2.574-2.305 3.167.014.448.158 1.216.911 1.696 1.85.447 7.173 1.7 12.819 2.721 12.711 2.297 17.223 10.481 17.209 17.373zm181.325-56.305c-1.88-10.659-12.199-17.785-22.989-15.88l-12.459 2.197c-.056.01-.113.021-.168.032-.051.01-.1.021-.15.032-.004.001-.009.002-.013.003-1.708.388-3.13 1.396-4.069 2.742v.001c-.032.045-.063.091-.094.138-.003.005-.007.01-.01.015-.028.042-.055.084-.081.126-.003.004-.006.009-.008.013-.057.091-.112.184-.165.278 0 .001-.001.002-.001.003-.614 1.097-.929 2.368-.856 3.688v.004c.003.053.006.105.01.158.001.013.002.026.003.038.003.04.007.08.011.12.003.031.007.061.01.092.003.024.005.048.008.072.006.048.013.095.02.143.001.007.002.014.003.021.01.064.02.128.031.192 0 0 .004.02.01.057l7.876 44.664c.583 3.304 3.455 5.628 6.698 5.628.393 0 .791-.034 1.191-.105 3.703-.653 6.176-4.185 5.523-7.888l-2.251-12.765c2.176-.394 4.386-.793 5.75-1.033 10.794-1.904 18.048-12.125 16.17-22.786 0 .001 0 .001 0 0zm-18.536 9.374c-1.353.239-3.538.633-5.699 1.024-.407-2.25-.82-4.54-1.067-5.937-.211-1.193-.633-3.555-1.056-5.917l5.733-1.011c3.347-.588 6.647 1.623 7.213 4.833.566 3.209-1.781 6.418-5.124 7.008zm-44.272-9.451c-6.459-4.523-14.294-6.261-22.063-4.892-16.033 2.828-26.777 18.172-23.95 34.205 1.369 7.767 5.682 14.536 12.142 19.059 5.02 3.515 10.869 5.347 16.873 5.347 1.722 0 3.458-.151 5.19-.456 7.766-1.369 14.535-5.682 19.059-12.142s6.26-14.295 4.891-22.062c-1.37-7.766-5.682-14.535-12.142-19.059zm-3.906 33.311c-2.436 3.48-6.083 5.803-10.268 6.541-4.181.74-8.406-.198-11.886-2.635s-5.804-6.084-6.542-10.268c-1.522-8.638 4.266-16.905 12.904-18.428.933-.164 1.867-.246 2.795-.246 3.234 0 6.386.988 9.091 2.881 3.48 2.437 5.804 6.084 6.542 10.268.738 4.185-.199 8.406-2.636 11.887z" fill="#ab2538"/><path d="m351.812 188.112-30.15 5.331-.471-2.67c-.002-.012-.005-.024-.007-.036-.002-.011-.003-.021-.005-.032l-3.903-22.135c-.654-3.703 1.819-7.235 5.523-7.888l18.681-3.294c3.703-.653 7.236 1.82 7.888 5.523.654 3.704-1.819 7.235-5.523 7.889l-11.975 2.112 1.544 8.755 10.597-1.868c3.699-.653 7.236 1.82 7.888 5.524.17.956.129 1.901-.087 2.789zm-121.279 120.42c-3.704.653-6.176 4.185-5.523 7.888l2.627 14.898-17.551 3.095-2.627-14.898c-.653-3.703-4.189-6.175-7.888-5.524-3.704.653-6.176 4.185-5.523 7.888l3.804 21.575c.002.01.003.02.005.029.002.011.004.022.006.032l3.772 21.394 13.413-2.359-2.597-14.726 17.551-3.095 2.598 14.734 13.413-2.359-7.591-43.051c-.654-3.701-4.191-6.174-7.889-5.521zm136.112-4.066c1.879 10.66-5.376 20.88-16.171 22.784-1.363.24-3.574.639-5.75 1.033l1.961 11.119-13.413 2.359-7.585-43.012c-.007-.037-.01-.057-.01-.057-.011-.064-.022-.128-.031-.192-.001-.007-.002-.014-.003-.021-.007-.048-.014-.095-.02-.143-.003-.024-.006-.048-.008-.072-.004-.031-.007-.061-.01-.092-.004-.04-.008-.08-.011-.12-.001-.013-.002-.026-.003-.038-.004-.053-.007-.105-.01-.158 0-.001 0-.002 0-.004-.073-1.32.242-2.591.856-3.688 0-.001.001-.002.001-.003.053-.094.108-.187.165-.278.003-.004.006-.009.008-.013.027-.042.054-.084.081-.126.003-.005.007-.01.01-.015.031-.046.062-.092.094-.138v-.001c.939-1.346 2.361-2.354 4.069-2.742.004-.001.009-.002.013-.003.05-.011.1-.022.15-.032.056-.011.112-.022.168-.032l12.459-2.197c10.79-1.903 21.11 5.222 22.99 15.882zm-13.412 2.364c-.566-3.209-3.866-5.421-7.213-4.833l-5.733 1.011c.423 2.362.845 4.724 1.056 5.917.247 1.397.66 3.688 1.067 5.937 2.162-.391 4.346-.786 5.699-1.024 3.343-.589 5.69-3.798 5.124-7.008zm-185.121 36.567c-5.646-1.021-10.969-2.274-12.819-2.721-.753-.48-.896-1.248-.911-1.696-.02-.593.168-2.089 2.305-3.167 5.402-2.725 11.547.54 11.756.654 3.247 1.843 7.38.727 9.256-2.512 1.883-3.255.771-7.421-2.484-9.304-.507-.293-12.543-7.108-24.659-.997-6.246 3.15-9.996 9.19-9.786 15.762.199 6.194 3.843 11.544 9.512 13.962.331.141.672.255 1.02.343.281.07 6.962 1.735 14.388 3.078 2.909.526 6.016 1.838 6.011 3.942-.004 1.734-1.909 4.636-5.986 5.354-4.132.73-8.4-.225-11.403-2.556-2.968-2.305-7.247-1.767-9.554 1.204-2.306 2.971-1.767 7.248 1.204 9.554.143.111.286.22.431.327l37.286-6.557c1.055-2.262 1.636-4.732 1.641-7.298.014-6.891-4.498-15.075-17.208-17.372zm92.763-165.303c-.654-3.703 1.819-7.235 5.523-7.888l12.997-2.292c4.541-.802 9.122.215 12.9 2.86 3.777 2.645 6.299 6.602 7.098 11.143v.001c.528 2.995.266 6.007-.732 8.794 2.339 1.458 4.36 3.417 5.889 5.755l-39.214 6.933-.829-4.703c-.001-.008-.003-.016-.004-.024zm14.594 4.341 1.268 7.191 1.631-.288c1.939-.349 3.711-.667 4.657-.833.959-.169 1.795-.701 2.353-1.499.559-.797.772-1.765.604-2.723v-.001c-.169-.958-.701-1.793-1.499-2.352-.798-.558-1.767-.774-2.724-.603zm-97.269 8.252c-1.709-2.697-4.849-4.079-7.991-3.521-3.145.559-5.614 2.937-6.291 6.058-.011.054-.022.107-.033.161l-5.499 28.689c1.133-.046 2.276-.167 3.423-.369l10.883-1.924 1.693-8.834 4.582 7.725 14.331-2.534-14.994-25.277c-.032-.06-.067-.117-.104-.174zm221.264-11-31.311 5.536-4.454-25.26c-.654-3.703 1.819-7.235 5.523-7.888l.018-.003 11.886-2.096c10.462-1.85 20.442 4.875 22.226 14.985v.001c.952 5.398-.621 10.686-3.888 14.725zm-9.524-12.36c-.471-2.669-3.43-4.473-6.448-3.939l-5.165.911c.357 1.992.699 3.91.878 4.92.208 1.176.543 3.041.888 4.935 1.961-.355 3.906-.705 5.135-.922 3.024-.533 5.182-3.238 4.712-5.905zm-73.962 156.121c1.37 7.767-.367 15.602-4.891 22.062-.041.059-.083.117-.124.175l-40.845 7.183c-.051-.035-.103-.071-.154-.107-6.46-4.524-10.773-11.292-12.142-19.059-2.827-16.033 7.917-31.377 23.95-34.205 7.769-1.369 15.604.368 22.063 4.892 6.462 4.523 10.774 11.292 12.143 19.059zm-13.411 2.364c-.738-4.185-3.062-7.831-6.542-10.268-2.704-1.893-5.857-2.881-9.091-2.881-.928 0-1.863.082-2.795.246-8.639 1.523-14.427 9.79-12.904 18.428.738 4.185 3.062 7.831 6.542 10.268 3.481 2.437 7.706 3.375 11.886 2.635 4.185-.738 7.832-3.061 10.268-6.541 2.437-3.481 3.374-7.702 2.636-11.887zm-56.148-133.179c.875 4.963-.35 9.98-3.45 14.126-.176.236-.357.467-.543.693l-31.193 5.515-4.467-25.332c-.654-3.703 1.819-7.235 5.523-7.888.002 0 .004-.001.006-.001.003-.001.006-.001.009-.002l11.889-2.096c4.946-.872 9.971.155 14.153 2.892 4.331 2.835 7.197 7.13 8.073 12.093zm-13.412 2.364c-.291-1.648-1.454-2.628-2.122-3.065-1.252-.82-2.833-1.139-4.327-.873l-5.164.91c.357 1.993.699 3.912.878 4.922.208 1.176.543 3.04.887 4.934 1.961-.355 3.906-.705 5.135-.922 1.499-.264 2.872-1.103 3.768-2.3.477-.639 1.235-1.957.945-3.606z" fill="#c92e43"/><path d="m124.148 357.269c0 5.014-4.065 9.079-9.079 9.079s-9.079-4.065-9.079-9.079 4.065-9.079 9.079-9.079 9.079 4.065 9.079 9.079zm274.32-58.873c-5.014 0-9.079 4.065-9.079 9.079s4.065 9.079 9.079 9.079 9.079-4.065 9.079-9.079-4.065-9.079-9.079-9.079z" fill="#db8658"/><path d="m114.207 160.287-6.941-20.544c-.399-1.182-1.327-2.11-2.509-2.509l-20.544-6.941c-3.626-1.225-3.626-6.354 0-7.579l20.544-6.941c1.182-.399 2.11-1.327 2.509-2.509l6.941-20.544c1.225-3.626 6.354-3.626 7.579 0l6.941 20.544c.399 1.182 1.327 2.11 2.509 2.509l20.544 6.941c3.626 1.225 3.626 6.354 0 7.579l-20.544 6.941c-1.182.399-2.11 1.327-2.509 2.509l-6.941 20.544c-1.225 3.626-6.354 3.626-7.579 0zm214.159 271.553 5.123-15.164c.295-.872.98-1.557 1.852-1.852l15.164-5.123c2.677-.904 2.677-4.69 0-5.594l-15.164-5.123c-.872-.295-1.557-.98-1.852-1.852l-5.123-15.164c-.904-2.677-4.69-2.677-5.594 0l-5.123 15.164c-.295.872-.98 1.557-1.852 1.852l-15.164 5.123c-2.677.904-2.677 4.69 0 5.594l15.164 5.123c.872.295 1.557.98 1.852 1.852l5.123 15.164c.904 2.677 4.69 2.677 5.594 0z" fill="#fff5f5"/></g></svg>