<svg id="Capa_1" enable-background="new 0 0 501 501" height="512" viewBox="0 0 501 501" width="512" xmlns="http://www.w3.org/2000/svg"><g><path d="m0 256c0-135.309 109.69-245 244.999-245 135.134 0 245.218 110.268 245.001 245.402-.145 90.159-48.989 168.897-121.633 211.318-8.858 5.173-19.614 5.791-29.081 1.84-29.022-12.111-60.873-18.8-94.285-18.8-33.169 0-64.798 6.592-93.65 18.536-10.093 4.178-21.577 3.247-30.977-2.317-72.057-42.657-120.374-121.175-120.374-210.979z" fill="#463b83"/><path d="m383.4 53.998c26.706 32.268 42.756 73.676 42.756 118.833 0 103.001-83.499 186.5-186.5 186.5s-186.5-83.499-186.5-186.5c0-36.723 10.615-70.967 28.942-99.831 43.293-38.566 100.36-62 162.901-62 51.298 0 98.986 15.89 138.401 42.998z" fill="#54469b"/><path d="m283.531 49.339v122.148c0 11.046-8.954 20-20 20h-36.305c-11.046 0-20-8.954-20-20v-122.148c0-11.045 8.954-20 20-20h36.305c11.046 0 20 8.955 20 20z" fill="#fcb30b"/><path d="m283.531 49.339v122.148c0 11.046-8.954 20-20 20h-3.875c-11.046 0-20-8.954-20-20v-122.148c0-11.045 8.954-20 20-20h3.875c11.046 0 20 8.955 20 20z" fill="#f1ca50"/><path d="m258.982 135.183v104.025c0 11.045-8.954 20-20 20h-30.832c-11.046 0-20-8.955-20-20v-104.025c0-11.046 8.954-20 20-20h30.832c11.046 0 20 8.954 20 20z" fill="#d98800"/><path d="m302.607 135.183v3.845c0 11.045-8.954 20-20 20h-43.561c-11.046 0-20-8.955-20-20v-3.845c0-11.046 8.954-20 20-20h43.561c11.046 0 20 8.954 20 20z" fill="#fc9302"/><path d="m414.404 382.169-6.941-20.544c-.399-1.182-1.327-2.11-2.509-2.509l-20.544-6.941c-3.626-1.225-3.626-6.354 0-7.579l20.544-6.941c1.182-.399 2.11-1.327 2.509-2.509l6.941-20.544c1.225-3.626 6.354-3.626 7.579 0l6.941 20.544c.399 1.182 1.327 2.11 2.509 2.509l20.544 6.941c3.626 1.225 3.626 6.354 0 7.579l-20.544 6.941c-1.182.399-2.11 1.327-2.509 2.509l-6.941 20.544c-1.225 3.626-6.354 3.626-7.579 0z" fill="#fcb30b"/><path d="m418.193 312.621c0 95.443-77.372 172.815-172.815 172.815s-172.814-77.372-172.814-172.815c0-69.609 41.156-129.606 100.463-156.985-.091-.754-.138-1.522-.138-2.301 0-10.536 8.541-19.076 19.076-19.076h106.827c10.535 0 19.076 8.541 19.076 19.076 0 .779-.047 1.547-.138 2.301 59.307 27.379 100.463 87.376 100.463 156.985z" fill="#c92e43"/><path d="m418.193 312.621c0 83.05-58.584 152.417-136.681 169.031-78.097-16.614-136.681-85.98-136.681-169.031 0-74.983 47.756-138.813 114.512-162.732 14.31-5.127 30.028-5.127 44.338 0 66.757 23.92 114.512 87.749 114.512 162.732z" fill="#e43950"/><path d="m434.5 214.898c0 4.142-3.357 7.5-7.5 7.5-45.926 0-83.289-37.363-83.289-83.289 0-42.298-34.412-76.711-76.711-76.711-4.143 0-7.5-3.358-7.5-7.5s3.357-7.5 7.5-7.5c50.569 0 91.711 41.141 91.711 91.711 0 37.655 30.635 68.289 68.289 68.289 4.143 0 7.5 3.358 7.5 7.5z" fill="#d98800"/><path d="m493.435 282.158c-18.245 24.058-63.712 20.295-101.555-8.403-37.842-28.699-53.729-71.466-35.484-95.524s63.712-20.295 101.555 8.403c37.841 28.699 53.728 71.466 35.484 95.524z" fill="#fcb30b"/><path d="m493.615 281.918c-24.598-1.788-52.621-12.572-78.046-31.853-29.137-22.097-48.447-50.49-54.764-76.652 20.422-18.559 62.061-13.386 97.145 13.221 37.717 28.603 53.624 71.183 35.665 95.284z" fill="#f1ca50"/><path d="m270.178 286.868c15.803 0 28.614 12.811 28.614 28.614 0 15.804-12.811 28.615-28.614 28.615-15.803 0-28.614-12.811-28.614-28.615 0 15.804-12.811 28.615-28.614 28.615-15.803 0-28.614-12.811-28.614-28.615 0-15.803 12.811-28.614 28.614-28.614-15.803 0-28.614-12.811-28.614-28.614 0-15.803 12.811-28.614 28.614-28.614 15.803 0 28.614 12.811 28.614 28.614 0-15.803 12.811-28.614 28.614-28.614 15.803 0 28.614 12.811 28.614 28.614 0 15.803-12.811 28.614-28.614 28.614z" fill="#fc9302"/><path d="m298.792 258.254c0 15.803-12.811 28.614-28.614 28.614h-28.614v-21.411c0 6.885-6.47 11.937-13.149 10.267-19.33-4.833-31.576-23.458-28.868-42.757 3.986-2.117 8.532-3.32 13.358-3.327 15.766-.024 28.66 13.466 28.66 29.232v-.618c0-15.803 12.811-28.614 28.614-28.614 15.802 0 28.613 12.811 28.613 28.614zm-44.079 39.759c-6.679-1.67-13.149 3.382-13.149 10.267v-21.412h-28.614c-15.803 0-28.614 12.811-28.614 28.614 0 15.804 12.811 28.615 28.614 28.615 15.803 0 28.614-12.811 28.614-28.615v-.617c0 15.766 12.894 29.256 28.659 29.232 4.826-.007 9.372-1.21 13.358-3.327 2.708-19.299-9.539-37.924-28.868-42.757z" fill="#f4aa39"/><path d="m184.335 315.531c.008 4.825 1.211 9.37 3.327 13.355 19.299 2.708 37.924-9.539 42.757-28.868 1.67-6.679-3.382-13.149-10.267-13.149h-6.586c-15.767-.001-29.257 12.895-29.231 28.662z" fill="#f1ca50"/><path d="m295.465 244.851c-19.299-2.708-37.924 9.539-42.757 28.868-1.67 6.679 3.382 13.149 10.267 13.149h6.585c15.766 0 29.256-12.894 29.232-28.659-.007-4.826-1.21-9.372-3.327-13.358z" fill="#f3d373"/><path d="m369 460v7.348c-36.373 21.387-78.754 33.652-124 33.652-46.078 0-89.184-12.72-126-34.841v-6.159c0-5.523 4.477-10 10-10h230c5.523 0 10 4.477 10 10z" fill="#d98800"/><path d="m328.982 486.227c-26.195 9.558-54.48 14.773-83.982 14.773-8.762 0-17.417-.46-25.942-1.357-14.138-5.404-23.058-13.315-23.058-22.13 0-12.537 18.044-23.247 43.486-27.513h49.028c25.442 4.266 43.486 14.976 43.486 27.513 0 3.033-1.057 5.96-3.018 8.714z" fill="#fc9302"/><path d="m366 458.026h-244c-5.523 0-10-4.477-10-10 0-5.523 4.477-10 10-10h244c5.523 0 10 4.477 10 10 0 5.523-4.477 10-10 10z" fill="#f1ca50"/><path d="m324.5 458.026h-92c-5.523 0-10-4.477-10-10 0-5.523 4.477-10 10-10h92c5.523 0 10 4.477 10 10 0 5.523-4.477 10-10 10z" fill="#f3d373"/><path d="m480.5 254.5c-3.595 3.031-9.639 3.143-14 1-7.173-3.524-7.533-11.996-12.5-28-7.248-23.351-13.941-29.343-11.5-31.5 4.616-4.079 33.649 12.862 40 38 .937 3.71 3.918 15.51-2 20.5z" fill="#f7e6b0"/><path d="m364.123 283.833-5.123-15.163c-.295-.872-.98-1.557-1.852-1.852l-15.164-5.123c-2.677-.904-2.677-4.69 0-5.594l15.164-5.123c.872-.295 1.557-.98 1.852-1.852l5.123-15.164c.904-2.677 4.69-2.677 5.594 0l5.123 15.164c.295.872.98 1.557 1.852 1.852l15.164 5.123c2.677.904 2.677 4.69 0 5.594l-15.164 5.123c-.872.295-1.557.98-1.852 1.852l-5.123 15.164c-.904 2.676-4.69 2.676-5.594-.001zm-270.064 13.191 6.941-20.544c.399-1.182 1.327-2.11 2.509-2.509l20.544-6.941c3.626-1.225 3.626-6.354 0-7.579l-20.544-6.941c-1.182-.399-2.11-1.327-2.509-2.509l-6.941-20.544c-1.225-3.626-6.354-3.626-7.579 0l-6.941 20.543c-.399 1.182-1.327 2.11-2.509 2.509l-20.544 6.941c-3.626 1.225-3.626 6.354 0 7.579l20.544 6.941c1.182.399 2.11 1.327 2.509 2.509l6.941 20.544c1.225 3.627 6.354 3.627 7.579.001z" fill="#fff5f5"/><path d="m186 68.75c0 4.142-3.357 7.5-7.5 7.5h-82c-4.143 0-7.5-3.358-7.5-7.5s3.357-7.5 7.5-7.5h82c4.143 0 7.5 3.358 7.5 7.5zm-7.5 22.5h-50c-20.678 0-37.5 16.822-37.5 37.5 0 15.164 12.337 27.5 27.5 27.5 4.143 0 7.5-3.358 7.5-7.5s-3.357-7.5-7.5-7.5c-6.893 0-12.5-5.607-12.5-12.5 0-12.407 10.094-22.5 22.5-22.5h50c4.143 0 7.5-3.358 7.5-7.5s-3.357-7.5-7.5-7.5zm-31.25-45h31.25c4.143 0 7.5-3.358 7.5-7.5s-3.357-7.5-7.5-7.5h-31.25c-6.203 0-11.25-5.047-11.25-11.25 0-2.757 2.243-5 5-5 4.143 0 7.5-3.358 7.5-7.5s-3.357-7.5-7.5-7.5c-11.028 0-20 8.972-20 20 0 14.474 11.775 26.25 26.25 26.25z" fill="#02c6dc"/></g></svg>