<svg id="Capa_1" enable-background="new 0 0 501 501" height="512" viewBox="0 0 501 501" width="512" xmlns="http://www.w3.org/2000/svg"><g><path d="m498.803 288.95c-15.131 112.564-106.701 200.903-220.763 211.072-.397.035-.958-1.666-1.355-1.632-2.296.193-4.6.355-6.914.485-.561.031-.957 1.796-1.519 1.824-4.058.2-8.142.301-12.249.301-134.26.001-245.004-110.743-245.003-245.003.001-123.653 91.608-225.91 210.658-242.609 5.334-.748 10.013 3.57 9.717 8.947-.249 4.523-.375 9.079-.375 13.664-.001 135.688 109.313 245.002 245.001 245.001 5.059 0 10.082-.153 15.065-.456 4.65-.282 8.358 3.789 7.737 8.406z" fill="#463b83"/><path d="m501 256c0 11.994-.862 23.786-2.527 35.319-34.558 64.674-102.731 108.681-181.183 108.681-113.378 0-205.29-91.912-205.29-205.29 0-78.452 44.007-146.625 108.681-181.182 11.533-1.666 23.325-2.528 35.319-2.528 135.31 0 245 109.69 245 245z" fill="#54469b"/><path d="m327.492 4.698c-.206-4.366-5.566-6.317-8.53-3.105-38.587 41.813-71.083 94.468-93.154 155.107-10.012 27.509-36.529 137.044-50.93 211.637l-10.515 39.242c-8.694 32.447 10.63 65.918 43.077 74.612 13.891 3.722 27.969 2.309 40.211-3.071 3.302 7.803 8.874 14.741 16.486 19.713 1.303.851 2.691 1.469 4.114 1.864 3.28-.162 6.543-.387 9.788-.677 2.563-1.106 4.84-2.951 6.481-5.463 4.448-6.809 2.534-15.935-4.275-20.383-6.379-4.167-8.461-12.475-5.024-19.101.297-.486.587-.976.87-1.472.312-.493.591-.998.837-1.513 2.158-4.033 3.89-8.373 5.124-12.977 8.694-32.447-10.63-65.917-43.077-74.612l-25.563-6.85c35.145-65.04 76.716-149.469 85.739-174.258 22.071-60.635 31.024-121.858 28.341-178.693zm-73.889 426.794c-.672 2.508-1.631 4.863-2.831 7.042-.342.55-.67 1.105-.985 1.664-7.176 11.304-21.124 17.19-34.724 13.546-16.76-4.491-26.742-21.78-22.251-38.54l8.144-30.395 30.396 8.144c16.761 4.49 26.742 21.779 22.251 38.539z" fill="#d98800"/><path d="m299.151 183.395c-7.374 20.261-36.491 80.362-66.072 137.154-6.411 12.308-25.108 5.527-22.144-8.03 14.206-64.984 31.669-134.661 39.369-155.819 19.042-52.316 45.843-98.689 77.621-137.284.617 52.615-8.596 108.541-28.774 163.979zm-61.017 180.883-13.66-3.66c-7.525-2.016-15.318 2.177-17.782 9.568-2.682 8.045 1.968 16.687 10.159 18.881l13.932 3.733c16.769 4.493 27.232 21.594 22.895 38.404-.756 2.929-1.901 5.655-3.366 8.136-4.657 7.888-1.469 18.039 7.034 21.444 6.743 2.7 14.421.066 18.151-6.166 2.958-4.942 5.258-10.391 6.752-16.26 8.259-32.451-11.771-65.414-44.115-74.08z" fill="#fcb30b"/><path d="m479.576 156.782c-56.834-2.682-118.057 6.27-178.697 28.341-24.789 9.023-109.218 50.594-174.258 85.739l-6.85-25.563c-8.694-32.447-42.165-51.771-74.612-43.077s-51.772 42.165-43.077 74.612c8.694 32.447 42.165 51.771 74.612 43.077l39.242-10.515c74.593-14.401 184.128-40.918 211.637-50.93 60.639-22.071 113.293-54.566 155.107-93.154 3.213-2.963 1.262-8.324-3.104-8.53zm-449.044 112.429c-4.491-16.76 5.491-34.049 22.251-38.54s34.049 5.491 38.54 22.251l8.145 30.396-30.395 8.144c-16.761 4.491-34.05-5.491-38.541-22.251z" fill="#f5c02c"/><path d="m439.957 199.879c-11.843 8.401-24.281 16.355-37.273 23.798l-79.557-46.059c18.336-5.704 36.669-10.229 54.863-13.614zm-174.855.866 84.683 49.027c11.19-4.695 22.076-9.751 32.638-15.137l-83.954-48.605c-7.551 2.921-19.173 8.072-33.367 14.715zm-145.109 45.378c-8.69-32.432-41.805-52.447-74.312-44.038-8.387 2.169-15.91 5.989-22.315 11.019-6.964 5.469-7.623 15.776-1.362 22.037 5.32 5.32 13.709 5.667 19.65 1.051 3.25-2.525 7.051-4.45 11.28-5.561 16.858-4.429 34.054 6.112 38.565 22.949l3.445 12.858c2.053 7.662 9.806 12.321 17.536 10.538 8.122-1.874 13.07-10.109 10.913-18.161z" fill="#f5dc90"/><path d="m246.171 265.872c-7.668 7.668-20.1 7.668-27.768 0s-7.668-20.1 0-27.768 20.1-7.668 27.768 0c7.667 7.668 7.667 20.1 0 27.768z" fill="#f19b0b"/><path d="m239.955 233.907c2.259.957 4.375 2.356 6.216 4.197s3.24 3.957 4.197 6.216l-25.749 25.749c-2.259-.957-4.375-2.356-6.216-4.197s-3.24-3.957-4.197-6.216z" fill="#d98800"/><path d="m309.707 160.287-6.941-20.544c-.399-1.182-1.327-2.11-2.509-2.509l-20.544-6.941c-3.626-1.225-3.626-6.354 0-7.579l20.544-6.941c1.182-.399 2.11-1.327 2.509-2.509l6.941-20.544c1.225-3.626 6.354-3.626 7.579 0l6.941 20.544c.399 1.182 1.327 2.11 2.509 2.509l20.544 6.941c3.626 1.225 3.626 6.354 0 7.579l-20.544 6.941c-1.182.399-2.11 1.327-2.509 2.509l-6.941 20.544c-1.225 3.626-6.354 3.626-7.579 0z" fill="#f9eecf"/><path d="m347.431 337.016-5.123-15.164c-.295-.872-.98-1.557-1.852-1.852l-15.164-5.123c-2.677-.904-2.677-4.69 0-5.594l15.164-5.123c.872-.295 1.557-.98 1.852-1.852l5.123-15.164c.904-2.677 4.69-2.677 5.594 0l5.123 15.164c.295.872.98 1.557 1.852 1.852l15.164 5.123c2.677.904 2.677 4.69 0 5.594l-15.164 5.123c-.872.295-1.557.98-1.852 1.852l-5.123 15.164c-.905 2.676-4.69 2.676-5.594 0z" fill="#d98800"/></g></svg>